G04*
G04 #@! TF.GenerationSoftware,Altium Limited,Altium Designer,18.1.9 (240)*
G04*
G04 Layer_Color=8421504*
%FSTAX24Y24*%
%MOIN*%
G70*
G01*
G75*
%ADD19R,0.0354X0.0394*%
G04:AMPARAMS|DCode=20|XSize=35.4mil|YSize=39.4mil|CornerRadius=8.9mil|HoleSize=0mil|Usage=FLASHONLY|Rotation=0.000|XOffset=0mil|YOffset=0mil|HoleType=Round|Shape=RoundedRectangle|*
%AMROUNDEDRECTD20*
21,1,0.0354,0.0217,0,0,0.0*
21,1,0.0177,0.0394,0,0,0.0*
1,1,0.0177,0.0089,-0.0108*
1,1,0.0177,-0.0089,-0.0108*
1,1,0.0177,-0.0089,0.0108*
1,1,0.0177,0.0089,0.0108*
%
%ADD20ROUNDEDRECTD20*%
%ADD21R,0.0394X0.0236*%
%ADD22R,0.0315X0.0315*%
%ADD23R,0.0276X0.0252*%
%ADD24R,0.0276X0.0197*%
G04:AMPARAMS|DCode=25|XSize=35.4mil|YSize=39.4mil|CornerRadius=8.9mil|HoleSize=0mil|Usage=FLASHONLY|Rotation=90.000|XOffset=0mil|YOffset=0mil|HoleType=Round|Shape=RoundedRectangle|*
%AMROUNDEDRECTD25*
21,1,0.0354,0.0217,0,0,90.0*
21,1,0.0177,0.0394,0,0,90.0*
1,1,0.0177,0.0108,0.0089*
1,1,0.0177,0.0108,-0.0089*
1,1,0.0177,-0.0108,-0.0089*
1,1,0.0177,-0.0108,0.0089*
%
%ADD25ROUNDEDRECTD25*%
G04:AMPARAMS|DCode=26|XSize=35.4mil|YSize=31.5mil|CornerRadius=7.9mil|HoleSize=0mil|Usage=FLASHONLY|Rotation=180.000|XOffset=0mil|YOffset=0mil|HoleType=Round|Shape=RoundedRectangle|*
%AMROUNDEDRECTD26*
21,1,0.0354,0.0157,0,0,180.0*
21,1,0.0197,0.0315,0,0,180.0*
1,1,0.0157,-0.0098,0.0079*
1,1,0.0157,0.0098,0.0079*
1,1,0.0157,0.0098,-0.0079*
1,1,0.0157,-0.0098,-0.0079*
%
%ADD26ROUNDEDRECTD26*%
%ADD27O,0.0591X0.0236*%
%ADD28O,0.0748X0.0236*%
%ADD29R,0.0360X0.0480*%
%ADD30O,0.0551X0.0177*%
D19*
X013346Y026339D02*
D03*
X013937D02*
D03*
X013346Y02437D02*
D03*
X013937D02*
D03*
X013346Y023008D02*
D03*
X013937D02*
D03*
X013346Y020669D02*
D03*
X013937D02*
D03*
D20*
X030276Y013701D02*
D03*
X030866D02*
D03*
X032835D02*
D03*
X033425D02*
D03*
X032835Y013031D02*
D03*
X033425D02*
D03*
X013346Y024961D02*
D03*
X013937D02*
D03*
X013346Y025748D02*
D03*
X013937D02*
D03*
X012953Y015331D02*
D03*
X012362D02*
D03*
X013346Y022402D02*
D03*
X013937D02*
D03*
X013346Y021339D02*
D03*
X013937D02*
D03*
X017244Y018858D02*
D03*
X017835D02*
D03*
X030276Y013031D02*
D03*
X030866D02*
D03*
X017835Y02122D02*
D03*
X017244D02*
D03*
X026732Y022795D02*
D03*
X027323D02*
D03*
X017835Y018268D02*
D03*
X017244D02*
D03*
X018524Y02122D02*
D03*
X019114D02*
D03*
X018524Y02063D02*
D03*
X019114D02*
D03*
X018524Y020039D02*
D03*
X019114D02*
D03*
X018524Y019449D02*
D03*
X019114D02*
D03*
X018524Y018858D02*
D03*
X019114D02*
D03*
X018524Y018268D02*
D03*
X019114D02*
D03*
X025453Y018071D02*
D03*
X026043D02*
D03*
D21*
X01689Y019961D02*
D03*
X017835Y020335D02*
D03*
Y019587D02*
D03*
D22*
X036181Y028406D02*
D03*
Y028996D02*
D03*
X036969Y028406D02*
D03*
Y028996D02*
D03*
D23*
X023966Y020327D02*
D03*
Y021327D02*
D03*
X023336Y020327D02*
D03*
Y021327D02*
D03*
X022244Y020327D02*
D03*
Y021327D02*
D03*
X021614Y020327D02*
D03*
Y021327D02*
D03*
X021693Y02599D02*
D03*
Y02499D02*
D03*
X022323Y02599D02*
D03*
Y02499D02*
D03*
X021693Y02297D02*
D03*
Y02197D02*
D03*
X022323Y02297D02*
D03*
Y02197D02*
D03*
X018504Y017587D02*
D03*
Y016587D02*
D03*
X019134Y017587D02*
D03*
Y016587D02*
D03*
Y015012D02*
D03*
Y016012D02*
D03*
X018504Y015012D02*
D03*
Y016012D02*
D03*
X026063Y015799D02*
D03*
Y016799D02*
D03*
X025433Y015799D02*
D03*
Y016799D02*
D03*
D24*
X023966Y020669D02*
D03*
Y020984D02*
D03*
X023336Y020669D02*
D03*
Y020984D02*
D03*
X022244Y020669D02*
D03*
Y020984D02*
D03*
X021614Y020669D02*
D03*
Y020984D02*
D03*
X021693Y025648D02*
D03*
Y025333D02*
D03*
X022323Y025648D02*
D03*
Y025333D02*
D03*
X021693Y022628D02*
D03*
Y022313D02*
D03*
X022323Y022628D02*
D03*
Y022313D02*
D03*
X018504Y017244D02*
D03*
Y016929D02*
D03*
X019134Y017244D02*
D03*
Y016929D02*
D03*
Y015354D02*
D03*
Y015669D02*
D03*
X018504Y015354D02*
D03*
Y015669D02*
D03*
X026063Y016142D02*
D03*
Y016457D02*
D03*
X025433Y016142D02*
D03*
Y016457D02*
D03*
D25*
X036969Y027028D02*
D03*
Y027618D02*
D03*
X036181Y027028D02*
D03*
Y027618D02*
D03*
D26*
X015482Y025226D02*
D03*
X014892D02*
D03*
X027323Y023583D02*
D03*
X026732D02*
D03*
X025453Y019331D02*
D03*
X026043D02*
D03*
D27*
X023307Y023624D02*
D03*
Y023124D02*
D03*
Y022624D02*
D03*
Y022124D02*
D03*
X025433Y023624D02*
D03*
Y023124D02*
D03*
Y022624D02*
D03*
Y022124D02*
D03*
D28*
X016594Y025726D02*
D03*
Y025226D02*
D03*
Y024726D02*
D03*
Y024226D02*
D03*
Y023726D02*
D03*
Y023226D02*
D03*
Y022726D02*
D03*
Y022226D02*
D03*
X020335Y025726D02*
D03*
Y025226D02*
D03*
Y024726D02*
D03*
Y024226D02*
D03*
Y023726D02*
D03*
Y023226D02*
D03*
Y022726D02*
D03*
Y022226D02*
D03*
D29*
X015261Y02122D02*
D03*
X016551D02*
D03*
D30*
X02376Y016014D02*
D03*
Y01627D02*
D03*
Y016526D02*
D03*
Y016782D02*
D03*
Y017037D02*
D03*
Y017293D02*
D03*
Y017549D02*
D03*
Y017805D02*
D03*
Y018061D02*
D03*
Y018317D02*
D03*
Y018573D02*
D03*
Y018829D02*
D03*
Y019085D02*
D03*
Y019341D02*
D03*
X021437Y016014D02*
D03*
Y01627D02*
D03*
Y016526D02*
D03*
Y016782D02*
D03*
Y017037D02*
D03*
Y017293D02*
D03*
Y017549D02*
D03*
Y017805D02*
D03*
Y018061D02*
D03*
Y018317D02*
D03*
Y018573D02*
D03*
Y018829D02*
D03*
Y019085D02*
D03*
Y019341D02*
D03*
M02*
