G04*
G04 #@! TF.GenerationSoftware,Altium Limited,Altium Designer,18.1.9 (240)*
G04*
G04 Layer_Physical_Order=2*
G04 Layer_Color=16711680*
%FSTAX24Y24*%
%MOIN*%
G70*
G01*
G75*
%ADD13C,0.0100*%
%ADD47C,0.0200*%
%ADD48C,0.0400*%
%ADD50C,0.0500*%
%ADD51C,0.0300*%
%ADD53R,0.0600X0.0600*%
%ADD54C,0.0600*%
%ADD55C,0.2047*%
%ADD56R,0.0600X0.0600*%
%ADD57C,0.0240*%
%ADD58C,0.0197*%
%ADD59C,0.0500*%
%ADD60C,0.0240*%
%ADD61R,0.1575X0.1437*%
G36*
X037559Y01D02*
X01D01*
Y029685D01*
X037559D01*
X037559Y01D01*
D02*
G37*
%LPC*%
G36*
X021722Y029107D02*
Y028817D01*
X022012D01*
X022012Y028821D01*
X021971Y028918D01*
X021907Y029002D01*
X021824Y029066D01*
X021726Y029106D01*
X021722Y029107D01*
D02*
G37*
G36*
X029722D02*
Y028817D01*
X030012D01*
X030012Y028821D01*
X029971Y028918D01*
X029907Y029002D01*
X029824Y029066D01*
X029726Y029106D01*
X029722Y029107D01*
D02*
G37*
G36*
X014722D02*
Y028817D01*
X015012D01*
X015012Y028821D01*
X014971Y028918D01*
X014907Y029002D01*
X014824Y029066D01*
X014726Y029106D01*
X014722Y029107D01*
D02*
G37*
G36*
X014522D02*
X014518Y029106D01*
X01442Y029066D01*
X014337Y029002D01*
X014273Y028918D01*
X014232Y028821D01*
X014232Y028817D01*
X014522D01*
Y029107D01*
D02*
G37*
G36*
X021522D02*
X021518Y029106D01*
X02142Y029066D01*
X021337Y029002D01*
X021273Y028918D01*
X021232Y028821D01*
X021232Y028817D01*
X021522D01*
Y029107D01*
D02*
G37*
G36*
X029522D02*
X029518Y029106D01*
X02942Y029066D01*
X029337Y029002D01*
X029273Y028918D01*
X029232Y028821D01*
X029232Y028817D01*
X029522D01*
Y029107D01*
D02*
G37*
G36*
X033982Y029077D02*
X033262D01*
Y028357D01*
X033982D01*
Y029077D01*
D02*
G37*
G36*
X032622Y02908D02*
X032528Y029067D01*
X03244Y029031D01*
X032365Y028973D01*
X032308Y028898D01*
X032271Y028811D01*
X032259Y028717D01*
X032271Y028623D01*
X0323Y028553D01*
X032133Y028386D01*
X032108Y028349D01*
X0321Y028307D01*
X0321Y028307D01*
Y027547D01*
X0321Y027547D01*
X032108Y027504D01*
X032133Y027467D01*
X032289Y027311D01*
Y021953D01*
X032272Y021941D01*
X032232Y021881D01*
X032218Y021811D01*
X032232Y021741D01*
X032272Y021681D01*
X032289Y021669D01*
Y017149D01*
X032272Y017138D01*
X032232Y017078D01*
X032218Y017008D01*
X032232Y016938D01*
X032272Y016878D01*
X032331Y016838D01*
X032402Y016824D01*
X032472Y016838D01*
X032531Y016878D01*
X032571Y016938D01*
X032585Y017008D01*
X032571Y017078D01*
X032531Y017138D01*
X032514Y017149D01*
Y021669D01*
X032531Y021681D01*
X032571Y021741D01*
X032585Y021811D01*
X032571Y021881D01*
X032531Y021941D01*
X032514Y021953D01*
Y02732D01*
X032514Y027321D01*
X032562Y027361D01*
X032622Y027353D01*
X032716Y027366D01*
X032804Y027402D01*
X032806Y027404D01*
X033309D01*
Y026535D01*
X033309Y026535D01*
X033315Y026495D01*
X03332Y026455D01*
X033351Y026379D01*
X033401Y026314D01*
X03449Y025225D01*
Y022904D01*
X034485Y022892D01*
X034475Y022811D01*
X034485Y02273D01*
X03449Y022718D01*
Y01748D01*
X034501Y017399D01*
X034532Y017324D01*
X034582Y017259D01*
X034647Y01721D01*
X034722Y017178D01*
X034803Y017168D01*
X034884Y017178D01*
X034959Y01721D01*
X035024Y017259D01*
X035074Y017324D01*
X035105Y017399D01*
X035116Y01748D01*
Y022795D01*
X035116Y022795D01*
X035116Y022795D01*
Y025354D01*
X035116Y025354D01*
X03511Y025395D01*
X035105Y025435D01*
X035092Y025466D01*
X035074Y025511D01*
X035024Y025575D01*
X033935Y026665D01*
Y027533D01*
X033937Y027535D01*
X033973Y027623D01*
X033985Y027717D01*
X033973Y027811D01*
X033937Y027898D01*
X033879Y027973D01*
X033804Y028031D01*
X033716Y028067D01*
X033622Y02808D01*
X033528Y028067D01*
X03344Y028031D01*
X033438Y028029D01*
X032806D01*
X032804Y028031D01*
X032716Y028067D01*
X032622Y02808D01*
X032528Y028067D01*
X03244Y028031D01*
X032374Y02798D01*
X032324Y027995D01*
Y02826D01*
X032459Y028395D01*
X032528Y028366D01*
X032622Y028353D01*
X032716Y028366D01*
X032804Y028402D01*
X032879Y02846D01*
X032937Y028535D01*
X032973Y028623D01*
X032985Y028717D01*
X032973Y028811D01*
X032937Y028898D01*
X032879Y028973D01*
X032804Y029031D01*
X032716Y029067D01*
X032622Y02908D01*
D02*
G37*
G36*
X031622D02*
X031528Y029067D01*
X03144Y029031D01*
X031365Y028973D01*
X031308Y028898D01*
X031271Y028811D01*
X031259Y028717D01*
X031271Y028623D01*
X0313Y028553D01*
X031023Y028276D01*
X030999Y02824D01*
X03099Y028197D01*
X03099Y028197D01*
Y027899D01*
X03094Y027889D01*
X030937Y027898D01*
X030879Y027973D01*
X030804Y028031D01*
X030716Y028067D01*
X030622Y02808D01*
X030528Y028067D01*
X03044Y028031D01*
X030365Y027973D01*
X030308Y027898D01*
X030271Y027811D01*
X030259Y027717D01*
X030271Y027623D01*
X030308Y027535D01*
X030365Y02746D01*
X03044Y027402D01*
X03051Y027373D01*
Y02511D01*
X030492Y025098D01*
X030452Y025039D01*
X030439Y024969D01*
X030452Y024898D01*
X030492Y024839D01*
X030552Y024799D01*
X030622Y024785D01*
X030692Y024799D01*
X030752Y024839D01*
X030792Y024898D01*
X030806Y024969D01*
X030792Y025039D01*
X030752Y025098D01*
X030734Y02511D01*
Y027373D01*
X030804Y027402D01*
X030879Y02746D01*
X030937Y027535D01*
X03094Y027544D01*
X03099Y027534D01*
Y025496D01*
X030973Y025484D01*
X030933Y025425D01*
X030919Y025354D01*
X030933Y025284D01*
X030973Y025225D01*
X031032Y025185D01*
X031102Y025171D01*
X031173Y025185D01*
X031232Y025225D01*
X031272Y025284D01*
X031286Y025354D01*
X031272Y025425D01*
X031232Y025484D01*
X031215Y025496D01*
Y027524D01*
X031265Y027534D01*
X031273Y027515D01*
X031337Y027431D01*
X03142Y027367D01*
X031518Y027327D01*
X031522Y027326D01*
Y027717D01*
Y028107D01*
X031518Y028106D01*
X03142Y028066D01*
X031337Y028002D01*
X031273Y027918D01*
X031265Y027899D01*
X031215Y027909D01*
Y02815D01*
X031459Y028395D01*
X031528Y028366D01*
X031622Y028353D01*
X031716Y028366D01*
X031804Y028402D01*
X031879Y02846D01*
X031937Y028535D01*
X031973Y028623D01*
X031985Y028717D01*
X031973Y028811D01*
X031937Y028898D01*
X031879Y028973D01*
X031804Y029031D01*
X031716Y029067D01*
X031622Y02908D01*
D02*
G37*
G36*
X030622D02*
X030528Y029067D01*
X03044Y029031D01*
X030365Y028973D01*
X030308Y028898D01*
X030271Y028811D01*
X030259Y028717D01*
X030271Y028623D01*
X0303Y028553D01*
X029999Y028253D01*
X029975Y028216D01*
X029967Y028173D01*
X029967Y028173D01*
Y027941D01*
X029917Y027924D01*
X029879Y027973D01*
X029804Y028031D01*
X029716Y028067D01*
X029622Y02808D01*
X029528Y028067D01*
X02944Y028031D01*
X029365Y027973D01*
X029308Y027898D01*
X029271Y027811D01*
X029259Y027717D01*
X029271Y027623D01*
X029308Y027535D01*
X029365Y02746D01*
X02944Y027402D01*
X029528Y027366D01*
X029534Y027365D01*
Y024708D01*
X029516Y024697D01*
X029476Y024637D01*
X029462Y024567D01*
X029476Y024497D01*
X029516Y024437D01*
X029575Y024397D01*
X029646Y024383D01*
X029716Y024397D01*
X029775Y024437D01*
X029815Y024497D01*
X029829Y024567D01*
X029815Y024637D01*
X029775Y024697D01*
X029758Y024708D01*
Y027383D01*
X029804Y027402D01*
X029879Y02746D01*
X029917Y027509D01*
X029967Y027492D01*
Y024528D01*
X029967Y024528D01*
X029975Y024485D01*
X029999Y024448D01*
X03036Y024087D01*
Y020236D01*
X03036Y020236D01*
X030369Y020193D01*
X030393Y020157D01*
X031541Y019009D01*
Y014472D01*
X031524Y01446D01*
X031484Y014401D01*
X03147Y014331D01*
X031484Y01426D01*
X031524Y014201D01*
X031583Y014161D01*
X031654Y014147D01*
X031724Y014161D01*
X031783Y014201D01*
X031823Y01426D01*
X031837Y014331D01*
X031823Y014401D01*
X031783Y01446D01*
X031766Y014472D01*
Y019055D01*
X031757Y019098D01*
X031733Y019134D01*
X031733Y019134D01*
X030585Y020283D01*
Y024134D01*
X030576Y024177D01*
X030552Y024213D01*
X030552Y024213D01*
X030191Y024574D01*
Y028127D01*
X030459Y028395D01*
X030528Y028366D01*
X030622Y028353D01*
X030716Y028366D01*
X030804Y028402D01*
X030879Y02846D01*
X030937Y028535D01*
X030973Y028623D01*
X030985Y028717D01*
X030973Y028811D01*
X030937Y028898D01*
X030879Y028973D01*
X030804Y029031D01*
X030716Y029067D01*
X030622Y02908D01*
D02*
G37*
G36*
X028622D02*
X028528Y029067D01*
X02844Y029031D01*
X028365Y028973D01*
X028308Y028898D01*
X028271Y028811D01*
X028259Y028717D01*
X028271Y028623D01*
X028308Y028535D01*
X028365Y02846D01*
X02844Y028402D01*
X028528Y028366D01*
X028622Y028353D01*
X028716Y028366D01*
X028804Y028402D01*
X028879Y02846D01*
X028937Y028535D01*
X028973Y028623D01*
X028985Y028717D01*
X028973Y028811D01*
X028937Y028898D01*
X028879Y028973D01*
X028804Y029031D01*
X028716Y029067D01*
X028622Y02908D01*
D02*
G37*
G36*
X027622D02*
X027528Y029067D01*
X02744Y029031D01*
X027365Y028973D01*
X027308Y028898D01*
X027271Y028811D01*
X027259Y028717D01*
X027271Y028623D01*
X027308Y028535D01*
X027365Y02846D01*
X02744Y028402D01*
X027528Y028366D01*
X027622Y028353D01*
X027716Y028366D01*
X027804Y028402D01*
X027879Y02846D01*
X027937Y028535D01*
X027973Y028623D01*
X027985Y028717D01*
X027973Y028811D01*
X027937Y028898D01*
X027879Y028973D01*
X027804Y029031D01*
X027716Y029067D01*
X027622Y02908D01*
D02*
G37*
G36*
X026622D02*
X026528Y029067D01*
X02644Y029031D01*
X026365Y028973D01*
X026308Y028898D01*
X026271Y028811D01*
X026259Y028717D01*
X026271Y028623D01*
X026308Y028535D01*
X026365Y02846D01*
X02644Y028402D01*
X026528Y028366D01*
X026622Y028353D01*
X026716Y028366D01*
X026804Y028402D01*
X026879Y02846D01*
X026937Y028535D01*
X026973Y028623D01*
X026985Y028717D01*
X026973Y028811D01*
X026937Y028898D01*
X026879Y028973D01*
X026804Y029031D01*
X026716Y029067D01*
X026622Y02908D01*
D02*
G37*
G36*
X025622D02*
X025528Y029067D01*
X02544Y029031D01*
X025365Y028973D01*
X025308Y028898D01*
X025271Y028811D01*
X025259Y028717D01*
X025271Y028623D01*
X025308Y028535D01*
X025365Y02846D01*
X02544Y028402D01*
X025528Y028366D01*
X025622Y028353D01*
X025716Y028366D01*
X025804Y028402D01*
X025879Y02846D01*
X025937Y028535D01*
X025973Y028623D01*
X025985Y028717D01*
X025973Y028811D01*
X025937Y028898D01*
X025879Y028973D01*
X025804Y029031D01*
X025716Y029067D01*
X025622Y02908D01*
D02*
G37*
G36*
X024622D02*
X024528Y029067D01*
X02444Y029031D01*
X024365Y028973D01*
X024308Y028898D01*
X024271Y028811D01*
X024259Y028717D01*
X024271Y028623D01*
X024308Y028535D01*
X024365Y02846D01*
X02444Y028402D01*
X024528Y028366D01*
X024622Y028353D01*
X024716Y028366D01*
X024804Y028402D01*
X024879Y02846D01*
X024937Y028535D01*
X024973Y028623D01*
X024985Y028717D01*
X024973Y028811D01*
X024937Y028898D01*
X024879Y028973D01*
X024804Y029031D01*
X024716Y029067D01*
X024622Y02908D01*
D02*
G37*
G36*
X023622D02*
X023528Y029067D01*
X02344Y029031D01*
X023365Y028973D01*
X023308Y028898D01*
X023271Y028811D01*
X023259Y028717D01*
X023271Y028623D01*
X023308Y028535D01*
X023365Y02846D01*
X02344Y028402D01*
X023528Y028366D01*
X023622Y028353D01*
X023716Y028366D01*
X023804Y028402D01*
X023879Y02846D01*
X023937Y028535D01*
X023973Y028623D01*
X023985Y028717D01*
X023973Y028811D01*
X023937Y028898D01*
X023879Y028973D01*
X023804Y029031D01*
X023716Y029067D01*
X023622Y02908D01*
D02*
G37*
G36*
X022622D02*
X022528Y029067D01*
X02244Y029031D01*
X022365Y028973D01*
X022308Y028898D01*
X022271Y028811D01*
X022259Y028717D01*
X022271Y028623D01*
X022308Y028535D01*
X022365Y02846D01*
X02244Y028402D01*
X022528Y028366D01*
X022622Y028353D01*
X022716Y028366D01*
X022804Y028402D01*
X022879Y02846D01*
X022937Y028535D01*
X022973Y028623D01*
X022985Y028717D01*
X022973Y028811D01*
X022937Y028898D01*
X022879Y028973D01*
X022804Y029031D01*
X022716Y029067D01*
X022622Y02908D01*
D02*
G37*
G36*
X020622D02*
X020528Y029067D01*
X02044Y029031D01*
X020365Y028973D01*
X020308Y028898D01*
X020271Y028811D01*
X020259Y028717D01*
X020271Y028623D01*
X020308Y028535D01*
X020365Y02846D01*
X02044Y028402D01*
X020528Y028366D01*
X020622Y028353D01*
X020716Y028366D01*
X020804Y028402D01*
X020879Y02846D01*
X020937Y028535D01*
X020973Y028623D01*
X020985Y028717D01*
X020973Y028811D01*
X020937Y028898D01*
X020879Y028973D01*
X020804Y029031D01*
X020716Y029067D01*
X020622Y02908D01*
D02*
G37*
G36*
X018622D02*
X018528Y029067D01*
X01844Y029031D01*
X018365Y028973D01*
X018308Y028898D01*
X018271Y028811D01*
X018259Y028717D01*
X018271Y028623D01*
X018308Y028535D01*
X018365Y02846D01*
X01844Y028402D01*
X018528Y028366D01*
X018622Y028353D01*
X018716Y028366D01*
X018804Y028402D01*
X018879Y02846D01*
X018937Y028535D01*
X018973Y028623D01*
X018985Y028717D01*
X018973Y028811D01*
X018937Y028898D01*
X018879Y028973D01*
X018804Y029031D01*
X018716Y029067D01*
X018622Y02908D01*
D02*
G37*
G36*
X017622D02*
X017528Y029067D01*
X01744Y029031D01*
X017365Y028973D01*
X017308Y028898D01*
X017271Y028811D01*
X017259Y028717D01*
X017271Y028623D01*
X017308Y028535D01*
X017365Y02846D01*
X01744Y028402D01*
X017528Y028366D01*
X017622Y028353D01*
X017716Y028366D01*
X017804Y028402D01*
X017879Y02846D01*
X017937Y028535D01*
X017973Y028623D01*
X017985Y028717D01*
X017973Y028811D01*
X017937Y028898D01*
X017879Y028973D01*
X017804Y029031D01*
X017716Y029067D01*
X017622Y02908D01*
D02*
G37*
G36*
X016622D02*
X016528Y029067D01*
X01644Y029031D01*
X016365Y028973D01*
X016308Y028898D01*
X016271Y028811D01*
X016259Y028717D01*
X016271Y028623D01*
X016308Y028535D01*
X016365Y02846D01*
X01644Y028402D01*
X016528Y028366D01*
X016622Y028353D01*
X016716Y028366D01*
X016804Y028402D01*
X016879Y02846D01*
X016937Y028535D01*
X016973Y028623D01*
X016985Y028717D01*
X016973Y028811D01*
X016937Y028898D01*
X016879Y028973D01*
X016804Y029031D01*
X016716Y029067D01*
X016622Y02908D01*
D02*
G37*
G36*
X015622D02*
X015528Y029067D01*
X01544Y029031D01*
X015365Y028973D01*
X015308Y028898D01*
X015271Y028811D01*
X015259Y028717D01*
X015271Y028623D01*
X015308Y028535D01*
X015365Y02846D01*
X01544Y028402D01*
X015528Y028366D01*
X015622Y028353D01*
X015716Y028366D01*
X015804Y028402D01*
X015879Y02846D01*
X015937Y028535D01*
X015973Y028623D01*
X015985Y028717D01*
X015973Y028811D01*
X015937Y028898D01*
X015879Y028973D01*
X015804Y029031D01*
X015716Y029067D01*
X015622Y02908D01*
D02*
G37*
G36*
X011575D02*
X011481Y029067D01*
X011393Y029031D01*
X011318Y028973D01*
X01126Y028898D01*
X011224Y028811D01*
X011212Y028717D01*
X011224Y028623D01*
X01126Y028535D01*
X011318Y02846D01*
X011393Y028402D01*
X011481Y028366D01*
X011575Y028353D01*
X011669Y028366D01*
X011756Y028402D01*
X011832Y02846D01*
X011889Y028535D01*
X011926Y028623D01*
X011938Y028717D01*
X011926Y028811D01*
X011889Y028898D01*
X011832Y028973D01*
X011756Y029031D01*
X011669Y029067D01*
X011575Y02908D01*
D02*
G37*
G36*
X030012Y028617D02*
X029722D01*
Y028326D01*
X029726Y028327D01*
X029824Y028367D01*
X029907Y028431D01*
X029971Y028515D01*
X030012Y028612D01*
X030012Y028617D01*
D02*
G37*
G36*
X022012D02*
X021722D01*
Y028326D01*
X021726Y028327D01*
X021824Y028367D01*
X021907Y028431D01*
X021971Y028515D01*
X022012Y028612D01*
X022012Y028617D01*
D02*
G37*
G36*
X015012D02*
X014722D01*
Y028326D01*
X014726Y028327D01*
X014824Y028367D01*
X014907Y028431D01*
X014971Y028515D01*
X015012Y028612D01*
X015012Y028617D01*
D02*
G37*
G36*
X014522D02*
X014232D01*
X014232Y028612D01*
X014273Y028515D01*
X014337Y028431D01*
X01442Y028367D01*
X014518Y028327D01*
X014522Y028326D01*
Y028617D01*
D02*
G37*
G36*
X029522D02*
X029232D01*
X029232Y028612D01*
X029273Y028515D01*
X029337Y028431D01*
X02942Y028367D01*
X029518Y028327D01*
X029522Y028326D01*
Y028617D01*
D02*
G37*
G36*
X021522D02*
X021232D01*
X021232Y028612D01*
X021273Y028515D01*
X021337Y028431D01*
X02142Y028367D01*
X021518Y028327D01*
X021522Y028326D01*
Y028617D01*
D02*
G37*
G36*
X019622Y02908D02*
X019528Y029067D01*
X01944Y029031D01*
X019365Y028973D01*
X019308Y028898D01*
X019271Y028811D01*
X019259Y028717D01*
X019271Y028623D01*
X019308Y028535D01*
X019365Y02846D01*
X01944Y028402D01*
X019528Y028366D01*
X019622Y028353D01*
X019716Y028366D01*
X019785Y028395D01*
X020006Y028174D01*
Y027955D01*
X019956Y027938D01*
X019907Y028002D01*
X019824Y028066D01*
X019726Y028106D01*
X019722Y028107D01*
Y027717D01*
Y027326D01*
X019726Y027327D01*
X019824Y027367D01*
X019907Y027431D01*
X019956Y027495D01*
X020006Y027478D01*
Y019835D01*
X019956Y01982D01*
X019933Y019854D01*
X019873Y019894D01*
X019803Y019908D01*
X019733Y019894D01*
X019673Y019854D01*
X01965Y01982D01*
X0196Y019835D01*
Y021473D01*
X019618Y021484D01*
X019658Y021544D01*
X019672Y021614D01*
X019658Y021684D01*
X019618Y021744D01*
X019558Y021784D01*
X019488Y021798D01*
X019418Y021784D01*
X019358Y021744D01*
X019319Y021684D01*
X019305Y021614D01*
X019319Y021544D01*
X019358Y021484D01*
X019376Y021473D01*
Y018409D01*
X019358Y018397D01*
X019319Y018338D01*
X019305Y018268D01*
X019319Y018197D01*
X019358Y018138D01*
X019418Y018098D01*
X019488Y018084D01*
X019558Y018098D01*
X01959Y018119D01*
X01964Y018093D01*
Y017993D01*
X019634Y017984D01*
X01962Y017913D01*
X019634Y017843D01*
X019673Y017784D01*
X019733Y017744D01*
X019803Y01773D01*
X019873Y017744D01*
X019933Y017784D01*
X019956Y017818D01*
X020006Y017803D01*
Y015653D01*
X019988Y015642D01*
X019949Y015582D01*
X019935Y015512D01*
X019949Y015442D01*
X019988Y015382D01*
X020048Y015342D01*
X020118Y015328D01*
X020188Y015342D01*
X020248Y015382D01*
X020288Y015442D01*
X020302Y015512D01*
X020288Y015582D01*
X020248Y015642D01*
X02023Y015653D01*
Y027591D01*
X02028Y027601D01*
X020308Y027535D01*
X020365Y02746D01*
X02044Y027402D01*
X020528Y027366D01*
X020622Y027353D01*
X020716Y027366D01*
X020804Y027402D01*
X020879Y02746D01*
X020937Y027535D01*
X020973Y027623D01*
X020985Y027717D01*
X020973Y027811D01*
X020937Y027898D01*
X020879Y027973D01*
X020804Y028031D01*
X020716Y028067D01*
X020622Y02808D01*
X020528Y028067D01*
X02044Y028031D01*
X020365Y027973D01*
X020308Y027898D01*
X02028Y027832D01*
X02023Y027842D01*
Y02822D01*
X02023Y02822D01*
X020222Y028263D01*
X020197Y0283D01*
X019944Y028553D01*
X019973Y028623D01*
X019985Y028717D01*
X019973Y028811D01*
X019937Y028898D01*
X019879Y028973D01*
X019804Y029031D01*
X019716Y029067D01*
X019622Y02908D01*
D02*
G37*
G36*
X024722Y028107D02*
Y027817D01*
X025012D01*
X025012Y027821D01*
X024971Y027918D01*
X024907Y028002D01*
X024824Y028066D01*
X024726Y028106D01*
X024722Y028107D01*
D02*
G37*
G36*
X017722D02*
Y027817D01*
X018012D01*
X018012Y027821D01*
X017971Y027918D01*
X017907Y028002D01*
X017824Y028066D01*
X017726Y028106D01*
X017722Y028107D01*
D02*
G37*
G36*
X031722D02*
Y027817D01*
X032012D01*
X032012Y027821D01*
X031971Y027918D01*
X031907Y028002D01*
X031824Y028066D01*
X031726Y028106D01*
X031722Y028107D01*
D02*
G37*
G36*
X027722D02*
Y027817D01*
X028012D01*
X028012Y027821D01*
X027971Y027918D01*
X027907Y028002D01*
X027824Y028066D01*
X027726Y028106D01*
X027722Y028107D01*
D02*
G37*
G36*
X027522D02*
X027518Y028106D01*
X02742Y028066D01*
X027337Y028002D01*
X027273Y027918D01*
X027232Y027821D01*
X027232Y027817D01*
X027522D01*
Y028107D01*
D02*
G37*
G36*
X024522D02*
X024518Y028106D01*
X02442Y028066D01*
X024337Y028002D01*
X024273Y027918D01*
X024232Y027821D01*
X024232Y027817D01*
X024522D01*
Y028107D01*
D02*
G37*
G36*
X017522D02*
X017518Y028106D01*
X01742Y028066D01*
X017337Y028002D01*
X017273Y027918D01*
X017232Y027821D01*
X017232Y027817D01*
X017522D01*
Y028107D01*
D02*
G37*
G36*
X019522D02*
X019518Y028106D01*
X01942Y028066D01*
X019337Y028002D01*
X019273Y027918D01*
X019232Y027821D01*
X019232Y027817D01*
X019522D01*
Y028107D01*
D02*
G37*
G36*
X011935Y028077D02*
X011215D01*
Y027357D01*
X011935D01*
Y028077D01*
D02*
G37*
G36*
X026622Y02808D02*
X026528Y028067D01*
X02644Y028031D01*
X026365Y027973D01*
X026308Y027898D01*
X026271Y027811D01*
X026259Y027717D01*
X026271Y027623D01*
X026308Y027535D01*
X026365Y02746D01*
X02644Y027402D01*
X026528Y027366D01*
X026622Y027353D01*
X026716Y027366D01*
X026804Y027402D01*
X026879Y02746D01*
X026937Y027535D01*
X026973Y027623D01*
X026985Y027717D01*
X026973Y027811D01*
X026937Y027898D01*
X026879Y027973D01*
X026804Y028031D01*
X026716Y028067D01*
X026622Y02808D01*
D02*
G37*
G36*
X023622D02*
X023528Y028067D01*
X02344Y028031D01*
X023365Y027973D01*
X023308Y027898D01*
X023271Y027811D01*
X023259Y027717D01*
X023271Y027623D01*
X023308Y027535D01*
X023365Y02746D01*
X02344Y027402D01*
X023528Y027366D01*
X023622Y027353D01*
X023716Y027366D01*
X023804Y027402D01*
X023879Y02746D01*
X023937Y027535D01*
X023973Y027623D01*
X023985Y027717D01*
X023973Y027811D01*
X023937Y027898D01*
X023879Y027973D01*
X023804Y028031D01*
X023716Y028067D01*
X023622Y02808D01*
D02*
G37*
G36*
X022622D02*
X022528Y028067D01*
X02244Y028031D01*
X022365Y027973D01*
X022308Y027898D01*
X022271Y027811D01*
X022259Y027717D01*
X022271Y027623D01*
X022308Y027535D01*
X022365Y02746D01*
X02244Y027402D01*
X022528Y027366D01*
X022622Y027353D01*
X022716Y027366D01*
X022804Y027402D01*
X022879Y02746D01*
X022937Y027535D01*
X022973Y027623D01*
X022985Y027717D01*
X022973Y027811D01*
X022937Y027898D01*
X022879Y027973D01*
X022804Y028031D01*
X022716Y028067D01*
X022622Y02808D01*
D02*
G37*
G36*
X021622D02*
X021528Y028067D01*
X02144Y028031D01*
X021365Y027973D01*
X021308Y027898D01*
X021271Y027811D01*
X021259Y027717D01*
X021271Y027623D01*
X021308Y027535D01*
X021365Y02746D01*
X02144Y027402D01*
X021528Y027366D01*
X021622Y027353D01*
X021716Y027366D01*
X021804Y027402D01*
X021879Y02746D01*
X021937Y027535D01*
X021973Y027623D01*
X021985Y027717D01*
X021973Y027811D01*
X021937Y027898D01*
X021879Y027973D01*
X021804Y028031D01*
X021716Y028067D01*
X021622Y02808D01*
D02*
G37*
G36*
X018622D02*
X018528Y028067D01*
X01844Y028031D01*
X018365Y027973D01*
X018308Y027898D01*
X018271Y027811D01*
X018259Y027717D01*
X018271Y027623D01*
X018308Y027535D01*
X018365Y02746D01*
X01844Y027402D01*
X018528Y027366D01*
X018622Y027353D01*
X018716Y027366D01*
X018804Y027402D01*
X018879Y02746D01*
X018937Y027535D01*
X018973Y027623D01*
X018985Y027717D01*
X018973Y027811D01*
X018937Y027898D01*
X018879Y027973D01*
X018804Y028031D01*
X018716Y028067D01*
X018622Y02808D01*
D02*
G37*
G36*
X016622D02*
X016528Y028067D01*
X01644Y028031D01*
X016365Y027973D01*
X016308Y027898D01*
X016271Y027811D01*
X016259Y027717D01*
X016271Y027623D01*
X016308Y027535D01*
X016365Y02746D01*
X01644Y027402D01*
X016528Y027366D01*
X016622Y027353D01*
X016716Y027366D01*
X016804Y027402D01*
X016879Y02746D01*
X016937Y027535D01*
X016973Y027623D01*
X016985Y027717D01*
X016973Y027811D01*
X016937Y027898D01*
X016879Y027973D01*
X016804Y028031D01*
X016716Y028067D01*
X016622Y02808D01*
D02*
G37*
G36*
X014622D02*
X014528Y028067D01*
X01444Y028031D01*
X014365Y027973D01*
X014308Y027898D01*
X014271Y027811D01*
X014259Y027717D01*
X014271Y027623D01*
X014308Y027535D01*
X014365Y02746D01*
X01444Y027402D01*
X014528Y027366D01*
X014622Y027353D01*
X014716Y027366D01*
X014804Y027402D01*
X014879Y02746D01*
X014937Y027535D01*
X014973Y027623D01*
X014985Y027717D01*
X014973Y027811D01*
X014937Y027898D01*
X014879Y027973D01*
X014804Y028031D01*
X014716Y028067D01*
X014622Y02808D01*
D02*
G37*
G36*
X032012Y027617D02*
X031722D01*
Y027326D01*
X031726Y027327D01*
X031824Y027367D01*
X031907Y027431D01*
X031971Y027515D01*
X032012Y027612D01*
X032012Y027617D01*
D02*
G37*
G36*
X028012D02*
X027722D01*
Y027326D01*
X027726Y027327D01*
X027824Y027367D01*
X027907Y027431D01*
X027971Y027515D01*
X028012Y027612D01*
X028012Y027617D01*
D02*
G37*
G36*
X025012D02*
X024722D01*
Y027326D01*
X024726Y027327D01*
X024824Y027367D01*
X024907Y027431D01*
X024971Y027515D01*
X025012Y027612D01*
X025012Y027617D01*
D02*
G37*
G36*
X018012D02*
X017722D01*
Y027326D01*
X017726Y027327D01*
X017824Y027367D01*
X017907Y027431D01*
X017971Y027515D01*
X018012Y027612D01*
X018012Y027617D01*
D02*
G37*
G36*
X027522D02*
X027232D01*
X027232Y027612D01*
X027273Y027515D01*
X027337Y027431D01*
X02742Y027367D01*
X027518Y027327D01*
X027522Y027326D01*
Y027617D01*
D02*
G37*
G36*
X024522D02*
X024232D01*
X024232Y027612D01*
X024273Y027515D01*
X024337Y027431D01*
X02442Y027367D01*
X024518Y027327D01*
X024522Y027326D01*
Y027617D01*
D02*
G37*
G36*
X019522D02*
X019232D01*
X019232Y027612D01*
X019273Y027515D01*
X019337Y027431D01*
X01942Y027367D01*
X019518Y027327D01*
X019522Y027326D01*
Y027617D01*
D02*
G37*
G36*
X017522D02*
X017232D01*
X017232Y027612D01*
X017273Y027515D01*
X017337Y027431D01*
X01742Y027367D01*
X017518Y027327D01*
X017522Y027326D01*
Y027617D01*
D02*
G37*
G36*
X025622Y02808D02*
X025528Y028067D01*
X02544Y028031D01*
X025365Y027973D01*
X025308Y027898D01*
X025271Y027811D01*
X025259Y027717D01*
X025271Y027623D01*
X025308Y027535D01*
X025365Y02746D01*
X02544Y027402D01*
X02551Y027373D01*
Y027268D01*
X025492Y027256D01*
X025452Y027196D01*
X025439Y027126D01*
X025452Y027056D01*
X025492Y026996D01*
X025552Y026956D01*
X025622Y026942D01*
X025692Y026956D01*
X025752Y026996D01*
X025792Y027056D01*
X025806Y027126D01*
X025792Y027196D01*
X025752Y027256D01*
X025734Y027268D01*
Y027373D01*
X025804Y027402D01*
X025879Y02746D01*
X025937Y027535D01*
X025973Y027623D01*
X025985Y027717D01*
X025973Y027811D01*
X025937Y027898D01*
X025879Y027973D01*
X025804Y028031D01*
X025716Y028067D01*
X025622Y02808D01*
D02*
G37*
G36*
X028622D02*
X028528Y028067D01*
X02844Y028031D01*
X028365Y027973D01*
X028308Y027898D01*
X028271Y027811D01*
X028259Y027717D01*
X028271Y027623D01*
X028308Y027535D01*
X028365Y02746D01*
X02844Y027402D01*
X02851Y027373D01*
Y027031D01*
X028492Y02702D01*
X028452Y02696D01*
X028439Y02689D01*
X028452Y02682D01*
X028492Y02676D01*
X028552Y02672D01*
X028622Y026706D01*
X028692Y02672D01*
X028752Y02676D01*
X028792Y02682D01*
X028806Y02689D01*
X028792Y02696D01*
X028752Y02702D01*
X028734Y027031D01*
Y027373D01*
X028804Y027402D01*
X028879Y02746D01*
X028937Y027535D01*
X028973Y027623D01*
X028985Y027717D01*
X028973Y027811D01*
X028937Y027898D01*
X028879Y027973D01*
X028804Y028031D01*
X028716Y028067D01*
X028622Y02808D01*
D02*
G37*
G36*
X023583Y026837D02*
X023512Y026823D01*
X023453Y026783D01*
X023413Y026724D01*
X023399Y026654D01*
X023404Y026629D01*
X023397Y026618D01*
X023361Y02659D01*
X023307Y026601D01*
X023237Y026587D01*
X023177Y026547D01*
X023138Y026488D01*
X023124Y026417D01*
X023138Y026347D01*
X023177Y026288D01*
X023195Y026276D01*
Y02459D01*
X023177Y024579D01*
X023138Y024519D01*
X023124Y024449D01*
X023138Y024379D01*
X023177Y024319D01*
X023237Y024279D01*
X023307Y024265D01*
X023377Y024279D01*
X023437Y024319D01*
X023477Y024379D01*
X023491Y024449D01*
X023486Y024474D01*
X023493Y024484D01*
X023529Y024512D01*
X023583Y024502D01*
X023653Y024515D01*
X023712Y024555D01*
X023752Y024615D01*
X023766Y024685D01*
X023752Y024755D01*
X023712Y024815D01*
X023695Y024827D01*
Y026512D01*
X023712Y026524D01*
X023752Y026583D01*
X023766Y026654D01*
X023752Y026724D01*
X023712Y026783D01*
X023653Y026823D01*
X023583Y026837D01*
D02*
G37*
G36*
X022717Y026336D02*
X022636Y026326D01*
X02256Y026294D01*
X022495Y026245D01*
X022446Y02618D01*
X022415Y026105D01*
X022404Y026024D01*
X022405Y026015D01*
X022171Y025781D01*
X022125Y025712D01*
X022109Y02563D01*
Y024104D01*
X021702Y023697D01*
X021693Y023698D01*
X021612Y023688D01*
X021537Y023657D01*
X021472Y023607D01*
X021422Y023542D01*
X021391Y023467D01*
X02138Y023386D01*
X021391Y023305D01*
X021422Y023229D01*
X021472Y023165D01*
X021537Y023115D01*
X021612Y023084D01*
X021693Y023073D01*
X021774Y023084D01*
X021849Y023115D01*
X021914Y023165D01*
X021964Y023229D01*
X021995Y023305D01*
X022006Y023386D01*
X022004Y023395D01*
X022474Y023864D01*
X022521Y023934D01*
X022537Y024016D01*
Y025541D01*
X022708Y025712D01*
X022717Y025711D01*
X022797Y025722D01*
X022873Y025753D01*
X022938Y025803D01*
X022987Y025867D01*
X023019Y025943D01*
X023029Y026024D01*
X023019Y026105D01*
X022987Y02618D01*
X022938Y026245D01*
X022873Y026294D01*
X022797Y026326D01*
X022717Y026336D01*
D02*
G37*
G36*
X011575Y02593D02*
X011481Y025918D01*
X011393Y025881D01*
X011318Y025824D01*
X01126Y025748D01*
X011224Y025661D01*
X011212Y025567D01*
X011224Y025473D01*
X01126Y025385D01*
X011318Y02531D01*
X011393Y025252D01*
X011481Y025216D01*
X011575Y025204D01*
X011669Y025216D01*
X011756Y025252D01*
X011832Y02531D01*
X011889Y025385D01*
X011926Y025473D01*
X011938Y025567D01*
X011926Y025661D01*
X011889Y025748D01*
X011832Y025824D01*
X011756Y025881D01*
X011669Y025918D01*
X011575Y02593D01*
D02*
G37*
G36*
X036181Y026876D02*
X036111Y026862D01*
X036051Y026823D01*
X036012Y026763D01*
X035998Y026693D01*
X036012Y026623D01*
X036051Y026563D01*
X036069Y026551D01*
Y025496D01*
X036051Y025484D01*
X036012Y025425D01*
X035998Y025354D01*
X036012Y025284D01*
X036051Y025225D01*
X036111Y025185D01*
X036181Y025171D01*
X036251Y025185D01*
X036311Y025225D01*
X036351Y025284D01*
X036365Y025354D01*
X036351Y025425D01*
X036311Y025484D01*
X036293Y025496D01*
Y026551D01*
X036311Y026563D01*
X036351Y026623D01*
X036365Y026693D01*
X036351Y026763D01*
X036311Y026823D01*
X036251Y026862D01*
X036181Y026876D01*
D02*
G37*
G36*
X013346Y0289D02*
X013276Y028886D01*
X013217Y028846D01*
X013177Y028787D01*
X013163Y028717D01*
X013177Y028646D01*
X013217Y028587D01*
X013234Y028575D01*
Y025496D01*
X013217Y025484D01*
X013177Y025425D01*
X013163Y025354D01*
X013177Y025284D01*
X013217Y025225D01*
X013276Y025185D01*
X013346Y025171D01*
X013417Y025185D01*
X013476Y025225D01*
X013516Y025284D01*
X01353Y025354D01*
X013516Y025425D01*
X013476Y025484D01*
X013459Y025496D01*
Y028575D01*
X013476Y028587D01*
X013516Y028646D01*
X01353Y028717D01*
X013516Y028787D01*
X013476Y028846D01*
X013417Y028886D01*
X013346Y0289D01*
D02*
G37*
G36*
X037165Y025144D02*
X037095Y02513D01*
X037036Y02509D01*
X036996Y025031D01*
X036982Y024961D01*
X036996Y02489D01*
X037036Y024831D01*
X037053Y024819D01*
Y024754D01*
X037009Y02473D01*
X036999Y024736D01*
X036929Y02475D01*
X036859Y024736D01*
X036799Y024697D01*
X03676Y024637D01*
X036746Y024567D01*
X03676Y024497D01*
X036799Y024437D01*
X036817Y024425D01*
Y023922D01*
X036768Y023915D01*
X036727Y024013D01*
X036663Y024096D01*
X03658Y02416D01*
X036482Y024201D01*
X036478Y024201D01*
Y023811D01*
Y023421D01*
X036482Y023421D01*
X03658Y023462D01*
X036663Y023526D01*
X036727Y023609D01*
X036768Y023707D01*
X036817Y0237D01*
Y022409D01*
X036541Y022133D01*
X036472Y022162D01*
X036378Y022174D01*
X036284Y022162D01*
X036196Y022125D01*
X036121Y022068D01*
X036063Y021993D01*
X036027Y021905D01*
X036015Y021811D01*
X036027Y021717D01*
X036063Y021629D01*
X036121Y021554D01*
X036196Y021497D01*
X036284Y02146D01*
X036378Y021448D01*
X036472Y02146D01*
X03656Y021497D01*
X036635Y021554D01*
X036692Y021629D01*
X036729Y021717D01*
X036741Y021811D01*
X036729Y021905D01*
X0367Y021974D01*
X037003Y022278D01*
X037025Y022274D01*
X037053Y02226D01*
Y021645D01*
X036579Y021171D01*
X036018D01*
Y020451D01*
X036738D01*
Y021012D01*
X037245Y021519D01*
X037245Y021519D01*
X037269Y021556D01*
X037278Y021598D01*
Y024819D01*
X037295Y024831D01*
X037335Y02489D01*
X037349Y024961D01*
X037335Y025031D01*
X037295Y02509D01*
X037236Y02513D01*
X037165Y025144D01*
D02*
G37*
G36*
X018071Y026837D02*
X018001Y026823D01*
X017941Y026783D01*
X017901Y026724D01*
X017887Y026654D01*
X017901Y026583D01*
X017941Y026524D01*
X017959Y026512D01*
Y024866D01*
X017941Y024854D01*
X017901Y024795D01*
X017887Y024724D01*
X017901Y024654D01*
X017941Y024595D01*
X018001Y024555D01*
X018071Y024541D01*
X018141Y024555D01*
X018201Y024595D01*
X01824Y024654D01*
X018254Y024724D01*
X01824Y024795D01*
X018201Y024854D01*
X018183Y024866D01*
Y026512D01*
X018201Y026524D01*
X01824Y026583D01*
X018254Y026654D01*
X01824Y026724D01*
X018201Y026783D01*
X018141Y026823D01*
X018071Y026837D01*
D02*
G37*
G36*
X021339Y025498D02*
X021268Y025485D01*
X021209Y025445D01*
X021169Y025385D01*
X021155Y025315D01*
X021169Y025245D01*
X021209Y025185D01*
X021226Y025173D01*
Y02459D01*
X021209Y024579D01*
X021169Y024519D01*
X021155Y024449D01*
X021169Y024379D01*
X021209Y024319D01*
X021268Y024279D01*
X021339Y024265D01*
X021409Y024279D01*
X021468Y024319D01*
X021508Y024379D01*
X021522Y024449D01*
X021508Y024519D01*
X021468Y024579D01*
X021451Y02459D01*
Y025173D01*
X021468Y025185D01*
X021508Y025245D01*
X021522Y025315D01*
X021508Y025385D01*
X021468Y025445D01*
X021409Y025485D01*
X021339Y025498D01*
D02*
G37*
G36*
X011935Y024927D02*
X011215D01*
Y024207D01*
X011935D01*
Y024927D01*
D02*
G37*
G36*
X021693Y026365D02*
X021623Y026351D01*
X021563Y026311D01*
X021523Y026251D01*
X021509Y026181D01*
X021523Y026111D01*
X021563Y026051D01*
X021581Y02604D01*
Y024354D01*
X021563Y024342D01*
X021523Y024283D01*
X021509Y024213D01*
X021523Y024142D01*
X021563Y024083D01*
X021623Y024043D01*
X021693Y024029D01*
X021763Y024043D01*
X021823Y024083D01*
X021862Y024142D01*
X021876Y024213D01*
X021862Y024283D01*
X021823Y024342D01*
X021805Y024354D01*
Y02604D01*
X021823Y026051D01*
X021862Y026111D01*
X021876Y026181D01*
X021862Y026251D01*
X021823Y026311D01*
X021763Y026351D01*
X021693Y026365D01*
D02*
G37*
G36*
X033919Y024201D02*
Y023911D01*
X034209D01*
X034209Y023915D01*
X034168Y024013D01*
X034104Y024096D01*
X034021Y02416D01*
X033923Y024201D01*
X033919Y024201D01*
D02*
G37*
G36*
X033719D02*
X033714Y024201D01*
X033617Y02416D01*
X033534Y024096D01*
X03347Y024013D01*
X033429Y023915D01*
X033429Y023911D01*
X033719D01*
Y024201D01*
D02*
G37*
G36*
X036278D02*
X036274Y024201D01*
X036176Y02416D01*
X036093Y024096D01*
X036029Y024013D01*
X035988Y023915D01*
X035988Y023911D01*
X036278D01*
Y024201D01*
D02*
G37*
G36*
X03136D02*
Y023911D01*
X03165D01*
X03165Y023915D01*
X031609Y024013D01*
X031545Y024096D01*
X031462Y02416D01*
X031364Y024201D01*
X03136Y024201D01*
D02*
G37*
G36*
X03116D02*
X031155Y024201D01*
X031058Y02416D01*
X030975Y024096D01*
X03091Y024013D01*
X03087Y023915D01*
X03087Y023911D01*
X03116D01*
Y024201D01*
D02*
G37*
G36*
X020896Y02541D02*
X020825Y025396D01*
X020766Y025356D01*
X020726Y025297D01*
X020712Y025226D01*
X020726Y025156D01*
X020766Y025097D01*
X020784Y025085D01*
Y024111D01*
X020776Y024106D01*
X020736Y024047D01*
X020722Y023976D01*
X020736Y023906D01*
X020776Y023847D01*
X020835Y023807D01*
X020906Y023793D01*
X020976Y023807D01*
X021035Y023847D01*
X021075Y023906D01*
X021089Y023976D01*
X021075Y024047D01*
X021035Y024106D01*
X021008Y024125D01*
Y025085D01*
X021025Y025097D01*
X021065Y025156D01*
X021079Y025226D01*
X021065Y025297D01*
X021025Y025356D01*
X020966Y025396D01*
X020896Y02541D01*
D02*
G37*
G36*
X013346Y024121D02*
X013276Y024107D01*
X013217Y024067D01*
X013177Y024007D01*
X013163Y023937D01*
X013177Y023867D01*
X013217Y023807D01*
X013276Y023767D01*
X013346Y023753D01*
X013417Y023767D01*
X013476Y023807D01*
X013516Y023867D01*
X01353Y023937D01*
X013516Y024007D01*
X013476Y024067D01*
X013417Y024107D01*
X013346Y024121D01*
D02*
G37*
G36*
X033719Y023711D02*
X033429D01*
X033429Y023707D01*
X03347Y023609D01*
X033534Y023526D01*
X033617Y023462D01*
X033714Y023421D01*
X033719Y023421D01*
Y023711D01*
D02*
G37*
G36*
X03165Y023711D02*
X03136D01*
Y023421D01*
X031364Y023421D01*
X031462Y023462D01*
X031545Y023526D01*
X031609Y023609D01*
X03165Y023707D01*
X03165Y023711D01*
D02*
G37*
G36*
X036278Y023711D02*
X035988D01*
X035988Y023707D01*
X036029Y023609D01*
X036093Y023526D01*
X036176Y023462D01*
X036274Y023421D01*
X036278Y023421D01*
Y023711D01*
D02*
G37*
G36*
X03116Y023711D02*
X03087D01*
X03087Y023707D01*
X03091Y023609D01*
X030975Y023526D01*
X031058Y023462D01*
X031155Y023421D01*
X03116Y023421D01*
Y023711D01*
D02*
G37*
G36*
X034209Y023711D02*
X033919D01*
Y023421D01*
X033923Y023421D01*
X034021Y023462D01*
X034104Y023526D01*
X034168Y023609D01*
X034209Y023707D01*
X034209Y023711D01*
D02*
G37*
G36*
X02843Y023811D02*
X027593D01*
Y023042D01*
X02843D01*
Y023811D01*
D02*
G37*
G36*
X026732Y026168D02*
X026662Y026154D01*
X026603Y026114D01*
X026563Y026054D01*
X026549Y025984D01*
X026563Y025914D01*
X026569Y025904D01*
Y023977D01*
X026563Y023968D01*
X026549Y023898D01*
X026563Y023827D01*
X026603Y023768D01*
X026655Y023733D01*
Y023042D01*
X027493D01*
Y023811D01*
X026946D01*
X026908Y023861D01*
X026916Y023898D01*
X026902Y023968D01*
X026895Y023977D01*
Y025904D01*
X026902Y025914D01*
X026916Y025984D01*
X026902Y026054D01*
X026862Y026114D01*
X026803Y026154D01*
X026732Y026168D01*
D02*
G37*
G36*
X019252Y024939D02*
X01917Y024922D01*
X019101Y024876D01*
X019054Y024806D01*
X019038Y024724D01*
Y023031D01*
X019054Y02295D01*
X019101Y02288D01*
X01917Y022834D01*
X019252Y022817D01*
X019334Y022834D01*
X019403Y02288D01*
X01945Y02295D01*
X019466Y023031D01*
Y024724D01*
X01945Y024806D01*
X019403Y024876D01*
X019334Y024922D01*
X019252Y024939D01*
D02*
G37*
G36*
X036378Y023174D02*
X036284Y023162D01*
X036196Y023125D01*
X036121Y023068D01*
X036063Y022993D01*
X036027Y022905D01*
X036015Y022811D01*
X036027Y022717D01*
X036063Y022629D01*
X036121Y022554D01*
X036196Y022497D01*
X036284Y02246D01*
X036378Y022448D01*
X036472Y02246D01*
X03656Y022497D01*
X036635Y022554D01*
X036692Y022629D01*
X036729Y022717D01*
X036741Y022811D01*
X036729Y022905D01*
X036692Y022993D01*
X036635Y023068D01*
X03656Y023125D01*
X036472Y023162D01*
X036378Y023174D01*
D02*
G37*
G36*
X033819D02*
X033725Y023162D01*
X033637Y023125D01*
X033562Y023068D01*
X033504Y022993D01*
X033468Y022905D01*
X033456Y022811D01*
X033468Y022717D01*
X033504Y022629D01*
X033562Y022554D01*
X033637Y022497D01*
X033725Y02246D01*
X033819Y022448D01*
X033913Y02246D01*
X034Y022497D01*
X034076Y022554D01*
X034133Y022629D01*
X03417Y022717D01*
X034182Y022811D01*
X03417Y022905D01*
X034133Y022993D01*
X034076Y023068D01*
X034Y023125D01*
X033913Y023162D01*
X033819Y023174D01*
D02*
G37*
G36*
X03126D02*
X031166Y023162D01*
X031078Y023125D01*
X031003Y023068D01*
X030945Y022993D01*
X030909Y022905D01*
X030897Y022811D01*
X030909Y022717D01*
X030945Y022629D01*
X031003Y022554D01*
X031078Y022497D01*
X031166Y02246D01*
X03126Y022448D01*
X031354Y02246D01*
X031441Y022497D01*
X031517Y022554D01*
X031574Y022629D01*
X031611Y022717D01*
X031623Y022811D01*
X031611Y022905D01*
X031574Y022993D01*
X031517Y023068D01*
X031441Y023125D01*
X031354Y023162D01*
X03126Y023174D01*
D02*
G37*
G36*
X02843Y022942D02*
X027593D01*
Y022174D01*
X02843D01*
Y022942D01*
D02*
G37*
G36*
X027493D02*
X026655D01*
Y022174D01*
X027493D01*
Y022942D01*
D02*
G37*
G36*
X011575Y022765D02*
X011481Y022752D01*
X011393Y022716D01*
X011318Y022658D01*
X01126Y022583D01*
X011224Y022496D01*
X011212Y022402D01*
X011224Y022308D01*
X01126Y02222D01*
X011318Y022145D01*
X011393Y022087D01*
X011481Y022051D01*
X011575Y022038D01*
X011669Y022051D01*
X011756Y022087D01*
X011832Y022145D01*
X011889Y02222D01*
X011926Y022308D01*
X011938Y022402D01*
X011926Y022496D01*
X011889Y022583D01*
X011832Y022658D01*
X011756Y022716D01*
X011669Y022752D01*
X011575Y022765D01*
D02*
G37*
G36*
X018543Y02542D02*
X018473Y025406D01*
X018414Y025366D01*
X018374Y025306D01*
X01836Y025236D01*
X018362Y025225D01*
X01836Y025217D01*
Y021989D01*
X018354Y02198D01*
X01834Y021909D01*
X018354Y021839D01*
X018394Y02178D01*
X018453Y02174D01*
X018524Y021726D01*
X018594Y02174D01*
X018653Y02178D01*
X018693Y021839D01*
X018707Y021909D01*
X018693Y02198D01*
X018687Y021989D01*
Y025127D01*
X018713Y025166D01*
X018727Y025236D01*
X018713Y025306D01*
X018673Y025366D01*
X018614Y025406D01*
X018543Y02542D01*
D02*
G37*
G36*
X013937Y025538D02*
X013867Y025524D01*
X013807Y025484D01*
X013767Y025425D01*
X013753Y025354D01*
X013767Y025284D01*
X013807Y025225D01*
X013825Y025213D01*
Y021953D01*
X013807Y021941D01*
X013767Y021881D01*
X013753Y021811D01*
X013767Y021741D01*
X013807Y021681D01*
X013867Y021641D01*
X013937Y021628D01*
X014007Y021641D01*
X014067Y021681D01*
X014107Y021741D01*
X014121Y021811D01*
X014107Y021881D01*
X014067Y021941D01*
X014049Y021953D01*
Y025213D01*
X014067Y025225D01*
X014107Y025284D01*
X014121Y025354D01*
X014107Y025425D01*
X014067Y025484D01*
X014007Y025524D01*
X013937Y025538D01*
D02*
G37*
G36*
X033819Y022174D02*
X033725Y022162D01*
X033637Y022125D01*
X033562Y022068D01*
X033504Y021993D01*
X033468Y021905D01*
X033456Y021811D01*
X033468Y021717D01*
X033504Y021629D01*
X033562Y021554D01*
X033637Y021497D01*
X033725Y02146D01*
X033819Y021448D01*
X033913Y02146D01*
X034Y021497D01*
X034076Y021554D01*
X034133Y021629D01*
X03417Y021717D01*
X034182Y021811D01*
X03417Y021905D01*
X034133Y021993D01*
X034076Y022068D01*
X034Y022125D01*
X033913Y022162D01*
X033819Y022174D01*
D02*
G37*
G36*
X03126D02*
X031166Y022162D01*
X031078Y022125D01*
X031003Y022068D01*
X030945Y021993D01*
X030909Y021905D01*
X030897Y021811D01*
X030909Y021717D01*
X030945Y021629D01*
X031003Y021554D01*
X031078Y021497D01*
X031166Y02146D01*
X03126Y021448D01*
X031354Y02146D01*
X031441Y021497D01*
X031517Y021554D01*
X031574Y021629D01*
X031611Y021717D01*
X031623Y021811D01*
X031611Y021905D01*
X031574Y021993D01*
X031517Y022068D01*
X031441Y022125D01*
X031354Y022162D01*
X03126Y022174D01*
D02*
G37*
G36*
X021024Y021522D02*
X020953Y021508D01*
X020894Y021468D01*
X020854Y021409D01*
X02084Y021339D01*
X020854Y021268D01*
X020894Y021209D01*
X020921Y02119D01*
Y021139D01*
X020898Y021126D01*
X020871Y021118D01*
X020818Y021154D01*
X020748Y021168D01*
X020678Y021154D01*
X020618Y021114D01*
X020578Y021055D01*
X020564Y020984D01*
X020578Y020914D01*
X020618Y020854D01*
X020646Y020836D01*
Y020273D01*
X020623Y02026D01*
X020596Y020252D01*
X020543Y020288D01*
X020472Y020302D01*
X020402Y020288D01*
X020343Y020248D01*
X020303Y020188D01*
X020289Y020118D01*
X020303Y020048D01*
X020343Y019988D01*
X02037Y01997D01*
Y01897D01*
X020352Y018959D01*
X020313Y018899D01*
X020299Y018829D01*
X020313Y018758D01*
X020352Y018699D01*
X020412Y018659D01*
X020482Y018645D01*
X020553Y018659D01*
X020612Y018699D01*
X020652Y018758D01*
X020666Y018829D01*
X020657Y018876D01*
X020668Y01889D01*
X020698Y018913D01*
X020758Y018901D01*
X020828Y018915D01*
X020888Y018955D01*
X020928Y019014D01*
X020941Y019085D01*
X020932Y019132D01*
X020944Y019147D01*
X020974Y019169D01*
X021033Y019157D01*
X021104Y019171D01*
X021163Y019211D01*
X021203Y01927D01*
X021217Y019341D01*
X021203Y019411D01*
X021163Y01947D01*
X021146Y019482D01*
Y021204D01*
X021153Y021209D01*
X021193Y021268D01*
X021207Y021339D01*
X021193Y021409D01*
X021153Y021468D01*
X021094Y021508D01*
X021024Y021522D01*
D02*
G37*
G36*
X011935Y021762D02*
X011215D01*
Y021042D01*
X011935D01*
Y021762D01*
D02*
G37*
G36*
X015622Y02808D02*
X015528Y028067D01*
X01544Y028031D01*
X015365Y027973D01*
X015308Y027898D01*
X015271Y027811D01*
X015259Y027717D01*
X015271Y027623D01*
X015308Y027535D01*
X015365Y02746D01*
X01544Y027402D01*
X01551Y027373D01*
Y024079D01*
X015492Y024067D01*
X015452Y024007D01*
X015439Y023937D01*
X015452Y023867D01*
X015483Y023821D01*
X015464Y023771D01*
X014209D01*
Y022214D01*
X014819D01*
Y021227D01*
X014835Y021145D01*
X014882Y021075D01*
X014888Y021069D01*
X014957Y021023D01*
X015039Y021006D01*
X015121Y021023D01*
X015191Y021069D01*
X015237Y021139D01*
X015253Y02122D01*
X015247Y021252D01*
Y022214D01*
X015903D01*
Y022817D01*
X01748D01*
X017562Y022834D01*
X017632Y02288D01*
X017678Y02295D01*
X017694Y023031D01*
X017678Y023113D01*
X017632Y023183D01*
X017562Y023229D01*
X01748Y023246D01*
X015903D01*
Y023771D01*
X01578D01*
X015761Y023821D01*
X015792Y023867D01*
X015806Y023937D01*
X015792Y024007D01*
X015752Y024067D01*
X015734Y024079D01*
Y027373D01*
X015804Y027402D01*
X015879Y02746D01*
X015937Y027535D01*
X015973Y027623D01*
X015985Y027717D01*
X015973Y027811D01*
X015937Y027898D01*
X015879Y027973D01*
X015804Y028031D01*
X015716Y028067D01*
X015622Y02808D01*
D02*
G37*
G36*
X023031Y021798D02*
X022961Y021784D01*
X022902Y021744D01*
X022862Y021684D01*
X022848Y021614D01*
X022862Y021544D01*
X022902Y021484D01*
X022919Y021473D01*
Y02078D01*
X022869Y020765D01*
X022846Y020799D01*
X022787Y020839D01*
X022717Y020853D01*
X022646Y020839D01*
X022587Y020799D01*
X022547Y02074D01*
X022533Y020669D01*
X022547Y020599D01*
X022587Y02054D01*
X022604Y020528D01*
Y018449D01*
X022587Y018437D01*
X022547Y018377D01*
X022533Y018307D01*
X022547Y018237D01*
X022587Y018177D01*
X022646Y018138D01*
X022717Y018124D01*
X022787Y018138D01*
X022846Y018177D01*
X022864Y018203D01*
X022924D01*
X022941Y018177D01*
X023001Y018138D01*
X023071Y018124D01*
X023141Y018138D01*
X023201Y018177D01*
X02324Y018237D01*
X023254Y018307D01*
X02324Y018377D01*
X023201Y018437D01*
X023155Y018467D01*
Y020185D01*
X023173Y020197D01*
X023213Y020257D01*
X023227Y020327D01*
X023213Y020397D01*
X023173Y020457D01*
X023144Y020476D01*
Y021473D01*
X023161Y021484D01*
X023201Y021544D01*
X023215Y021614D01*
X023201Y021684D01*
X023161Y021744D01*
X023102Y021784D01*
X023031Y021798D01*
D02*
G37*
G36*
X025945Y024396D02*
X025875Y024382D01*
X025815Y024342D01*
X025775Y024283D01*
X025761Y024213D01*
X025775Y024142D01*
X025815Y024083D01*
X025819Y02408D01*
Y022766D01*
X025801Y022754D01*
X025762Y022694D01*
X025748Y022624D01*
X025762Y022554D01*
X025801Y022494D01*
X025819Y022482D01*
Y020943D01*
X025801Y020931D01*
X025762Y020871D01*
X025748Y020801D01*
X025762Y020731D01*
X025801Y020671D01*
X025861Y020632D01*
X025931Y020618D01*
X026001Y020632D01*
X026061Y020671D01*
X026101Y020731D01*
X026115Y020801D01*
X026101Y020871D01*
X026061Y020931D01*
X026043Y020943D01*
Y022482D01*
X026061Y022494D01*
X026101Y022554D01*
X026115Y022624D01*
X026101Y022694D01*
X026061Y022754D01*
X026043Y022766D01*
Y024062D01*
X026075Y024083D01*
X026114Y024142D01*
X026128Y024213D01*
X026114Y024283D01*
X026075Y024342D01*
X026015Y024382D01*
X025945Y024396D01*
D02*
G37*
G36*
X034179Y021171D02*
X033459D01*
Y020451D01*
X034179D01*
Y021171D01*
D02*
G37*
G36*
X03162D02*
X0309D01*
Y020451D01*
X03162D01*
Y021171D01*
D02*
G37*
G36*
X012244Y0279D02*
X012174Y027886D01*
X012114Y027846D01*
X012075Y027787D01*
X012061Y027717D01*
X012075Y027646D01*
X012114Y027587D01*
X012132Y027575D01*
Y024512D01*
X012114Y0245D01*
X012075Y02444D01*
X012061Y02437D01*
X012075Y0243D01*
X012114Y02424D01*
X012174Y024201D01*
X012244Y024187D01*
X012314Y024201D01*
X012374Y02424D01*
X012397Y024275D01*
X012447Y02426D01*
Y02148D01*
X012429Y021468D01*
X01239Y021409D01*
X012376Y021339D01*
X01239Y021268D01*
X012429Y021209D01*
X012447Y021197D01*
Y019692D01*
X012135Y01938D01*
X011918D01*
X011889Y019449D01*
X011832Y019524D01*
X011756Y019582D01*
X011669Y019618D01*
X011575Y019631D01*
X011481Y019618D01*
X011393Y019582D01*
X011318Y019524D01*
X01126Y019449D01*
X011224Y019362D01*
X011212Y019268D01*
X011224Y019174D01*
X01126Y019086D01*
X011318Y019011D01*
X011393Y018953D01*
X011481Y018917D01*
X011575Y018905D01*
X011669Y018917D01*
X011756Y018953D01*
X011832Y019011D01*
X011889Y019086D01*
X011918Y019156D01*
X012181D01*
X012181Y019156D01*
X012224Y019164D01*
X01226Y019188D01*
X012638Y019566D01*
X012638Y019566D01*
X012663Y019603D01*
X012671Y019646D01*
Y020184D01*
X01272Y020201D01*
X012773Y020166D01*
X012835Y020153D01*
X012896Y020166D01*
X012949Y020201D01*
X012984Y020253D01*
X012996Y020315D01*
X012984Y020377D01*
X012949Y020429D01*
X012947Y020431D01*
Y026984D01*
X012964Y026996D01*
X013004Y027056D01*
X013018Y027126D01*
X013004Y027196D01*
X012964Y027256D01*
X012905Y027296D01*
X012835Y02731D01*
X012764Y027296D01*
X012705Y027256D01*
X012665Y027196D01*
X012651Y027126D01*
X012656Y027101D01*
X012649Y02709D01*
X012613Y027063D01*
X012559Y027073D01*
X012489Y027059D01*
X012429Y02702D01*
X012406Y026985D01*
X012356Y027D01*
Y027575D01*
X012374Y027587D01*
X012414Y027646D01*
X012428Y027717D01*
X012414Y027787D01*
X012374Y027846D01*
X012314Y027886D01*
X012244Y0279D01*
D02*
G37*
G36*
X035591Y023108D02*
X03551Y023097D01*
X035434Y023066D01*
X035369Y023016D01*
X03532Y022952D01*
X035289Y022876D01*
X035278Y022795D01*
Y019449D01*
X035289Y019368D01*
X03532Y019292D01*
X035369Y019228D01*
X035434Y019178D01*
X03551Y019147D01*
X035591Y019136D01*
X035671Y019147D01*
X035747Y019178D01*
X035812Y019228D01*
X035861Y019292D01*
X035893Y019368D01*
X035903Y019449D01*
Y022795D01*
X035893Y022876D01*
X035861Y022952D01*
X035812Y023016D01*
X035747Y023066D01*
X035671Y023097D01*
X035591Y023108D01*
D02*
G37*
G36*
X032953Y026297D02*
X032872Y026286D01*
X032796Y026255D01*
X032732Y026205D01*
X032682Y026141D01*
X032651Y026065D01*
X03264Y025984D01*
Y022795D01*
Y019449D01*
X032651Y019368D01*
X032682Y019292D01*
X032732Y019228D01*
X032796Y019178D01*
X032872Y019147D01*
X032953Y019136D01*
X033034Y019147D01*
X033109Y019178D01*
X033174Y019228D01*
X033224Y019292D01*
X033255Y019368D01*
X033265Y019449D01*
Y022795D01*
Y025984D01*
X033255Y026065D01*
X033224Y026141D01*
X033174Y026205D01*
X033109Y026255D01*
X033034Y026286D01*
X032953Y026297D01*
D02*
G37*
G36*
X014134Y019631D02*
X01404Y019618D01*
X013952Y019582D01*
X013877Y019524D01*
X013819Y019449D01*
X013783Y019362D01*
X013771Y019268D01*
X013783Y019174D01*
X013819Y019086D01*
X013877Y019011D01*
X013952Y018953D01*
X01404Y018917D01*
X014134Y018905D01*
X014228Y018917D01*
X014315Y018953D01*
X014391Y019011D01*
X014448Y019086D01*
X014485Y019174D01*
X014497Y019268D01*
X014485Y019362D01*
X014448Y019449D01*
X014391Y019524D01*
X014315Y019582D01*
X014228Y019618D01*
X014134Y019631D01*
D02*
G37*
G36*
X016102Y020498D02*
X016032Y020485D01*
X015973Y020445D01*
X015933Y020385D01*
X015919Y020315D01*
X015933Y020245D01*
X015973Y020185D01*
X01599Y020173D01*
Y019D01*
X015973Y018988D01*
X015933Y018928D01*
X015919Y018858D01*
X015933Y018788D01*
X015973Y018728D01*
X016032Y018689D01*
X016102Y018675D01*
X016173Y018689D01*
X016232Y018728D01*
X016272Y018788D01*
X016286Y018858D01*
X016272Y018928D01*
X016232Y018988D01*
X016215Y019D01*
Y020173D01*
X016232Y020185D01*
X016272Y020245D01*
X016286Y020315D01*
X016272Y020385D01*
X016232Y020445D01*
X016173Y020485D01*
X016102Y020498D01*
D02*
G37*
G36*
X036478Y018871D02*
Y01858D01*
X036768D01*
X036768Y018585D01*
X036727Y018682D01*
X036663Y018766D01*
X03658Y01883D01*
X036482Y01887D01*
X036478Y018871D01*
D02*
G37*
G36*
X036278D02*
X036274Y01887D01*
X036176Y01883D01*
X036093Y018766D01*
X036029Y018682D01*
X035988Y018585D01*
X035988Y01858D01*
X036278D01*
Y018871D01*
D02*
G37*
G36*
X025453Y026317D02*
X025372Y026306D01*
X025296Y026275D01*
X025232Y026225D01*
X025182Y02616D01*
X025151Y026085D01*
X02514Y026004D01*
X025151Y025923D01*
X025182Y025848D01*
X025232Y025783D01*
X025239Y025777D01*
Y021919D01*
X025232Y021914D01*
X025182Y021849D01*
X025151Y021774D01*
X02514Y021693D01*
X025151Y021612D01*
X025182Y021537D01*
X025232Y021472D01*
X025258Y021451D01*
Y019085D01*
X025251Y019079D01*
X025202Y019015D01*
X02517Y018939D01*
X02516Y018858D01*
X02517Y018777D01*
X025202Y018702D01*
X025251Y018637D01*
X025316Y018587D01*
X025392Y018556D01*
X025472Y018546D01*
X025553Y018556D01*
X025629Y018587D01*
X025694Y018637D01*
X025743Y018702D01*
X025774Y018777D01*
X025785Y018858D01*
X025774Y018939D01*
X025743Y019015D01*
X025694Y019079D01*
X025687Y019085D01*
Y021488D01*
X025724Y021537D01*
X025755Y021612D01*
X025765Y021693D01*
X025755Y021774D01*
X025724Y021849D01*
X025674Y021914D01*
X025667Y021919D01*
Y025777D01*
X025674Y025783D01*
X025724Y025848D01*
X025755Y025923D01*
X025765Y026004D01*
X025755Y026085D01*
X025724Y02616D01*
X025674Y026225D01*
X025609Y026275D01*
X025534Y026306D01*
X025453Y026317D01*
D02*
G37*
G36*
X021614Y020223D02*
X021544Y020209D01*
X021484Y020169D01*
X021445Y02011D01*
X021431Y020039D01*
X021445Y019969D01*
X021484Y01991D01*
X021544Y01987D01*
X021614Y019856D01*
X021635Y01986D01*
X021896Y019599D01*
Y018724D01*
X021878Y018712D01*
X021838Y018653D01*
X021824Y018583D01*
X021838Y018512D01*
X021878Y018453D01*
X021938Y018413D01*
X022008Y018399D01*
X022078Y018413D01*
X022138Y018453D01*
X022177Y018512D01*
X022191Y018583D01*
X022177Y018653D01*
X022138Y018712D01*
X02212Y018724D01*
Y019646D01*
X022111Y019689D01*
X022087Y019725D01*
X022087Y019725D01*
X021794Y020019D01*
X021798Y020039D01*
X021784Y02011D01*
X021744Y020169D01*
X021684Y020209D01*
X021614Y020223D01*
D02*
G37*
G36*
X036768Y01838D02*
X036478D01*
Y01809D01*
X036482Y018091D01*
X03658Y018131D01*
X036663Y018195D01*
X036727Y018279D01*
X036768Y018376D01*
X036768Y01838D01*
D02*
G37*
G36*
X036278D02*
X035988D01*
X035988Y018376D01*
X036029Y018279D01*
X036093Y018195D01*
X036176Y018131D01*
X036274Y018091D01*
X036278Y01809D01*
Y01838D01*
D02*
G37*
G36*
X010551Y028029D02*
X01047Y028019D01*
X010395Y027987D01*
X01033Y027938D01*
X01028Y027873D01*
X010249Y027797D01*
X010239Y027717D01*
X010249Y027636D01*
X01028Y02756D01*
X010289Y027549D01*
Y024734D01*
X01028Y024723D01*
X010249Y024648D01*
X010239Y024567D01*
X010249Y024486D01*
X01028Y024411D01*
X010289Y024399D01*
Y021585D01*
X01028Y021574D01*
X010249Y021498D01*
X010239Y021417D01*
X010249Y021336D01*
X01028Y021261D01*
X010289Y02125D01*
Y01835D01*
X010289Y018349D01*
X010278Y018268D01*
X010289Y018187D01*
X01032Y018111D01*
X010369Y018047D01*
X010434Y017997D01*
X01051Y017966D01*
X010591Y017955D01*
X010671Y017966D01*
X010747Y017997D01*
X010812Y018047D01*
X010861Y018111D01*
X010893Y018187D01*
X010903Y018268D01*
X010893Y018349D01*
X010861Y018424D01*
X010813Y018486D01*
Y02125D01*
X010822Y021261D01*
X010853Y021336D01*
X010864Y021417D01*
X010853Y021498D01*
X010822Y021574D01*
X010813Y021585D01*
Y024399D01*
X010822Y024411D01*
X010853Y024486D01*
X010864Y024567D01*
X010853Y024648D01*
X010822Y024723D01*
X010813Y024734D01*
Y027549D01*
X010822Y02756D01*
X010853Y027636D01*
X010864Y027717D01*
X010853Y027797D01*
X010822Y027873D01*
X010772Y027938D01*
X010708Y027987D01*
X010632Y028019D01*
X010551Y028029D01*
D02*
G37*
G36*
X014494Y018628D02*
X013774D01*
Y017908D01*
X014494D01*
Y018628D01*
D02*
G37*
G36*
X027126Y020026D02*
X027056Y020012D01*
X026996Y019972D01*
X026956Y019913D01*
X026942Y019843D01*
X026956Y019772D01*
X026963Y019763D01*
Y017592D01*
X026956Y017582D01*
X026942Y017512D01*
X026956Y017442D01*
X026996Y017382D01*
X027056Y017342D01*
X027126Y017328D01*
X027196Y017342D01*
X027256Y017382D01*
X027296Y017442D01*
X02731Y017512D01*
X027296Y017582D01*
X027289Y017592D01*
Y019763D01*
X027296Y019772D01*
X02731Y019843D01*
X027296Y019913D01*
X027256Y019972D01*
X027196Y020012D01*
X027126Y020026D01*
D02*
G37*
G36*
X033785Y017872D02*
X033065D01*
Y017152D01*
X033785D01*
Y017872D01*
D02*
G37*
G36*
X031226D02*
X030506D01*
Y017152D01*
X031226D01*
Y017872D01*
D02*
G37*
G36*
X036378Y017843D02*
X036284Y017831D01*
X036196Y017795D01*
X036121Y017737D01*
X036063Y017662D01*
X036027Y017574D01*
X036015Y01748D01*
X036027Y017386D01*
X036063Y017299D01*
X036121Y017224D01*
X036196Y017166D01*
X036284Y01713D01*
X036378Y017117D01*
X036472Y01713D01*
X03656Y017166D01*
X036635Y017224D01*
X036692Y017299D01*
X036729Y017386D01*
X036741Y01748D01*
X036729Y017574D01*
X036692Y017662D01*
X036635Y017737D01*
X03656Y017795D01*
X036472Y017831D01*
X036378Y017843D01*
D02*
G37*
G36*
X030966Y016902D02*
Y016612D01*
X031256D01*
X031256Y016616D01*
X031216Y016714D01*
X031151Y016797D01*
X031068Y016861D01*
X030971Y016902D01*
X030966Y016902D01*
D02*
G37*
G36*
X030766D02*
X030762Y016902D01*
X030664Y016861D01*
X030581Y016797D01*
X030517Y016714D01*
X030476Y016616D01*
X030476Y016612D01*
X030766D01*
Y016902D01*
D02*
G37*
G36*
X033525D02*
Y016612D01*
X033815D01*
X033815Y016616D01*
X033775Y016714D01*
X03371Y016797D01*
X033627Y016861D01*
X03353Y016902D01*
X033525Y016902D01*
D02*
G37*
G36*
X033325D02*
X033321Y016902D01*
X033223Y016861D01*
X03314Y016797D01*
X033076Y016714D01*
X033035Y016616D01*
X033035Y016612D01*
X033325D01*
Y016902D01*
D02*
G37*
G36*
Y016412D02*
X033035D01*
X033035Y016407D01*
X033076Y01631D01*
X03314Y016227D01*
X033223Y016162D01*
X033321Y016122D01*
X033325Y016122D01*
Y016412D01*
D02*
G37*
G36*
X031256Y016412D02*
X030966D01*
Y016122D01*
X030971Y016122D01*
X031068Y016162D01*
X031151Y016227D01*
X031216Y01631D01*
X031256Y016407D01*
X031256Y016412D01*
D02*
G37*
G36*
X030766D02*
X030476D01*
X030476Y016407D01*
X030517Y01631D01*
X030581Y016227D01*
X030664Y016162D01*
X030762Y016122D01*
X030766Y016122D01*
Y016412D01*
D02*
G37*
G36*
X033815Y016412D02*
X033525D01*
Y016122D01*
X03353Y016122D01*
X033627Y016162D01*
X03371Y016227D01*
X033775Y01631D01*
X033815Y016407D01*
X033815Y016412D01*
D02*
G37*
G36*
X036378Y016843D02*
X036284Y016831D01*
X036196Y016795D01*
X036121Y016737D01*
X036063Y016662D01*
X036027Y016574D01*
X036015Y01648D01*
X036027Y016386D01*
X036063Y016299D01*
X036121Y016224D01*
X036196Y016166D01*
X036284Y01613D01*
X036378Y016117D01*
X036472Y01613D01*
X03656Y016166D01*
X036635Y016224D01*
X036692Y016299D01*
X036729Y016386D01*
X036741Y01648D01*
X036729Y016574D01*
X036692Y016662D01*
X036635Y016737D01*
X03656Y016795D01*
X036472Y016831D01*
X036378Y016843D01*
D02*
G37*
G36*
X011147Y016691D02*
X010427D01*
Y015971D01*
X011147D01*
Y016691D01*
D02*
G37*
G36*
X030866Y015875D02*
X030772Y015863D01*
X030685Y015826D01*
X030609Y015769D01*
X030552Y015693D01*
X030515Y015606D01*
X030507Y01554D01*
X030506Y015533D01*
X030455Y015532D01*
X030453Y015541D01*
X030445Y015582D01*
X030405Y015642D01*
X030346Y015681D01*
X030276Y015695D01*
X030205Y015681D01*
X030146Y015642D01*
X030106Y015582D01*
X030092Y015512D01*
X030106Y015442D01*
X030146Y015382D01*
X030163Y01537D01*
Y014197D01*
X030146Y014185D01*
X030106Y014125D01*
X030092Y014055D01*
X030106Y013985D01*
X030146Y013925D01*
X030205Y013886D01*
X030276Y013872D01*
X030346Y013886D01*
X030405Y013925D01*
X030445Y013985D01*
X030459Y014055D01*
X030445Y014125D01*
X030405Y014185D01*
X030388Y014197D01*
Y01537D01*
X030405Y015382D01*
X030445Y015442D01*
X030453Y015483D01*
X030455Y015492D01*
X030506Y01549D01*
X030507Y015483D01*
X030515Y015418D01*
X030552Y01533D01*
X030609Y015255D01*
X030685Y015197D01*
X030703Y01519D01*
Y014135D01*
X030697Y014125D01*
X030683Y014055D01*
X030697Y013985D01*
X030736Y013925D01*
X030796Y013886D01*
X030866Y013872D01*
X030936Y013886D01*
X030996Y013925D01*
X031036Y013985D01*
X03105Y014055D01*
X031036Y014125D01*
X031029Y014135D01*
Y01519D01*
X031048Y015197D01*
X031123Y015255D01*
X031181Y01533D01*
X031217Y015418D01*
X031229Y015512D01*
X031217Y015606D01*
X031181Y015693D01*
X031123Y015769D01*
X031048Y015826D01*
X03096Y015863D01*
X030866Y015875D01*
D02*
G37*
G36*
X036738Y01584D02*
X036018D01*
Y01512D01*
X036738D01*
Y01584D01*
D02*
G37*
G36*
X010787Y015694D02*
X010693Y015681D01*
X010606Y015645D01*
X010531Y015587D01*
X010473Y015512D01*
X010437Y015425D01*
X010424Y015331D01*
X010437Y015237D01*
X010473Y015149D01*
X010531Y015074D01*
X010606Y015016D01*
X010693Y01498D01*
X010787Y014968D01*
X010881Y01498D01*
X010969Y015016D01*
X011044Y015074D01*
X011102Y015149D01*
X011138Y015237D01*
X011151Y015331D01*
X011138Y015425D01*
X011102Y015512D01*
X011044Y015587D01*
X010969Y015645D01*
X010881Y015681D01*
X010787Y015694D01*
D02*
G37*
G36*
X024331Y02416D02*
X02426Y024146D01*
X024201Y024106D01*
X024161Y024047D01*
X024147Y023976D01*
X024161Y023906D01*
X024201Y023847D01*
X024219Y023835D01*
Y022218D01*
X024202Y022194D01*
X024189Y022124D01*
X024202Y022054D01*
X024242Y021994D01*
X024258Y021984D01*
Y021126D01*
X02424Y021114D01*
X024201Y021054D01*
X024187Y020984D01*
X024201Y020914D01*
X02424Y020854D01*
X024248Y020849D01*
Y019226D01*
X02423Y019214D01*
X024191Y019155D01*
X024177Y019085D01*
X024191Y019014D01*
X02423Y018955D01*
X024248Y018943D01*
Y015194D01*
X023851Y014797D01*
X019298D01*
X019089Y015007D01*
Y018228D01*
X019089Y018228D01*
X01908Y018271D01*
X019056Y018308D01*
X019056Y018308D01*
X018662Y018701D01*
X018626Y018726D01*
X018583Y018734D01*
X018583Y018734D01*
X016575D01*
X016532Y018726D01*
X016495Y018701D01*
X016495Y018701D01*
X016141Y018347D01*
X016117Y018311D01*
X016108Y018268D01*
X016108Y018268D01*
Y017591D01*
X016058Y017576D01*
X016035Y01761D01*
X015976Y01765D01*
X015906Y017664D01*
X015835Y01765D01*
X015776Y01761D01*
X015736Y017551D01*
X015722Y01748D01*
X015736Y01741D01*
X015776Y017351D01*
X015793Y017339D01*
Y010512D01*
X015793Y010512D01*
X015802Y010469D01*
X015826Y010432D01*
X016141Y010118D01*
X016141Y010118D01*
X016178Y010093D01*
X01622Y010085D01*
X01622Y010085D01*
X022244D01*
X022244Y010085D01*
X022287Y010093D01*
X022323Y010118D01*
X022599Y010393D01*
X022599Y010393D01*
X022623Y01043D01*
X022632Y010472D01*
X022632Y010472D01*
Y010486D01*
X022682Y010503D01*
X022707Y010471D01*
X02279Y010407D01*
X022888Y010366D01*
X022892Y010366D01*
Y010756D01*
Y011146D01*
X022888Y011146D01*
X02279Y011105D01*
X022707Y011041D01*
X022682Y011009D01*
X022632Y011026D01*
Y011555D01*
X022663Y011568D01*
X022682Y011569D01*
X022735Y011499D01*
X022811Y011441D01*
X022898Y011405D01*
X022992Y011393D01*
X023086Y011405D01*
X023174Y011441D01*
X023249Y011499D01*
X023307Y011574D01*
X023343Y011662D01*
X023355Y011756D01*
X023343Y01185D01*
X023307Y011937D01*
X023249Y012013D01*
X023174Y01207D01*
X023086Y012107D01*
X022992Y012119D01*
X022898Y012107D01*
X022811Y01207D01*
X022735Y012013D01*
X022682Y011943D01*
X022663Y011944D01*
X022632Y011957D01*
Y012237D01*
X022791Y012396D01*
X023352D01*
Y013116D01*
X022632D01*
Y012555D01*
X02244Y012363D01*
X022416Y012326D01*
X022408Y012283D01*
X022408Y012283D01*
Y011858D01*
X022359Y01185D01*
X022322Y011937D01*
X022265Y012013D01*
X022189Y01207D01*
X022102Y012107D01*
X022008Y012119D01*
X021914Y012107D01*
X021826Y01207D01*
X021751Y012013D01*
X021698Y011943D01*
X021679Y011944D01*
X021648Y011957D01*
Y012237D01*
X021806Y012396D01*
X022368D01*
Y013116D01*
X021648D01*
Y012555D01*
X021456Y012363D01*
X021432Y012326D01*
X021423Y012283D01*
X021423Y012283D01*
Y011858D01*
X021374Y01185D01*
X021338Y011937D01*
X02128Y012013D01*
X021205Y01207D01*
X021118Y012107D01*
X021024Y012119D01*
X02093Y012107D01*
X020842Y01207D01*
X020767Y012013D01*
X020709Y011937D01*
X020673Y01185D01*
X020661Y011756D01*
X020673Y011662D01*
X020709Y011574D01*
X020767Y011499D01*
X020842Y011441D01*
X020889Y011422D01*
X020879Y011372D01*
X020184D01*
X020174Y011422D01*
X020221Y011441D01*
X020296Y011499D01*
X020354Y011574D01*
X02039Y011662D01*
X020402Y011756D01*
X02039Y01185D01*
X020354Y011937D01*
X020296Y012013D01*
X020221Y01207D01*
X020133Y012107D01*
X020039Y012119D01*
X019945Y012107D01*
X019858Y01207D01*
X019783Y012013D01*
X019725Y011937D01*
X019689Y01185D01*
X019676Y011756D01*
X019689Y011662D01*
X019725Y011574D01*
X019783Y011499D01*
X019858Y011441D01*
X019905Y011422D01*
X019895Y011372D01*
X018078D01*
X01775Y0117D01*
Y016734D01*
X017751Y016735D01*
X017801Y016708D01*
Y01252D01*
X017801Y01252D01*
X01781Y012477D01*
X017834Y01244D01*
X01807Y012204D01*
X01807Y012204D01*
X018107Y01218D01*
X01815Y012171D01*
X01815Y012171D01*
X020551D01*
X020551Y012171D01*
X020594Y01218D01*
X02063Y012204D01*
X020822Y012396D01*
X021384D01*
Y013116D01*
X020664D01*
Y012555D01*
X020505Y012396D01*
X020449D01*
X020399Y012396D01*
Y013116D01*
X019679D01*
Y0129D01*
X018519D01*
X018313Y013106D01*
Y017445D01*
X018331Y017457D01*
X01837Y017516D01*
X018384Y017587D01*
X01837Y017657D01*
X018331Y017716D01*
X018271Y017756D01*
X018201Y01777D01*
X018131Y017756D01*
X018071Y017716D01*
X018031Y017657D01*
X018017Y017587D01*
X018031Y017516D01*
X018071Y017457D01*
X018089Y017445D01*
Y017396D01*
X01806Y017382D01*
X018039Y017377D01*
X017984Y017414D01*
X017913Y017428D01*
X017843Y017414D01*
X017784Y017374D01*
X017744Y017314D01*
X01773Y017244D01*
X017744Y017174D01*
X017771Y017133D01*
X017769Y017118D01*
X017714Y017095D01*
X017708Y017099D01*
X017638Y017113D01*
X017568Y017099D01*
X017508Y017059D01*
X017468Y016999D01*
X017454Y016929D01*
X017468Y016859D01*
X017508Y016799D01*
X017526Y016788D01*
Y011654D01*
X017526Y011654D01*
X017534Y011611D01*
X017558Y011574D01*
X017952Y011181D01*
X017952Y011181D01*
X017989Y011156D01*
X018031Y011148D01*
X018032Y011148D01*
X019815D01*
X019819Y01114D01*
X019828Y011098D01*
X019754Y011041D01*
X01969Y010958D01*
X01965Y01086D01*
X019649Y010856D01*
X020039D01*
X02043D01*
X020429Y01086D01*
X020389Y010958D01*
X020325Y011041D01*
X020251Y011098D01*
X02026Y01114D01*
X020264Y011148D01*
X020799D01*
X020803Y01114D01*
X020812Y011098D01*
X020738Y011041D01*
X020674Y010958D01*
X020634Y01086D01*
X020633Y010856D01*
X021024D01*
X021414D01*
X021413Y01086D01*
X021373Y010958D01*
X021309Y011041D01*
X021235Y011098D01*
X021244Y01114D01*
X021248Y011148D01*
X021339D01*
X021339Y011148D01*
X021381Y011156D01*
X021418Y011181D01*
X021615Y011377D01*
X021639Y011414D01*
X021648Y011457D01*
X021648Y011457D01*
Y011555D01*
X021679Y011568D01*
X021698Y011569D01*
X021751Y011499D01*
X021826Y011441D01*
X021914Y011405D01*
X022008Y011393D01*
X022102Y011405D01*
X022189Y011441D01*
X022265Y011499D01*
X022322Y011574D01*
X022359Y011662D01*
X022408Y011654D01*
Y010967D01*
X022358Y010957D01*
X022357Y010958D01*
X022293Y011041D01*
X02221Y011105D01*
X022112Y011146D01*
X022108Y011146D01*
Y010756D01*
X022008D01*
Y010656D01*
X021618D01*
X021618Y010651D01*
X021658Y010554D01*
X021723Y010471D01*
X021806Y010407D01*
X021903Y010366D01*
X021958Y010359D01*
X021955Y010309D01*
X021077D01*
X021073Y010359D01*
X021128Y010366D01*
X021225Y010407D01*
X021309Y010471D01*
X021373Y010554D01*
X021413Y010651D01*
X021414Y010656D01*
X021024D01*
X020633D01*
X020634Y010651D01*
X020674Y010554D01*
X020738Y010471D01*
X020822Y010407D01*
X020919Y010366D01*
X020974Y010359D01*
X020971Y010309D01*
X020092D01*
X020089Y010359D01*
X020144Y010366D01*
X020241Y010407D01*
X020325Y010471D01*
X020389Y010554D01*
X020429Y010651D01*
X02043Y010656D01*
X020039D01*
X019649D01*
X01965Y010651D01*
X01969Y010554D01*
X019754Y010471D01*
X019838Y010407D01*
X019935Y010366D01*
X01999Y010359D01*
X019986Y010309D01*
X016267D01*
X016018Y010558D01*
Y017339D01*
X016035Y017351D01*
X016058Y017385D01*
X016108Y01737D01*
Y015898D01*
X016108Y015898D01*
X016117Y015855D01*
X016141Y015818D01*
X016465Y015494D01*
X016437Y015425D01*
X016424Y015331D01*
X016437Y015237D01*
X016473Y015149D01*
X016531Y015074D01*
X016606Y015016D01*
X016693Y01498D01*
X016787Y014968D01*
X016881Y01498D01*
X016969Y015016D01*
X017044Y015074D01*
X017102Y015149D01*
X017138Y015237D01*
X017151Y015331D01*
X017138Y015425D01*
X017102Y015512D01*
X017044Y015587D01*
X016969Y015645D01*
X016881Y015681D01*
X016787Y015694D01*
X016693Y015681D01*
X016624Y015653D01*
X016333Y015944D01*
Y018221D01*
X016621Y01851D01*
X018536D01*
X018864Y018182D01*
Y014961D01*
X018864Y014961D01*
X018873Y014918D01*
X018897Y014881D01*
X019173Y014606D01*
X019173Y014606D01*
X019209Y014581D01*
X019252Y014573D01*
X019252Y014573D01*
X023898D01*
X023898Y014573D01*
X023941Y014581D01*
X023977Y014606D01*
X02444Y015068D01*
X02444Y015068D01*
X024464Y015105D01*
X024472Y015148D01*
X024472Y015148D01*
Y018943D01*
X02449Y018955D01*
X02453Y019014D01*
X024544Y019085D01*
X02453Y019155D01*
X02449Y019214D01*
X024482Y01922D01*
Y020843D01*
X0245Y020854D01*
X02454Y020914D01*
X024554Y020984D01*
X02454Y021054D01*
X0245Y021114D01*
X024482Y021126D01*
Y021981D01*
X024502Y021994D01*
X024542Y022054D01*
X024556Y022124D01*
X024542Y022194D01*
X024502Y022254D01*
X024443Y022293D01*
Y023835D01*
X02446Y023847D01*
X0245Y023906D01*
X024514Y023976D01*
X0245Y024047D01*
X02446Y024106D01*
X024401Y024146D01*
X024331Y02416D01*
D02*
G37*
G36*
X032047Y025538D02*
X031977Y025524D01*
X031917Y025484D01*
X031878Y025425D01*
X031864Y025354D01*
X031878Y025284D01*
X031917Y025225D01*
X031935Y025213D01*
Y020968D01*
X031917Y020957D01*
X031878Y020897D01*
X031864Y020827D01*
X031878Y020757D01*
X031917Y020697D01*
X031935Y020685D01*
Y014984D01*
X031917Y014972D01*
X031878Y014913D01*
X031864Y014843D01*
X031878Y014772D01*
X031917Y014713D01*
X031977Y014673D01*
X032047Y014659D01*
X032117Y014673D01*
X032177Y014713D01*
X032217Y014772D01*
X032231Y014843D01*
X032217Y014913D01*
X032177Y014972D01*
X032159Y014984D01*
Y020685D01*
X032177Y020697D01*
X032217Y020757D01*
X032231Y020827D01*
X032217Y020897D01*
X032177Y020957D01*
X032159Y020968D01*
Y025213D01*
X032177Y025225D01*
X032217Y025284D01*
X032231Y025354D01*
X032217Y025425D01*
X032177Y025484D01*
X032117Y025524D01*
X032047Y025538D01*
D02*
G37*
G36*
X024882Y021365D02*
X024812Y021351D01*
X024752Y021311D01*
X024712Y021251D01*
X024698Y021181D01*
X024712Y021111D01*
X024752Y021051D01*
X02477Y02104D01*
Y01896D01*
X024752Y018949D01*
X024712Y018889D01*
X024698Y018819D01*
X024712Y018749D01*
X024752Y018689D01*
X02477Y018677D01*
Y014889D01*
X024324Y014443D01*
X01918D01*
X018734Y014889D01*
Y017913D01*
X018734Y017913D01*
X018726Y017956D01*
X018701Y017993D01*
X018701Y017993D01*
X018386Y018308D01*
X01835Y018332D01*
X018307Y018341D01*
X018307Y018341D01*
X017126D01*
X017083Y018332D01*
X017047Y018308D01*
X017047Y018308D01*
X016708Y017969D01*
X016684Y017933D01*
X016675Y01789D01*
X016675Y01789D01*
Y016674D01*
X016606Y016645D01*
X016531Y016587D01*
X016473Y016512D01*
X016437Y016425D01*
X016424Y016331D01*
X016437Y016237D01*
X016473Y016149D01*
X016531Y016074D01*
X016606Y016016D01*
X016693Y01598D01*
X016787Y015968D01*
X016881Y01598D01*
X016969Y016016D01*
X017044Y016074D01*
X017102Y016149D01*
X017138Y016237D01*
X017151Y016331D01*
X017138Y016425D01*
X017102Y016512D01*
X017044Y016587D01*
X016969Y016645D01*
X0169Y016674D01*
Y017843D01*
X017172Y018116D01*
X018261D01*
X01851Y017867D01*
Y014843D01*
X01851Y014843D01*
X018518Y0148D01*
X018543Y014763D01*
X019055Y014251D01*
X019091Y014227D01*
X019134Y014219D01*
X019134Y014219D01*
X02437D01*
X02437Y014219D01*
X024413Y014227D01*
X024449Y014251D01*
X024961Y014763D01*
X024986Y0148D01*
X024994Y014843D01*
X024994Y014843D01*
Y018677D01*
X025012Y018689D01*
X025051Y018749D01*
X025065Y018819D01*
X025051Y018889D01*
X025012Y018949D01*
X024994Y01896D01*
Y02104D01*
X025012Y021051D01*
X025051Y021111D01*
X025065Y021181D01*
X025051Y021251D01*
X025012Y021311D01*
X024952Y021351D01*
X024882Y021365D01*
D02*
G37*
G36*
X029567Y019761D02*
X029486Y019751D01*
X029411Y01972D01*
X029346Y01967D01*
X029296Y019605D01*
X029265Y01953D01*
X02926Y019489D01*
X029254Y019449D01*
X029254Y019449D01*
Y014331D01*
X029265Y01425D01*
X029296Y014174D01*
X029346Y01411D01*
X029411Y01406D01*
X029486Y014029D01*
X029567Y014018D01*
X029648Y014029D01*
X029723Y01406D01*
X029788Y01411D01*
X029838Y014174D01*
X029869Y01425D01*
X02988Y014331D01*
Y019449D01*
X02988Y019449D01*
X029869Y01953D01*
X029838Y019605D01*
X029788Y01967D01*
X029723Y01972D01*
X029648Y019751D01*
X029567Y019761D01*
D02*
G37*
G36*
X011935Y018628D02*
X011215D01*
Y017908D01*
X011313D01*
Y014498D01*
X011304Y014487D01*
X011273Y014412D01*
X011262Y014331D01*
X011273Y01425D01*
X011304Y014174D01*
X011354Y01411D01*
X011418Y01406D01*
X011494Y014029D01*
X011575Y014018D01*
X011656Y014029D01*
X011731Y01406D01*
X011796Y01411D01*
X011846Y014174D01*
X011877Y01425D01*
X011887Y014331D01*
X011877Y014412D01*
X011846Y014487D01*
X011837Y014498D01*
Y017908D01*
X011935D01*
Y018628D01*
D02*
G37*
G36*
X016787Y014694D02*
X016693Y014681D01*
X016606Y014645D01*
X016531Y014587D01*
X016473Y014512D01*
X016437Y014425D01*
X016424Y014331D01*
X016437Y014237D01*
X016473Y014149D01*
X016531Y014074D01*
X016606Y014016D01*
X016693Y01398D01*
X016787Y013968D01*
X016881Y01398D01*
X016969Y014016D01*
X017044Y014074D01*
X017102Y014149D01*
X017138Y014237D01*
X017151Y014331D01*
X017138Y014425D01*
X017102Y014512D01*
X017044Y014587D01*
X016969Y014645D01*
X016881Y014681D01*
X016787Y014694D01*
D02*
G37*
G36*
X010787D02*
X010693Y014681D01*
X010606Y014645D01*
X010531Y014587D01*
X010473Y014512D01*
X010437Y014425D01*
X010424Y014331D01*
X010437Y014237D01*
X010473Y014149D01*
X010531Y014074D01*
X010606Y014016D01*
X010693Y01398D01*
X010787Y013968D01*
X010881Y01398D01*
X010969Y014016D01*
X011044Y014074D01*
X011102Y014149D01*
X011138Y014237D01*
X011151Y014331D01*
X011138Y014425D01*
X011102Y014512D01*
X011044Y014587D01*
X010969Y014645D01*
X010881Y014681D01*
X010787Y014694D01*
D02*
G37*
G36*
X033425Y015875D02*
X033331Y015863D01*
X033244Y015826D01*
X033168Y015769D01*
X033111Y015693D01*
X033074Y015606D01*
X033062Y015512D01*
X033074Y015418D01*
X033111Y01533D01*
X033168Y015255D01*
X033244Y015197D01*
X033262Y01519D01*
Y014214D01*
X033256Y014204D01*
X033242Y014134D01*
X033256Y014064D01*
X033295Y014004D01*
X033355Y013964D01*
X033425Y01395D01*
X033495Y013964D01*
X033555Y014004D01*
X033595Y014064D01*
X033609Y014134D01*
X033595Y014204D01*
X033588Y014214D01*
Y01519D01*
X033607Y015197D01*
X033682Y015255D01*
X03374Y01533D01*
X033776Y015418D01*
X033788Y015512D01*
X033776Y015606D01*
X03374Y015693D01*
X033682Y015769D01*
X033607Y015826D01*
X033519Y015863D01*
X033425Y015875D01*
D02*
G37*
G36*
X015315Y015065D02*
X015245Y015051D01*
X015185Y015012D01*
X015145Y014952D01*
X015131Y014882D01*
X015145Y014812D01*
X015185Y014752D01*
X015203Y01474D01*
Y01396D01*
X015185Y013949D01*
X015145Y013889D01*
X015131Y013819D01*
X015145Y013749D01*
X015185Y013689D01*
X015245Y013649D01*
X015315Y013635D01*
X015385Y013649D01*
X015445Y013689D01*
X015485Y013749D01*
X015498Y013819D01*
X015485Y013889D01*
X015445Y013949D01*
X015427Y01396D01*
Y01474D01*
X015445Y014752D01*
X015485Y014812D01*
X015498Y014882D01*
X015485Y014952D01*
X015445Y015012D01*
X015385Y015051D01*
X015315Y015065D01*
D02*
G37*
G36*
X016887Y013721D02*
Y013431D01*
X017178D01*
X017177Y013435D01*
X017137Y013532D01*
X017073Y013616D01*
X016989Y01368D01*
X016892Y01372D01*
X016887Y013721D01*
D02*
G37*
G36*
X016687D02*
X016683Y01372D01*
X016586Y01368D01*
X016502Y013616D01*
X016438Y013532D01*
X016398Y013435D01*
X016397Y013431D01*
X016687D01*
Y013721D01*
D02*
G37*
G36*
X010787Y013694D02*
X010693Y013681D01*
X010606Y013645D01*
X010531Y013587D01*
X010473Y013512D01*
X010437Y013425D01*
X010424Y013331D01*
X010437Y013237D01*
X010473Y013149D01*
X010531Y013074D01*
X010606Y013016D01*
X010693Y01298D01*
X010787Y012968D01*
X010881Y01298D01*
X010969Y013016D01*
X011044Y013074D01*
X011102Y013149D01*
X011138Y013237D01*
X011151Y013331D01*
X011138Y013425D01*
X011102Y013512D01*
X011044Y013587D01*
X010969Y013645D01*
X010881Y013681D01*
X010787Y013694D01*
D02*
G37*
G36*
X017178Y013231D02*
X016887D01*
Y01294D01*
X016892Y012941D01*
X016989Y012981D01*
X017073Y013045D01*
X017137Y013129D01*
X017177Y013226D01*
X017178Y013231D01*
D02*
G37*
G36*
X016687D02*
X016397D01*
X016398Y013226D01*
X016438Y013129D01*
X016502Y013045D01*
X016586Y012981D01*
X016683Y012941D01*
X016687Y01294D01*
Y013231D01*
D02*
G37*
G36*
X028898Y016325D02*
X028827Y016311D01*
X028768Y016272D01*
X028728Y016212D01*
X028714Y016142D01*
X028728Y016071D01*
X028768Y016012D01*
X028785Y016D01*
Y013116D01*
X028538D01*
Y012396D01*
X029258D01*
Y013116D01*
X02901D01*
Y016D01*
X029027Y016012D01*
X029067Y016071D01*
X029081Y016142D01*
X029067Y016212D01*
X029027Y016272D01*
X028968Y016311D01*
X028898Y016325D01*
D02*
G37*
G36*
X027913Y01601D02*
X027843Y015996D01*
X027784Y015957D01*
X027744Y015897D01*
X02773Y015827D01*
X027744Y015757D01*
X027784Y015697D01*
X027801Y015685D01*
Y013116D01*
X027553D01*
Y012396D01*
X028273D01*
Y013116D01*
X028026D01*
Y015685D01*
X028043Y015697D01*
X028083Y015757D01*
X028097Y015827D01*
X028083Y015897D01*
X028043Y015957D01*
X027984Y015996D01*
X027913Y01601D01*
D02*
G37*
G36*
X026305Y013116D02*
X025585D01*
Y012396D01*
X026305D01*
Y013116D01*
D02*
G37*
G36*
X025321D02*
X024601D01*
Y012396D01*
X025321D01*
Y013116D01*
D02*
G37*
G36*
X024336D02*
X023616D01*
Y012396D01*
X024336D01*
Y013116D01*
D02*
G37*
G36*
X026929Y015302D02*
X026859Y015288D01*
X026799Y015248D01*
X02676Y015188D01*
X026746Y015118D01*
X02676Y015048D01*
X026799Y014988D01*
X026817Y014977D01*
Y013116D01*
X026569D01*
Y012396D01*
X027289D01*
Y013116D01*
X027041D01*
Y014977D01*
X027059Y014988D01*
X027099Y015048D01*
X027113Y015118D01*
X027099Y015188D01*
X027059Y015248D01*
X026999Y015288D01*
X026929Y015302D01*
D02*
G37*
G36*
X014921Y01601D02*
X014851Y015996D01*
X014791Y015957D01*
X014752Y015897D01*
X014738Y015827D01*
X014752Y015757D01*
X014791Y015697D01*
X014809Y015685D01*
Y012701D01*
X014791Y012689D01*
X014752Y012629D01*
X014738Y012559D01*
X014752Y012489D01*
X014791Y012429D01*
X014851Y01239D01*
X014921Y012376D01*
X014991Y01239D01*
X015051Y012429D01*
X015091Y012489D01*
X015105Y012559D01*
X015091Y012629D01*
X015051Y012689D01*
X015033Y012701D01*
Y015685D01*
X015051Y015697D01*
X015091Y015757D01*
X015105Y015827D01*
X015091Y015897D01*
X015051Y015957D01*
X014991Y015996D01*
X014921Y01601D01*
D02*
G37*
G36*
X014528Y01727D02*
X014457Y017256D01*
X014398Y017216D01*
X014358Y017157D01*
X014344Y017087D01*
X014358Y017016D01*
X014398Y016957D01*
X014415Y016945D01*
Y01211D01*
X014398Y012098D01*
X014358Y012039D01*
X014344Y011968D01*
X014358Y011898D01*
X014398Y011839D01*
X014457Y011799D01*
X014528Y011785D01*
X014598Y011799D01*
X014657Y011839D01*
X014697Y011898D01*
X014711Y011968D01*
X014697Y012039D01*
X014657Y012098D01*
X01464Y01211D01*
Y016945D01*
X014657Y016957D01*
X014697Y017016D01*
X014711Y017087D01*
X014697Y017157D01*
X014657Y017216D01*
X014598Y017256D01*
X014528Y01727D01*
D02*
G37*
G36*
X036281Y012497D02*
Y011478D01*
X0373D01*
X037294Y011554D01*
X037253Y011726D01*
X037185Y01189D01*
X037093Y01204D01*
X036978Y012175D01*
X036844Y01229D01*
X036693Y012382D01*
X036529Y01245D01*
X036357Y012491D01*
X036281Y012497D01*
D02*
G37*
G36*
X036081D02*
X036005Y012491D01*
X035833Y01245D01*
X035669Y012382D01*
X035519Y01229D01*
X035384Y012175D01*
X035269Y01204D01*
X035177Y01189D01*
X035109Y011726D01*
X035068Y011554D01*
X035062Y011478D01*
X036081D01*
Y012497D01*
D02*
G37*
G36*
X011478D02*
Y011478D01*
X012497D01*
X012491Y011554D01*
X01245Y011726D01*
X012382Y01189D01*
X01229Y01204D01*
X012175Y012175D01*
X01204Y01229D01*
X01189Y012382D01*
X011726Y01245D01*
X011554Y012491D01*
X011478Y012497D01*
D02*
G37*
G36*
X011278D02*
X011202Y012491D01*
X01103Y01245D01*
X010866Y012382D01*
X010715Y01229D01*
X010581Y012175D01*
X010466Y01204D01*
X010374Y01189D01*
X010306Y011726D01*
X010265Y011554D01*
X010259Y011478D01*
X011278D01*
Y012497D01*
D02*
G37*
G36*
X028898Y012119D02*
X028804Y012107D01*
X028716Y01207D01*
X028641Y012013D01*
X028583Y011937D01*
X028547Y01185D01*
X028535Y011756D01*
X028547Y011662D01*
X028583Y011574D01*
X028641Y011499D01*
X028716Y011441D01*
X028804Y011405D01*
X028898Y011393D01*
X028992Y011405D01*
X029079Y011441D01*
X029154Y011499D01*
X029212Y011574D01*
X029248Y011662D01*
X029261Y011756D01*
X029248Y01185D01*
X029212Y011937D01*
X029154Y012013D01*
X029079Y01207D01*
X028992Y012107D01*
X028898Y012119D01*
D02*
G37*
G36*
X027913D02*
X027819Y012107D01*
X027732Y01207D01*
X027657Y012013D01*
X027599Y011937D01*
X027563Y01185D01*
X02755Y011756D01*
X027563Y011662D01*
X027599Y011574D01*
X027657Y011499D01*
X027732Y011441D01*
X027819Y011405D01*
X027913Y011393D01*
X028007Y011405D01*
X028095Y011441D01*
X02817Y011499D01*
X028228Y011574D01*
X028264Y011662D01*
X028276Y011756D01*
X028264Y01185D01*
X028228Y011937D01*
X02817Y012013D01*
X028095Y01207D01*
X028007Y012107D01*
X027913Y012119D01*
D02*
G37*
G36*
X025945D02*
X025851Y012107D01*
X025763Y01207D01*
X025688Y012013D01*
X02563Y011937D01*
X025594Y01185D01*
X025582Y011756D01*
X025594Y011662D01*
X02563Y011574D01*
X025688Y011499D01*
X025763Y011441D01*
X025851Y011405D01*
X025945Y011393D01*
X026039Y011405D01*
X026126Y011441D01*
X026202Y011499D01*
X026259Y011574D01*
X026296Y011662D01*
X026308Y011756D01*
X026296Y01185D01*
X026259Y011937D01*
X026202Y012013D01*
X026126Y01207D01*
X026039Y012107D01*
X025945Y012119D01*
D02*
G37*
G36*
X024961D02*
X024867Y012107D01*
X024779Y01207D01*
X024704Y012013D01*
X024646Y011937D01*
X02461Y01185D01*
X024598Y011756D01*
X02461Y011662D01*
X024646Y011574D01*
X024704Y011499D01*
X024779Y011441D01*
X024867Y011405D01*
X024961Y011393D01*
X025055Y011405D01*
X025142Y011441D01*
X025217Y011499D01*
X025275Y011574D01*
X025311Y011662D01*
X025324Y011756D01*
X025311Y01185D01*
X025275Y011937D01*
X025217Y012013D01*
X025142Y01207D01*
X025055Y012107D01*
X024961Y012119D01*
D02*
G37*
G36*
X023976D02*
X023882Y012107D01*
X023795Y01207D01*
X02372Y012013D01*
X023662Y011937D01*
X023626Y01185D01*
X023613Y011756D01*
X023626Y011662D01*
X023662Y011574D01*
X02372Y011499D01*
X023795Y011441D01*
X023882Y011405D01*
X023976Y011393D01*
X02407Y011405D01*
X024158Y011441D01*
X024233Y011499D01*
X024291Y011574D01*
X024327Y011662D01*
X024339Y011756D01*
X024327Y01185D01*
X024291Y011937D01*
X024233Y012013D01*
X024158Y01207D01*
X02407Y012107D01*
X023976Y012119D01*
D02*
G37*
G36*
X026929Y012119D02*
X026835Y012107D01*
X026748Y01207D01*
X026672Y012013D01*
X026615Y011937D01*
X026578Y01185D01*
X026566Y011756D01*
X026578Y011662D01*
X026615Y011574D01*
X026672Y011499D01*
X026748Y011441D01*
X026835Y011405D01*
X026929Y011393D01*
X027023Y011405D01*
X027111Y011441D01*
X027186Y011499D01*
X027244Y011574D01*
X02728Y011662D01*
X027292Y011756D01*
X02728Y01185D01*
X027244Y011937D01*
X027186Y012013D01*
X027111Y01207D01*
X027023Y012107D01*
X026929Y012119D01*
D02*
G37*
G36*
X028998Y011146D02*
Y010856D01*
X029288D01*
X029287Y01086D01*
X029247Y010958D01*
X029183Y011041D01*
X029099Y011105D01*
X029002Y011146D01*
X028998Y011146D01*
D02*
G37*
G36*
X028013D02*
Y010856D01*
X028304D01*
X028303Y01086D01*
X028263Y010958D01*
X028199Y011041D01*
X028115Y011105D01*
X028018Y011146D01*
X028013Y011146D01*
D02*
G37*
G36*
X026045D02*
Y010856D01*
X026335D01*
X026335Y01086D01*
X026294Y010958D01*
X02623Y011041D01*
X026147Y011105D01*
X026049Y011146D01*
X026045Y011146D01*
D02*
G37*
G36*
X025061D02*
Y010856D01*
X025351D01*
X02535Y01086D01*
X02531Y010958D01*
X025246Y011041D01*
X025162Y011105D01*
X025065Y011146D01*
X025061Y011146D01*
D02*
G37*
G36*
X024076D02*
Y010856D01*
X024367D01*
X024366Y01086D01*
X024326Y010958D01*
X024262Y011041D01*
X024178Y011105D01*
X024081Y011146D01*
X024076Y011146D01*
D02*
G37*
G36*
X023092D02*
Y010856D01*
X023382D01*
X023382Y01086D01*
X023342Y010958D01*
X023277Y011041D01*
X023194Y011105D01*
X023097Y011146D01*
X023092Y011146D01*
D02*
G37*
G36*
X028798D02*
X028793Y011146D01*
X028696Y011105D01*
X028612Y011041D01*
X028548Y010958D01*
X028508Y01086D01*
X028507Y010856D01*
X028798D01*
Y011146D01*
D02*
G37*
G36*
X027813D02*
X027809Y011146D01*
X027712Y011105D01*
X027628Y011041D01*
X027564Y010958D01*
X027524Y01086D01*
X027523Y010856D01*
X027813D01*
Y011146D01*
D02*
G37*
G36*
X025845D02*
X02584Y011146D01*
X025743Y011105D01*
X02566Y011041D01*
X025595Y010958D01*
X025555Y01086D01*
X025555Y010856D01*
X025845D01*
Y011146D01*
D02*
G37*
G36*
X024861D02*
X024856Y011146D01*
X024759Y011105D01*
X024675Y011041D01*
X024611Y010958D01*
X024571Y01086D01*
X02457Y010856D01*
X024861D01*
Y011146D01*
D02*
G37*
G36*
X023876D02*
X023872Y011146D01*
X023775Y011105D01*
X023691Y011041D01*
X023627Y010958D01*
X023587Y01086D01*
X023586Y010856D01*
X023876D01*
Y011146D01*
D02*
G37*
G36*
X021908D02*
X021903Y011146D01*
X021806Y011105D01*
X021723Y011041D01*
X021658Y010958D01*
X021618Y01086D01*
X021618Y010856D01*
X021908D01*
Y011146D01*
D02*
G37*
G36*
X027029Y011146D02*
Y010856D01*
X027319D01*
X027319Y01086D01*
X027279Y010958D01*
X027214Y011041D01*
X027131Y011105D01*
X027034Y011146D01*
X027029Y011146D01*
D02*
G37*
G36*
X026829D02*
X026825Y011146D01*
X026727Y011105D01*
X026644Y011041D01*
X02658Y010958D01*
X026539Y01086D01*
X026539Y010856D01*
X026829D01*
Y011146D01*
D02*
G37*
G36*
X029288Y010656D02*
X028998D01*
Y010366D01*
X029002Y010366D01*
X029099Y010407D01*
X029183Y010471D01*
X029247Y010554D01*
X029287Y010651D01*
X029288Y010656D01*
D02*
G37*
G36*
X028304D02*
X028013D01*
Y010366D01*
X028018Y010366D01*
X028115Y010407D01*
X028199Y010471D01*
X028263Y010554D01*
X028303Y010651D01*
X028304Y010656D01*
D02*
G37*
G36*
X026335D02*
X026045D01*
Y010366D01*
X026049Y010366D01*
X026147Y010407D01*
X02623Y010471D01*
X026294Y010554D01*
X026335Y010651D01*
X026335Y010656D01*
D02*
G37*
G36*
X025351D02*
X025061D01*
Y010366D01*
X025065Y010366D01*
X025162Y010407D01*
X025246Y010471D01*
X02531Y010554D01*
X02535Y010651D01*
X025351Y010656D01*
D02*
G37*
G36*
X024367D02*
X024076D01*
Y010366D01*
X024081Y010366D01*
X024178Y010407D01*
X024262Y010471D01*
X024326Y010554D01*
X024366Y010651D01*
X024367Y010656D01*
D02*
G37*
G36*
X023382D02*
X023092D01*
Y010366D01*
X023097Y010366D01*
X023194Y010407D01*
X023277Y010471D01*
X023342Y010554D01*
X023382Y010651D01*
X023382Y010656D01*
D02*
G37*
G36*
X028798D02*
X028507D01*
X028508Y010651D01*
X028548Y010554D01*
X028612Y010471D01*
X028696Y010407D01*
X028793Y010366D01*
X028798Y010366D01*
Y010656D01*
D02*
G37*
G36*
X027813D02*
X027523D01*
X027524Y010651D01*
X027564Y010554D01*
X027628Y010471D01*
X027712Y010407D01*
X027809Y010366D01*
X027813Y010366D01*
Y010656D01*
D02*
G37*
G36*
X025845D02*
X025555D01*
X025555Y010651D01*
X025595Y010554D01*
X02566Y010471D01*
X025743Y010407D01*
X02584Y010366D01*
X025845Y010366D01*
Y010656D01*
D02*
G37*
G36*
X024861D02*
X02457D01*
X024571Y010651D01*
X024611Y010554D01*
X024675Y010471D01*
X024759Y010407D01*
X024856Y010366D01*
X024861Y010366D01*
Y010656D01*
D02*
G37*
G36*
X023876D02*
X023586D01*
X023587Y010651D01*
X023627Y010554D01*
X023691Y010471D01*
X023775Y010407D01*
X023872Y010366D01*
X023876Y010366D01*
Y010656D01*
D02*
G37*
G36*
X027319Y010656D02*
X027029D01*
Y010366D01*
X027034Y010366D01*
X027131Y010407D01*
X027214Y010471D01*
X027279Y010554D01*
X027319Y010651D01*
X027319Y010656D01*
D02*
G37*
G36*
X026829D02*
X026539D01*
X026539Y010651D01*
X02658Y010554D01*
X026644Y010471D01*
X026727Y010407D01*
X026825Y010366D01*
X026829Y010366D01*
Y010656D01*
D02*
G37*
G36*
X0373Y011278D02*
X036281D01*
Y010259D01*
X036357Y010265D01*
X036529Y010306D01*
X036693Y010374D01*
X036844Y010466D01*
X036978Y010581D01*
X037093Y010715D01*
X037185Y010866D01*
X037253Y01103D01*
X037294Y011202D01*
X0373Y011278D01*
D02*
G37*
G36*
X036081D02*
X035062D01*
X035068Y011202D01*
X035109Y01103D01*
X035177Y010866D01*
X035269Y010715D01*
X035384Y010581D01*
X035519Y010466D01*
X035669Y010374D01*
X035833Y010306D01*
X036005Y010265D01*
X036081Y010259D01*
Y011278D01*
D02*
G37*
G36*
X012497D02*
X011478D01*
Y010259D01*
X011554Y010265D01*
X011726Y010306D01*
X01189Y010374D01*
X01204Y010466D01*
X012175Y010581D01*
X01229Y010715D01*
X012382Y010866D01*
X01245Y01103D01*
X012491Y011202D01*
X012497Y011278D01*
D02*
G37*
G36*
X011278D02*
X010259D01*
X010265Y011202D01*
X010306Y01103D01*
X010374Y010866D01*
X010466Y010715D01*
X010581Y010581D01*
X010715Y010466D01*
X010866Y010374D01*
X01103Y010306D01*
X011202Y010265D01*
X011278Y010259D01*
Y011278D01*
D02*
G37*
%LPD*%
D13*
X026929Y012756D02*
Y015118D01*
X013937Y021811D02*
Y025354D01*
X013937Y025354D01*
X015622Y023937D02*
Y027717D01*
X012244Y02437D02*
Y027717D01*
X013346Y025354D02*
Y028717D01*
X012559Y019646D02*
Y021339D01*
X012181Y019268D02*
X012559Y019646D01*
X011575Y019268D02*
X012181D01*
X012559Y021339D02*
Y02689D01*
X022008Y018583D02*
Y019646D01*
X021614Y020039D02*
X022008Y019646D01*
X023031Y020339D02*
Y021614D01*
Y020339D02*
X023043Y020327D01*
X022717Y018307D02*
Y020669D01*
X012835Y020315D02*
Y027126D01*
X016102Y018858D02*
Y020315D01*
X016102Y020315D02*
X016102Y020315D01*
X014528Y011968D02*
Y017087D01*
X014921Y012559D02*
Y015827D01*
X015315Y013819D02*
Y014882D01*
X027913Y012756D02*
Y015827D01*
X028898Y012756D02*
Y016142D01*
X028898Y016142D02*
X028898Y016142D01*
X030276Y014055D02*
Y015512D01*
X032402Y017008D02*
Y021811D01*
X037165Y021598D02*
Y024961D01*
X036378Y020811D02*
X037165Y021598D01*
X036929Y022362D02*
Y024567D01*
X036378Y021811D02*
X036929Y022362D01*
X031654Y014331D02*
Y019055D01*
X01622Y010197D02*
X022244D01*
X02252Y010472D01*
Y012283D01*
X022992Y012756D01*
X021535Y011457D02*
Y012283D01*
X021339Y01126D02*
X021535Y011457D01*
X018031Y01126D02*
X021339D01*
X017638Y011654D02*
X018031Y01126D01*
X021535Y012283D02*
X022008Y012756D01*
X01815Y012283D02*
X020551D01*
X021024Y012756D01*
X020008Y012787D02*
X020009Y012786D01*
X018472Y012787D02*
X020008D01*
X030472Y020236D02*
Y024134D01*
Y020236D02*
X031654Y019055D01*
X02436Y019085D02*
Y020974D01*
Y015148D02*
Y019085D01*
X025931Y022624D02*
Y024213D01*
X018307Y018228D02*
X018622Y017913D01*
X017126Y018228D02*
X018307D01*
X016787Y01789D02*
X017126Y018228D01*
X024882Y014843D02*
Y018819D01*
X021693Y024213D02*
X021693Y024213D01*
Y026181D01*
X023583Y024685D02*
Y026654D01*
X02437Y014331D02*
X024882Y014843D01*
X019134Y014331D02*
X02437D01*
X018622Y014843D02*
X019134Y014331D01*
X018622Y014843D02*
Y017913D01*
X016787Y016331D02*
Y01789D01*
X02437Y019055D02*
Y020984D01*
Y022126D01*
X02436Y020974D02*
X02437Y020984D01*
X023898Y014685D02*
X02436Y015148D01*
X019252Y014685D02*
X023898D01*
X018976Y014961D02*
X019252Y014685D01*
X018976Y014961D02*
Y018228D01*
X018583Y018622D02*
X018976Y018228D01*
X016575Y018622D02*
X018583D01*
X01622Y018268D02*
X016575Y018622D01*
X01622Y015898D02*
Y018268D01*
Y015898D02*
X016787Y015331D01*
X032047Y014843D02*
Y020827D01*
X024882Y018819D02*
Y021181D01*
X025931Y020801D02*
Y022624D01*
X031102Y025354D02*
Y028197D01*
X031622Y028717D01*
X032047Y020827D02*
Y025354D01*
X020896Y023986D02*
X020906Y023976D01*
X020896Y023986D02*
Y025226D01*
X02437Y022126D02*
X024372Y022124D01*
X024331Y022165D02*
X02437Y022126D01*
X024331Y022165D02*
Y023976D01*
X032402Y021811D02*
Y027357D01*
X032212Y027547D02*
X032402Y027357D01*
X032212Y027547D02*
Y028307D01*
X032622Y028717D01*
X018201Y013059D02*
Y017587D01*
Y013059D02*
X018472Y012787D01*
X017913Y01252D02*
Y017244D01*
Y01252D02*
X01815Y012283D01*
X017638Y011654D02*
Y016929D01*
X015906Y010512D02*
X01622Y010197D01*
X015906Y010512D02*
Y01748D01*
X023307Y024449D02*
Y026417D01*
X021339Y024449D02*
Y025315D01*
X019488Y018268D02*
Y021614D01*
X019488Y018268D02*
X019488Y018268D01*
X023043Y018319D02*
Y020327D01*
X020118Y015512D02*
Y02822D01*
X019622Y028717D02*
X020118Y02822D01*
X028622Y02689D02*
Y027717D01*
X025622Y027126D02*
Y027717D01*
X018071Y024724D02*
Y026654D01*
X036181Y025354D02*
Y026693D01*
X030079Y024528D02*
X030472Y024134D01*
X029646Y024567D02*
Y027693D01*
X030622Y024969D02*
Y027717D01*
X029622D02*
X029646Y027693D01*
X020472Y020118D02*
X020482Y020108D01*
Y018829D02*
Y020108D01*
X020748Y020984D02*
X020758Y020974D01*
Y019085D02*
Y020974D01*
X021024Y021339D02*
X021033Y021329D01*
Y019341D02*
Y021329D01*
X030079Y024528D02*
Y028173D01*
X030622Y028717D01*
D47*
X019803Y017913D02*
Y019724D01*
X027126Y017512D02*
Y019843D01*
X030866Y014055D02*
Y015512D01*
X033425Y014134D02*
Y015512D01*
X018524Y021909D02*
Y025217D01*
X026732Y025984D02*
X026732Y025984D01*
Y023898D02*
Y025984D01*
D48*
X011575Y014331D02*
Y018268D01*
X010551Y021417D02*
Y024567D01*
Y018307D02*
Y021417D01*
Y024567D02*
Y027717D01*
Y018307D02*
X010591Y018268D01*
D50*
X034803Y022795D02*
Y025354D01*
X033406Y017512D02*
X033437Y01748D01*
X029567Y014331D02*
Y019449D01*
X029567Y019449D01*
X033622Y026535D02*
X034803Y025354D01*
X033622Y026535D02*
Y027717D01*
X034803Y01748D02*
Y022795D01*
X035591Y019449D02*
Y022795D01*
X034787Y022811D02*
X034803Y022795D01*
X032953D02*
Y025984D01*
Y019449D02*
Y022795D01*
X032622Y027717D02*
X033622D01*
D51*
X025472Y018858D02*
Y021673D01*
X025453Y021693D02*
X025472Y021673D01*
X019252Y023031D02*
Y024724D01*
X015095Y023031D02*
X01748D01*
X015056Y022992D02*
X015095Y023031D01*
X015033Y022992D02*
X015056D01*
X015033Y021227D02*
Y022992D01*
X022323Y02563D02*
X022717Y026024D01*
X022323Y024016D02*
Y02563D01*
X021693Y023386D02*
X022323Y024016D01*
X025453Y021693D02*
Y026004D01*
X015033Y021227D02*
X015039Y02122D01*
D53*
X011575Y021402D02*
D03*
Y027717D02*
D03*
X03126Y020811D02*
D03*
X033819D02*
D03*
X030866Y017512D02*
D03*
X033425D02*
D03*
X014134Y018268D02*
D03*
X036378Y020811D02*
D03*
X028898Y012756D02*
D03*
X011575Y024567D02*
D03*
Y018268D02*
D03*
X036378Y01548D02*
D03*
X010787Y016331D02*
D03*
X027913Y012756D02*
D03*
X026929Y012756D02*
D03*
X025945Y012756D02*
D03*
X024961D02*
D03*
X023976D02*
D03*
X022992D02*
D03*
X022008D02*
D03*
X021024D02*
D03*
X020039D02*
D03*
D54*
X011575Y022402D02*
D03*
Y028717D02*
D03*
X03126Y021811D02*
D03*
Y022811D02*
D03*
Y023811D02*
D03*
X023622Y028717D02*
D03*
X022622D02*
D03*
X021622D02*
D03*
X020622D02*
D03*
X019622D02*
D03*
X018622D02*
D03*
X017622D02*
D03*
X016622D02*
D03*
X015622D02*
D03*
X014622D02*
D03*
X032622D02*
D03*
X031622D02*
D03*
X030622D02*
D03*
X029622D02*
D03*
X028622D02*
D03*
X027622D02*
D03*
X026622D02*
D03*
X025622D02*
D03*
X024622D02*
D03*
Y027717D02*
D03*
X025622D02*
D03*
X026622D02*
D03*
X027622D02*
D03*
X028622D02*
D03*
X029622D02*
D03*
X030622D02*
D03*
X031622D02*
D03*
X032622D02*
D03*
X033622D02*
D03*
X014622D02*
D03*
X015622D02*
D03*
X016622D02*
D03*
X017622D02*
D03*
X018622D02*
D03*
X019622D02*
D03*
X020622D02*
D03*
X021622D02*
D03*
X022622D02*
D03*
X023622D02*
D03*
X033819Y021811D02*
D03*
Y022811D02*
D03*
Y023811D02*
D03*
X030866Y016512D02*
D03*
Y015512D02*
D03*
X033425Y016512D02*
D03*
Y015512D02*
D03*
X014134Y019268D02*
D03*
X036378Y021811D02*
D03*
Y022811D02*
D03*
Y023811D02*
D03*
X028898Y011756D02*
D03*
Y010756D02*
D03*
X011575Y025567D02*
D03*
Y019268D02*
D03*
X036378Y01648D02*
D03*
Y01748D02*
D03*
Y01848D02*
D03*
X016787Y013331D02*
D03*
Y014331D02*
D03*
Y015331D02*
D03*
Y016331D02*
D03*
X010787Y015331D02*
D03*
Y014331D02*
D03*
Y013331D02*
D03*
X027913Y011756D02*
D03*
Y010756D02*
D03*
X026929Y011756D02*
D03*
Y010756D02*
D03*
X025945Y011756D02*
D03*
Y010756D02*
D03*
X024961Y011756D02*
D03*
Y010756D02*
D03*
X023976Y011756D02*
D03*
Y010756D02*
D03*
X022992Y011756D02*
D03*
Y010756D02*
D03*
X022008Y011756D02*
D03*
Y010756D02*
D03*
X021024Y011756D02*
D03*
Y010756D02*
D03*
X020039Y011756D02*
D03*
Y010756D02*
D03*
D55*
X036181Y011378D02*
D03*
X011378D02*
D03*
D56*
X033622Y028717D02*
D03*
D57*
X013937Y021811D02*
D03*
X013346Y023937D02*
D03*
X015622D02*
D03*
X012244Y027717D02*
D03*
Y02437D02*
D03*
X013346Y025354D02*
D03*
Y028717D02*
D03*
X013937Y025354D02*
D03*
X012559Y021339D02*
D03*
X012953Y010984D02*
D03*
X019803Y017913D02*
D03*
Y019724D02*
D03*
X027126Y019843D02*
D03*
Y017512D02*
D03*
X022008Y018583D02*
D03*
X021614Y020039D02*
D03*
X023071Y018307D02*
D03*
X022717D02*
D03*
X012835Y027126D02*
D03*
X016102Y020315D02*
D03*
X016102Y018858D02*
D03*
X012559Y02689D02*
D03*
X014528Y017087D02*
D03*
Y011968D02*
D03*
X014921Y015827D02*
D03*
Y012559D02*
D03*
X015315Y013819D02*
D03*
Y014882D02*
D03*
X026929Y015118D02*
D03*
X027913Y015827D02*
D03*
X028898Y016142D02*
D03*
X030276Y015512D02*
D03*
Y014055D02*
D03*
X030866Y014055D02*
D03*
X033425Y014134D02*
D03*
X032402Y017008D02*
D03*
X031654Y014331D02*
D03*
X02436Y019085D02*
D03*
X024882Y018819D02*
D03*
X012165Y019843D02*
D03*
X029094Y023386D02*
D03*
X017087Y010984D02*
D03*
X014134D02*
D03*
X015512Y019055D02*
D03*
X024764Y022992D02*
D03*
X023976Y022205D02*
D03*
X022598Y016102D02*
D03*
X035197Y016299D02*
D03*
X032835Y026732D02*
D03*
X031654D02*
D03*
X012953Y02811D02*
D03*
X016496Y026339D02*
D03*
X019252Y025748D02*
D03*
X01748Y022205D02*
D03*
X013937Y017087D02*
D03*
X015118Y020039D02*
D03*
X026535Y020236D02*
D03*
X022598Y017283D02*
D03*
X028307Y019449D02*
D03*
X029094Y02122D02*
D03*
X026142Y024961D02*
D03*
X028307Y025157D02*
D03*
X024567Y024961D02*
D03*
X01748Y02378D02*
D03*
X018524Y021909D02*
D03*
X026732Y025984D02*
D03*
X026732Y023898D02*
D03*
X025945Y024213D02*
D03*
X021693D02*
D03*
X023583Y024685D02*
D03*
X021693Y026181D02*
D03*
X024882Y021181D02*
D03*
X025931Y020801D02*
D03*
X032047Y020827D02*
D03*
Y014843D02*
D03*
X025931Y022624D02*
D03*
X031102Y025354D02*
D03*
X032047D02*
D03*
X020906Y023976D02*
D03*
X020896Y025226D02*
D03*
X02437Y020984D02*
D03*
X024331Y023976D02*
D03*
X024372Y022124D02*
D03*
X015906Y01748D02*
D03*
X023307Y026417D02*
D03*
Y024449D02*
D03*
X021339D02*
D03*
Y025315D02*
D03*
X023583Y026654D02*
D03*
X017638Y016929D02*
D03*
X017913Y017244D02*
D03*
X018201Y017587D02*
D03*
X023031Y021614D02*
D03*
X019488D02*
D03*
X019488Y018268D02*
D03*
X023043Y020327D02*
D03*
X022717Y020669D02*
D03*
X020118Y015512D02*
D03*
X028622Y02689D02*
D03*
X025622Y027126D02*
D03*
X018071Y026654D02*
D03*
Y024724D02*
D03*
X036181Y025354D02*
D03*
Y026693D02*
D03*
X036929Y024567D02*
D03*
X029646D02*
D03*
X037165Y024961D02*
D03*
X030622Y024969D02*
D03*
X018543Y025236D02*
D03*
X021033Y019341D02*
D03*
D58*
X019449Y022402D02*
D03*
X011772Y023583D02*
D03*
X015118Y017677D02*
D03*
X026339Y01374D02*
D03*
X028307D02*
D03*
X02752D02*
D03*
X033425Y018465D02*
D03*
X030866D02*
D03*
X028307Y018071D02*
D03*
X027126Y01689D02*
D03*
X028898D02*
D03*
X037165Y014134D02*
D03*
X034606D02*
D03*
X033622Y011968D02*
D03*
X032047D02*
D03*
X030472D02*
D03*
X019134Y011772D02*
D03*
X014016Y013622D02*
D03*
X012362D02*
D03*
X014016Y014921D02*
D03*
X012362D02*
D03*
X012835Y020315D02*
D03*
D59*
X025472Y018858D02*
D03*
X029567Y014331D02*
D03*
X011575D02*
D03*
X010551Y021417D02*
D03*
Y024567D02*
D03*
Y027717D02*
D03*
X010591Y018268D02*
D03*
X034803Y01748D02*
D03*
X035591Y022795D02*
D03*
X034787Y022811D02*
D03*
X034803Y025354D02*
D03*
X035591Y019449D02*
D03*
X022717Y026024D02*
D03*
X025453Y021693D02*
D03*
Y026004D02*
D03*
X021693Y023386D02*
D03*
X032953Y022795D02*
D03*
X029567Y019449D02*
D03*
X032953D02*
D03*
Y025984D02*
D03*
D60*
X019252Y023031D02*
D03*
X01748D02*
D03*
X032402Y021811D02*
D03*
X019252Y024724D02*
D03*
X020472Y020118D02*
D03*
X020482Y018829D02*
D03*
X020748Y020984D02*
D03*
X020758Y019085D02*
D03*
X021024Y021339D02*
D03*
X015039Y02122D02*
D03*
D61*
X027543Y022992D02*
D03*
X015056D02*
D03*
M02*
