G04*
G04 #@! TF.GenerationSoftware,Altium Limited,Altium Designer,18.1.9 (240)*
G04*
G04 Layer_Color=65535*
%FSTAX24Y24*%
%MOIN*%
G70*
G01*
G75*
%ADD10C,0.0040*%
%ADD11C,0.0098*%
%ADD12C,0.0236*%
%ADD13C,0.0100*%
%ADD14C,0.0039*%
%ADD15C,0.0050*%
%ADD16C,0.0010*%
%ADD17C,0.0079*%
%ADD18R,0.0236X0.0039*%
G36*
X011325Y016331D02*
X011575Y016081D01*
Y016581D01*
X011325Y016331D01*
D02*
G37*
G36*
X036299Y028622D02*
X036063Y028622D01*
X036181Y02878D01*
X036299Y028622D01*
D02*
G37*
G36*
X037087D02*
X03685Y028622D01*
X036969Y02878D01*
X037087Y028622D01*
D02*
G37*
D10*
X037236Y011378D02*
G03*
X037236Y011378I-001055J0D01*
G01*
X012433D02*
G03*
X012433Y011378I-001055J0D01*
G01*
D11*
X017884Y019252D02*
G03*
X017884Y019252I-000049J0D01*
G01*
X023356Y023959D02*
G03*
X023356Y023959I-000049J0D01*
G01*
X016644Y026061D02*
G03*
X016644Y026061I-000049J0D01*
G01*
X021486Y019646D02*
G03*
X021486Y019646I-000049J0D01*
G01*
D12*
X024272Y023445D02*
G03*
X024272Y023445I-000118J0D01*
G01*
X017638Y02565D02*
G03*
X017638Y02565I-000118J0D01*
G01*
X022382Y019213D02*
G03*
X022382Y019213I-000118J0D01*
G01*
D13*
X014856Y02143D02*
G03*
X014856Y02143I-00005J0D01*
G01*
D14*
X014193Y026063D02*
Y026614D01*
X013091Y026063D02*
X014193D01*
X013091D02*
Y026614D01*
X014193D01*
Y024094D02*
Y024646D01*
X013091Y024094D02*
X014193D01*
X013091D02*
Y024646D01*
X014193D01*
Y022732D02*
Y023283D01*
X013091Y022732D02*
X014193D01*
X013091D02*
Y023283D01*
X014193D01*
Y020394D02*
Y020945D01*
X013091Y020394D02*
X014193D01*
X013091D02*
Y020945D01*
X014193D01*
X010236Y020441D02*
X0125D01*
Y02337D01*
X010236D02*
X0125D01*
X010236Y020441D02*
Y02337D01*
Y026756D02*
X0125D01*
Y029685D01*
X010236D02*
X0125D01*
X010236Y026756D02*
Y029685D01*
X03002Y013425D02*
X031122D01*
Y013976D01*
X03002D02*
X031122D01*
X03002Y013425D02*
Y013976D01*
X032579Y013425D02*
X033681D01*
Y013976D01*
X032579D02*
X033681D01*
X032579Y013425D02*
Y013976D01*
Y012756D02*
X033681D01*
Y013307D01*
X032579D02*
X033681D01*
X032579Y012756D02*
Y013307D01*
X013091Y024685D02*
X014193D01*
Y025236D01*
X013091D02*
X014193D01*
X013091Y024685D02*
Y025236D01*
Y025472D02*
X014193D01*
Y026024D01*
X013091D02*
X014193D01*
X013091Y025472D02*
Y026024D01*
X012106Y015606D02*
X013209D01*
X012106Y015055D02*
Y015606D01*
Y015055D02*
X013209D01*
Y015606D01*
X013091Y022126D02*
X014193D01*
Y022677D01*
X013091D02*
X014193D01*
X013091Y022126D02*
Y022677D01*
Y021063D02*
X014193D01*
Y021614D01*
X013091D02*
X014193D01*
X013091Y021063D02*
Y021614D01*
X016988Y018583D02*
X018091D01*
Y019134D01*
X016988D02*
X018091D01*
X016988Y018583D02*
Y019134D01*
X03002Y012756D02*
X031122D01*
Y013307D01*
X03002D02*
X031122D01*
X03002Y012756D02*
Y013307D01*
X035945Y029252D02*
X036417D01*
Y02815D02*
Y029252D01*
X035945Y02815D02*
X036417D01*
X035945D02*
Y029252D01*
X036732D02*
X037205D01*
Y02815D02*
Y029252D01*
X036732Y02815D02*
X037205D01*
X036732D02*
Y029252D01*
X029921Y01985D02*
X032185D01*
Y024732D01*
X029921D02*
X032185D01*
X029921Y01985D02*
Y024732D01*
X016988Y021496D02*
X018091D01*
X016988Y020945D02*
Y021496D01*
Y020945D02*
X018091D01*
Y021496D01*
X037244Y026772D02*
Y027874D01*
X036693D02*
X037244D01*
X036693Y026772D02*
Y027874D01*
Y026772D02*
X037244D01*
X036457D02*
Y027874D01*
X035906D02*
X036457D01*
X035906Y026772D02*
Y027874D01*
Y026772D02*
X036457D01*
X026476Y02252D02*
X027579D01*
Y023071D01*
X026476D02*
X027579D01*
X026476Y02252D02*
Y023071D01*
X016988Y018543D02*
X018091D01*
X016988Y017992D02*
Y018543D01*
Y017992D02*
X018091D01*
Y018543D01*
X018268Y020945D02*
X01937D01*
Y021496D01*
X018268D02*
X01937D01*
X018268Y020945D02*
Y021496D01*
Y020354D02*
X01937D01*
Y020906D01*
X018268D02*
X01937D01*
X018268Y020354D02*
Y020906D01*
Y019764D02*
X01937D01*
Y020315D01*
X018268D02*
X01937D01*
X018268Y019764D02*
Y020315D01*
Y019173D02*
X01937D01*
Y019724D01*
X018268D02*
X01937D01*
X018268Y019173D02*
Y019724D01*
Y018583D02*
X01937D01*
Y019134D01*
X018268D02*
X01937D01*
X018268Y018583D02*
Y019134D01*
Y017992D02*
X01937D01*
Y018543D01*
X018268D02*
X01937D01*
X018268Y017992D02*
Y018543D01*
X025197Y017795D02*
X026299D01*
Y018346D01*
X025197D02*
X026299D01*
X025197Y017795D02*
Y018346D01*
X014636Y025502D02*
X015738D01*
X014636Y024951D02*
Y025502D01*
Y024951D02*
X015738D01*
Y025502D01*
X026476Y023858D02*
X027579D01*
X026476Y023307D02*
Y023858D01*
Y023307D02*
X027579D01*
Y023858D01*
X025197Y019055D02*
X026299D01*
Y019606D01*
X025197D02*
X026299D01*
X025197Y019055D02*
Y019606D01*
X03248Y01985D02*
X034744D01*
Y024732D01*
X03248D02*
X034744D01*
X03248Y01985D02*
Y024732D01*
X029941Y018472D02*
X032205D01*
X029941Y014543D02*
Y018472D01*
Y014543D02*
X032205D01*
Y018472D01*
X0325D02*
X034764D01*
X0325Y014543D02*
Y018472D01*
Y014543D02*
X034764D01*
Y018472D01*
X012795Y017307D02*
Y020236D01*
X015059D01*
Y017307D02*
Y020236D01*
X012795Y017307D02*
X015059D01*
X035039Y01985D02*
X037303D01*
Y024732D01*
X035039D02*
X037303D01*
X035039Y01985D02*
Y024732D01*
X010236Y023606D02*
Y026535D01*
X0125D01*
Y023606D02*
Y026535D01*
X010236Y023606D02*
X0125D01*
X010236Y017307D02*
Y020236D01*
X0125D01*
Y017307D02*
Y020236D01*
X010236Y017307D02*
X0125D01*
X035039Y01452D02*
X037303D01*
Y019402D01*
X035039D02*
X037303D01*
X035039Y01452D02*
Y019402D01*
X014711Y026371D02*
X014665Y026417D01*
X014573D01*
X014528Y026371D01*
Y026188D01*
X014573Y026142D01*
X014665D01*
X014711Y026188D01*
X014987Y026417D02*
X014895Y026371D01*
X014803Y026279D01*
Y026188D01*
X014849Y026142D01*
X014941D01*
X014987Y026188D01*
Y026234D01*
X014941Y026279D01*
X014803D01*
X014711Y024678D02*
X014665Y024724D01*
X014573D01*
X014528Y024678D01*
Y024495D01*
X014573Y024449D01*
X014665D01*
X014711Y024495D01*
X014803Y024724D02*
X014987D01*
Y024678D01*
X014803Y024495D01*
Y024449D01*
X014711Y023025D02*
X014665Y023071D01*
X014573D01*
X014528Y023025D01*
Y022841D01*
X014573Y022795D01*
X014665D01*
X014711Y022841D01*
X014987Y023071D02*
X014803D01*
Y022933D01*
X014895Y022979D01*
X014941D01*
X014987Y022933D01*
Y022841D01*
X014941Y022795D01*
X014849D01*
X014803Y022841D01*
X014672Y020671D02*
X014626Y020716D01*
X014534D01*
X014488Y020671D01*
Y020487D01*
X014534Y020441D01*
X014626D01*
X014672Y020487D01*
X014901Y020441D02*
Y020716D01*
X014764Y020579D01*
X014947D01*
X030276Y010407D02*
X030381Y010197D01*
X030485Y010407D01*
X030748Y010197D02*
X030643D01*
X03059Y010249D01*
Y010354D01*
X030643Y010407D01*
X030748D01*
X0308Y010354D01*
Y010302D01*
X03059D01*
X030905Y010407D02*
Y010197D01*
Y010302D01*
X030958Y010354D01*
X03101Y010407D01*
X031063D01*
X03122Y010197D02*
X031378D01*
X03143Y010249D01*
X031378Y010302D01*
X031273D01*
X03122Y010354D01*
X031273Y010407D01*
X03143D01*
X031535Y010197D02*
X03164D01*
X031588D01*
Y010407D01*
X031535D01*
X03185Y010197D02*
X031955D01*
X032007Y010249D01*
Y010354D01*
X031955Y010407D01*
X03185D01*
X031797Y010354D01*
Y010249D01*
X03185Y010197D01*
X032112D02*
Y010407D01*
X03227D01*
X032322Y010354D01*
Y010197D01*
X032742D02*
X032847D01*
X032794D01*
Y010512D01*
X032742Y010459D01*
X033004Y010197D02*
Y010249D01*
X033057D01*
Y010197D01*
X033004D01*
X033267Y010459D02*
X033319Y010512D01*
X033424D01*
X033477Y010459D01*
Y010249D01*
X033424Y010197D01*
X033319D01*
X033267Y010249D01*
Y010459D01*
X033582Y010197D02*
Y010249D01*
X033634D01*
Y010197D01*
X033582D01*
X034054D02*
X033844D01*
X034054Y010407D01*
Y010459D01*
X034001Y010512D01*
X033896D01*
X033844Y010459D01*
X030276Y011299D02*
Y010984D01*
X030433D01*
X030485Y011037D01*
Y011247D01*
X030433Y011299D01*
X030276D01*
X030748Y010984D02*
X030643D01*
X03059Y011037D01*
Y011142D01*
X030643Y011194D01*
X030748D01*
X0308Y011142D01*
Y011089D01*
X03059D01*
X030905Y010984D02*
X031063D01*
X031115Y011037D01*
X031063Y011089D01*
X030958D01*
X030905Y011142D01*
X030958Y011194D01*
X031115D01*
X03122Y010984D02*
X031325D01*
X031273D01*
Y011194D01*
X03122D01*
X031588Y010879D02*
X03164D01*
X031692Y010932D01*
Y011194D01*
X031535D01*
X031483Y011142D01*
Y011037D01*
X031535Y010984D01*
X031692D01*
X031797D02*
Y011194D01*
X031955D01*
X032007Y011142D01*
Y010984D01*
X032427Y011299D02*
Y010984D01*
X032585D01*
X032637Y011037D01*
Y011089D01*
Y011142D01*
X032585Y011194D01*
X032427D01*
X032742D02*
Y011037D01*
X032794Y010984D01*
X032952D01*
Y010932D01*
X032899Y010879D01*
X032847D01*
X032952Y010984D02*
Y011194D01*
X033582Y011299D02*
X033372D01*
Y011142D01*
X033477D01*
X033372D01*
Y010984D01*
X033687D02*
Y011299D01*
X033844D01*
X033896Y011247D01*
Y011142D01*
X033844Y011089D01*
X033687D01*
X034001Y011299D02*
X034211D01*
X034106D01*
Y010984D01*
X012165Y012953D02*
Y013268D01*
X01227Y013163D01*
X012375Y013268D01*
Y012953D01*
X01248D02*
Y013268D01*
X012638D01*
X01269Y013215D01*
Y01311D01*
X012638Y013058D01*
X01248D01*
X012795Y013268D02*
Y013005D01*
X012848Y012953D01*
X012953D01*
X013005Y013005D01*
Y013268D01*
X01311Y01311D02*
X01332D01*
X013425Y013005D02*
X013477Y012953D01*
X013582D01*
X013635Y013005D01*
Y013215D01*
X013582Y013268D01*
X013477D01*
X013425Y013215D01*
Y013163D01*
X013477Y01311D01*
X013635D01*
X01395Y012953D02*
X01374D01*
X01395Y013163D01*
Y013215D01*
X013897Y013268D01*
X013792D01*
X01374Y013215D01*
X014264Y013268D02*
X014055D01*
Y01311D01*
X014159Y013163D01*
X014212D01*
X014264Y01311D01*
Y013005D01*
X014212Y012953D01*
X014107D01*
X014055Y013005D01*
X014369Y013215D02*
X014422Y013268D01*
X014527D01*
X014579Y013215D01*
Y013005D01*
X014527Y012953D01*
X014422D01*
X014369Y013005D01*
Y013215D01*
X028858Y01559D02*
X02895D01*
X028904D01*
Y015315D01*
X028858D01*
X02895D01*
X029226Y01559D02*
X029134D01*
X029088Y015545D01*
Y015361D01*
X029134Y015315D01*
X029226D01*
X029272Y015361D01*
Y015545D01*
X029226Y01559D01*
X028701Y0175D02*
X028884D01*
X028793Y017592D02*
Y017408D01*
X02916Y017638D02*
X028976D01*
Y0175D01*
X029068Y017546D01*
X029114D01*
X02916Y0175D01*
Y017408D01*
X029114Y017362D01*
X029022D01*
X028976Y017408D01*
X029252Y017638D02*
Y017454D01*
X029344Y017362D01*
X029435Y017454D01*
Y017638D01*
X028884Y016529D02*
X028839Y016575D01*
X028747D01*
X028701Y016529D01*
Y016345D01*
X028747Y016299D01*
X028839D01*
X028884Y016345D01*
Y016437D01*
X028793D01*
X028976Y016299D02*
Y016575D01*
X02916Y016299D01*
Y016575D01*
X029252D02*
Y016299D01*
X02939D01*
X029435Y016345D01*
Y016529D01*
X02939Y016575D01*
X029252D01*
X032782Y019088D02*
X032736Y019134D01*
X032644D01*
X032598Y019088D01*
Y019042D01*
X032644Y018996D01*
X032736D01*
X032782Y01895D01*
Y018904D01*
X032736Y018858D01*
X032644D01*
X032598Y018904D01*
X033058Y019134D02*
X032874D01*
Y018858D01*
X033058D01*
X032874Y018996D02*
X032966D01*
X033149Y018858D02*
Y019134D01*
X033333Y018858D01*
Y019134D01*
X033609Y019088D02*
X033563Y019134D01*
X033471D01*
X033425Y019088D01*
Y019042D01*
X033471Y018996D01*
X033563D01*
X033609Y01895D01*
Y018904D01*
X033563Y018858D01*
X033471D01*
X033425Y018904D01*
X033838Y019134D02*
X033746D01*
X0337Y019088D01*
Y018904D01*
X033746Y018858D01*
X033838D01*
X033884Y018904D01*
Y019088D01*
X033838Y019134D01*
X033976Y018858D02*
Y019134D01*
X034114D01*
X03416Y019088D01*
Y018996D01*
X034114Y01895D01*
X033976D01*
X034068D02*
X03416Y018858D01*
X034251Y018812D02*
X034435D01*
X034711Y018858D02*
X034527D01*
X034711Y019042D01*
Y019088D01*
X034665Y019134D01*
X034573D01*
X034527Y019088D01*
X030262D02*
X030216Y019134D01*
X030125D01*
X030079Y019088D01*
Y019042D01*
X030125Y018996D01*
X030216D01*
X030262Y01895D01*
Y018904D01*
X030216Y018858D01*
X030125D01*
X030079Y018904D01*
X030538Y019134D02*
X030354D01*
Y018858D01*
X030538D01*
X030354Y018996D02*
X030446D01*
X03063Y018858D02*
Y019134D01*
X030813Y018858D01*
Y019134D01*
X031089Y019088D02*
X031043Y019134D01*
X030951D01*
X030905Y019088D01*
Y019042D01*
X030951Y018996D01*
X031043D01*
X031089Y01895D01*
Y018904D01*
X031043Y018858D01*
X030951D01*
X030905Y018904D01*
X031319Y019134D02*
X031227D01*
X031181Y019088D01*
Y018904D01*
X031227Y018858D01*
X031319D01*
X031364Y018904D01*
Y019088D01*
X031319Y019134D01*
X031456Y018858D02*
Y019134D01*
X031594D01*
X03164Y019088D01*
Y018996D01*
X031594Y01895D01*
X031456D01*
X031548D02*
X03164Y018858D01*
X031732Y018812D02*
X031915D01*
X032007Y018858D02*
X032099D01*
X032053D01*
Y019134D01*
X032007Y019088D01*
X028845Y021883D02*
X028799Y021929D01*
X028707D01*
X028661Y021883D01*
Y021837D01*
X028707Y021791D01*
X028799D01*
X028845Y021745D01*
Y021699D01*
X028799Y021654D01*
X028707D01*
X028661Y021699D01*
X028937Y021929D02*
Y021654D01*
X029075D01*
X029121Y021699D01*
Y021883D01*
X029075Y021929D01*
X028937D01*
X029212Y021654D02*
Y021837D01*
X029304Y021929D01*
X029396Y021837D01*
Y021654D01*
Y021791D01*
X029212D01*
X028845Y020938D02*
X028799Y020984D01*
X028707D01*
X028661Y020938D01*
Y020892D01*
X028707Y020846D01*
X028799D01*
X028845Y0208D01*
Y020755D01*
X028799Y020709D01*
X028707D01*
X028661Y020755D01*
X029121Y020938D02*
X029075Y020984D01*
X028983D01*
X028937Y020938D01*
Y020755D01*
X028983Y020709D01*
X029075D01*
X029121Y020755D01*
X029212Y020984D02*
Y020709D01*
X029396D01*
X028583Y022815D02*
X028766D01*
X028675Y022907D02*
Y022723D01*
X028858Y022907D02*
X028904Y022953D01*
X028996D01*
X029042Y022907D01*
Y022861D01*
X028996Y022815D01*
X02895D01*
X028996D01*
X029042Y022769D01*
Y022723D01*
X028996Y022677D01*
X028904D01*
X028858Y022723D01*
X029134Y022953D02*
Y022769D01*
X029226Y022677D01*
X029317Y022769D01*
Y022953D01*
X029409Y022907D02*
X029455Y022953D01*
X029547D01*
X029593Y022907D01*
Y022861D01*
X029547Y022815D01*
X029501D01*
X029547D01*
X029593Y022769D01*
Y022723D01*
X029547Y022677D01*
X029455D01*
X029409Y022723D01*
X028845Y02393D02*
X028799Y023976D01*
X028707D01*
X028661Y02393D01*
Y023747D01*
X028707Y023701D01*
X028799D01*
X028845Y023747D01*
Y023839D01*
X028753D01*
X028937Y023701D02*
Y023976D01*
X029121Y023701D01*
Y023976D01*
X029212D02*
Y023701D01*
X02935D01*
X029396Y023747D01*
Y02393D01*
X02935Y023976D01*
X029212D01*
X010669Y020039D02*
X010394D01*
Y019902D01*
X01044Y019856D01*
X010486D01*
X010531Y019902D01*
Y020039D01*
Y019902D01*
X010577Y019856D01*
X010623D01*
X010669Y019902D01*
Y020039D01*
Y019764D02*
Y01958D01*
Y019672D01*
X010394D01*
X010348Y019488D02*
Y019305D01*
X010394Y019075D02*
X010669D01*
X010531Y019213D01*
Y019029D01*
X010709Y023189D02*
X010433D01*
Y023051D01*
X010479Y023005D01*
X010525D01*
X010571Y023051D01*
Y023189D01*
Y023051D01*
X010617Y023005D01*
X010663D01*
X010709Y023051D01*
Y023189D01*
Y022913D02*
Y02273D01*
Y022822D01*
X010433D01*
X010387Y022638D02*
Y022454D01*
X010663Y022362D02*
X010709Y022317D01*
Y022225D01*
X010663Y022179D01*
X010617D01*
X010571Y022225D01*
Y022271D01*
Y022225D01*
X010525Y022179D01*
X010479D01*
X010433Y022225D01*
Y022317D01*
X010479Y022362D01*
X010669Y026339D02*
X010394D01*
Y026201D01*
X01044Y026155D01*
X010486D01*
X010531Y026201D01*
Y026339D01*
Y026201D01*
X010577Y026155D01*
X010623D01*
X010669Y026201D01*
Y026339D01*
Y026063D02*
Y025879D01*
Y025971D01*
X010394D01*
X010348Y025788D02*
Y025604D01*
X010394Y025328D02*
Y025512D01*
X010577Y025328D01*
X010623D01*
X010669Y025374D01*
Y025466D01*
X010623Y025512D01*
X010669Y029449D02*
X010394D01*
Y029311D01*
X01044Y029265D01*
X010486D01*
X010531Y029311D01*
Y029449D01*
Y029311D01*
X010577Y029265D01*
X010623D01*
X010669Y029311D01*
Y029449D01*
Y029173D02*
Y02899D01*
Y029081D01*
X010394D01*
X010348Y028898D02*
Y028714D01*
X010394Y028622D02*
Y02853D01*
Y028576D01*
X010669D01*
X010623Y028622D01*
X015354Y018248D02*
X015538D01*
X015446Y01834D02*
Y018156D01*
X015354Y019272D02*
X015538D01*
X015512Y020118D02*
Y019843D01*
X015695D01*
X015971Y020118D02*
X015787D01*
Y019843D01*
X015971D01*
X015787Y01998D02*
X015879D01*
X016063Y020118D02*
Y019843D01*
X016201D01*
X016246Y019888D01*
Y020072D01*
X016201Y020118D01*
X016063D01*
X015302Y013379D02*
X015256Y013425D01*
X015164D01*
X015118Y013379D01*
Y013196D01*
X015164Y01315D01*
X015256D01*
X015302Y013196D01*
Y013287D01*
X01521D01*
X015394Y01315D02*
Y013425D01*
X015577Y01315D01*
Y013425D01*
X015669D02*
Y01315D01*
X015807D01*
X015853Y013196D01*
Y013379D01*
X015807Y013425D01*
X015669D01*
X014803Y014311D02*
X014987D01*
X014895Y014403D02*
Y014219D01*
X015079Y014403D02*
X015125Y014449D01*
X015216D01*
X015262Y014403D01*
Y014357D01*
X015216Y014311D01*
X01517D01*
X015216D01*
X015262Y014265D01*
Y014219D01*
X015216Y014173D01*
X015125D01*
X015079Y014219D01*
X015354Y014449D02*
Y014265D01*
X015446Y014173D01*
X015538Y014265D01*
Y014449D01*
X01563Y014403D02*
X015676Y014449D01*
X015767D01*
X015813Y014403D01*
Y014357D01*
X015767Y014311D01*
X015721D01*
X015767D01*
X015813Y014265D01*
Y014219D01*
X015767Y014173D01*
X015676D01*
X01563Y014219D01*
X015302Y016529D02*
X015256Y016575D01*
X015164D01*
X015118Y016529D01*
Y016483D01*
X015164Y016437D01*
X015256D01*
X015302Y016391D01*
Y016345D01*
X015256Y016299D01*
X015164D01*
X015118Y016345D01*
X015577Y016529D02*
X015531Y016575D01*
X01544D01*
X015394Y016529D01*
Y016345D01*
X01544Y016299D01*
X015531D01*
X015577Y016345D01*
X015669Y016575D02*
Y016299D01*
X015853D01*
X015302Y015348D02*
X015256Y015394D01*
X015164D01*
X015118Y015348D01*
Y015302D01*
X015164Y015256D01*
X015256D01*
X015302Y01521D01*
Y015164D01*
X015256Y015118D01*
X015164D01*
X015118Y015164D01*
X015394Y015394D02*
Y015118D01*
X015531D01*
X015577Y015164D01*
Y015348D01*
X015531Y015394D01*
X015394D01*
X015669Y015118D02*
Y015302D01*
X015761Y015394D01*
X015853Y015302D01*
Y015118D01*
Y015256D01*
X015669D01*
X018412Y01082D02*
X018366Y010866D01*
X018274D01*
X018228Y01082D01*
Y010636D01*
X018274Y010591D01*
X018366D01*
X018412Y010636D01*
Y010728D01*
X01832D01*
X018504Y010591D02*
Y010866D01*
X018688Y010591D01*
Y010866D01*
X018779D02*
Y010591D01*
X018917D01*
X018963Y010636D01*
Y01082D01*
X018917Y010866D01*
X018779D01*
X018307Y01185D02*
Y011667D01*
X018399Y011575D01*
X018491Y011667D01*
Y01185D01*
X018583Y011713D02*
X018766D01*
X018674Y011804D02*
Y011621D01*
X018307Y012598D02*
Y012874D01*
X018445D01*
X018491Y012828D01*
Y012736D01*
X018445Y01269D01*
X018307D01*
X018583Y012874D02*
Y012598D01*
X018674Y01269D01*
X018766Y012598D01*
Y012874D01*
X018858Y012598D02*
Y012874D01*
X01895Y012782D01*
X019042Y012874D01*
Y012598D01*
X013346Y01515D02*
Y015425D01*
X013484D01*
X01353Y01538D01*
Y015288D01*
X013484Y015242D01*
X013346D01*
X013438D02*
X01353Y01515D01*
X013622D02*
X013714D01*
X013668D01*
Y015425D01*
X013622Y01538D01*
X013852D02*
X013897Y015425D01*
X013989D01*
X014035Y01538D01*
Y015334D01*
X013989Y015288D01*
X014035Y015242D01*
Y015196D01*
X013989Y01515D01*
X013897D01*
X013852Y015196D01*
Y015242D01*
X013897Y015288D01*
X013852Y015334D01*
Y01538D01*
X013897Y015288D02*
X013989D01*
X014528Y023976D02*
Y024252D01*
X014665D01*
X014711Y024206D01*
Y024114D01*
X014665Y024068D01*
X014528D01*
X014619D02*
X014711Y023976D01*
X014803D02*
X014895D01*
X014849D01*
Y024252D01*
X014803Y024206D01*
X01517Y023976D02*
Y024252D01*
X015033Y024114D01*
X015216D01*
X014528Y025709D02*
Y025984D01*
X014665D01*
X014711Y025938D01*
Y025846D01*
X014665Y0258D01*
X014528D01*
X014619D02*
X014711Y025709D01*
X014803D02*
X014895D01*
X014849D01*
Y025984D01*
X014803Y025938D01*
X015033D02*
X015079Y025984D01*
X01517D01*
X015216Y025938D01*
Y025892D01*
X01517Y025846D01*
X015124D01*
X01517D01*
X015216Y0258D01*
Y025755D01*
X01517Y025709D01*
X015079D01*
X015033Y025755D01*
X034016Y012953D02*
Y013228D01*
X034153D01*
X034199Y013182D01*
Y013091D01*
X034153Y013045D01*
X034016D01*
X034108D02*
X034199Y012953D01*
X034291Y013182D02*
X034337Y013228D01*
X034429D01*
X034475Y013182D01*
Y013136D01*
X034429Y013091D01*
X034475Y013045D01*
Y012999D01*
X034429Y012953D01*
X034337D01*
X034291Y012999D01*
Y013045D01*
X034337Y013091D01*
X034291Y013136D01*
Y013182D01*
X034337Y013091D02*
X034429D01*
X031457Y013543D02*
Y013819D01*
X031594D01*
X03164Y013773D01*
Y013681D01*
X031594Y013635D01*
X031457D01*
X031549D02*
X03164Y013543D01*
X03187D02*
Y013819D01*
X031732Y013681D01*
X031916D01*
X034016Y013543D02*
Y013819D01*
X034153D01*
X034199Y013773D01*
Y013681D01*
X034153Y013635D01*
X034016D01*
X034108D02*
X034199Y013543D01*
X034291Y013773D02*
X034337Y013819D01*
X034429D01*
X034475Y013773D01*
Y013727D01*
X034429Y013681D01*
X034383D01*
X034429D01*
X034475Y013635D01*
Y013589D01*
X034429Y013543D01*
X034337D01*
X034291Y013589D01*
X016089Y019298D02*
Y019482D01*
X016043Y019527D01*
X015951D01*
X015906Y019482D01*
Y019298D01*
X015951Y019252D01*
X016043D01*
X015997Y019344D02*
X016089Y019252D01*
X016043D02*
X016089Y019298D01*
X016181Y019252D02*
X016273D01*
X016227D01*
Y019527D01*
X016181Y019482D01*
X014528Y022205D02*
Y02248D01*
X014665D01*
X014711Y022434D01*
Y022342D01*
X014665Y022297D01*
X014528D01*
X014619D02*
X014711Y022205D01*
X014803D02*
X014895D01*
X014849D01*
Y02248D01*
X014803Y022434D01*
X015216Y022205D02*
X015033D01*
X015216Y022388D01*
Y022434D01*
X01517Y02248D01*
X015079D01*
X015033Y022434D01*
X014528Y021772D02*
Y022047D01*
X014665D01*
X014711Y022001D01*
Y021909D01*
X014665Y021863D01*
X014528D01*
X014619D02*
X014711Y021772D01*
X014803D02*
X014895D01*
X014849D01*
Y022047D01*
X014803Y022001D01*
X015033Y021772D02*
X015124D01*
X015079D01*
Y022047D01*
X015033Y022001D01*
X015906Y018661D02*
Y018937D01*
X016043D01*
X016089Y018891D01*
Y018799D01*
X016043Y018753D01*
X015906D01*
X015997D02*
X016089Y018661D01*
X016181D02*
X016273D01*
X016227D01*
Y018937D01*
X016181Y018891D01*
X016411D02*
X016457Y018937D01*
X016548D01*
X016594Y018891D01*
Y018707D01*
X016548Y018661D01*
X016457D01*
X016411Y018707D01*
Y018891D01*
X031457Y012953D02*
Y013228D01*
X031594D01*
X03164Y013182D01*
Y013091D01*
X031594Y013045D01*
X031457D01*
X031549D02*
X03164Y012953D01*
X031732Y012999D02*
X031778Y012953D01*
X03187D01*
X031916Y012999D01*
Y013182D01*
X03187Y013228D01*
X031778D01*
X031732Y013182D01*
Y013136D01*
X031778Y013091D01*
X031916D01*
X035079Y029173D02*
X034803D01*
Y02899D01*
X035079Y028714D02*
Y028898D01*
X034803D01*
Y028714D01*
X034941Y028898D02*
Y028806D01*
X035079Y028622D02*
X034803D01*
Y028484D01*
X034849Y028439D01*
X035033D01*
X035079Y028484D01*
Y028622D01*
X034803Y028163D02*
Y028347D01*
X034987Y028163D01*
X035033D01*
X035079Y028209D01*
Y028301D01*
X035033Y028347D01*
X03563Y029213D02*
X035354D01*
Y029029D01*
X03563Y028753D02*
Y028937D01*
X035354D01*
Y028753D01*
X035492Y028937D02*
Y028845D01*
X03563Y028662D02*
X035354D01*
Y028524D01*
X0354Y028478D01*
X035584D01*
X03563Y028524D01*
Y028662D01*
X035354Y028386D02*
Y028294D01*
Y02834D01*
X03563D01*
X035584Y028386D01*
X031444Y025315D02*
X031352D01*
X031398D01*
Y025085D01*
X031352Y025039D01*
X031306D01*
X03126Y025085D01*
X031673Y025039D02*
Y025315D01*
X031535Y025177D01*
X031719D01*
X022913Y020472D02*
X022638D01*
Y02061D01*
X022684Y020656D01*
X022776D01*
X022822Y02061D01*
Y020472D01*
Y020564D02*
X022913Y020656D01*
X022684Y020932D02*
X022638Y020886D01*
Y020794D01*
X022684Y020748D01*
X022867D01*
X022913Y020794D01*
Y020886D01*
X022867Y020932D01*
X022684Y021023D02*
X022638Y021069D01*
Y021161D01*
X022684Y021207D01*
X02273D01*
X022776Y021161D01*
X022822Y021207D01*
X022867D01*
X022913Y021161D01*
Y021069D01*
X022867Y021023D01*
X022822D01*
X022776Y021069D01*
X02273Y021023D01*
X022684D01*
X022776Y021069D02*
Y021161D01*
X02122Y020472D02*
X020945D01*
Y02061D01*
X020991Y020656D01*
X021083D01*
X021129Y02061D01*
Y020472D01*
Y020564D02*
X02122Y020656D01*
X020991Y020932D02*
X020945Y020886D01*
Y020794D01*
X020991Y020748D01*
X021175D01*
X02122Y020794D01*
Y020886D01*
X021175Y020932D01*
X020945Y021023D02*
Y021207D01*
X020991D01*
X021175Y021023D01*
X02122D01*
X023015Y024635D02*
Y024405D01*
X023061Y024359D01*
X023153D01*
X023199Y024405D01*
Y024635D01*
X023474Y024359D02*
X023291D01*
X023474Y024543D01*
Y024589D01*
X023428Y024635D01*
X023337D01*
X023291Y024589D01*
X02185Y015394D02*
Y015164D01*
X021896Y015118D01*
X021988D01*
X022034Y015164D01*
Y015394D01*
X022126Y015348D02*
X022172Y015394D01*
X022264D01*
X02231Y015348D01*
Y015302D01*
X022264Y015256D01*
X022218D01*
X022264D01*
X02231Y01521D01*
Y015164D01*
X022264Y015118D01*
X022172D01*
X022126Y015164D01*
X016496Y026614D02*
Y026384D01*
X016542Y026339D01*
X016634D01*
X01668Y026384D01*
Y026614D01*
X016772Y026339D02*
X016863D01*
X016817D01*
Y026614D01*
X016772Y026568D01*
X024961Y015945D02*
X024685D01*
Y016083D01*
X024731Y016129D01*
X024823D01*
X024869Y016083D01*
Y015945D01*
Y016037D02*
X024961Y016129D01*
X024731Y016404D02*
X024685Y016358D01*
Y016266D01*
X024731Y01622D01*
X024915D01*
X024961Y016266D01*
Y016358D01*
X024915Y016404D01*
X024685Y01668D02*
Y016496D01*
X024823D01*
X024777Y016588D01*
Y016634D01*
X024823Y01668D01*
X024915D01*
X024961Y016634D01*
Y016542D01*
X024915Y016496D01*
X019646Y015827D02*
X019921D01*
Y015689D01*
X019875Y015643D01*
X019783D01*
X019737Y015689D01*
Y015827D01*
Y015735D02*
X019646Y015643D01*
X019875Y015368D02*
X019921Y015414D01*
Y015505D01*
X019875Y015551D01*
X019692D01*
X019646Y015505D01*
Y015414D01*
X019692Y015368D01*
X019646Y015138D02*
X019921D01*
X019783Y015276D01*
Y015092D01*
X019646Y017441D02*
X019921D01*
Y017303D01*
X019875Y017257D01*
X019783D01*
X019737Y017303D01*
Y017441D01*
Y017349D02*
X019646Y017257D01*
X019875Y016982D02*
X019921Y017028D01*
Y01712D01*
X019875Y017165D01*
X019692D01*
X019646Y01712D01*
Y017028D01*
X019692Y016982D01*
X019875Y01689D02*
X019921Y016844D01*
Y016752D01*
X019875Y016706D01*
X019829D01*
X019783Y016752D01*
Y016798D01*
Y016752D01*
X019737Y016706D01*
X019692D01*
X019646Y016752D01*
Y016844D01*
X019692Y01689D01*
X02122Y022126D02*
X020945D01*
Y022264D01*
X020991Y02231D01*
X021083D01*
X021129Y022264D01*
Y022126D01*
Y022218D02*
X02122Y02231D01*
X020991Y022585D02*
X020945Y022539D01*
Y022447D01*
X020991Y022401D01*
X021175D01*
X02122Y022447D01*
Y022539D01*
X021175Y022585D01*
X02122Y022677D02*
Y022769D01*
Y022723D01*
X020945D01*
X020991Y022677D01*
X022835Y026063D02*
X02311D01*
Y025925D01*
X023064Y025879D01*
X022972D01*
X022926Y025925D01*
Y026063D01*
Y025971D02*
X022835Y025879D01*
X023064Y025604D02*
X02311Y02565D01*
Y025742D01*
X023064Y025787D01*
X022881D01*
X022835Y025742D01*
Y02565D01*
X022881Y025604D01*
X022835Y025328D02*
Y025512D01*
X023018Y025328D01*
X023064D01*
X02311Y025374D01*
Y025466D01*
X023064Y025512D01*
X025197Y017323D02*
Y017598D01*
X025335D01*
X025381Y017552D01*
Y017461D01*
X025335Y017415D01*
X025197D01*
X025289D02*
X025381Y017323D01*
X025656D02*
X025472D01*
X025656Y017507D01*
Y017552D01*
X02561Y017598D01*
X025518D01*
X025472Y017552D01*
X025932Y017598D02*
X025748D01*
Y017461D01*
X02584Y017507D01*
X025886D01*
X025932Y017461D01*
Y017369D01*
X025886Y017323D01*
X025794D01*
X025748Y017369D01*
X019685Y01811D02*
Y018386D01*
X019823D01*
X019869Y01834D01*
Y018248D01*
X019823Y018202D01*
X019685D01*
X019777D02*
X019869Y01811D01*
X020144D02*
X019961D01*
X020144Y018294D01*
Y01834D01*
X020098Y018386D01*
X020006D01*
X019961Y01834D01*
X020374Y01811D02*
Y018386D01*
X020236Y018248D01*
X02042D01*
X019685Y01874D02*
Y019016D01*
X019823D01*
X019869Y01897D01*
Y018878D01*
X019823Y018832D01*
X019685D01*
X019777D02*
X019869Y01874D01*
X020144D02*
X019961D01*
X020144Y018924D01*
Y01897D01*
X020098Y019016D01*
X020006D01*
X019961Y01897D01*
X020236Y01874D02*
X020328D01*
X020282D01*
Y019016D01*
X020236Y01897D01*
X019685Y019291D02*
Y019567D01*
X019823D01*
X019869Y019521D01*
Y019429D01*
X019823Y019383D01*
X019685D01*
X019777D02*
X019869Y019291D01*
X020144D02*
X019961D01*
X020144Y019475D01*
Y019521D01*
X020098Y019567D01*
X020006D01*
X019961Y019521D01*
X020236D02*
X020282Y019567D01*
X020374D01*
X02042Y019521D01*
Y019337D01*
X020374Y019291D01*
X020282D01*
X020236Y019337D01*
Y019521D01*
X019685Y019921D02*
Y020197D01*
X019823D01*
X019869Y020151D01*
Y020059D01*
X019823Y020013D01*
X019685D01*
X019777D02*
X019869Y019921D01*
X019961D02*
X020052D01*
X020006D01*
Y020197D01*
X019961Y020151D01*
X02019Y020197D02*
X020374D01*
Y020151D01*
X02019Y019967D01*
Y019921D01*
X019685Y020472D02*
Y020748D01*
X019823D01*
X019869Y020702D01*
Y02061D01*
X019823Y020564D01*
X019685D01*
X019777D02*
X019869Y020472D01*
X019961D02*
X020052D01*
X020006D01*
Y020748D01*
X019961Y020702D01*
X020374Y020748D02*
X020282Y020702D01*
X02019Y02061D01*
Y020518D01*
X020236Y020472D01*
X020328D01*
X020374Y020518D01*
Y020564D01*
X020328Y02061D01*
X02019D01*
X019685Y021102D02*
Y021378D01*
X019823D01*
X019869Y021332D01*
Y02124D01*
X019823Y021194D01*
X019685D01*
X019777D02*
X019869Y021102D01*
X019961D02*
X020052D01*
X020006D01*
Y021378D01*
X019961Y021332D01*
X020374Y021378D02*
X02019D01*
Y02124D01*
X020282Y021286D01*
X020328D01*
X020374Y02124D01*
Y021148D01*
X020328Y021102D01*
X020236D01*
X02019Y021148D01*
X015906Y018071D02*
Y018346D01*
X016043D01*
X016089Y0183D01*
Y018209D01*
X016043Y018163D01*
X015906D01*
X015997D02*
X016089Y018071D01*
X016365Y018346D02*
X016181D01*
Y018209D01*
X016273Y018255D01*
X016319D01*
X016365Y018209D01*
Y018117D01*
X016319Y018071D01*
X016227D01*
X016181Y018117D01*
X026457Y021969D02*
Y022244D01*
X026594D01*
X02664Y022198D01*
Y022106D01*
X026594Y02206D01*
X026457D01*
X026549D02*
X02664Y021969D01*
X026732D02*
X026824D01*
X026778D01*
Y022244D01*
X026732Y022198D01*
X036024Y026535D02*
X036299D01*
Y026398D01*
X036253Y026352D01*
X036161D01*
X036115Y026398D01*
Y026535D01*
Y026444D02*
X036024Y026352D01*
X036299Y02626D02*
Y026076D01*
X036253D01*
X03607Y02626D01*
X036024D01*
X03685Y026535D02*
X037126D01*
Y026398D01*
X03708Y026352D01*
X036988D01*
X036942Y026398D01*
Y026535D01*
Y026444D02*
X03685Y026352D01*
X037126Y026076D02*
X03708Y026168D01*
X036988Y02626D01*
X036896D01*
X03685Y026214D01*
Y026122D01*
X036896Y026076D01*
X036942D01*
X036988Y026122D01*
Y02626D01*
X016299Y020433D02*
Y020709D01*
X016437D01*
X016483Y020663D01*
Y020571D01*
X016437Y020525D01*
X016299D01*
X016391D02*
X016483Y020433D01*
X016758D02*
X016575D01*
X016758Y020617D01*
Y020663D01*
X016712Y020709D01*
X016621D01*
X016575Y020663D01*
X027703Y014016D02*
X027612D01*
X027657D01*
Y013786D01*
X027612Y01374D01*
X027566D01*
X02752Y013786D01*
X027795Y01374D02*
X027887D01*
X027841D01*
Y014016D01*
X027795Y01397D01*
X028025Y01374D02*
X028117D01*
X028071D01*
Y014016D01*
X028025Y01397D01*
X026719Y014016D02*
X026627D01*
X026673D01*
Y013786D01*
X026627Y01374D01*
X026581D01*
X026535Y013786D01*
X026811Y01374D02*
X026903D01*
X026857D01*
Y014016D01*
X026811Y01397D01*
X027041D02*
X027086Y014016D01*
X027178D01*
X027224Y01397D01*
Y013786D01*
X027178Y01374D01*
X027086D01*
X027041Y013786D01*
Y01397D01*
X025735Y014016D02*
X025643D01*
X025689D01*
Y013786D01*
X025643Y01374D01*
X025597D01*
X025551Y013786D01*
X02601Y01374D02*
X025827D01*
X02601Y013924D01*
Y01397D01*
X025964Y014016D01*
X025873D01*
X025827Y01397D01*
X026102D02*
X026148Y014016D01*
X02624D01*
X026286Y01397D01*
Y013924D01*
X02624Y013878D01*
X026194D01*
X02624D01*
X026286Y013832D01*
Y013786D01*
X02624Y01374D01*
X026148D01*
X026102Y013786D01*
X024751Y014016D02*
X024659D01*
X024705D01*
Y013786D01*
X024659Y01374D01*
X024613D01*
X024567Y013786D01*
X025026Y01374D02*
X024842D01*
X025026Y013924D01*
Y01397D01*
X02498Y014016D01*
X024888D01*
X024842Y01397D01*
X025302Y01374D02*
X025118D01*
X025302Y013924D01*
Y01397D01*
X025256Y014016D01*
X025164D01*
X025118Y01397D01*
X023766Y014016D02*
X023675D01*
X02372D01*
Y013786D01*
X023675Y01374D01*
X023629D01*
X023583Y013786D01*
X024042Y01374D02*
X023858D01*
X024042Y013924D01*
Y01397D01*
X023996Y014016D01*
X023904D01*
X023858Y01397D01*
X024134Y01374D02*
X024226D01*
X02418D01*
Y014016D01*
X024134Y01397D01*
X022782Y014016D02*
X02269D01*
X022736D01*
Y013786D01*
X02269Y01374D01*
X022644D01*
X022598Y013786D01*
X023058Y01374D02*
X022874D01*
X023058Y013924D01*
Y01397D01*
X023012Y014016D01*
X02292D01*
X022874Y01397D01*
X023149D02*
X023195Y014016D01*
X023287D01*
X023333Y01397D01*
Y013786D01*
X023287Y01374D01*
X023195D01*
X023149Y013786D01*
Y01397D01*
X021798Y014016D02*
X021706D01*
X021752D01*
Y013786D01*
X021706Y01374D01*
X02166D01*
X021614Y013786D01*
X02189Y01374D02*
X021982D01*
X021936D01*
Y014016D01*
X02189Y01397D01*
X022119Y013786D02*
X022165Y01374D01*
X022257D01*
X022303Y013786D01*
Y01397D01*
X022257Y014016D01*
X022165D01*
X022119Y01397D01*
Y013924D01*
X022165Y013878D01*
X022303D01*
X020814Y014016D02*
X020722D01*
X020768D01*
Y013786D01*
X020722Y01374D01*
X020676D01*
X02063Y013786D01*
X020905Y01374D02*
X020997D01*
X020951D01*
Y014016D01*
X020905Y01397D01*
X021135D02*
X021181Y014016D01*
X021273D01*
X021319Y01397D01*
Y013924D01*
X021273Y013878D01*
X021319Y013832D01*
Y013786D01*
X021273Y01374D01*
X021181D01*
X021135Y013786D01*
Y013832D01*
X021181Y013878D01*
X021135Y013924D01*
Y01397D01*
X021181Y013878D02*
X021273D01*
X019829Y014016D02*
X019737D01*
X019783D01*
Y013786D01*
X019737Y01374D01*
X019692D01*
X019646Y013786D01*
X019921Y01374D02*
X020013D01*
X019967D01*
Y014016D01*
X019921Y01397D01*
X020151Y014016D02*
X020334D01*
Y01397D01*
X020151Y013786D01*
Y01374D01*
X011916Y016496D02*
X011824D01*
X01187D01*
Y016266D01*
X011824Y01622D01*
X011778D01*
X011732Y016266D01*
X012008Y01622D02*
X0121D01*
X012054D01*
Y016496D01*
X012008Y01645D01*
X012421Y016496D02*
X012329Y01645D01*
X012237Y016358D01*
Y016266D01*
X012283Y01622D01*
X012375D01*
X012421Y016266D01*
Y016312D01*
X012375Y016358D01*
X012237D01*
X035262Y013819D02*
X035171D01*
X035216D01*
Y013589D01*
X035171Y013543D01*
X035125D01*
X035079Y013589D01*
X035354Y013543D02*
X035446D01*
X0354D01*
Y013819D01*
X035354Y013773D01*
X035767Y013819D02*
X035584D01*
Y013681D01*
X035676Y013727D01*
X035722D01*
X035767Y013681D01*
Y013589D01*
X035722Y013543D01*
X03563D01*
X035584Y013589D01*
X028688Y014016D02*
X028596D01*
X028642D01*
Y013786D01*
X028596Y01374D01*
X02855D01*
X028504Y013786D01*
X028779Y01374D02*
X028871D01*
X028825D01*
Y014016D01*
X028779Y01397D01*
X029193Y01374D02*
X029009D01*
X029193Y013924D01*
Y01397D01*
X029147Y014016D01*
X029055D01*
X029009Y01397D01*
X035144Y025315D02*
X035052D01*
X035098D01*
Y025085D01*
X035052Y025039D01*
X035007D01*
X034961Y025085D01*
X03542Y025315D02*
X035328Y025269D01*
X035236Y025177D01*
Y025085D01*
X035282Y025039D01*
X035374D01*
X03542Y025085D01*
Y025131D01*
X035374Y025177D01*
X035236D01*
X013255Y017756D02*
X013163D01*
X013209D01*
Y017526D01*
X013163Y01748D01*
X013117D01*
X013071Y017526D01*
X01353Y017756D02*
X013346D01*
Y017618D01*
X013438Y017664D01*
X013484D01*
X01353Y017618D01*
Y017526D01*
X013484Y01748D01*
X013392D01*
X013346Y017526D01*
X03164Y015016D02*
X031549D01*
X031594D01*
Y014786D01*
X031549Y01474D01*
X031503D01*
X031457Y014786D01*
X031732Y01497D02*
X031778Y015016D01*
X03187D01*
X031916Y01497D01*
Y014924D01*
X03187Y014878D01*
X031824D01*
X03187D01*
X031916Y014832D01*
Y014786D01*
X03187Y01474D01*
X031778D01*
X031732Y014786D01*
X034199Y015031D02*
X034108D01*
X034153D01*
Y014802D01*
X034108Y014756D01*
X034062D01*
X034016Y014802D01*
X034475Y014756D02*
X034291D01*
X034475Y01494D01*
Y014985D01*
X034429Y015031D01*
X034337D01*
X034291Y014985D01*
X029081Y026811D02*
X028989D01*
X029035D01*
Y026581D01*
X028989Y026535D01*
X028944D01*
X028898Y026581D01*
X029173Y026535D02*
X029265D01*
X029219D01*
Y026811D01*
X029173Y026765D01*
X015512Y020709D02*
Y020433D01*
X01565D01*
X015695Y020479D01*
Y020663D01*
X01565Y020709D01*
X015512D01*
X015787Y020433D02*
X015879D01*
X015833D01*
Y020709D01*
X015787Y020663D01*
X025381Y018852D02*
X025335Y018898D01*
X025243D01*
X025197Y018852D01*
Y018668D01*
X025243Y018622D01*
X025335D01*
X025381Y018668D01*
X025472Y018852D02*
X025518Y018898D01*
X02561D01*
X025656Y018852D01*
Y018806D01*
X02561Y01876D01*
X025564D01*
X02561D01*
X025656Y018714D01*
Y018668D01*
X02561Y018622D01*
X025518D01*
X025472Y018668D01*
X02664Y024324D02*
X026594Y02437D01*
X026503D01*
X026457Y024324D01*
Y02414D01*
X026503Y024094D01*
X026594D01*
X02664Y02414D01*
X026916Y024094D02*
X026732D01*
X026916Y024278D01*
Y024324D01*
X02687Y02437D01*
X026778D01*
X026732Y024324D01*
X015806Y025978D02*
X01576Y026024D01*
X015668D01*
X015622Y025978D01*
Y025794D01*
X015668Y025748D01*
X01576D01*
X015806Y025794D01*
X015898Y025748D02*
X015989D01*
X015943D01*
Y026024D01*
X015898Y025978D01*
D15*
X029921Y025079D02*
X03Y025157D01*
X030866D01*
X029921Y024732D02*
Y025079D01*
X033622Y025157D02*
X034685D01*
X034744Y025098D01*
Y024732D02*
Y025098D01*
X016826Y02089D02*
Y02155D01*
X014986D02*
X016826D01*
X014986Y02089D02*
Y02155D01*
Y02089D02*
X016826D01*
D16*
X026867Y026554D02*
X027367D01*
X026837Y026544D02*
X027367D01*
X026807Y026534D02*
X027367D01*
X026787Y026524D02*
X027367D01*
X026767Y026514D02*
X027367D01*
X026747Y026504D02*
X027367D01*
X026737Y026494D02*
X027357D01*
X026717Y026484D02*
X027357D01*
X026707Y026474D02*
X027357D01*
X026697Y026464D02*
X027357D01*
X026687Y026454D02*
X027347D01*
X026677Y026444D02*
X027347D01*
X026667Y026434D02*
X027347D01*
X026657Y026424D02*
X027347D01*
X026657Y026414D02*
X027337D01*
X026647Y026404D02*
X027337D01*
X026647Y026394D02*
X027337D01*
X026637Y026384D02*
X027337D01*
X026627Y026374D02*
X027337D01*
X026627Y026364D02*
X027327D01*
X026627Y026354D02*
X027327D01*
X026617Y026344D02*
X027327D01*
X026617Y026334D02*
X027327D01*
X026617Y026324D02*
X027327D01*
X026607Y026314D02*
X027317D01*
X026607Y026304D02*
X027317D01*
X026007Y026294D02*
X026517D01*
X026607D02*
X027317D01*
X025977Y026284D02*
X026517D01*
X026597D02*
X027317D01*
X027637D02*
X028117D01*
X025937Y026274D02*
X026517D01*
X026597D02*
X027307D01*
X027587D02*
X028107D01*
X025917Y026264D02*
X026517D01*
X026597D02*
X027307D01*
X027547D02*
X028107D01*
X025897Y026254D02*
X026507D01*
X026597D02*
X027307D01*
X027537D02*
X028107D01*
X025887Y026244D02*
X026507D01*
X026597D02*
X027307D01*
X027517D02*
X028107D01*
X025867Y026234D02*
X026507D01*
X026587D02*
X027307D01*
X027497D02*
X028107D01*
X025857Y026224D02*
X026507D01*
X026587D02*
X027297D01*
X027487D02*
X028107D01*
X025847Y026214D02*
X026497D01*
X026587D02*
X027297D01*
X027477D02*
X028107D01*
X025837Y026204D02*
X026497D01*
X026587D02*
X027297D01*
X027457D02*
X028107D01*
X025827Y026194D02*
X026497D01*
X026577D02*
X027297D01*
X027457D02*
X028097D01*
X025817Y026184D02*
X026497D01*
X026577D02*
X027287D01*
X027437D02*
X028087D01*
X025807Y026174D02*
X026487D01*
X026577D02*
X027287D01*
X027437D02*
X028097D01*
X025797Y026164D02*
X026487D01*
X026577D02*
X027287D01*
X027417D02*
X028087D01*
X025787Y026154D02*
X026487D01*
X026577D02*
X027287D01*
X027417D02*
X028087D01*
X025787Y026144D02*
X026487D01*
X026567D02*
X027287D01*
X027407D02*
X028077D01*
X025777Y026134D02*
X026487D01*
X026567D02*
X027277D01*
X027397D02*
X028077D01*
X025767Y026124D02*
X026477D01*
X026567D02*
X027277D01*
X027397D02*
X028077D01*
X025767Y026114D02*
X026477D01*
X026567D02*
X027277D01*
X027397D02*
X028077D01*
X025757Y026104D02*
X026477D01*
X026567D02*
X027277D01*
X027397D02*
X028077D01*
X025757Y026094D02*
X026477D01*
X026557D02*
X027277D01*
X027377D02*
X028077D01*
X025747Y026084D02*
X026467D01*
X026557D02*
X027277D01*
X027377D02*
X028077D01*
X025747Y026074D02*
X026467D01*
X026557D02*
X027267D01*
X027377D02*
X028067D01*
X025747Y026064D02*
X026467D01*
X026557D02*
X027267D01*
X027377D02*
X028067D01*
X025747Y026054D02*
X026467D01*
X026547D02*
X027267D01*
X027377D02*
X028067D01*
X025737Y026044D02*
X026467D01*
X026547D02*
X027257D01*
X027367D02*
X028067D01*
X025737Y026034D02*
X026457D01*
X026547D02*
X027257D01*
X027367D02*
X027467D01*
X027907D02*
X028067D01*
X025737Y026024D02*
X025917D01*
X026347D02*
X026457D01*
X026547D02*
X026657D01*
X027077D02*
X027257D01*
X027357D02*
X027467D01*
X027917D02*
X028067D01*
X025737Y026014D02*
X025897D01*
X026347D02*
X026457D01*
X026537D02*
X026657D01*
X027087D02*
X027257D01*
X027357D02*
X027467D01*
X027927D02*
X028067D01*
X025727Y026004D02*
X025877D01*
X026337D02*
X026457D01*
X026537D02*
X026647D01*
X027107D02*
X027257D01*
X027357D02*
X027467D01*
X027937D02*
X028057D01*
X025727Y025994D02*
X025867D01*
X026337D02*
X026447D01*
X026537D02*
X026647D01*
X027107D02*
X027247D01*
X027357D02*
X027467D01*
X027947D02*
X028057D01*
X025727Y025984D02*
X025857D01*
X026327D02*
X026447D01*
X026537D02*
X026647D01*
X027117D02*
X027247D01*
X027347D02*
X027467D01*
X027967D02*
X028047D01*
X025727Y025974D02*
X025847D01*
X026317D02*
X026447D01*
X026537D02*
X026647D01*
X027117D02*
X027247D01*
X027347D02*
X027467D01*
X027967D02*
X028047D01*
X025727Y025964D02*
X025847D01*
X026307D02*
X026447D01*
X026527D02*
X026647D01*
X027127D02*
X027247D01*
X027337D02*
X027467D01*
X027957D02*
X028047D01*
X025717Y025954D02*
X025837D01*
X026297D02*
X026437D01*
X026527D02*
X026637D01*
X027127D02*
X027237D01*
X027337D02*
X027477D01*
X027967D02*
X028037D01*
X025717Y025944D02*
X025837D01*
X026287D02*
X026437D01*
X026527D02*
X026637D01*
X027127D02*
X027237D01*
X027337D02*
X027487D01*
X027967D02*
X028037D01*
X025717Y025934D02*
X025827D01*
X026267D02*
X026437D01*
X026527D02*
X026637D01*
X027127D02*
X027237D01*
X027337D02*
X027487D01*
X027957D02*
X028037D01*
X025717Y025924D02*
X025827D01*
X025927D02*
X026437D01*
X026527D02*
X026637D01*
X026737D02*
X027017D01*
X027117D02*
X027237D01*
X027337D02*
X027507D01*
X027527D02*
X027557D01*
X027757D02*
X027957D01*
X027967D02*
X028037D01*
X025717Y025914D02*
X025827D01*
X025927D02*
X026437D01*
X026517D02*
X026637D01*
X026737D02*
X027017D01*
X027117D02*
X027237D01*
X027337D02*
X027637D01*
X027757D02*
X028037D01*
X025707Y025904D02*
X025827D01*
X025927D02*
X026427D01*
X026517D02*
X026627D01*
X026737D02*
X027017D01*
X027117D02*
X027227D01*
X027337D02*
X027627D01*
X027757D02*
X028037D01*
X025707Y025894D02*
X025817D01*
X025927D02*
X026427D01*
X026517D02*
X026627D01*
X026737D02*
X027007D01*
X027117D02*
X027227D01*
X027327D02*
X027627D01*
X027757D02*
X028037D01*
X025707Y025884D02*
X025817D01*
X025927D02*
X026427D01*
X026517D02*
X026627D01*
X026727D02*
X027007D01*
X027117D02*
X027227D01*
X027327D02*
X027627D01*
X027747D02*
X028027D01*
X025707Y025874D02*
X025817D01*
X025917D02*
X026427D01*
X026517D02*
X026627D01*
X026727D02*
X027007D01*
X027107D02*
X027227D01*
X027327D02*
X027617D01*
X027747D02*
X028027D01*
X025697Y025864D02*
X025817D01*
X025917D02*
X026417D01*
X026507D02*
X026627D01*
X026727D02*
X027007D01*
X027107D02*
X027217D01*
X027327D02*
X027617D01*
X027747D02*
X028017D01*
X025697Y025854D02*
X025817D01*
X025917D02*
X026417D01*
X026507D02*
X026627D01*
X026727D02*
X027007D01*
X027107D02*
X027217D01*
X027327D02*
X027617D01*
X027737D02*
X028017D01*
X025697Y025844D02*
X025807D01*
X025917D02*
X026417D01*
X026507D02*
X026617D01*
X026727D02*
X026997D01*
X027107D02*
X027217D01*
X027317D02*
X027617D01*
X027737D02*
X028017D01*
X025697Y025834D02*
X025807D01*
X026217D02*
X026417D01*
X026507D02*
X026617D01*
X026867D02*
X026927D01*
X027107D02*
X027217D01*
X027317D02*
X027617D01*
X027737D02*
X028017D01*
X025697Y025824D02*
X025807D01*
X026217D02*
X026417D01*
X026497D02*
X026617D01*
X027097D02*
X027217D01*
X027317D02*
X027617D01*
X027737D02*
X028017D01*
X025687Y025814D02*
X025807D01*
X026217D02*
X026407D01*
X026497D02*
X026617D01*
X027097D02*
X027207D01*
X027317D02*
X027607D01*
X027737D02*
X028017D01*
X025687Y025804D02*
X025807D01*
X026207D02*
X026407D01*
X026497D02*
X026617D01*
X027087D02*
X027207D01*
X027307D02*
X027607D01*
X027727D02*
X028017D01*
X025687Y025794D02*
X025797D01*
X026207D02*
X026407D01*
X026497D02*
X026607D01*
X027087D02*
X027207D01*
X027307D02*
X027607D01*
X027727D02*
X028007D01*
X025687Y025784D02*
X025797D01*
X026197D02*
X026407D01*
X026497D02*
X026607D01*
X027077D02*
X027207D01*
X027297D02*
X027597D01*
X027727D02*
X028007D01*
X025677Y025774D02*
X025797D01*
X026187D02*
X026397D01*
X026487D02*
X026607D01*
X027067D02*
X027197D01*
X027297D02*
X027597D01*
X027727D02*
X028007D01*
X025677Y025764D02*
X025797D01*
X026177D02*
X026397D01*
X026487D02*
X026607D01*
X027057D02*
X027197D01*
X027297D02*
X027597D01*
X027717D02*
X027997D01*
X025677Y025754D02*
X025797D01*
X026157D02*
X026397D01*
X026487D02*
X026607D01*
X027047D02*
X027197D01*
X027297D02*
X027597D01*
X027717D02*
X027997D01*
X025677Y025744D02*
X025787D01*
X026147D02*
X026397D01*
X026487D02*
X026597D01*
X027027D02*
X027197D01*
X027297D02*
X027597D01*
X027717D02*
X027997D01*
X025677Y025734D02*
X025787D01*
X026117D02*
X026387D01*
X026477D02*
X026597D01*
X027007D02*
X027197D01*
X027287D02*
X027597D01*
X027717D02*
X027997D01*
X025667Y025724D02*
X025787D01*
X025887D02*
X026387D01*
X026477D02*
X026597D01*
X026697D02*
X027197D01*
X027287D02*
X027587D01*
X027717D02*
X027997D01*
X025667Y025714D02*
X025787D01*
X025887D02*
X026387D01*
X026477D02*
X026597D01*
X026697D02*
X027197D01*
X027287D02*
X027587D01*
X027717D02*
X027997D01*
X025667Y025704D02*
X025777D01*
X025887D02*
X026387D01*
X026477D02*
X026597D01*
X026697D02*
X027187D01*
X027277D02*
X027587D01*
X027717D02*
X027997D01*
X025667Y025694D02*
X025777D01*
X025877D02*
X026387D01*
X026477D02*
X026587D01*
X026697D02*
X027187D01*
X027287D02*
X027597D01*
X027717D02*
X027987D01*
X025657Y025684D02*
X025777D01*
X025877D02*
X026377D01*
X026467D02*
X026587D01*
X026697D02*
X027187D01*
X027277D02*
X027577D01*
X027717D02*
X027987D01*
X025657Y025674D02*
X025777D01*
X025877D02*
X026377D01*
X026467D02*
X026587D01*
X026687D02*
X027187D01*
X027277D02*
X027577D01*
X027717D02*
X027987D01*
X025657Y025664D02*
X025777D01*
X025877D02*
X026377D01*
X026467D02*
X026587D01*
X026687D02*
X027177D01*
X027267D02*
X027577D01*
X027707D02*
X027987D01*
X025657Y025654D02*
X025767D01*
X025877D02*
X026377D01*
X026467D02*
X026587D01*
X026687D02*
X027177D01*
X027267D02*
X027577D01*
X027697D02*
X027987D01*
X025657Y025644D02*
X025767D01*
X025867D02*
X026367D01*
X026457D02*
X026577D01*
X026687D02*
X027177D01*
X027267D02*
X027577D01*
X027697D02*
X027977D01*
X025647Y025634D02*
X025767D01*
X025867D02*
X026367D01*
X026457D02*
X026577D01*
X026687D02*
X027177D01*
X027267D02*
X027567D01*
X027697D02*
X027977D01*
X025647Y025624D02*
X025767D01*
X025867D02*
X026367D01*
X026457D02*
X026577D01*
X026677D02*
X027177D01*
X027267D02*
X027567D01*
X027697D02*
X027977D01*
X025647Y025614D02*
X025757D01*
X025867D02*
X026367D01*
X026457D02*
X026577D01*
X026677D02*
X027167D01*
X027267D02*
X027567D01*
X027687D02*
X027977D01*
X025647Y025604D02*
X025757D01*
X025857D02*
X026357D01*
X026457D02*
X026577D01*
X026677D02*
X027167D01*
X027267D02*
X027567D01*
X027687D02*
X027977D01*
X025647Y025594D02*
X025757D01*
X025857D02*
X026357D01*
X026447D02*
X026567D01*
X026667D02*
X027167D01*
X027257D02*
X027567D01*
X027687D02*
X027967D01*
X025637Y025584D02*
X025757D01*
X025847D02*
X026357D01*
X026447D02*
X026567D01*
X026667D02*
X027157D01*
X027257D02*
X027557D01*
X027667D02*
X027967D01*
X025637Y025574D02*
X025757D01*
X025847D02*
X026357D01*
X026447D02*
X026567D01*
X026657D02*
X027157D01*
X027247D02*
X027557D01*
X027667D02*
X027967D01*
X025637Y025564D02*
X025747D01*
X025837D02*
X026347D01*
X026447D02*
X026567D01*
X026647D02*
X027157D01*
X027247D02*
X027557D01*
X027657D02*
X027967D01*
X025637Y025554D02*
X025747D01*
X025827D02*
X026347D01*
X026447D02*
X026567D01*
X026637D02*
X027157D01*
X027247D02*
X027557D01*
X027657D02*
X027967D01*
X025627Y025544D02*
X025747D01*
X025817D02*
X026347D01*
X026437D02*
X026557D01*
X026627D02*
X027157D01*
X027247D02*
X027557D01*
X027637D02*
X027957D01*
X025627Y025534D02*
X025747D01*
X025797D02*
X026347D01*
X026437D02*
X026557D01*
X026617D02*
X027147D01*
X027247D02*
X027547D01*
X027637D02*
X027957D01*
X025627Y025524D02*
X025747D01*
X025777D02*
X026347D01*
X026437D02*
X026557D01*
X026597D02*
X027147D01*
X027237D02*
X027547D01*
X027627D02*
X027957D01*
X025627Y025514D02*
X026337D01*
X026437D02*
X027147D01*
X027237D02*
X027547D01*
X027587D02*
X027957D01*
X025627Y025504D02*
X026337D01*
X026427D02*
X027147D01*
X027237D02*
X027947D01*
X025617Y025494D02*
X026337D01*
X026427D02*
X027147D01*
X027237D02*
X027947D01*
X025617Y025484D02*
X026337D01*
X026427D02*
X027137D01*
X027237D02*
X027947D01*
X025617Y025474D02*
X026327D01*
X026427D02*
X027137D01*
X027227D02*
X027947D01*
X025617Y025464D02*
X026327D01*
X026427D02*
X027137D01*
X027227D02*
X027937D01*
X025607Y025454D02*
X026327D01*
X026417D02*
X027137D01*
X027227D02*
X027937D01*
X025607Y025444D02*
X026317D01*
X026417D02*
X027127D01*
X027227D02*
X027927D01*
X025607Y025434D02*
X026317D01*
X026417D02*
X027127D01*
X027217D02*
X027927D01*
X025607Y025424D02*
X026307D01*
X026417D02*
X027127D01*
X027217D02*
X027917D01*
X025607Y025414D02*
X026307D01*
X026407D02*
X027127D01*
X027217D02*
X027917D01*
X025597Y025404D02*
X026297D01*
X026407D02*
X027127D01*
X027217D02*
X027907D01*
X025597Y025394D02*
X026287D01*
X026407D02*
X027117D01*
X027207D02*
X027907D01*
X025597Y025384D02*
X026287D01*
X026407D02*
X027117D01*
X027207D02*
X027897D01*
X028027D02*
X028077D01*
X025597Y025374D02*
X026277D01*
X026407D02*
X027117D01*
X027207D02*
X027877D01*
X028007D02*
X028097D01*
X025587Y025364D02*
X026267D01*
X026397D02*
X027117D01*
X027197D02*
X027867D01*
X027997D02*
X028047D01*
X028067D02*
X028107D01*
X025587Y025354D02*
X026257D01*
X026397D02*
X027107D01*
X027207D02*
X027867D01*
X027997D02*
X028117D01*
X025587Y025344D02*
X026247D01*
X026397D02*
X027107D01*
X027207D02*
X027857D01*
X027987D02*
X028017D01*
X028027D02*
X028087D01*
X028097D02*
X028117D01*
X025587Y025334D02*
X026237D01*
X026397D02*
X027107D01*
X027207D02*
X027847D01*
X027987D02*
X028017D01*
X028027D02*
X028047D01*
X028067D02*
X028087D01*
X028097D02*
X028127D01*
X025587Y025324D02*
X026227D01*
X026397D02*
X027107D01*
X027207D02*
X027827D01*
X027987D02*
X028007D01*
X028027D02*
X028087D01*
X028097D02*
X028127D01*
X025577Y025314D02*
X026207D01*
X026387D02*
X027107D01*
X027207D02*
X027827D01*
X027987D02*
X028007D01*
X028027D02*
X028087D01*
X028097D02*
X028127D01*
X025577Y025304D02*
X026197D01*
X026387D02*
X027097D01*
X027197D02*
X027807D01*
X027987D02*
X028017D01*
X028027D02*
X028077D01*
X028097D02*
X028127D01*
X025577Y025294D02*
X026177D01*
X026387D02*
X027097D01*
X027187D02*
X027787D01*
X027987D02*
X028017D01*
X028027D02*
X028047D01*
X028057D02*
X028087D01*
X028097D02*
X028127D01*
X025577Y025284D02*
X026157D01*
X026387D02*
X027097D01*
X027187D02*
X027767D01*
X027997D02*
X028047D01*
X028067D02*
X028117D01*
X025577Y025274D02*
X026137D01*
X026377D02*
X027097D01*
X027187D02*
X027737D01*
X027997D02*
X028037D01*
X028077D02*
X028107D01*
X025567Y025264D02*
X026107D01*
X026377D02*
X027097D01*
X027177D02*
X027677D01*
X028007D02*
X028107D01*
X025567Y025254D02*
X026067D01*
X026377D02*
X027097D01*
X028027D02*
X028087D01*
X026377Y025244D02*
X027097D01*
X026377Y025234D02*
X027087D01*
X026367Y025224D02*
X027087D01*
X026367Y025214D02*
X027077D01*
X026367Y025204D02*
X027077D01*
X026367Y025194D02*
X027077D01*
X026357Y025184D02*
X027067D01*
X026357Y025174D02*
X027057D01*
X026357Y025164D02*
X027057D01*
X026357Y025154D02*
X027047D01*
X026357Y025144D02*
X027047D01*
X026347Y025134D02*
X027037D01*
X026347Y025124D02*
X027027D01*
X026347Y025114D02*
X027027D01*
X026347Y025104D02*
X027017D01*
X026347Y025094D02*
X027007D01*
X026337Y025084D02*
X026997D01*
X026337Y025074D02*
X026987D01*
X026337Y025064D02*
X026967D01*
X026337Y025054D02*
X026957D01*
X026327Y025044D02*
X026947D01*
X026327Y025034D02*
X026927D01*
X026327Y025024D02*
X026907D01*
X026327Y025014D02*
X026887D01*
X026327Y025004D02*
X026857D01*
X026317Y024994D02*
X026817D01*
X026447Y024984D02*
X026467D01*
D17*
X017087Y020236D02*
Y020551D01*
X01748D01*
X017087Y01937D02*
Y019685D01*
Y01937D02*
X01748D01*
X023493Y020197D02*
X023808D01*
X023493Y021457D02*
X023808D01*
Y020197D02*
Y021457D01*
X023493Y020197D02*
Y021457D01*
X021772Y020197D02*
X022087D01*
X021772Y021457D02*
X022087D01*
Y020197D02*
Y021457D01*
X021772Y020197D02*
Y021457D01*
X02185Y02612D02*
X022165D01*
X02185Y02486D02*
X022165D01*
X02185D02*
Y02612D01*
X022165Y02486D02*
Y02612D01*
X02185Y021841D02*
Y0231D01*
X022165Y021841D02*
Y0231D01*
X02185D02*
X022165D01*
X02185Y021841D02*
X022165D01*
X018661Y017717D02*
X018976D01*
X018661Y016457D02*
X018976D01*
X018661D02*
Y017717D01*
X018976Y016457D02*
Y017717D01*
Y014882D02*
Y016142D01*
X018661Y014882D02*
Y016142D01*
Y014882D02*
X018976D01*
X018661Y016142D02*
X018976D01*
X025591Y015669D02*
X025906D01*
X025591Y016929D02*
X025906D01*
Y015669D02*
Y016929D01*
X025591Y015669D02*
Y016929D01*
X02376Y021909D02*
Y023839D01*
X02498Y021909D02*
Y023839D01*
X02376D02*
X02498D01*
X02376Y021909D02*
X02498D01*
X017126D02*
Y026043D01*
X019803Y021909D02*
Y026043D01*
X017126D02*
X019803D01*
X017126Y021909D02*
X019803D01*
X023122Y028217D02*
X024122D01*
X023122Y029216D02*
X024122D01*
X023122Y028217D02*
Y029216D01*
X024122Y028217D02*
Y029216D01*
X023122Y028217D02*
Y029216D01*
X022122Y028217D02*
Y029216D01*
X023122D01*
X022122Y028217D02*
X023122D01*
X021122D02*
X022122D01*
X021122Y029216D02*
X022122D01*
X021122Y028217D02*
Y029216D01*
X022122Y028217D02*
Y029216D01*
X021122Y028217D02*
Y029216D01*
X020122Y028217D02*
Y029216D01*
X021122D01*
X020122Y028217D02*
X021122D01*
X019122D02*
X020122D01*
X019122Y029216D02*
X020122D01*
X019122Y028217D02*
Y029216D01*
X020122Y028217D02*
Y029216D01*
X019122Y028217D02*
Y029216D01*
X018122Y028217D02*
Y029216D01*
X019122D01*
X018122Y028217D02*
X019122D01*
X017122D02*
X018122D01*
X017122Y029216D02*
X018122D01*
X017122Y028217D02*
Y029216D01*
X018122Y028217D02*
Y029216D01*
X017122Y028217D02*
Y029216D01*
X016122Y028217D02*
Y029216D01*
X017122D01*
X016122Y028217D02*
X017122D01*
X015122D02*
X016122D01*
X015122Y029216D02*
X016122D01*
X015122Y028217D02*
Y029216D01*
X016122Y028217D02*
Y029216D01*
X015122Y028217D02*
Y029216D01*
X014016Y028323D02*
Y029216D01*
X015122D01*
X014016Y028217D02*
X015122D01*
X033122D02*
X034213D01*
X033122Y029216D02*
X034213D01*
X033122Y028217D02*
Y029216D01*
X034213Y028307D02*
Y029216D01*
X033122Y028217D02*
Y029216D01*
X032122Y028217D02*
Y029216D01*
X033122D01*
X032122Y028217D02*
X033122D01*
X031122D02*
X032122D01*
X031122Y029216D02*
X032122D01*
X031122Y028217D02*
Y029216D01*
X032122Y028217D02*
Y029216D01*
X031122Y028217D02*
Y029216D01*
X030122Y028217D02*
Y029216D01*
X031122D01*
X030122Y028217D02*
X031122D01*
X029122D02*
X030122D01*
X029122Y029216D02*
X030122D01*
X029122Y028217D02*
Y029216D01*
X030122Y028217D02*
Y029216D01*
X029122Y028217D02*
Y029216D01*
X028122Y028217D02*
Y029216D01*
X029122D01*
X028122Y028217D02*
X029122D01*
X027122D02*
X028122D01*
X027122Y029216D02*
X028122D01*
X027122Y028217D02*
Y029216D01*
X028122Y028217D02*
Y029216D01*
X027122Y028217D02*
Y029216D01*
X026122Y028217D02*
Y029216D01*
X027122D01*
X026122Y028217D02*
X027122D01*
X025122D02*
X026122D01*
X025122Y029216D02*
X026122D01*
X025122Y028217D02*
Y029216D01*
X026122Y028217D02*
Y029216D01*
X025122Y028217D02*
Y029216D01*
X024122Y028217D02*
Y029216D01*
X025122D01*
X024122Y028217D02*
X025122D01*
X024122Y027216D02*
X025122D01*
X024122Y028217D02*
X025122D01*
X024122Y027216D02*
Y028217D01*
X025122Y027216D02*
Y028217D01*
X026122Y027216D02*
Y028217D01*
X025122Y027216D02*
Y028217D01*
X026122D01*
X025122Y027216D02*
X026122D01*
X027122D01*
X026122Y028217D02*
X027122D01*
X026122Y027216D02*
Y028217D01*
X027122Y027216D02*
Y028217D01*
X028122Y027216D02*
Y028217D01*
X027122Y027216D02*
Y028217D01*
X028122D01*
X027122Y027216D02*
X028122D01*
X029122D01*
X028122Y028217D02*
X029122D01*
X028122Y027216D02*
Y028217D01*
X029122Y027216D02*
Y028217D01*
X030122Y027216D02*
Y028217D01*
X029122Y027216D02*
Y028217D01*
X030122D01*
X029122Y027216D02*
X030122D01*
X031122D01*
X030122Y028217D02*
X031122D01*
X030122Y027216D02*
Y028217D01*
X031122Y027216D02*
Y028217D01*
X032122Y027216D02*
Y028217D01*
X031122Y027216D02*
Y028217D01*
X032122D01*
X031122Y027216D02*
X032122D01*
X033122D01*
X032122Y028217D02*
X033122D01*
X032122Y027216D02*
Y028217D01*
X033122Y027216D02*
Y028217D01*
X034213Y027216D02*
Y028307D01*
X033122Y027216D02*
Y028217D01*
X034213D01*
X033122Y027216D02*
X034213D01*
X014016D02*
X015122D01*
X014122Y028217D02*
X015122D01*
X014016Y027216D02*
Y028323D01*
X015122Y027216D02*
Y028217D01*
X016122Y027216D02*
Y028217D01*
X015122Y027216D02*
Y028217D01*
X016122D01*
X015122Y027216D02*
X016122D01*
X017122D01*
X016122Y028217D02*
X017122D01*
X016122Y027216D02*
Y028217D01*
X017122Y027216D02*
Y028217D01*
X018122Y027216D02*
Y028217D01*
X017122Y027216D02*
Y028217D01*
X018122D01*
X017122Y027216D02*
X018122D01*
X019122D01*
X018122Y028217D02*
X019122D01*
X018122Y027216D02*
Y028217D01*
X019122Y027216D02*
Y028217D01*
X020122Y027216D02*
Y028217D01*
X019122Y027216D02*
Y028217D01*
X020122D01*
X019122Y027216D02*
X020122D01*
X021122D01*
X020122Y028217D02*
X021122D01*
X020122Y027216D02*
Y028217D01*
X021122Y027216D02*
Y028217D01*
X022122Y027216D02*
Y028217D01*
X021122Y027216D02*
Y028217D01*
X022122D01*
X021122Y027216D02*
X022122D01*
X023122D01*
X022122Y028217D02*
X023122D01*
X022122Y027216D02*
Y028217D01*
X023122Y027216D02*
Y028217D01*
X024122Y027216D02*
Y028217D01*
X023122Y027216D02*
Y028217D01*
X024122D01*
X023122Y027216D02*
X024122D01*
X02187Y015748D02*
X023327D01*
X02187Y019606D02*
X023327D01*
Y015748D02*
Y019606D01*
X02187Y015748D02*
Y019606D01*
X029398Y011256D02*
Y012256D01*
X028398Y011256D02*
Y012256D01*
Y011256D02*
X029398D01*
X028398Y012256D02*
X029398D01*
X028398Y013256D02*
X029398D01*
X028398Y012256D02*
X029398D01*
X028398D02*
Y013256D01*
X029398Y012256D02*
Y013256D01*
X028398Y011256D02*
X029398D01*
X028398Y010256D02*
Y011256D01*
X029398Y010256D02*
Y011256D01*
X028398Y010256D02*
X029398D01*
X017287Y012831D02*
Y013831D01*
X016287Y012831D02*
Y013831D01*
Y012831D02*
X017287D01*
X016287Y013831D02*
Y014831D01*
X017287Y013831D02*
Y014831D01*
Y015831D01*
X016287Y014831D02*
Y015831D01*
Y016831D02*
X017287D01*
X016287Y015831D02*
Y016831D01*
X017287Y015831D02*
Y016831D01*
X011287Y015831D02*
Y016831D01*
X010287Y015831D02*
Y016831D01*
Y015831D02*
X011287D01*
X010287Y016831D02*
X011287D01*
X010287Y015831D02*
X011287D01*
X010287Y014831D02*
Y015831D01*
X011287Y014831D02*
Y015831D01*
Y013831D02*
Y014831D01*
X010287Y013831D02*
Y014831D01*
Y012831D02*
X011287D01*
X010287D02*
Y013831D01*
X011287Y012831D02*
Y013831D01*
X028413Y011256D02*
Y012256D01*
X027413Y011256D02*
Y012256D01*
Y011256D02*
X028413D01*
X027413Y012256D02*
X028413D01*
X027413Y013256D02*
X028413D01*
X027413Y012256D02*
X028413D01*
X027413D02*
Y013256D01*
X028413Y012256D02*
Y013256D01*
X027413Y011256D02*
X028413D01*
X027413Y010256D02*
Y011256D01*
X028413Y010256D02*
Y011256D01*
X027413Y010256D02*
X028413D01*
X027429Y011256D02*
Y012256D01*
X026429Y011256D02*
Y012256D01*
Y011256D02*
X027429D01*
X026429Y012256D02*
X027429D01*
X026429Y013256D02*
X027429D01*
X026429Y012256D02*
X027429D01*
X026429D02*
Y013256D01*
X027429Y012256D02*
Y013256D01*
X026429Y011256D02*
X027429D01*
X026429Y010256D02*
Y011256D01*
X027429Y010256D02*
Y011256D01*
X026429Y010256D02*
X027429D01*
X026445Y011256D02*
Y012256D01*
X025445Y011256D02*
Y012256D01*
Y011256D02*
X026445D01*
X025445Y012256D02*
X026445D01*
X025445Y013256D02*
X026445D01*
X025445Y012256D02*
X026445D01*
X025445D02*
Y013256D01*
X026445Y012256D02*
Y013256D01*
X025445Y011256D02*
X026445D01*
X025445Y010256D02*
Y011256D01*
X026445Y010256D02*
Y011256D01*
X025445Y010256D02*
X026445D01*
X025461Y011256D02*
Y012256D01*
X024461Y011256D02*
Y012256D01*
Y011256D02*
X025461D01*
X024461Y012256D02*
X025461D01*
X024461Y013256D02*
X025461D01*
X024461Y012256D02*
X025461D01*
X024461D02*
Y013256D01*
X025461Y012256D02*
Y013256D01*
X024461Y011256D02*
X025461D01*
X024461Y010256D02*
Y011256D01*
X025461Y010256D02*
Y011256D01*
X024461Y010256D02*
X025461D01*
X024476Y011256D02*
Y012256D01*
X023476Y011256D02*
Y012256D01*
Y011256D02*
X024476D01*
X023476Y012256D02*
X024476D01*
X023476Y013256D02*
X024476D01*
X023476Y012256D02*
X024476D01*
X023476D02*
Y013256D01*
X024476Y012256D02*
Y013256D01*
X023476Y011256D02*
X024476D01*
X023476Y010256D02*
Y011256D01*
X024476Y010256D02*
Y011256D01*
X023476Y010256D02*
X024476D01*
X023492Y011256D02*
Y012256D01*
X022492Y011256D02*
Y012256D01*
Y011256D02*
X023492D01*
X022492Y012256D02*
X023492D01*
X022492Y013256D02*
X023492D01*
X022492Y012256D02*
X023492D01*
X022492D02*
Y013256D01*
X023492Y012256D02*
Y013256D01*
X022492Y011256D02*
X023492D01*
X022492Y010256D02*
Y011256D01*
X023492Y010256D02*
Y011256D01*
X022492Y010256D02*
X023492D01*
X022508Y011256D02*
Y012256D01*
X021508Y011256D02*
Y012256D01*
Y011256D02*
X022508D01*
X021508Y012256D02*
X022508D01*
X021508Y013256D02*
X022508D01*
X021508Y012256D02*
X022508D01*
X021508D02*
Y013256D01*
X022508Y012256D02*
Y013256D01*
X021508Y011256D02*
X022508D01*
X021508Y010256D02*
Y011256D01*
X022508Y010256D02*
Y011256D01*
X021508Y010256D02*
X022508D01*
X021524Y011256D02*
Y012256D01*
X020524Y011256D02*
Y012256D01*
Y011256D02*
X021524D01*
X020524Y012256D02*
X021524D01*
X020524Y013256D02*
X021524D01*
X020524Y012256D02*
X021524D01*
X020524D02*
Y013256D01*
X021524Y012256D02*
Y013256D01*
X020524Y011256D02*
X021524D01*
X020524Y010256D02*
Y011256D01*
X021524Y010256D02*
Y011256D01*
X020524Y010256D02*
X021524D01*
X020539Y011256D02*
Y012256D01*
X019539Y011256D02*
Y012256D01*
Y011256D02*
X020539D01*
X019539Y012256D02*
X020539D01*
X019539Y013256D02*
X020539D01*
X019539Y012256D02*
X020539D01*
X019539D02*
Y013256D01*
X020539Y012256D02*
Y013256D01*
X019539Y011256D02*
X020539D01*
X019539Y010256D02*
Y011256D01*
X020539Y010256D02*
Y011256D01*
X019539Y010256D02*
X020539D01*
D18*
X036181Y02876D02*
D03*
X036969Y02876D02*
D03*
M02*
