G04*
G04 #@! TF.GenerationSoftware,Altium Limited,Altium Designer,18.1.9 (240)*
G04*
G04 Layer_Color=32896*
%FSTAX24Y24*%
%MOIN*%
G70*
G01*
G75*
%ADD11C,0.0098*%
%ADD14C,0.0039*%
%ADD16C,0.0010*%
%ADD17C,0.0079*%
D11*
X015039Y022057D02*
G03*
X015039Y022057I-000049J0D01*
G01*
D14*
X027008Y018543D02*
Y018268D01*
X02687D01*
X026824Y018314D01*
Y01836D01*
X02687Y018405D01*
X027008D01*
X02687D01*
X026824Y018451D01*
Y018497D01*
X02687Y018543D01*
X027008D01*
X026732Y018268D02*
Y018451D01*
X026641Y018543D01*
X026549Y018451D01*
Y018268D01*
Y018405D01*
X026732D01*
X026457Y018543D02*
X026273D01*
X026365D01*
Y018268D01*
X026181D02*
X02609D01*
X026135D01*
Y018543D01*
X026181Y018497D01*
D16*
X025113Y017696D02*
X025613D01*
X025113Y017686D02*
X025643D01*
X025113Y017676D02*
X025673D01*
X025113Y017666D02*
X025693D01*
X025113Y017656D02*
X025713D01*
X025113Y017646D02*
X025733D01*
X025123Y017636D02*
X025743D01*
X025123Y017626D02*
X025763D01*
X025123Y017616D02*
X025773D01*
X025123Y017606D02*
X025783D01*
X025133Y017596D02*
X025793D01*
X025133Y017586D02*
X025803D01*
X025133Y017576D02*
X025813D01*
X025133Y017566D02*
X025823D01*
X025143Y017556D02*
X025823D01*
X025143Y017546D02*
X025833D01*
X025143Y017536D02*
X025833D01*
X025143Y017526D02*
X025843D01*
X025143Y017516D02*
X025853D01*
X025153Y017506D02*
X025853D01*
X025153Y017496D02*
X025853D01*
X025153Y017486D02*
X025863D01*
X025153Y017476D02*
X025863D01*
X025153Y017466D02*
X025863D01*
X025163Y017456D02*
X025873D01*
X025163Y017446D02*
X025873D01*
X025963Y017436D02*
X026473D01*
X025163D02*
X025873D01*
X025963Y017426D02*
X026503D01*
X025163D02*
X025883D01*
X024363D02*
X024843D01*
X025963Y017416D02*
X026543D01*
X025173D02*
X025883D01*
X024373D02*
X024893D01*
X025963Y017406D02*
X026563D01*
X025173D02*
X025883D01*
X024373D02*
X024933D01*
X025973Y017396D02*
X026583D01*
X025173D02*
X025883D01*
X024373D02*
X024943D01*
X025973Y017386D02*
X026593D01*
X025173D02*
X025883D01*
X024373D02*
X024963D01*
X025973Y017376D02*
X026613D01*
X025173D02*
X025893D01*
X024373D02*
X024983D01*
X025973Y017366D02*
X026623D01*
X025183D02*
X025893D01*
X024373D02*
X024993D01*
X025983Y017356D02*
X026633D01*
X025183D02*
X025893D01*
X024373D02*
X025003D01*
X025983Y017346D02*
X026643D01*
X025183D02*
X025893D01*
X024373D02*
X025023D01*
X025983Y017336D02*
X026653D01*
X025183D02*
X025903D01*
X024383D02*
X025023D01*
X025983Y017326D02*
X026663D01*
X025193D02*
X025903D01*
X024393D02*
X025043D01*
X025993Y017316D02*
X026673D01*
X025193D02*
X025903D01*
X024383D02*
X025043D01*
X025993Y017306D02*
X026683D01*
X025193D02*
X025903D01*
X024393D02*
X025063D01*
X025993Y017296D02*
X026693D01*
X025193D02*
X025903D01*
X024393D02*
X025063D01*
X025993Y017286D02*
X026693D01*
X025193D02*
X025913D01*
X024403D02*
X025073D01*
X025993Y017276D02*
X026703D01*
X025203D02*
X025913D01*
X024403D02*
X025083D01*
X026003Y017266D02*
X026713D01*
X025203D02*
X025913D01*
X024403D02*
X025083D01*
X026003Y017256D02*
X026713D01*
X025203D02*
X025913D01*
X024403D02*
X025083D01*
X026003Y017246D02*
X026723D01*
X025203D02*
X025913D01*
X024403D02*
X025083D01*
X026003Y017236D02*
X026723D01*
X025203D02*
X025923D01*
X024403D02*
X025103D01*
X026013Y017226D02*
X026733D01*
X025203D02*
X025923D01*
X024403D02*
X025103D01*
X026013Y017216D02*
X026733D01*
X025213D02*
X025923D01*
X024413D02*
X025103D01*
X026013Y017206D02*
X026733D01*
X025213D02*
X025923D01*
X024413D02*
X025103D01*
X026013Y017196D02*
X026733D01*
X025213D02*
X025933D01*
X024413D02*
X025103D01*
X026013Y017186D02*
X026743D01*
X025223D02*
X025933D01*
X024413D02*
X025113D01*
X026023Y017176D02*
X026743D01*
X025223D02*
X025933D01*
X025013D02*
X025113D01*
X024413D02*
X024573D01*
X026563Y017166D02*
X026743D01*
X026023D02*
X026133D01*
X025823D02*
X025933D01*
X025223D02*
X025403D01*
X025013D02*
X025123D01*
X024413D02*
X024563D01*
X026583Y017156D02*
X026743D01*
X026023D02*
X026133D01*
X025823D02*
X025943D01*
X025223D02*
X025393D01*
X025013D02*
X025123D01*
X024413D02*
X024553D01*
X026603Y017146D02*
X026753D01*
X026023D02*
X026143D01*
X025833D02*
X025943D01*
X025223D02*
X025373D01*
X025013D02*
X025123D01*
X024423D02*
X024543D01*
X026613Y017136D02*
X026753D01*
X026033D02*
X026143D01*
X025833D02*
X025943D01*
X025233D02*
X025373D01*
X025013D02*
X025123D01*
X024423D02*
X024533D01*
X026623Y017126D02*
X026753D01*
X026033D02*
X026153D01*
X025833D02*
X025943D01*
X025233D02*
X025363D01*
X025013D02*
X025133D01*
X024433D02*
X024513D01*
X026633Y017116D02*
X026753D01*
X026033D02*
X026163D01*
X025833D02*
X025943D01*
X025233D02*
X025363D01*
X025013D02*
X025133D01*
X024433D02*
X024513D01*
X026633Y017106D02*
X026753D01*
X026033D02*
X026173D01*
X025833D02*
X025953D01*
X025233D02*
X025353D01*
X025013D02*
X025143D01*
X024433D02*
X024523D01*
X026643Y017096D02*
X026763D01*
X026043D02*
X026183D01*
X025843D02*
X025953D01*
X025243D02*
X025353D01*
X025003D02*
X025143D01*
X024443D02*
X024513D01*
X026643Y017086D02*
X026763D01*
X026043D02*
X026193D01*
X025843D02*
X025953D01*
X025243D02*
X025353D01*
X024993D02*
X025143D01*
X024443D02*
X024513D01*
X026653Y017076D02*
X026763D01*
X026043D02*
X026213D01*
X025843D02*
X025953D01*
X025243D02*
X025353D01*
X024993D02*
X025143D01*
X024443D02*
X024523D01*
X026653Y017066D02*
X026763D01*
X026043D02*
X026553D01*
X025843D02*
X025953D01*
X025463D02*
X025743D01*
X025243D02*
X025363D01*
X024973D02*
X025143D01*
X024923D02*
X024953D01*
X024523D02*
X024723D01*
X024443D02*
X024513D01*
X026653Y017056D02*
X026763D01*
X026043D02*
X026553D01*
X025843D02*
X025963D01*
X025463D02*
X025743D01*
X025243D02*
X025363D01*
X024843D02*
X025143D01*
X024443D02*
X024723D01*
X026653Y017046D02*
X026773D01*
X026053D02*
X026553D01*
X025853D02*
X025963D01*
X025463D02*
X025743D01*
X025253D02*
X025363D01*
X024853D02*
X025143D01*
X024443D02*
X024723D01*
X026663Y017036D02*
X026773D01*
X026053D02*
X026553D01*
X025853D02*
X025963D01*
X025473D02*
X025743D01*
X025253D02*
X025363D01*
X024853D02*
X025153D01*
X024443D02*
X024723D01*
X026663Y017026D02*
X026773D01*
X026053D02*
X026553D01*
X025853D02*
X025963D01*
X025473D02*
X025753D01*
X025253D02*
X025363D01*
X024853D02*
X025153D01*
X024453D02*
X024733D01*
X026663Y017016D02*
X026773D01*
X026053D02*
X026563D01*
X025853D02*
X025963D01*
X025473D02*
X025753D01*
X025253D02*
X025373D01*
X024863D02*
X025153D01*
X024453D02*
X024733D01*
X026663Y017006D02*
X026783D01*
X026063D02*
X026563D01*
X025853D02*
X025973D01*
X025473D02*
X025753D01*
X025263D02*
X025373D01*
X024863D02*
X025153D01*
X024463D02*
X024733D01*
X026663Y016996D02*
X026783D01*
X026063D02*
X026563D01*
X025853D02*
X025973D01*
X025473D02*
X025753D01*
X025263D02*
X025373D01*
X024863D02*
X025153D01*
X024463D02*
X024743D01*
X026673Y016986D02*
X026783D01*
X026063D02*
X026563D01*
X025863D02*
X025973D01*
X025483D02*
X025753D01*
X025263D02*
X025373D01*
X024863D02*
X025163D01*
X024463D02*
X024743D01*
X026673Y016976D02*
X026783D01*
X026063D02*
X026263D01*
X025863D02*
X025973D01*
X025553D02*
X025613D01*
X025263D02*
X025373D01*
X024863D02*
X025163D01*
X024463D02*
X024743D01*
X026673Y016966D02*
X026783D01*
X026063D02*
X026263D01*
X025863D02*
X025983D01*
X025263D02*
X025383D01*
X024863D02*
X025163D01*
X024463D02*
X024743D01*
X026673Y016956D02*
X026793D01*
X026073D02*
X026263D01*
X025863D02*
X025983D01*
X025273D02*
X025383D01*
X024873D02*
X025163D01*
X024463D02*
X024743D01*
X026673Y016946D02*
X026793D01*
X026073D02*
X026273D01*
X025863D02*
X025983D01*
X025273D02*
X025393D01*
X024873D02*
X025173D01*
X024463D02*
X024753D01*
X026683Y016936D02*
X026793D01*
X026073D02*
X026273D01*
X025873D02*
X025983D01*
X025273D02*
X025393D01*
X024873D02*
X025173D01*
X024473D02*
X024753D01*
X026683Y016926D02*
X026793D01*
X026073D02*
X026283D01*
X025873D02*
X025983D01*
X025273D02*
X025403D01*
X024883D02*
X025183D01*
X024473D02*
X024753D01*
X026683Y016916D02*
X026803D01*
X026083D02*
X026293D01*
X025873D02*
X025993D01*
X025283D02*
X025413D01*
X024883D02*
X025183D01*
X024473D02*
X024753D01*
X026683Y016906D02*
X026803D01*
X026083D02*
X026303D01*
X025873D02*
X025993D01*
X025283D02*
X025423D01*
X024883D02*
X025183D01*
X024483D02*
X024763D01*
X026683Y016896D02*
X026803D01*
X026083D02*
X026323D01*
X025873D02*
X025993D01*
X025283D02*
X025433D01*
X024883D02*
X025183D01*
X024483D02*
X024763D01*
X026693Y016886D02*
X026803D01*
X026083D02*
X026333D01*
X025883D02*
X025993D01*
X025283D02*
X025453D01*
X024883D02*
X025183D01*
X024483D02*
X024763D01*
X026693Y016876D02*
X026803D01*
X026093D02*
X026363D01*
X025883D02*
X026003D01*
X025283D02*
X025473D01*
X024883D02*
X025193D01*
X024483D02*
X024763D01*
X026693Y016866D02*
X026813D01*
X026093D02*
X026593D01*
X025883D02*
X026003D01*
X025283D02*
X025783D01*
X024893D02*
X025193D01*
X024483D02*
X024763D01*
X026693Y016856D02*
X026813D01*
X026093D02*
X026593D01*
X025883D02*
X026003D01*
X025283D02*
X025783D01*
X024893D02*
X025193D01*
X024483D02*
X024763D01*
X026703Y016846D02*
X026813D01*
X026093D02*
X026593D01*
X025883D02*
X026003D01*
X025293D02*
X025783D01*
X024893D02*
X025203D01*
X024483D02*
X024763D01*
X026703Y016836D02*
X026813D01*
X026093D02*
X026603D01*
X025893D02*
X026003D01*
X025293D02*
X025783D01*
X024883D02*
X025193D01*
X024493D02*
X024763D01*
X026703Y016826D02*
X026823D01*
X026103D02*
X026603D01*
X025893D02*
X026013D01*
X025293D02*
X025783D01*
X024903D02*
X025203D01*
X024493D02*
X024763D01*
X026703Y016816D02*
X026823D01*
X026103D02*
X026603D01*
X025893D02*
X026013D01*
X025293D02*
X025793D01*
X024903D02*
X025203D01*
X024493D02*
X024763D01*
X026703Y016806D02*
X026823D01*
X026103D02*
X026603D01*
X025893D02*
X026013D01*
X025303D02*
X025793D01*
X024903D02*
X025213D01*
X024493D02*
X024773D01*
X026713Y016796D02*
X026823D01*
X026103D02*
X026603D01*
X025893D02*
X026013D01*
X025303D02*
X025793D01*
X024903D02*
X025213D01*
X024493D02*
X024783D01*
X026713Y016786D02*
X026823D01*
X026113D02*
X026613D01*
X025903D02*
X026023D01*
X025303D02*
X025793D01*
X024903D02*
X025213D01*
X024503D02*
X024783D01*
X026713Y016776D02*
X026833D01*
X026113D02*
X026613D01*
X025903D02*
X026023D01*
X025303D02*
X025793D01*
X024913D02*
X025213D01*
X024503D02*
X024783D01*
X026713Y016766D02*
X026833D01*
X026113D02*
X026613D01*
X025903D02*
X026023D01*
X025303D02*
X025803D01*
X024913D02*
X025213D01*
X024503D02*
X024783D01*
X026723Y016756D02*
X026833D01*
X026113D02*
X026613D01*
X025903D02*
X026023D01*
X025313D02*
X025803D01*
X024913D02*
X025213D01*
X024503D02*
X024793D01*
X026723Y016746D02*
X026833D01*
X026123D02*
X026623D01*
X025903D02*
X026023D01*
X025313D02*
X025803D01*
X024913D02*
X025213D01*
X024503D02*
X024793D01*
X026723Y016736D02*
X026833D01*
X026123D02*
X026623D01*
X025913D02*
X026033D01*
X025313D02*
X025813D01*
X024913D02*
X025223D01*
X024513D02*
X024793D01*
X026723Y016726D02*
X026843D01*
X026123D02*
X026633D01*
X025913D02*
X026033D01*
X025323D02*
X025813D01*
X024923D02*
X025223D01*
X024513D02*
X024813D01*
X026723Y016716D02*
X026843D01*
X026123D02*
X026633D01*
X025913D02*
X026033D01*
X025323D02*
X025823D01*
X024923D02*
X025233D01*
X024513D02*
X024813D01*
X026733Y016706D02*
X026843D01*
X026133D02*
X026643D01*
X025913D02*
X026033D01*
X025323D02*
X025833D01*
X024923D02*
X025233D01*
X024513D02*
X024823D01*
X026733Y016696D02*
X026843D01*
X026133D02*
X026653D01*
X025913D02*
X026033D01*
X025323D02*
X025843D01*
X024923D02*
X025233D01*
X024513D02*
X024823D01*
X026733Y016686D02*
X026853D01*
X026133D02*
X026663D01*
X025923D02*
X026043D01*
X025323D02*
X025853D01*
X024923D02*
X025233D01*
X024523D02*
X024843D01*
X026733Y016676D02*
X026853D01*
X026133D02*
X026683D01*
X025923D02*
X026043D01*
X025333D02*
X025863D01*
X024933D02*
X025233D01*
X024523D02*
X024843D01*
X026733Y016666D02*
X026853D01*
X026133D02*
X026703D01*
X025923D02*
X026043D01*
X025333D02*
X025883D01*
X024933D02*
X025243D01*
X024523D02*
X024853D01*
X026143Y016656D02*
X026853D01*
X025333D02*
X026043D01*
X024933D02*
X025243D01*
X024523D02*
X024893D01*
X026143Y016646D02*
X026853D01*
X025333D02*
X026053D01*
X024533D02*
X025243D01*
X026143Y016636D02*
X026863D01*
X025333D02*
X026053D01*
X024533D02*
X025243D01*
X026143Y016626D02*
X026863D01*
X025343D02*
X026053D01*
X024533D02*
X025243D01*
X026153Y016616D02*
X026863D01*
X025343D02*
X026053D01*
X024533D02*
X025253D01*
X026153Y016606D02*
X026863D01*
X025343D02*
X026053D01*
X024543D02*
X025253D01*
X026153Y016596D02*
X026873D01*
X025343D02*
X026063D01*
X024543D02*
X025253D01*
X026163Y016586D02*
X026873D01*
X025353D02*
X026063D01*
X024553D02*
X025253D01*
X026163Y016576D02*
X026873D01*
X025353D02*
X026063D01*
X024553D02*
X025263D01*
X026173Y016566D02*
X026873D01*
X025353D02*
X026063D01*
X024563D02*
X025263D01*
X026173Y016556D02*
X026873D01*
X025353D02*
X026073D01*
X024563D02*
X025263D01*
X026183Y016546D02*
X026883D01*
X025353D02*
X026073D01*
X024573D02*
X025263D01*
X026193Y016536D02*
X026883D01*
X025363D02*
X026073D01*
X024573D02*
X025273D01*
X026193Y016526D02*
X026883D01*
X025363D02*
X026073D01*
X024583D02*
X025273D01*
X024403D02*
X024453D01*
X026203Y016516D02*
X026883D01*
X025363D02*
X026073D01*
X024603D02*
X025273D01*
X024383D02*
X024473D01*
X026213Y016506D02*
X026893D01*
X025363D02*
X026083D01*
X024613D02*
X025283D01*
X024433D02*
X024483D01*
X024373D02*
X024413D01*
X026223Y016496D02*
X026893D01*
X025373D02*
X026083D01*
X024613D02*
X025273D01*
X024363D02*
X024483D01*
X026233Y016486D02*
X026893D01*
X025373D02*
X026083D01*
X024623D02*
X025273D01*
X024463D02*
X024493D01*
X024393D02*
X024453D01*
X024363D02*
X024383D01*
X026243Y016476D02*
X026893D01*
X025373D02*
X026083D01*
X024633D02*
X025273D01*
X024463D02*
X024493D01*
X024433D02*
X024453D01*
X024393D02*
X024413D01*
X024353D02*
X024383D01*
X026253Y016466D02*
X026893D01*
X025373D02*
X026083D01*
X024653D02*
X025273D01*
X024473D02*
X024493D01*
X024393D02*
X024453D01*
X024353D02*
X024383D01*
X026273Y016456D02*
X026903D01*
X025373D02*
X026093D01*
X024653D02*
X025273D01*
X024473D02*
X024493D01*
X024393D02*
X024453D01*
X024353D02*
X024383D01*
X026283Y016446D02*
X026903D01*
X025383D02*
X026093D01*
X024673D02*
X025283D01*
X024463D02*
X024493D01*
X024403D02*
X024453D01*
X024353D02*
X024383D01*
X026303Y016436D02*
X026903D01*
X025383D02*
X026093D01*
X024693D02*
X025293D01*
X024463D02*
X024493D01*
X024433D02*
X024453D01*
X024393D02*
X024423D01*
X024353D02*
X024383D01*
X026323Y016426D02*
X026903D01*
X025383D02*
X026093D01*
X024713D02*
X025293D01*
X024433D02*
X024483D01*
X024363D02*
X024413D01*
X026343Y016416D02*
X026903D01*
X025383D02*
X026103D01*
X024743D02*
X025293D01*
X024443D02*
X024483D01*
X024373D02*
X024403D01*
X026373Y016406D02*
X026913D01*
X025383D02*
X026103D01*
X024803D02*
X025303D01*
X024373D02*
X024473D01*
X026413Y016396D02*
X026913D01*
X025383D02*
X026103D01*
X024393D02*
X024453D01*
X025383Y016386D02*
X026103D01*
X025393Y016376D02*
X026103D01*
X025393Y016366D02*
X026113D01*
X025403Y016356D02*
X026113D01*
X025403Y016346D02*
X026113D01*
X025403Y016336D02*
X026113D01*
X025413Y016326D02*
X026123D01*
X025423Y016316D02*
X026123D01*
X025423Y016306D02*
X026123D01*
X025433Y016296D02*
X026123D01*
X025433Y016286D02*
X026123D01*
X025443Y016276D02*
X026133D01*
X025453Y016266D02*
X026133D01*
X025453Y016256D02*
X026133D01*
X025463Y016246D02*
X026133D01*
X025473Y016236D02*
X026133D01*
X025483Y016226D02*
X026143D01*
X025493Y016216D02*
X026143D01*
X025513Y016206D02*
X026143D01*
X025523Y016196D02*
X026143D01*
X025533Y016186D02*
X026153D01*
X025553Y016176D02*
X026153D01*
X025573Y016166D02*
X026153D01*
X025593Y016156D02*
X026153D01*
X025623Y016146D02*
X026153D01*
X025663Y016136D02*
X026163D01*
X026013Y016126D02*
X026033D01*
D17*
X027008Y023868D02*
Y026929D01*
X015591Y023868D02*
Y026929D01*
X027008Y019055D02*
Y022116D01*
X015591Y019055D02*
Y022116D01*
Y026929D02*
X027008D01*
X015591Y019055D02*
X027008D01*
M02*
