G04*
G04 #@! TF.GenerationSoftware,Altium Limited,Altium Designer,18.1.9 (240)*
G04*
G04 Layer_Physical_Order=1*
G04 Layer_Color=255*
%FSTAX24Y24*%
%MOIN*%
G70*
G01*
G75*
%ADD13C,0.0100*%
%ADD19R,0.0354X0.0394*%
G04:AMPARAMS|DCode=20|XSize=35.4mil|YSize=39.4mil|CornerRadius=8.9mil|HoleSize=0mil|Usage=FLASHONLY|Rotation=0.000|XOffset=0mil|YOffset=0mil|HoleType=Round|Shape=RoundedRectangle|*
%AMROUNDEDRECTD20*
21,1,0.0354,0.0217,0,0,0.0*
21,1,0.0177,0.0394,0,0,0.0*
1,1,0.0177,0.0089,-0.0108*
1,1,0.0177,-0.0089,-0.0108*
1,1,0.0177,-0.0089,0.0108*
1,1,0.0177,0.0089,0.0108*
%
%ADD20ROUNDEDRECTD20*%
%ADD21R,0.0394X0.0236*%
%ADD22R,0.0315X0.0315*%
%ADD23R,0.0276X0.0252*%
%ADD24R,0.0276X0.0197*%
G04:AMPARAMS|DCode=25|XSize=35.4mil|YSize=39.4mil|CornerRadius=8.9mil|HoleSize=0mil|Usage=FLASHONLY|Rotation=90.000|XOffset=0mil|YOffset=0mil|HoleType=Round|Shape=RoundedRectangle|*
%AMROUNDEDRECTD25*
21,1,0.0354,0.0217,0,0,90.0*
21,1,0.0177,0.0394,0,0,90.0*
1,1,0.0177,0.0108,0.0089*
1,1,0.0177,0.0108,-0.0089*
1,1,0.0177,-0.0108,-0.0089*
1,1,0.0177,-0.0108,0.0089*
%
%ADD25ROUNDEDRECTD25*%
G04:AMPARAMS|DCode=26|XSize=35.4mil|YSize=31.5mil|CornerRadius=7.9mil|HoleSize=0mil|Usage=FLASHONLY|Rotation=180.000|XOffset=0mil|YOffset=0mil|HoleType=Round|Shape=RoundedRectangle|*
%AMROUNDEDRECTD26*
21,1,0.0354,0.0157,0,0,180.0*
21,1,0.0197,0.0315,0,0,180.0*
1,1,0.0157,-0.0098,0.0079*
1,1,0.0157,0.0098,0.0079*
1,1,0.0157,0.0098,-0.0079*
1,1,0.0157,-0.0098,-0.0079*
%
%ADD26ROUNDEDRECTD26*%
%ADD27O,0.0591X0.0236*%
%ADD28O,0.0748X0.0236*%
%ADD29R,0.0360X0.0480*%
%ADD30O,0.0551X0.0177*%
%ADD47C,0.0200*%
%ADD48C,0.0400*%
%ADD49C,0.0150*%
%ADD50C,0.0500*%
%ADD51C,0.0300*%
%ADD52C,0.0130*%
%ADD53R,0.0600X0.0600*%
%ADD54C,0.0600*%
%ADD55C,0.2047*%
%ADD56R,0.0600X0.0600*%
%ADD57C,0.0240*%
%ADD58C,0.0197*%
%ADD59C,0.0500*%
%ADD60C,0.0240*%
G36*
X037559Y01D02*
X01D01*
Y029685D01*
X037559D01*
X037559Y01D01*
D02*
G37*
%LPC*%
G36*
X037226Y029254D02*
X037018D01*
Y029046D01*
X037226D01*
Y029254D01*
D02*
G37*
G36*
X036918D02*
X036711D01*
Y029046D01*
X036918D01*
Y029254D01*
D02*
G37*
G36*
X036439D02*
X036231D01*
Y029046D01*
X036439D01*
Y029254D01*
D02*
G37*
G36*
X036131D02*
X035924D01*
Y029046D01*
X036131D01*
Y029254D01*
D02*
G37*
G36*
X021722Y029107D02*
Y028817D01*
X022012D01*
X022012Y028821D01*
X021971Y028918D01*
X021907Y029002D01*
X021824Y029066D01*
X021726Y029106D01*
X021722Y029107D01*
D02*
G37*
G36*
X014722D02*
Y028817D01*
X015012D01*
X015012Y028821D01*
X014971Y028918D01*
X014907Y029002D01*
X014824Y029066D01*
X014726Y029106D01*
X014722Y029107D01*
D02*
G37*
G36*
X014522D02*
X014518Y029106D01*
X01442Y029066D01*
X014337Y029002D01*
X014273Y028918D01*
X014232Y028821D01*
X014232Y028817D01*
X014522D01*
Y029107D01*
D02*
G37*
G36*
X021522D02*
X021518Y029106D01*
X02142Y029066D01*
X021337Y029002D01*
X021273Y028918D01*
X021232Y028821D01*
X021232Y028817D01*
X021522D01*
Y029107D01*
D02*
G37*
G36*
X037226Y028946D02*
X037018D01*
Y028739D01*
X037226D01*
Y028946D01*
D02*
G37*
G36*
X036918D02*
X036711D01*
Y028739D01*
X036918D01*
Y028946D01*
D02*
G37*
G36*
X036439D02*
X036231D01*
Y028739D01*
X036439D01*
Y028946D01*
D02*
G37*
G36*
X036131D02*
X035924D01*
Y028739D01*
X036131D01*
Y028946D01*
D02*
G37*
G36*
X024622Y02908D02*
X024528Y029067D01*
X02444Y029031D01*
X024365Y028973D01*
X024308Y028898D01*
X024271Y028811D01*
X024259Y028717D01*
X024271Y028623D01*
X024308Y028535D01*
X024365Y02846D01*
X02444Y028402D01*
X024528Y028366D01*
X024622Y028353D01*
X024716Y028366D01*
X024804Y028402D01*
X024879Y02846D01*
X024937Y028535D01*
X024973Y028623D01*
X024985Y028717D01*
X024973Y028811D01*
X024937Y028898D01*
X024879Y028973D01*
X024804Y029031D01*
X024716Y029067D01*
X024622Y02908D01*
D02*
G37*
G36*
X023622D02*
X023528Y029067D01*
X02344Y029031D01*
X023365Y028973D01*
X023308Y028898D01*
X023271Y028811D01*
X023259Y028717D01*
X023271Y028623D01*
X023308Y028535D01*
X023365Y02846D01*
X02344Y028402D01*
X023528Y028366D01*
X023622Y028353D01*
X023716Y028366D01*
X023804Y028402D01*
X023879Y02846D01*
X023937Y028535D01*
X023973Y028623D01*
X023985Y028717D01*
X023973Y028811D01*
X023937Y028898D01*
X023879Y028973D01*
X023804Y029031D01*
X023716Y029067D01*
X023622Y02908D01*
D02*
G37*
G36*
X022622D02*
X022528Y029067D01*
X02244Y029031D01*
X022365Y028973D01*
X022308Y028898D01*
X022271Y028811D01*
X022259Y028717D01*
X022271Y028623D01*
X022308Y028535D01*
X022365Y02846D01*
X02244Y028402D01*
X022528Y028366D01*
X022622Y028353D01*
X022716Y028366D01*
X022804Y028402D01*
X022879Y02846D01*
X022937Y028535D01*
X022973Y028623D01*
X022985Y028717D01*
X022973Y028811D01*
X022937Y028898D01*
X022879Y028973D01*
X022804Y029031D01*
X022716Y029067D01*
X022622Y02908D01*
D02*
G37*
G36*
X020622D02*
X020528Y029067D01*
X02044Y029031D01*
X020365Y028973D01*
X020308Y028898D01*
X020271Y028811D01*
X020259Y028717D01*
X020271Y028623D01*
X020308Y028535D01*
X020365Y02846D01*
X02044Y028402D01*
X020528Y028366D01*
X020622Y028353D01*
X020716Y028366D01*
X020804Y028402D01*
X020879Y02846D01*
X020937Y028535D01*
X020973Y028623D01*
X020985Y028717D01*
X020973Y028811D01*
X020937Y028898D01*
X020879Y028973D01*
X020804Y029031D01*
X020716Y029067D01*
X020622Y02908D01*
D02*
G37*
G36*
X019622D02*
X019528Y029067D01*
X01944Y029031D01*
X019365Y028973D01*
X019308Y028898D01*
X019271Y028811D01*
X019259Y028717D01*
X019271Y028623D01*
X019308Y028535D01*
X019365Y02846D01*
X01944Y028402D01*
X019528Y028366D01*
X019622Y028353D01*
X019716Y028366D01*
X019804Y028402D01*
X019879Y02846D01*
X019937Y028535D01*
X019973Y028623D01*
X019985Y028717D01*
X019973Y028811D01*
X019937Y028898D01*
X019879Y028973D01*
X019804Y029031D01*
X019716Y029067D01*
X019622Y02908D01*
D02*
G37*
G36*
X018622D02*
X018528Y029067D01*
X01844Y029031D01*
X018365Y028973D01*
X018308Y028898D01*
X018271Y028811D01*
X018259Y028717D01*
X018271Y028623D01*
X018308Y028535D01*
X018365Y02846D01*
X01844Y028402D01*
X018528Y028366D01*
X018622Y028353D01*
X018716Y028366D01*
X018804Y028402D01*
X018879Y02846D01*
X018937Y028535D01*
X018973Y028623D01*
X018985Y028717D01*
X018973Y028811D01*
X018937Y028898D01*
X018879Y028973D01*
X018804Y029031D01*
X018716Y029067D01*
X018622Y02908D01*
D02*
G37*
G36*
X017622D02*
X017528Y029067D01*
X01744Y029031D01*
X017365Y028973D01*
X017308Y028898D01*
X017271Y028811D01*
X017259Y028717D01*
X017271Y028623D01*
X017308Y028535D01*
X017365Y02846D01*
X01744Y028402D01*
X017528Y028366D01*
X017622Y028353D01*
X017716Y028366D01*
X017804Y028402D01*
X017879Y02846D01*
X017937Y028535D01*
X017973Y028623D01*
X017985Y028717D01*
X017973Y028811D01*
X017937Y028898D01*
X017879Y028973D01*
X017804Y029031D01*
X017716Y029067D01*
X017622Y02908D01*
D02*
G37*
G36*
X016008Y029443D02*
X016008Y029443D01*
X013961D01*
X013918Y029434D01*
X013881Y02941D01*
X013881Y02941D01*
X013367Y028896D01*
X013346Y0289D01*
X013276Y028886D01*
X013217Y028846D01*
X013205Y028829D01*
X011918D01*
X011889Y028898D01*
X011832Y028973D01*
X011756Y029031D01*
X011669Y029067D01*
X011575Y02908D01*
X011481Y029067D01*
X011393Y029031D01*
X011318Y028973D01*
X01126Y028898D01*
X011224Y028811D01*
X011212Y028717D01*
X011224Y028623D01*
X01126Y028535D01*
X011318Y02846D01*
X011393Y028402D01*
X011481Y028366D01*
X011575Y028353D01*
X011669Y028366D01*
X011756Y028402D01*
X011832Y02846D01*
X011889Y028535D01*
X011918Y028604D01*
X013205D01*
X013217Y028587D01*
X013276Y028547D01*
X013346Y028533D01*
X013417Y028547D01*
X013476Y028587D01*
X013516Y028646D01*
X01353Y028717D01*
X013526Y028737D01*
X014007Y029219D01*
X015961D01*
X0163Y02888D01*
X016271Y028811D01*
X016259Y028717D01*
X016271Y028623D01*
X016308Y028535D01*
X016365Y02846D01*
X01644Y028402D01*
X016528Y028366D01*
X016622Y028353D01*
X016716Y028366D01*
X016804Y028402D01*
X016879Y02846D01*
X016937Y028535D01*
X016973Y028623D01*
X016985Y028717D01*
X016973Y028811D01*
X016937Y028898D01*
X016879Y028973D01*
X016804Y029031D01*
X016716Y029067D01*
X016622Y02908D01*
X016528Y029067D01*
X016459Y029039D01*
X016087Y02941D01*
X016051Y029434D01*
X016008Y029443D01*
D02*
G37*
G36*
X015622Y02908D02*
X015528Y029067D01*
X01544Y029031D01*
X015365Y028973D01*
X015308Y028898D01*
X015271Y028811D01*
X015259Y028717D01*
X015271Y028623D01*
X015308Y028535D01*
X015365Y02846D01*
X01544Y028402D01*
X015528Y028366D01*
X015622Y028353D01*
X015716Y028366D01*
X015804Y028402D01*
X015879Y02846D01*
X015937Y028535D01*
X015973Y028623D01*
X015985Y028717D01*
X015973Y028811D01*
X015937Y028898D01*
X015879Y028973D01*
X015804Y029031D01*
X015716Y029067D01*
X015622Y02908D01*
D02*
G37*
G36*
X030012Y028617D02*
X029722D01*
Y028326D01*
X029726Y028327D01*
X029824Y028367D01*
X029907Y028431D01*
X029971Y028515D01*
X030012Y028612D01*
X030012Y028617D01*
D02*
G37*
G36*
X022012D02*
X021722D01*
Y028326D01*
X021726Y028327D01*
X021824Y028367D01*
X021907Y028431D01*
X021971Y028515D01*
X022012Y028612D01*
X022012Y028617D01*
D02*
G37*
G36*
X015012D02*
X014722D01*
Y028326D01*
X014726Y028327D01*
X014824Y028367D01*
X014907Y028431D01*
X014971Y028515D01*
X015012Y028612D01*
X015012Y028617D01*
D02*
G37*
G36*
X014522D02*
X014232D01*
X014232Y028612D01*
X014273Y028515D01*
X014337Y028431D01*
X01442Y028367D01*
X014518Y028327D01*
X014522Y028326D01*
Y028617D01*
D02*
G37*
G36*
X029522D02*
X029232D01*
X029232Y028612D01*
X029273Y028515D01*
X029337Y028431D01*
X02942Y028367D01*
X029518Y028327D01*
X029522Y028326D01*
Y028617D01*
D02*
G37*
G36*
X021522D02*
X021232D01*
X021232Y028612D01*
X021273Y028515D01*
X021337Y028431D01*
X02142Y028367D01*
X021518Y028327D01*
X021522Y028326D01*
Y028617D01*
D02*
G37*
G36*
X011935Y028077D02*
X011215D01*
Y027979D01*
X010719D01*
X010708Y027987D01*
X010632Y028019D01*
X010551Y028029D01*
X01047Y028019D01*
X010395Y027987D01*
X01033Y027938D01*
X01028Y027873D01*
X010249Y027797D01*
X010239Y027717D01*
X010249Y027636D01*
X01028Y02756D01*
X01033Y027495D01*
X010395Y027446D01*
X01047Y027415D01*
X010551Y027404D01*
X010632Y027415D01*
X010708Y027446D01*
X010719Y027454D01*
X011215D01*
Y027357D01*
X011935D01*
Y028077D01*
D02*
G37*
G36*
X014622Y02808D02*
X014528Y028067D01*
X01444Y028031D01*
X014365Y027973D01*
X014308Y027898D01*
X014279Y027829D01*
X012386D01*
X012374Y027846D01*
X012314Y027886D01*
X012244Y0279D01*
X012174Y027886D01*
X012114Y027846D01*
X012075Y027787D01*
X012061Y027717D01*
X012075Y027646D01*
X012114Y027587D01*
X012174Y027547D01*
X012244Y027533D01*
X012314Y027547D01*
X012374Y027587D01*
X012386Y027604D01*
X014279D01*
X014308Y027535D01*
X014365Y02746D01*
X01444Y027402D01*
X014528Y027366D01*
X014622Y027353D01*
X014716Y027366D01*
X014804Y027402D01*
X014879Y02746D01*
X014937Y027535D01*
X014973Y027623D01*
X014985Y027717D01*
X014973Y027811D01*
X014937Y027898D01*
X014879Y027973D01*
X014804Y028031D01*
X014716Y028067D01*
X014622Y02808D01*
D02*
G37*
G36*
X024722Y028107D02*
Y027817D01*
X025012D01*
X025012Y027821D01*
X024971Y027918D01*
X024907Y028002D01*
X024824Y028066D01*
X024726Y028106D01*
X024722Y028107D01*
D02*
G37*
G36*
X017722D02*
Y027817D01*
X018012D01*
X018012Y027821D01*
X017971Y027918D01*
X017907Y028002D01*
X017824Y028066D01*
X017726Y028106D01*
X017722Y028107D01*
D02*
G37*
G36*
X031722D02*
Y027817D01*
X032012D01*
X032012Y027821D01*
X031971Y027918D01*
X031907Y028002D01*
X031824Y028066D01*
X031726Y028106D01*
X031722Y028107D01*
D02*
G37*
G36*
X027722D02*
Y027817D01*
X028012D01*
X028012Y027821D01*
X027971Y027918D01*
X027907Y028002D01*
X027824Y028066D01*
X027726Y028106D01*
X027722Y028107D01*
D02*
G37*
G36*
X019722D02*
Y027817D01*
X020012D01*
X020012Y027821D01*
X019971Y027918D01*
X019907Y028002D01*
X019824Y028066D01*
X019726Y028106D01*
X019722Y028107D01*
D02*
G37*
G36*
X031522D02*
X031518Y028106D01*
X03142Y028066D01*
X031337Y028002D01*
X031273Y027918D01*
X031232Y027821D01*
X031232Y027817D01*
X031522D01*
Y028107D01*
D02*
G37*
G36*
X027522D02*
X027518Y028106D01*
X02742Y028066D01*
X027337Y028002D01*
X027273Y027918D01*
X027232Y027821D01*
X027232Y027817D01*
X027522D01*
Y028107D01*
D02*
G37*
G36*
X024522D02*
X024518Y028106D01*
X02442Y028066D01*
X024337Y028002D01*
X024273Y027918D01*
X024232Y027821D01*
X024232Y027817D01*
X024522D01*
Y028107D01*
D02*
G37*
G36*
X017522D02*
X017518Y028106D01*
X01742Y028066D01*
X017337Y028002D01*
X017273Y027918D01*
X017232Y027821D01*
X017232Y027817D01*
X017522D01*
Y028107D01*
D02*
G37*
G36*
X019522D02*
X019518Y028106D01*
X01942Y028066D01*
X019337Y028002D01*
X019273Y027918D01*
X019232Y027821D01*
X019232Y027817D01*
X019522D01*
Y028107D01*
D02*
G37*
G36*
X037186Y028623D02*
X036751D01*
Y028188D01*
X036841D01*
Y027854D01*
X036802Y027847D01*
X036753Y027814D01*
X03672Y027765D01*
X036709Y027707D01*
Y02753D01*
X03672Y027472D01*
X036753Y027422D01*
X036802Y02739D01*
X03686Y027378D01*
X037077D01*
X037135Y02739D01*
X037184Y027422D01*
X037217Y027472D01*
X037228Y02753D01*
Y027707D01*
X037217Y027765D01*
X037184Y027814D01*
X037135Y027847D01*
X037096Y027854D01*
Y028188D01*
X037186D01*
Y028623D01*
D02*
G37*
G36*
X036399D02*
X035964D01*
Y028188D01*
X036054D01*
Y027854D01*
X036015Y027847D01*
X035966Y027814D01*
X035933Y027765D01*
X035921Y027707D01*
Y02753D01*
X035933Y027472D01*
X035966Y027422D01*
X036015Y02739D01*
X036073Y027378D01*
X036289D01*
X036347Y02739D01*
X036397Y027422D01*
X036429Y027472D01*
X036441Y02753D01*
Y027707D01*
X036429Y027765D01*
X036397Y027814D01*
X036347Y027847D01*
X036309Y027854D01*
Y028188D01*
X036399D01*
Y028623D01*
D02*
G37*
G36*
X033622Y02808D02*
X033528Y028067D01*
X03344Y028031D01*
X033365Y027973D01*
X033308Y027898D01*
X033271Y027811D01*
X033259Y027717D01*
X033271Y027623D01*
X033308Y027535D01*
X033365Y02746D01*
X03344Y027402D01*
X033528Y027366D01*
X033622Y027353D01*
X033716Y027366D01*
X033804Y027402D01*
X033879Y02746D01*
X033937Y027535D01*
X033973Y027623D01*
X033985Y027717D01*
X033973Y027811D01*
X033937Y027898D01*
X033879Y027973D01*
X033804Y028031D01*
X033716Y028067D01*
X033622Y02808D01*
D02*
G37*
G36*
X032622D02*
X032528Y028067D01*
X03244Y028031D01*
X032365Y027973D01*
X032308Y027898D01*
X032271Y027811D01*
X032259Y027717D01*
X032271Y027623D01*
X032308Y027535D01*
X032365Y02746D01*
X03244Y027402D01*
X032528Y027366D01*
X032622Y027353D01*
X032716Y027366D01*
X032804Y027402D01*
X032879Y02746D01*
X032937Y027535D01*
X032973Y027623D01*
X032985Y027717D01*
X032973Y027811D01*
X032937Y027898D01*
X032879Y027973D01*
X032804Y028031D01*
X032716Y028067D01*
X032622Y02808D01*
D02*
G37*
G36*
X030622D02*
X030528Y028067D01*
X03044Y028031D01*
X030365Y027973D01*
X030308Y027898D01*
X030271Y027811D01*
X030259Y027717D01*
X030271Y027623D01*
X030308Y027535D01*
X030365Y02746D01*
X03044Y027402D01*
X030528Y027366D01*
X030622Y027353D01*
X030716Y027366D01*
X030804Y027402D01*
X030879Y02746D01*
X030937Y027535D01*
X030973Y027623D01*
X030985Y027717D01*
X030973Y027811D01*
X030937Y027898D01*
X030879Y027973D01*
X030804Y028031D01*
X030716Y028067D01*
X030622Y02808D01*
D02*
G37*
G36*
X029622D02*
X029528Y028067D01*
X02944Y028031D01*
X029365Y027973D01*
X029308Y027898D01*
X029271Y027811D01*
X029259Y027717D01*
X029271Y027623D01*
X029308Y027535D01*
X029365Y02746D01*
X02944Y027402D01*
X029528Y027366D01*
X029622Y027353D01*
X029716Y027366D01*
X029804Y027402D01*
X029879Y02746D01*
X029937Y027535D01*
X029973Y027623D01*
X029985Y027717D01*
X029973Y027811D01*
X029937Y027898D01*
X029879Y027973D01*
X029804Y028031D01*
X029716Y028067D01*
X029622Y02808D01*
D02*
G37*
G36*
X028622D02*
X028528Y028067D01*
X02844Y028031D01*
X028365Y027973D01*
X028308Y027898D01*
X028271Y027811D01*
X028259Y027717D01*
X028271Y027623D01*
X028308Y027535D01*
X028365Y02746D01*
X02844Y027402D01*
X028528Y027366D01*
X028622Y027353D01*
X028716Y027366D01*
X028804Y027402D01*
X028879Y02746D01*
X028937Y027535D01*
X028973Y027623D01*
X028985Y027717D01*
X028973Y027811D01*
X028937Y027898D01*
X028879Y027973D01*
X028804Y028031D01*
X028716Y028067D01*
X028622Y02808D01*
D02*
G37*
G36*
X026622D02*
X026528Y028067D01*
X02644Y028031D01*
X026365Y027973D01*
X026308Y027898D01*
X026271Y027811D01*
X026259Y027717D01*
X026271Y027623D01*
X026308Y027535D01*
X026365Y02746D01*
X02644Y027402D01*
X026528Y027366D01*
X026622Y027353D01*
X026716Y027366D01*
X026804Y027402D01*
X026879Y02746D01*
X026937Y027535D01*
X026973Y027623D01*
X026985Y027717D01*
X026973Y027811D01*
X026937Y027898D01*
X026879Y027973D01*
X026804Y028031D01*
X026716Y028067D01*
X026622Y02808D01*
D02*
G37*
G36*
X023622D02*
X023528Y028067D01*
X02344Y028031D01*
X023365Y027973D01*
X023308Y027898D01*
X023271Y027811D01*
X023259Y027717D01*
X023271Y027623D01*
X023308Y027535D01*
X023365Y02746D01*
X02344Y027402D01*
X023528Y027366D01*
X023622Y027353D01*
X023716Y027366D01*
X023804Y027402D01*
X023879Y02746D01*
X023937Y027535D01*
X023973Y027623D01*
X023985Y027717D01*
X023973Y027811D01*
X023937Y027898D01*
X023879Y027973D01*
X023804Y028031D01*
X023716Y028067D01*
X023622Y02808D01*
D02*
G37*
G36*
X022622D02*
X022528Y028067D01*
X02244Y028031D01*
X022365Y027973D01*
X022308Y027898D01*
X022271Y027811D01*
X022259Y027717D01*
X022271Y027623D01*
X022308Y027535D01*
X022365Y02746D01*
X02244Y027402D01*
X022528Y027366D01*
X022622Y027353D01*
X022716Y027366D01*
X022804Y027402D01*
X022879Y02746D01*
X022937Y027535D01*
X022973Y027623D01*
X022985Y027717D01*
X022973Y027811D01*
X022937Y027898D01*
X022879Y027973D01*
X022804Y028031D01*
X022716Y028067D01*
X022622Y02808D01*
D02*
G37*
G36*
X021622D02*
X021528Y028067D01*
X02144Y028031D01*
X021365Y027973D01*
X021308Y027898D01*
X021271Y027811D01*
X021259Y027717D01*
X021271Y027623D01*
X021308Y027535D01*
X021365Y02746D01*
X02144Y027402D01*
X021528Y027366D01*
X021622Y027353D01*
X021716Y027366D01*
X021804Y027402D01*
X021879Y02746D01*
X021937Y027535D01*
X021973Y027623D01*
X021985Y027717D01*
X021973Y027811D01*
X021937Y027898D01*
X021879Y027973D01*
X021804Y028031D01*
X021716Y028067D01*
X021622Y02808D01*
D02*
G37*
G36*
X020622D02*
X020528Y028067D01*
X02044Y028031D01*
X020365Y027973D01*
X020308Y027898D01*
X020271Y027811D01*
X020259Y027717D01*
X020271Y027623D01*
X020308Y027535D01*
X020365Y02746D01*
X02044Y027402D01*
X020528Y027366D01*
X020622Y027353D01*
X020716Y027366D01*
X020804Y027402D01*
X020879Y02746D01*
X020937Y027535D01*
X020973Y027623D01*
X020985Y027717D01*
X020973Y027811D01*
X020937Y027898D01*
X020879Y027973D01*
X020804Y028031D01*
X020716Y028067D01*
X020622Y02808D01*
D02*
G37*
G36*
X018622D02*
X018528Y028067D01*
X01844Y028031D01*
X018365Y027973D01*
X018308Y027898D01*
X018271Y027811D01*
X018259Y027717D01*
X018271Y027623D01*
X018308Y027535D01*
X018365Y02746D01*
X01844Y027402D01*
X018528Y027366D01*
X018622Y027353D01*
X018716Y027366D01*
X018804Y027402D01*
X018879Y02746D01*
X018937Y027535D01*
X018973Y027623D01*
X018985Y027717D01*
X018973Y027811D01*
X018937Y027898D01*
X018879Y027973D01*
X018804Y028031D01*
X018716Y028067D01*
X018622Y02808D01*
D02*
G37*
G36*
X016622D02*
X016528Y028067D01*
X01644Y028031D01*
X016365Y027973D01*
X016308Y027898D01*
X016271Y027811D01*
X016259Y027717D01*
X016271Y027623D01*
X016308Y027535D01*
X016365Y02746D01*
X01644Y027402D01*
X016528Y027366D01*
X016622Y027353D01*
X016716Y027366D01*
X016804Y027402D01*
X016879Y02746D01*
X016937Y027535D01*
X016973Y027623D01*
X016985Y027717D01*
X016973Y027811D01*
X016937Y027898D01*
X016879Y027973D01*
X016804Y028031D01*
X016716Y028067D01*
X016622Y02808D01*
D02*
G37*
G36*
X015622D02*
X015528Y028067D01*
X01544Y028031D01*
X015365Y027973D01*
X015308Y027898D01*
X015271Y027811D01*
X015259Y027717D01*
X015271Y027623D01*
X015308Y027535D01*
X015365Y02746D01*
X01544Y027402D01*
X015528Y027366D01*
X015622Y027353D01*
X015716Y027366D01*
X015804Y027402D01*
X015879Y02746D01*
X015937Y027535D01*
X015973Y027623D01*
X015985Y027717D01*
X015973Y027811D01*
X015937Y027898D01*
X015879Y027973D01*
X015804Y028031D01*
X015716Y028067D01*
X015622Y02808D01*
D02*
G37*
G36*
X032012Y027617D02*
X031722D01*
Y027326D01*
X031726Y027327D01*
X031824Y027367D01*
X031907Y027431D01*
X031971Y027515D01*
X032012Y027612D01*
X032012Y027617D01*
D02*
G37*
G36*
X028012D02*
X027722D01*
Y027326D01*
X027726Y027327D01*
X027824Y027367D01*
X027907Y027431D01*
X027971Y027515D01*
X028012Y027612D01*
X028012Y027617D01*
D02*
G37*
G36*
X025012D02*
X024722D01*
Y027326D01*
X024726Y027327D01*
X024824Y027367D01*
X024907Y027431D01*
X024971Y027515D01*
X025012Y027612D01*
X025012Y027617D01*
D02*
G37*
G36*
X020012D02*
X019722D01*
Y027326D01*
X019726Y027327D01*
X019824Y027367D01*
X019907Y027431D01*
X019971Y027515D01*
X020012Y027612D01*
X020012Y027617D01*
D02*
G37*
G36*
X018012D02*
X017722D01*
Y027326D01*
X017726Y027327D01*
X017824Y027367D01*
X017907Y027431D01*
X017971Y027515D01*
X018012Y027612D01*
X018012Y027617D01*
D02*
G37*
G36*
X031522D02*
X031232D01*
X031232Y027612D01*
X031273Y027515D01*
X031337Y027431D01*
X03142Y027367D01*
X031518Y027327D01*
X031522Y027326D01*
Y027617D01*
D02*
G37*
G36*
X027522D02*
X027232D01*
X027232Y027612D01*
X027273Y027515D01*
X027337Y027431D01*
X02742Y027367D01*
X027518Y027327D01*
X027522Y027326D01*
Y027617D01*
D02*
G37*
G36*
X024522D02*
X024232D01*
X024232Y027612D01*
X024273Y027515D01*
X024337Y027431D01*
X02442Y027367D01*
X024518Y027327D01*
X024522Y027326D01*
Y027617D01*
D02*
G37*
G36*
X019522D02*
X019232D01*
X019232Y027612D01*
X019273Y027515D01*
X019337Y027431D01*
X01942Y027367D01*
X019518Y027327D01*
X019522Y027326D01*
Y027617D01*
D02*
G37*
G36*
X017522D02*
X017232D01*
X017232Y027612D01*
X017273Y027515D01*
X017337Y027431D01*
X01742Y027367D01*
X017518Y027327D01*
X017522Y027326D01*
Y027617D01*
D02*
G37*
G36*
X035079Y029592D02*
X025276D01*
X02523Y029573D01*
X025211Y029528D01*
Y028425D01*
X02523Y028379D01*
X025276Y02836D01*
X02557D01*
X025622Y028353D01*
X025674Y02836D01*
X025984D01*
X02603Y028379D01*
X026049Y028425D01*
Y029069D01*
X026408D01*
X026425Y029019D01*
X026365Y028973D01*
X026308Y028898D01*
X026271Y028811D01*
X026259Y028717D01*
X026271Y028623D01*
X026308Y028535D01*
X026365Y02846D01*
X02644Y028402D01*
X026528Y028366D01*
X026622Y028353D01*
X026716Y028366D01*
X026804Y028402D01*
X026879Y02846D01*
X026937Y028535D01*
X026973Y028623D01*
X026985Y028717D01*
X026973Y028811D01*
X026937Y028898D01*
X026879Y028973D01*
X026819Y029019D01*
X026836Y029069D01*
X027408D01*
X027425Y029019D01*
X027365Y028973D01*
X027308Y028898D01*
X027271Y028811D01*
X027259Y028717D01*
X027271Y028623D01*
X027308Y028535D01*
X027365Y02846D01*
X02744Y028402D01*
X027528Y028366D01*
X027622Y028353D01*
X027716Y028366D01*
X027804Y028402D01*
X027879Y02846D01*
X027937Y028535D01*
X027973Y028623D01*
X027985Y028717D01*
X027973Y028811D01*
X027937Y028898D01*
X027879Y028973D01*
X027819Y029019D01*
X027836Y029069D01*
X028408D01*
X028425Y029019D01*
X028365Y028973D01*
X028308Y028898D01*
X028271Y028811D01*
X028259Y028717D01*
X028271Y028623D01*
X028308Y028535D01*
X028365Y02846D01*
X02844Y028402D01*
X028528Y028366D01*
X028622Y028353D01*
X028716Y028366D01*
X028804Y028402D01*
X028879Y02846D01*
X028937Y028535D01*
X028973Y028623D01*
X028985Y028717D01*
X028973Y028811D01*
X028937Y028898D01*
X028879Y028973D01*
X028819Y029019D01*
X028836Y029069D01*
X029342D01*
X029359Y029019D01*
X029337Y029002D01*
X029273Y028918D01*
X029232Y028821D01*
X029232Y028817D01*
X029622D01*
X030012D01*
X030012Y028821D01*
X029971Y028918D01*
X029907Y029002D01*
X029885Y029019D01*
X029902Y029069D01*
X030408D01*
X030425Y029019D01*
X030365Y028973D01*
X030308Y028898D01*
X030271Y028811D01*
X030259Y028717D01*
X030271Y028623D01*
X030308Y028535D01*
X030365Y02846D01*
X03044Y028402D01*
X030528Y028366D01*
X030622Y028353D01*
X030716Y028366D01*
X030804Y028402D01*
X030879Y02846D01*
X030937Y028535D01*
X030973Y028623D01*
X030985Y028717D01*
X030973Y028811D01*
X030937Y028898D01*
X030879Y028973D01*
X030819Y029019D01*
X030836Y029069D01*
X031408D01*
X031425Y029019D01*
X031365Y028973D01*
X031308Y028898D01*
X031271Y028811D01*
X031259Y028717D01*
X031271Y028623D01*
X031308Y028535D01*
X031365Y02846D01*
X03144Y028402D01*
X031528Y028366D01*
X031622Y028353D01*
X031716Y028366D01*
X031804Y028402D01*
X031879Y02846D01*
X031937Y028535D01*
X031973Y028623D01*
X031985Y028717D01*
X031973Y028811D01*
X031937Y028898D01*
X031879Y028973D01*
X031819Y029019D01*
X031836Y029069D01*
X032408D01*
X032425Y029019D01*
X032365Y028973D01*
X032308Y028898D01*
X032271Y028811D01*
X032259Y028717D01*
X032271Y028623D01*
X032308Y028535D01*
X032365Y02846D01*
X03244Y028402D01*
X032528Y028366D01*
X032622Y028353D01*
X032716Y028366D01*
X032804Y028402D01*
X032879Y02846D01*
X032937Y028535D01*
X032973Y028623D01*
X032985Y028717D01*
X032973Y028811D01*
X032937Y028898D01*
X032879Y028973D01*
X032819Y029019D01*
X032836Y029069D01*
X033163D01*
Y028346D01*
X033182Y028301D01*
X033228Y028282D01*
X034541D01*
Y026285D01*
X033036D01*
X033034Y026286D01*
X032953Y026297D01*
X032872Y026286D01*
X03287Y026285D01*
X025583Y026285D01*
X025534Y026306D01*
X025453Y026317D01*
X025372Y026306D01*
X025322Y026285D01*
X023496D01*
X023469Y026335D01*
X023477Y026347D01*
X023491Y026417D01*
X023486Y026442D01*
X023493Y026453D01*
X023529Y026481D01*
X023583Y02647D01*
X023653Y026484D01*
X023712Y026524D01*
X023752Y026583D01*
X023766Y026654D01*
X023752Y026724D01*
X023746Y026734D01*
X023769Y026778D01*
X028481D01*
X028492Y02676D01*
X028552Y02672D01*
X028622Y026706D01*
X028692Y02672D01*
X028752Y02676D01*
X028792Y02682D01*
X028806Y02689D01*
X028792Y02696D01*
X028752Y02702D01*
X028692Y027059D01*
X028622Y027073D01*
X028552Y027059D01*
X028492Y02702D01*
X028481Y027002D01*
X025809D01*
X025785Y027046D01*
X025792Y027056D01*
X025806Y027126D01*
X025792Y027196D01*
X025752Y027256D01*
X025692Y027296D01*
X025651Y027304D01*
X025642Y027306D01*
X025643Y027356D01*
X025651Y027357D01*
X025716Y027366D01*
X025804Y027402D01*
X025879Y02746D01*
X025937Y027535D01*
X025973Y027623D01*
X025985Y027717D01*
X025973Y027811D01*
X025937Y027898D01*
X025879Y027973D01*
X025804Y028031D01*
X025716Y028067D01*
X025622Y02808D01*
X025528Y028067D01*
X02544Y028031D01*
X025365Y027973D01*
X025308Y027898D01*
X025271Y027811D01*
X025259Y027717D01*
X025271Y027623D01*
X025308Y027535D01*
X025365Y02746D01*
X02544Y027402D01*
X025528Y027366D01*
X025593Y027357D01*
X025601Y027356D01*
X025602Y027306D01*
X025593Y027304D01*
X025552Y027296D01*
X025492Y027256D01*
X02548Y027238D01*
X012976D01*
X012964Y027256D01*
X012905Y027296D01*
X012835Y02731D01*
X012764Y027296D01*
X012705Y027256D01*
X012665Y027196D01*
X012651Y027126D01*
X012656Y027101D01*
X012649Y02709D01*
X012613Y027063D01*
X012559Y027073D01*
X012489Y027059D01*
X012429Y02702D01*
X01239Y02696D01*
X012376Y02689D01*
X01239Y02682D01*
X012429Y02676D01*
X012489Y02672D01*
X012559Y026706D01*
X012629Y02672D01*
X012689Y02676D01*
X012701Y026778D01*
X017884D01*
X017908Y026734D01*
X017901Y026724D01*
X017887Y026654D01*
X017901Y026583D01*
X017941Y026524D01*
X018001Y026484D01*
X018071Y02647D01*
X018141Y026484D01*
X018201Y026524D01*
X018212Y026541D01*
X018835D01*
X018849Y026513D01*
X018852Y026491D01*
X0182Y025839D01*
X01699D01*
X016979Y025855D01*
X01692Y025894D01*
X01685Y025908D01*
X016339D01*
X016269Y025894D01*
X01621Y025855D01*
X016171Y025796D01*
X016157Y025726D01*
X016171Y025657D01*
X01621Y025598D01*
X016269Y025559D01*
X016339Y025545D01*
X01685D01*
X01692Y025559D01*
X016979Y025598D01*
X01699Y025614D01*
X018246D01*
X018246Y025614D01*
X018289Y025623D01*
X018325Y025647D01*
X018983Y026305D01*
X021506D01*
X02153Y026261D01*
X021523Y026251D01*
X021509Y026181D01*
X021505Y026176D01*
X021495D01*
Y026102D01*
X021187D01*
X021187Y026102D01*
X021144Y026094D01*
X021108Y026069D01*
X021108Y026069D01*
X020877Y025839D01*
X02073D01*
X020719Y025855D01*
X02066Y025894D01*
X020591Y025908D01*
X020079D01*
X020009Y025894D01*
X01995Y025855D01*
X019911Y025796D01*
X019897Y025726D01*
X019911Y025657D01*
X01995Y025598D01*
X020009Y025559D01*
X020079Y025545D01*
X020591D01*
X02066Y025559D01*
X020719Y025598D01*
X02073Y025614D01*
X020923D01*
X020923Y025614D01*
X020966Y025623D01*
X021003Y025647D01*
X021233Y025878D01*
X021495D01*
Y02576D01*
X021317D01*
X021317Y02576D01*
X021274Y025751D01*
X021238Y025727D01*
X020916Y025406D01*
X020896Y02541D01*
X020825Y025396D01*
X020773Y025361D01*
X020722Y025355D01*
X020719Y025355D01*
X02066Y025394D01*
X020591Y025408D01*
X020079D01*
X020009Y025394D01*
X01995Y025355D01*
X019911Y025296D01*
X019897Y025226D01*
X019911Y025157D01*
X01995Y025098D01*
X020009Y025059D01*
X020079Y025045D01*
X020591D01*
X02066Y025059D01*
X020719Y025098D01*
X020722Y025098D01*
X020773Y025092D01*
X020825Y025057D01*
X020896Y025043D01*
X020966Y025057D01*
X021025Y025097D01*
X021065Y025156D01*
X021079Y025226D01*
X021075Y025247D01*
X021111Y025283D01*
X021165Y025266D01*
X021169Y025245D01*
X021209Y025185D01*
X021268Y025145D01*
X021339Y025131D01*
X021409Y025145D01*
X021445Y02517D01*
X021495Y025143D01*
Y024804D01*
X021587D01*
X021589Y024795D01*
X021614Y024758D01*
X021761Y024611D01*
X02175Y024571D01*
X021742Y024561D01*
X02148D01*
X021468Y024579D01*
X021409Y024618D01*
X021339Y024632D01*
X021268Y024618D01*
X021209Y024579D01*
X021169Y024519D01*
X021155Y024449D01*
X021169Y024379D01*
X021209Y024319D01*
X021268Y024279D01*
X021339Y024265D01*
X021409Y024279D01*
X021462Y024315D01*
X021481Y024317D01*
X021485Y024316D01*
X021523Y024283D01*
X021509Y024213D01*
X021523Y024142D01*
X02153Y024133D01*
X021506Y024089D01*
X021047D01*
X021035Y024106D01*
X020976Y024146D01*
X020906Y02416D01*
X020848Y024149D01*
X020815Y024172D01*
X020812Y024176D01*
X020385D01*
Y024004D01*
X020591D01*
X020676Y024021D01*
X020681Y024024D01*
X020726Y023994D01*
X020722Y023976D01*
X020736Y023906D01*
X020739Y023901D01*
X020703Y023865D01*
X02066Y023894D01*
X020591Y023908D01*
X020079D01*
X020009Y023894D01*
X01995Y023855D01*
X019911Y023796D01*
X019897Y023726D01*
X019911Y023657D01*
X01995Y023598D01*
X020009Y023559D01*
X020079Y023545D01*
X020591D01*
X02066Y023559D01*
X020719Y023598D01*
X020758Y023657D01*
X020772Y023726D01*
X020758Y023796D01*
X020756Y0238D01*
X020792Y023836D01*
X020835Y023807D01*
X020906Y023793D01*
X020976Y023807D01*
X021035Y023847D01*
X021047Y023864D01*
X024189D01*
X024201Y023847D01*
X02426Y023807D01*
X024331Y023793D01*
X024401Y023807D01*
X02446Y023847D01*
X0245Y023906D01*
X024514Y023976D01*
X0245Y024047D01*
X024494Y024056D01*
X024517Y0241D01*
X025803D01*
X025815Y024083D01*
X025875Y024043D01*
X025945Y024029D01*
X026015Y024043D01*
X026075Y024083D01*
X026114Y024142D01*
X026128Y024213D01*
X026114Y024283D01*
X026075Y024342D01*
X026015Y024382D01*
X025945Y024396D01*
X025875Y024382D01*
X025815Y024342D01*
X025803Y024325D01*
X023494D01*
X02347Y024369D01*
X023477Y024379D01*
X023491Y024449D01*
X023486Y024474D01*
X023493Y024484D01*
X023529Y024512D01*
X023583Y024502D01*
X023653Y024515D01*
X023712Y024555D01*
X023752Y024615D01*
X023766Y024685D01*
X023752Y024755D01*
X023712Y024815D01*
X023653Y024855D01*
X023583Y024869D01*
X023512Y024855D01*
X023453Y024815D01*
X023439Y024794D01*
X02338Y024792D01*
X022566D01*
X022521Y024804D01*
Y025174D01*
Y025683D01*
X03287Y025683D01*
X032872Y025682D01*
X032953Y025672D01*
X033034Y025682D01*
X033036Y025683D01*
X034656D01*
X034666Y025633D01*
X034647Y025625D01*
X034582Y025575D01*
X034532Y025511D01*
X034501Y025435D01*
X03449Y025354D01*
X034501Y025273D01*
X034532Y025198D01*
X034582Y025133D01*
X034596Y025123D01*
X034579Y025073D01*
X030769D01*
X030752Y025098D01*
X030692Y025138D01*
X030622Y025152D01*
X030552Y025138D01*
X030492Y025098D01*
X030452Y025039D01*
X030439Y024969D01*
X030452Y024898D01*
X030492Y024839D01*
X030552Y024799D01*
X030622Y024785D01*
X030692Y024799D01*
X030752Y024839D01*
X030758Y024848D01*
X037024D01*
X037036Y024831D01*
X037095Y024791D01*
X037165Y024777D01*
X037236Y024791D01*
X037295Y024831D01*
X037335Y02489D01*
X037349Y024961D01*
X037335Y025031D01*
X037295Y02509D01*
X037236Y02513D01*
X037165Y025144D01*
X037095Y02513D01*
X037036Y02509D01*
X037024Y025073D01*
X035028D01*
X035011Y025123D01*
X035024Y025133D01*
X035074Y025198D01*
X035092Y025242D01*
X03604D01*
X036051Y025225D01*
X036111Y025185D01*
X036181Y025171D01*
X036251Y025185D01*
X036311Y025225D01*
X036351Y025284D01*
X036365Y025354D01*
X036351Y025425D01*
X036311Y025484D01*
X036251Y025524D01*
X036181Y025538D01*
X036111Y025524D01*
X036051Y025484D01*
X03604Y025466D01*
X035092D01*
X035074Y025511D01*
X035024Y025575D01*
X034959Y025625D01*
X034959Y025625D01*
X034969Y025675D01*
X036378D01*
X036378Y025675D01*
X036421Y025684D01*
X036457Y025708D01*
X037048Y026299D01*
X037048Y026299D01*
X037072Y026335D01*
X037081Y026378D01*
X037081Y026378D01*
Y026788D01*
X037135Y026799D01*
X037184Y026832D01*
X037217Y026881D01*
X037228Y026939D01*
Y027116D01*
X037217Y027174D01*
X037184Y027223D01*
X037135Y027256D01*
X037077Y027268D01*
X03686D01*
X036802Y027256D01*
X036753Y027223D01*
X03672Y027174D01*
X036709Y027116D01*
Y026939D01*
X03672Y026881D01*
X036753Y026832D01*
X036802Y026799D01*
X036856Y026788D01*
Y026424D01*
X036332Y0259D01*
X035144D01*
Y028346D01*
X035144Y029528D01*
X035125Y029573D01*
X035079Y029592D01*
D02*
G37*
G36*
X036289Y027268D02*
X036073D01*
X036015Y027256D01*
X035966Y027223D01*
X035933Y027174D01*
X035921Y027116D01*
Y026939D01*
X035933Y026881D01*
X035966Y026832D01*
X035988Y026817D01*
X036012Y026763D01*
X035998Y026693D01*
X036012Y026623D01*
X036051Y026563D01*
X036111Y026523D01*
X036181Y026509D01*
X036251Y026523D01*
X036311Y026563D01*
X036351Y026623D01*
X036365Y026693D01*
X036351Y026763D01*
X036375Y026817D01*
X036397Y026832D01*
X036429Y026881D01*
X036441Y026939D01*
Y027116D01*
X036429Y027174D01*
X036397Y027223D01*
X036347Y027256D01*
X036289Y027268D01*
D02*
G37*
G36*
X014214Y026635D02*
X013987D01*
Y026389D01*
X014214D01*
Y026635D01*
D02*
G37*
G36*
X013887D02*
X01366D01*
Y026389D01*
X013887D01*
Y026635D01*
D02*
G37*
G36*
X032047Y025538D02*
X031977Y025524D01*
X031917Y025484D01*
X031906Y025466D01*
X031244D01*
X031232Y025484D01*
X031173Y025524D01*
X031102Y025538D01*
X031032Y025524D01*
X030973Y025484D01*
X030933Y025425D01*
X030919Y025354D01*
X030933Y025284D01*
X030973Y025225D01*
X031032Y025185D01*
X031102Y025171D01*
X031173Y025185D01*
X031232Y025225D01*
X031244Y025242D01*
X031906D01*
X031917Y025225D01*
X031977Y025185D01*
X032047Y025171D01*
X032117Y025185D01*
X032177Y025225D01*
X032217Y025284D01*
X032231Y025354D01*
X032217Y025425D01*
X032177Y025484D01*
X032117Y025524D01*
X032047Y025538D01*
D02*
G37*
G36*
X01499Y025487D02*
X014942D01*
Y025276D01*
X015172D01*
Y025305D01*
X015159Y025375D01*
X015119Y025434D01*
X01506Y025473D01*
X01499Y025487D01*
D02*
G37*
G36*
X014842D02*
X014793D01*
X014724Y025473D01*
X014664Y025434D01*
X014625Y025375D01*
X014611Y025305D01*
Y025276D01*
X014842D01*
Y025487D01*
D02*
G37*
G36*
X013584Y026595D02*
X013109D01*
Y026082D01*
X013234D01*
Y026003D01*
X0132Y025996D01*
X013151Y025963D01*
X013118Y025914D01*
X013106Y025856D01*
Y02564D01*
X013118Y025582D01*
X013151Y025533D01*
X013178Y025514D01*
X013195Y025458D01*
X013194Y02545D01*
X013177Y025425D01*
X013163Y025354D01*
X013177Y025284D01*
X013194Y025259D01*
X013195Y025251D01*
X013178Y025195D01*
X013151Y025176D01*
X013118Y025127D01*
X013107Y025073D01*
X012802D01*
X012229Y025646D01*
X012193Y025671D01*
X01215Y025679D01*
X01215Y025679D01*
X011918D01*
X011889Y025748D01*
X011832Y025824D01*
X011756Y025881D01*
X011669Y025918D01*
X011575Y02593D01*
X011481Y025918D01*
X011393Y025881D01*
X011318Y025824D01*
X01126Y025748D01*
X011224Y025661D01*
X011212Y025567D01*
X011224Y025473D01*
X01126Y025385D01*
X011318Y02531D01*
X011393Y025252D01*
X011481Y025216D01*
X011575Y025204D01*
X011669Y025216D01*
X011756Y025252D01*
X011832Y02531D01*
X011889Y025385D01*
X011918Y025455D01*
X012103D01*
X012677Y024881D01*
X012677Y024881D01*
X012713Y024857D01*
X012756Y024848D01*
X013107D01*
X013118Y024794D01*
X013151Y024745D01*
X0132Y024712D01*
X013234Y024706D01*
Y024627D01*
X013109D01*
Y024482D01*
X012386D01*
X012374Y0245D01*
X012314Y02454D01*
X012244Y024554D01*
X012174Y02454D01*
X012114Y0245D01*
X012075Y02444D01*
X012061Y02437D01*
X012075Y0243D01*
X012114Y02424D01*
X012174Y024201D01*
X012244Y024187D01*
X012314Y024201D01*
X012374Y02424D01*
X012386Y024258D01*
X013109D01*
Y024113D01*
X013196D01*
X01321Y024081D01*
X013214Y024063D01*
X013177Y024007D01*
X013163Y023937D01*
X013177Y023867D01*
X013217Y023807D01*
X013234Y023795D01*
Y023265D01*
X013109D01*
Y022751D01*
X013234D01*
Y022657D01*
X0132Y02265D01*
X013151Y022617D01*
X013118Y022568D01*
X013107Y022514D01*
X011918D01*
X011889Y022583D01*
X011832Y022658D01*
X011756Y022716D01*
X011669Y022752D01*
X011575Y022765D01*
X011481Y022752D01*
X011393Y022716D01*
X011318Y022658D01*
X01126Y022583D01*
X011224Y022496D01*
X011212Y022402D01*
X011224Y022308D01*
X01126Y02222D01*
X011318Y022145D01*
X011393Y022087D01*
X011481Y022051D01*
X011575Y022038D01*
X011669Y022051D01*
X011756Y022087D01*
X011832Y022145D01*
X011889Y02222D01*
X011918Y022289D01*
X013107D01*
X013118Y022235D01*
X013151Y022186D01*
X0132Y022153D01*
X013258Y022142D01*
X013435D01*
X013493Y022153D01*
X013542Y022186D01*
X013575Y022235D01*
X013587Y022293D01*
Y02251D01*
X013575Y022568D01*
X013542Y022617D01*
X013493Y02265D01*
X013459Y022657D01*
Y022751D01*
X013584D01*
Y023265D01*
X013459D01*
Y023795D01*
X013476Y023807D01*
X013488Y023825D01*
X015481D01*
X015492Y023807D01*
X015552Y023767D01*
X015622Y023753D01*
X015692Y023767D01*
X015752Y023807D01*
X015792Y023867D01*
X015806Y023937D01*
X015792Y024007D01*
X015752Y024067D01*
X015692Y024107D01*
X015622Y024121D01*
X015552Y024107D01*
X015492Y024067D01*
X015481Y024049D01*
X014254D01*
X014214Y024073D01*
X014214Y024099D01*
Y02432D01*
X013937D01*
X01366D01*
Y024099D01*
X01366Y024073D01*
X01362Y024049D01*
X013525D01*
X01351Y024061D01*
X013509Y024063D01*
X013539Y024113D01*
X013584D01*
Y024627D01*
X013459D01*
Y024706D01*
X013493Y024712D01*
X013542Y024745D01*
X013575Y024794D01*
X013587Y024852D01*
Y025069D01*
X013575Y025127D01*
X013542Y025176D01*
X013514Y025195D01*
X013498Y025251D01*
X013499Y025259D01*
X013516Y025284D01*
X01353Y025354D01*
X013516Y025425D01*
X013499Y02545D01*
X013498Y025458D01*
X013514Y025514D01*
X013542Y025533D01*
X013575Y025582D01*
X013587Y02564D01*
Y025856D01*
X013575Y025914D01*
X013542Y025963D01*
X013493Y025996D01*
X013459Y026003D01*
Y026082D01*
X013584D01*
Y026595D01*
D02*
G37*
G36*
X014214Y026289D02*
X013937D01*
X01366D01*
Y026042D01*
X013775D01*
X013783Y026019D01*
X013784Y025992D01*
X013741Y025963D01*
X013708Y025914D01*
X013697Y025856D01*
Y02564D01*
X013708Y025582D01*
X013741Y025533D01*
X013769Y025514D01*
X013785Y025458D01*
X013784Y02545D01*
X013767Y025425D01*
X013753Y025354D01*
X013767Y025284D01*
X013784Y025259D01*
X013785Y025251D01*
X013769Y025195D01*
X013741Y025176D01*
X013708Y025127D01*
X013697Y025069D01*
Y024852D01*
X013708Y024794D01*
X013741Y024745D01*
X013784Y024717D01*
X013783Y02469D01*
X013775Y024667D01*
X01366D01*
Y02442D01*
X013937D01*
X014214D01*
Y024667D01*
X014099D01*
X014091Y02469D01*
X01409Y024717D01*
X014133Y024745D01*
X014166Y024794D01*
X014177Y024852D01*
Y025069D01*
X014166Y025127D01*
X014133Y025176D01*
X014105Y025195D01*
X014089Y025251D01*
X01409Y025259D01*
X014107Y025284D01*
X014121Y025354D01*
X014107Y025425D01*
X01409Y02545D01*
X014089Y025458D01*
X014105Y025514D01*
X014133Y025533D01*
X014166Y025582D01*
X014176Y025636D01*
X015326D01*
X01537Y025591D01*
Y025444D01*
X01533Y025436D01*
X015284Y025405D01*
X015253Y025359D01*
X015242Y025305D01*
Y025148D01*
X015253Y025094D01*
X015284Y025048D01*
X01533Y025017D01*
X015384Y025006D01*
X015581D01*
X015635Y025017D01*
X015681Y025048D01*
X015691Y025063D01*
X016262D01*
X016269Y025059D01*
X016339Y025045D01*
X01685D01*
X01692Y025059D01*
X016942Y025073D01*
X018463D01*
X018473Y025067D01*
X018543Y025053D01*
X018614Y025067D01*
X018673Y025106D01*
X018713Y025166D01*
X018727Y025236D01*
X018713Y025306D01*
X018673Y025366D01*
X018614Y025406D01*
X018543Y02542D01*
X018473Y025406D01*
X018463Y025399D01*
X016894D01*
X01685Y025408D01*
X016339D01*
X016269Y025394D01*
X016262Y02539D01*
X015691D01*
X015681Y025405D01*
X015635Y025436D01*
X015594Y025444D01*
Y025638D01*
X015594Y025638D01*
X015586Y025681D01*
X015562Y025717D01*
X015562Y025717D01*
X015451Y025827D01*
X015415Y025852D01*
X015372Y02586D01*
X015372Y02586D01*
X014176D01*
X014166Y025914D01*
X014133Y025963D01*
X01409Y025992D01*
X014091Y026019D01*
X014099Y026042D01*
X014214D01*
Y026289D01*
D02*
G37*
G36*
X015172Y025176D02*
X014942D01*
Y024965D01*
X01499D01*
X01506Y024979D01*
X015119Y025019D01*
X015159Y025078D01*
X015172Y025148D01*
Y025176D01*
D02*
G37*
G36*
X014842D02*
X014611D01*
Y025148D01*
X014625Y025078D01*
X014664Y025019D01*
X014724Y024979D01*
X014793Y024965D01*
X014842D01*
Y025176D01*
D02*
G37*
G36*
X011935Y024927D02*
X011215D01*
Y024829D01*
X010719D01*
X010708Y024838D01*
X010632Y024869D01*
X010551Y02488D01*
X01047Y024869D01*
X010395Y024838D01*
X01033Y024788D01*
X01028Y024723D01*
X010249Y024648D01*
X010239Y024567D01*
X010249Y024486D01*
X01028Y024411D01*
X01033Y024346D01*
X010395Y024296D01*
X01047Y024265D01*
X010551Y024254D01*
X010632Y024265D01*
X010708Y024296D01*
X010719Y024305D01*
X011215D01*
Y024207D01*
X011935D01*
Y024927D01*
D02*
G37*
G36*
X036929Y02475D02*
X036859Y024736D01*
X036799Y024697D01*
X036788Y024679D01*
X029787D01*
X029775Y024697D01*
X029716Y024736D01*
X029646Y02475D01*
X029575Y024736D01*
X029516Y024697D01*
X029476Y024637D01*
X029462Y024567D01*
X029476Y024497D01*
X029516Y024437D01*
X029575Y024397D01*
X029646Y024383D01*
X029716Y024397D01*
X029775Y024437D01*
X029787Y024455D01*
X036788D01*
X036799Y024437D01*
X036859Y024397D01*
X036929Y024383D01*
X036999Y024397D01*
X037059Y024437D01*
X037099Y024497D01*
X037113Y024567D01*
X037099Y024637D01*
X037059Y024697D01*
X036999Y024736D01*
X036929Y02475D01*
D02*
G37*
G36*
X01685Y024908D02*
X016339D01*
X016269Y024894D01*
X01621Y024855D01*
X016171Y024796D01*
X016157Y024726D01*
X016171Y024657D01*
X01621Y024598D01*
X016269Y024559D01*
X016339Y024545D01*
X01685D01*
X01692Y024559D01*
X016979Y024598D01*
X01699Y024614D01*
X017928D01*
X017941Y024595D01*
X018001Y024555D01*
X018071Y024541D01*
X018141Y024555D01*
X018201Y024595D01*
X01824Y024654D01*
X018254Y024724D01*
X01824Y024795D01*
X018201Y024854D01*
X018141Y024894D01*
X018071Y024908D01*
X018001Y024894D01*
X017941Y024854D01*
X017931Y024839D01*
X01699D01*
X016979Y024855D01*
X01692Y024894D01*
X01685Y024908D01*
D02*
G37*
G36*
X020335Y02494D02*
X019254D01*
X019172Y024924D01*
X019103Y024878D01*
X019101Y024876D01*
X019054Y024806D01*
X019038Y024724D01*
X019054Y024642D01*
X019101Y024573D01*
X01917Y024527D01*
X019252Y02451D01*
X019262Y024512D01*
X020335D01*
X020417Y024529D01*
X020441Y024545D01*
X020591D01*
X02066Y024559D01*
X020719Y024598D01*
X020758Y024657D01*
X020772Y024726D01*
X020758Y024796D01*
X020719Y024855D01*
X02066Y024894D01*
X020591Y024908D01*
X020441D01*
X020417Y024924D01*
X020335Y02494D01*
D02*
G37*
G36*
X020591Y024449D02*
X020385D01*
Y024276D01*
X020803D01*
X020796Y024311D01*
X020748Y024384D01*
X020676Y024432D01*
X020591Y024449D01*
D02*
G37*
G36*
X020285D02*
X020079D01*
X019994Y024432D01*
X019921Y024384D01*
X019873Y024311D01*
X019866Y024276D01*
X020285D01*
Y024449D01*
D02*
G37*
G36*
X01685Y024408D02*
X016339D01*
X016269Y024394D01*
X01621Y024355D01*
X016171Y024296D01*
X016157Y024226D01*
X016171Y024157D01*
X01621Y024098D01*
X016269Y024059D01*
X016339Y024045D01*
X01685D01*
X01692Y024059D01*
X016979Y024098D01*
X017018Y024157D01*
X017032Y024226D01*
X017018Y024296D01*
X016979Y024355D01*
X01692Y024394D01*
X01685Y024408D01*
D02*
G37*
G36*
X020285Y024176D02*
X019866D01*
X019873Y024141D01*
X019921Y024069D01*
X019994Y024021D01*
X020079Y024004D01*
X020285D01*
Y024176D01*
D02*
G37*
G36*
X033919Y024201D02*
Y023911D01*
X034209D01*
X034209Y023915D01*
X034168Y024013D01*
X034104Y024096D01*
X034021Y02416D01*
X033923Y024201D01*
X033919Y024201D01*
D02*
G37*
G36*
X033719D02*
X033714Y024201D01*
X033617Y02416D01*
X033534Y024096D01*
X03347Y024013D01*
X033429Y023915D01*
X033429Y023911D01*
X033719D01*
Y024201D01*
D02*
G37*
G36*
X036478D02*
Y023911D01*
X036768D01*
X036768Y023915D01*
X036727Y024013D01*
X036663Y024096D01*
X03658Y02416D01*
X036482Y024201D01*
X036478Y024201D01*
D02*
G37*
G36*
X036278D02*
X036274Y024201D01*
X036176Y02416D01*
X036093Y024096D01*
X036029Y024013D01*
X035988Y023915D01*
X035988Y023911D01*
X036278D01*
Y024201D01*
D02*
G37*
G36*
X03136D02*
Y023911D01*
X03165D01*
X03165Y023915D01*
X031609Y024013D01*
X031545Y024096D01*
X031462Y02416D01*
X031364Y024201D01*
X03136Y024201D01*
D02*
G37*
G36*
X03116D02*
X031155Y024201D01*
X031058Y02416D01*
X030975Y024096D01*
X03091Y024013D01*
X03087Y023915D01*
X03087Y023911D01*
X03116D01*
Y024201D01*
D02*
G37*
G36*
X026732Y024081D02*
X026662Y024067D01*
X026603Y024027D01*
X026563Y023968D01*
X026549Y023898D01*
X026561Y023837D01*
X026539Y023797D01*
X026532Y023787D01*
X025687D01*
X02568Y023792D01*
X02561Y023806D01*
X025256D01*
X025186Y023792D01*
X025127Y023752D01*
X025088Y023694D01*
X025074Y023624D01*
X025088Y023555D01*
X025127Y023496D01*
X025186Y023456D01*
X025256Y023442D01*
X02561D01*
X02568Y023456D01*
X025687Y023461D01*
X026501D01*
X026503Y02345D01*
X026534Y023404D01*
X02658Y023373D01*
X026634Y023362D01*
X026831D01*
X026885Y023373D01*
X026931Y023404D01*
X026961Y02345D01*
X026972Y023504D01*
Y023661D01*
X026961Y023716D01*
X026931Y023761D01*
X026912Y023774D01*
X026902Y023827D01*
X026916Y023898D01*
X026902Y023968D01*
X026862Y024027D01*
X026803Y024067D01*
X026732Y024081D01*
D02*
G37*
G36*
X023484Y023806D02*
X02313D01*
X02306Y023792D01*
X023002Y023752D01*
X022991Y023736D01*
X022561D01*
X022561Y023736D01*
X022518Y023728D01*
X022482Y023703D01*
X022482Y023703D01*
X022244Y023465D01*
X022219Y023429D01*
X022211Y023386D01*
X022211Y023386D01*
Y023156D01*
X022125D01*
Y022784D01*
Y02247D01*
Y022155D01*
Y021784D01*
X022521D01*
Y022201D01*
X022667D01*
X022667Y022201D01*
X02271Y022209D01*
X022747Y022234D01*
X023006Y022493D01*
X02306Y022456D01*
X02313Y022442D01*
X023484D01*
X023554Y022456D01*
X023613Y022496D01*
X023652Y022555D01*
X023666Y022624D01*
X023652Y022694D01*
X023613Y022752D01*
X023554Y022792D01*
X023484Y022806D01*
X02313D01*
X02306Y022792D01*
X023002Y022752D01*
X022991Y022736D01*
X022978D01*
X022978Y022736D01*
X022935Y022728D01*
X022899Y022703D01*
X022621Y022425D01*
X022521D01*
Y022516D01*
X022589D01*
X022589Y022516D01*
X022631Y022524D01*
X022668Y022549D01*
X023073Y022954D01*
X02313Y022942D01*
X023484D01*
X023554Y022956D01*
X023613Y022996D01*
X023652Y023055D01*
X023666Y023124D01*
X023652Y023194D01*
X023613Y023252D01*
X023554Y023292D01*
X023484Y023306D01*
X02313D01*
X02306Y023292D01*
X023002Y023252D01*
X022962Y023194D01*
X022954Y023152D01*
X022571Y022769D01*
X02253Y022781D01*
X022521Y022789D01*
Y023156D01*
X022435D01*
Y023339D01*
X022607Y023512D01*
X022991D01*
X023002Y023496D01*
X02306Y023456D01*
X02313Y023442D01*
X023484D01*
X023554Y023456D01*
X023613Y023496D01*
X023652Y023555D01*
X023666Y023624D01*
X023652Y023694D01*
X023613Y023752D01*
X023554Y023792D01*
X023484Y023806D01*
D02*
G37*
G36*
X027421Y023844D02*
X027373D01*
Y023633D01*
X027603D01*
Y023661D01*
X02759Y023731D01*
X02755Y02379D01*
X027491Y02383D01*
X027421Y023844D01*
D02*
G37*
G36*
X027273D02*
X027224D01*
X027155Y02383D01*
X027096Y02379D01*
X027056Y023731D01*
X027042Y023661D01*
Y023633D01*
X027273D01*
Y023844D01*
D02*
G37*
G36*
X01685Y023908D02*
X016339D01*
X016269Y023894D01*
X01621Y023855D01*
X016171Y023796D01*
X016157Y023726D01*
X016171Y023657D01*
X01621Y023598D01*
X016269Y023559D01*
X016339Y023545D01*
X01685D01*
X01692Y023559D01*
X016979Y023598D01*
X017018Y023657D01*
X017032Y023726D01*
X017018Y023796D01*
X016979Y023855D01*
X01692Y023894D01*
X01685Y023908D01*
D02*
G37*
G36*
X033719Y023711D02*
X033429D01*
X033429Y023707D01*
X03347Y023609D01*
X033534Y023526D01*
X033617Y023462D01*
X033714Y023421D01*
X033719Y023421D01*
Y023711D01*
D02*
G37*
G36*
X03165Y023711D02*
X03136D01*
Y023421D01*
X031364Y023421D01*
X031462Y023462D01*
X031545Y023526D01*
X031609Y023609D01*
X03165Y023707D01*
X03165Y023711D01*
D02*
G37*
G36*
X036278Y023711D02*
X035988D01*
X035988Y023707D01*
X036029Y023609D01*
X036093Y023526D01*
X036176Y023462D01*
X036274Y023421D01*
X036278Y023421D01*
Y023711D01*
D02*
G37*
G36*
X036768D02*
X036478D01*
Y023421D01*
X036482Y023421D01*
X03658Y023462D01*
X036663Y023526D01*
X036727Y023609D01*
X036768Y023707D01*
X036768Y023711D01*
D02*
G37*
G36*
X03116Y023711D02*
X03087D01*
X03087Y023707D01*
X03091Y023609D01*
X030975Y023526D01*
X031058Y023462D01*
X031155Y023421D01*
X03116Y023421D01*
Y023711D01*
D02*
G37*
G36*
X034209Y023711D02*
X033919D01*
Y023421D01*
X033923Y023421D01*
X034021Y023462D01*
X034104Y023526D01*
X034168Y023609D01*
X034209Y023707D01*
X034209Y023711D01*
D02*
G37*
G36*
X027603Y023533D02*
X027373D01*
Y023322D01*
X027421D01*
X027491Y023336D01*
X02755Y023375D01*
X02759Y023434D01*
X027603Y023504D01*
Y023533D01*
D02*
G37*
G36*
X027273D02*
X027042D01*
Y023504D01*
X027056Y023434D01*
X027096Y023375D01*
X027155Y023336D01*
X027224Y023322D01*
X027273D01*
Y023533D01*
D02*
G37*
G36*
X014214Y023305D02*
X013987D01*
Y023058D01*
X014214D01*
Y023305D01*
D02*
G37*
G36*
X013887D02*
X01366D01*
Y023058D01*
X013887D01*
Y023305D01*
D02*
G37*
G36*
X020591Y023408D02*
X020079D01*
X020009Y023394D01*
X01995Y023355D01*
X019911Y023296D01*
X019897Y023226D01*
X019911Y023157D01*
X01995Y023098D01*
X020009Y023059D01*
X020079Y023045D01*
X020591D01*
X02066Y023059D01*
X020719Y023098D01*
X020758Y023157D01*
X020772Y023226D01*
X020758Y023296D01*
X020719Y023355D01*
X02066Y023394D01*
X020591Y023408D01*
D02*
G37*
G36*
X01685D02*
X016339D01*
X016269Y023394D01*
X01621Y023355D01*
X016171Y023296D01*
X016157Y023226D01*
X016171Y023157D01*
X01621Y023098D01*
X016269Y023059D01*
X016339Y023045D01*
X01685D01*
X01692Y023059D01*
X016979Y023098D01*
X017018Y023157D01*
X017032Y023226D01*
X017018Y023296D01*
X016979Y023355D01*
X01692Y023394D01*
X01685Y023408D01*
D02*
G37*
G36*
X027411Y023096D02*
X027373D01*
Y022845D01*
X027604D01*
Y022904D01*
X027589Y022977D01*
X027547Y02304D01*
X027485Y023081D01*
X027411Y023096D01*
D02*
G37*
G36*
X027273D02*
X027234D01*
X027161Y023081D01*
X027098Y02304D01*
X027057Y022977D01*
X027042Y022904D01*
Y022845D01*
X027273D01*
Y023096D01*
D02*
G37*
G36*
X019252Y023246D02*
X01748D01*
X017398Y023229D01*
X017329Y023183D01*
X017283Y023113D01*
X017266Y023031D01*
X017283Y02295D01*
X017329Y02288D01*
X017398Y022834D01*
X01748Y022817D01*
X019252D01*
X019334Y022834D01*
X019403Y02288D01*
X01945Y02295D01*
X019466Y023031D01*
X01945Y023113D01*
X019403Y023183D01*
X019334Y023229D01*
X019252Y023246D01*
D02*
G37*
G36*
X025931Y022808D02*
X025861Y022794D01*
X025801Y022754D01*
X025795Y022744D01*
X025744Y022744D01*
X025739Y022752D01*
X02568Y022792D01*
X02561Y022806D01*
X025256D01*
X025186Y022792D01*
X025127Y022752D01*
X025088Y022694D01*
X025074Y022624D01*
X025088Y022555D01*
X025127Y022496D01*
X025186Y022456D01*
X025256Y022442D01*
X02561D01*
X02568Y022456D01*
X025739Y022496D01*
X025744Y022504D01*
X025795Y022504D01*
X025801Y022494D01*
X025861Y022454D01*
X025931Y02244D01*
X026001Y022454D01*
X026061Y022494D01*
X026101Y022554D01*
X026115Y022624D01*
X026101Y022694D01*
X026061Y022754D01*
X026001Y022794D01*
X025931Y022808D01*
D02*
G37*
G36*
X020591Y022908D02*
X020079D01*
X020009Y022894D01*
X01995Y022855D01*
X019911Y022796D01*
X019897Y022726D01*
X019911Y022657D01*
X01995Y022598D01*
X020009Y022559D01*
X020079Y022545D01*
X020591D01*
X02066Y022559D01*
X020719Y022598D01*
X020758Y022657D01*
X020772Y022726D01*
X020758Y022796D01*
X020719Y022855D01*
X02066Y022894D01*
X020591Y022908D01*
D02*
G37*
G36*
X01685D02*
X016339D01*
X016269Y022894D01*
X01621Y022855D01*
X016171Y022796D01*
X016157Y022726D01*
X016171Y022657D01*
X01621Y022598D01*
X016269Y022559D01*
X016339Y022545D01*
X01685D01*
X01692Y022559D01*
X016979Y022598D01*
X017018Y022657D01*
X017032Y022726D01*
X017018Y022796D01*
X016979Y022855D01*
X01692Y022894D01*
X01685Y022908D01*
D02*
G37*
G36*
X02561Y023306D02*
X025256D01*
X025186Y023292D01*
X025127Y023252D01*
X025088Y023194D01*
X025074Y023124D01*
X025088Y023055D01*
X025127Y022996D01*
X025186Y022956D01*
X025256Y022942D01*
X02561D01*
X02568Y022956D01*
X025739Y022996D01*
X02575Y023012D01*
X026003D01*
X026299Y022716D01*
X026299Y022716D01*
X026335Y022692D01*
X026378Y022683D01*
X026378Y022683D01*
X026493D01*
X026504Y022629D01*
X026537Y02258D01*
X026586Y022547D01*
X026644Y022536D01*
X026821D01*
X026879Y022547D01*
X026928Y02258D01*
X026961Y022629D01*
X026972Y022687D01*
Y022904D01*
X026961Y022962D01*
X026928Y023011D01*
X026879Y023044D01*
X026821Y023055D01*
X026644D01*
X026586Y023044D01*
X026537Y023011D01*
X026504Y022962D01*
X026493Y022907D01*
X026424D01*
X026129Y023203D01*
X026092Y023228D01*
X026049Y023236D01*
X026049Y023236D01*
X02575D01*
X025739Y023252D01*
X02568Y023292D01*
X02561Y023306D01*
D02*
G37*
G36*
X027604Y022745D02*
X027373D01*
Y022495D01*
X027411D01*
X027485Y022509D01*
X027547Y022551D01*
X027589Y022613D01*
X027604Y022687D01*
Y022745D01*
D02*
G37*
G36*
X027273D02*
X027042D01*
Y022687D01*
X027057Y022613D01*
X027098Y022551D01*
X027161Y022509D01*
X027234Y022495D01*
X027273D01*
Y022745D01*
D02*
G37*
G36*
X03126Y023174D02*
X031166Y023162D01*
X031078Y023125D01*
X031003Y023068D01*
X030945Y022993D01*
X030909Y022905D01*
X030897Y022811D01*
X030909Y022717D01*
X030945Y022629D01*
X031003Y022554D01*
X031078Y022497D01*
X031166Y02246D01*
X03126Y022448D01*
X031354Y02246D01*
X031441Y022497D01*
X031444Y022498D01*
X03286D01*
X032872Y022493D01*
X032953Y022483D01*
X032992D01*
X032992Y022483D01*
X033073Y022493D01*
X033148Y022524D01*
X033213Y022574D01*
X033263Y022639D01*
X033294Y022714D01*
X033305Y022795D01*
X033299Y022836D01*
X033294Y022876D01*
X033263Y022952D01*
X033213Y023016D01*
X033197Y023032D01*
X033133Y023082D01*
X033057Y023113D01*
X032976Y023124D01*
X032976Y023124D01*
X031444D01*
X031441Y023125D01*
X031354Y023162D01*
X03126Y023174D01*
D02*
G37*
G36*
X036378D02*
X036284Y023162D01*
X036196Y023125D01*
X036174Y023108D01*
X035591D01*
X03551Y023097D01*
X035434Y023066D01*
X035369Y023016D01*
X03532Y022952D01*
X035289Y022876D01*
X035278Y022795D01*
X035289Y022714D01*
X03532Y022639D01*
X035369Y022574D01*
X035434Y022524D01*
X03551Y022493D01*
X035591Y022483D01*
X03623D01*
X036284Y02246D01*
X036378Y022448D01*
X036472Y02246D01*
X03656Y022497D01*
X036635Y022554D01*
X036692Y022629D01*
X036729Y022717D01*
X036741Y022811D01*
X036729Y022905D01*
X036692Y022993D01*
X036635Y023068D01*
X03656Y023125D01*
X036472Y023162D01*
X036378Y023174D01*
D02*
G37*
G36*
X033819D02*
X033725Y023162D01*
X033637Y023125D01*
X033562Y023068D01*
X033504Y022993D01*
X033468Y022905D01*
X033456Y022811D01*
X033468Y022717D01*
X033504Y022629D01*
X033562Y022554D01*
X033637Y022497D01*
X033725Y02246D01*
X033819Y022448D01*
X033913Y02246D01*
X034Y022497D01*
X034003Y022498D01*
X034787D01*
X034868Y022509D01*
X034944Y02254D01*
X035008Y02259D01*
X035058Y022655D01*
X035089Y02273D01*
X0351Y022811D01*
X035089Y022892D01*
X035058Y022967D01*
X035008Y023032D01*
X034944Y023082D01*
X034868Y023113D01*
X034787Y023124D01*
X034003D01*
X034Y023125D01*
X033913Y023162D01*
X033819Y023174D01*
D02*
G37*
G36*
X023484Y022346D02*
X023357D01*
Y022174D01*
X023697D01*
X02369Y022209D01*
X023642Y022281D01*
X023569Y022329D01*
X023484Y022346D01*
D02*
G37*
G36*
X023257D02*
X02313D01*
X023045Y022329D01*
X022973Y022281D01*
X022924Y022209D01*
X022917Y022174D01*
X023257D01*
Y022346D01*
D02*
G37*
G36*
X021693Y023698D02*
X021612Y023688D01*
X021537Y023657D01*
X021472Y023607D01*
X021422Y023542D01*
X021391Y023467D01*
X02138Y023386D01*
X021391Y023305D01*
X021422Y023229D01*
X021472Y023165D01*
X021479Y023159D01*
Y022073D01*
X020762D01*
X020735Y022123D01*
X020758Y022157D01*
X020772Y022226D01*
X020758Y022296D01*
X020719Y022355D01*
X02066Y022394D01*
X020591Y022408D01*
X020079D01*
X020009Y022394D01*
X01995Y022355D01*
X019911Y022296D01*
X019897Y022226D01*
X019911Y022157D01*
X019934Y022123D01*
X019907Y022073D01*
X018603D01*
X018594Y022079D01*
X018524Y022093D01*
X018453Y022079D01*
X018394Y022039D01*
X018354Y02198D01*
X01834Y021909D01*
X018354Y021839D01*
X01836Y02183D01*
Y021458D01*
X018328Y021436D01*
X018295Y021387D01*
X018294Y021384D01*
X018064D01*
X018063Y021387D01*
X01803Y021436D01*
X017981Y021469D01*
X017923Y02148D01*
X017746D01*
X017688Y021469D01*
X017639Y021436D01*
X017606Y021387D01*
X017595Y021329D01*
Y021112D01*
X017606Y021054D01*
X017639Y021005D01*
X017688Y020972D01*
X017746Y020961D01*
X017923D01*
X017981Y020972D01*
X01803Y021005D01*
X018063Y021054D01*
X018064Y021057D01*
X018294D01*
X018295Y021054D01*
X018328Y021005D01*
X01836Y020983D01*
Y020867D01*
X018328Y020845D01*
X018295Y020796D01*
X018284Y020738D01*
Y020522D01*
X018295Y020464D01*
X018328Y020415D01*
X01836Y020393D01*
Y020277D01*
X018328Y020255D01*
X018295Y020206D01*
X018284Y020148D01*
Y019931D01*
X018295Y019873D01*
X018328Y019824D01*
X01836Y019802D01*
Y019686D01*
X018328Y019664D01*
X018295Y019615D01*
X018284Y019557D01*
Y019341D01*
X018295Y019283D01*
X018328Y019233D01*
X01836Y019212D01*
Y019095D01*
X018328Y019074D01*
X018295Y019024D01*
X018284Y018967D01*
Y01875D01*
X018295Y018692D01*
X018328Y018643D01*
X01836Y018621D01*
Y018505D01*
X018328Y018483D01*
X018295Y018434D01*
X018284Y018376D01*
Y018159D01*
X01829Y018126D01*
X018258Y018079D01*
X018253Y018076D01*
X018224Y018073D01*
X018075Y018222D01*
Y018376D01*
X018063Y018434D01*
X01803Y018483D01*
X017981Y018516D01*
X017923Y018527D01*
X017746D01*
X017688Y018516D01*
X017639Y018483D01*
X017606Y018434D01*
X017595Y018376D01*
Y018159D01*
X017606Y018101D01*
X017639Y018052D01*
X017688Y018019D01*
X017746Y018008D01*
X0179D01*
X018092Y017816D01*
X018114Y017801D01*
X018115Y017798D01*
X018112Y017744D01*
X018071Y017716D01*
X018031Y017657D01*
X018017Y017587D01*
X018031Y017516D01*
X018071Y017457D01*
X018131Y017417D01*
X018178Y017408D01*
X018174Y017358D01*
X018171Y017356D01*
X018055D01*
X018043Y017374D01*
X017984Y017414D01*
X017913Y017428D01*
X017843Y017414D01*
X017784Y017374D01*
X017744Y017314D01*
X01773Y017244D01*
X017744Y017174D01*
X01778Y01712D01*
X017775Y017093D01*
X017765Y017067D01*
X017758Y017065D01*
X017708Y017099D01*
X017638Y017113D01*
X017568Y017099D01*
X017508Y017059D01*
X01747Y017001D01*
X017464Y016995D01*
X017416Y016984D01*
X016841Y01756D01*
X016804Y017584D01*
X016761Y017592D01*
X016761Y017592D01*
X016047D01*
X016035Y01761D01*
X015976Y01765D01*
X015906Y017664D01*
X015835Y01765D01*
X015776Y01761D01*
X015736Y017551D01*
X015722Y01748D01*
X015736Y01741D01*
X015776Y017351D01*
X015835Y017311D01*
X015906Y017297D01*
X015976Y017311D01*
X016035Y017351D01*
X016047Y017368D01*
X016715D01*
X016839Y017244D01*
X016814Y017198D01*
X016811Y017199D01*
X016811Y017199D01*
X014669D01*
X014657Y017216D01*
X014598Y017256D01*
X014528Y01727D01*
X014457Y017256D01*
X014398Y017216D01*
X014358Y017157D01*
X014344Y017087D01*
X014358Y017016D01*
X014398Y016957D01*
X014457Y016917D01*
X014528Y016903D01*
X014598Y016917D01*
X014657Y016957D01*
X014669Y016974D01*
X016765D01*
X017807Y015933D01*
X017843Y015908D01*
X017886Y0159D01*
X017886Y0159D01*
X018306D01*
Y015781D01*
X017842D01*
X017717Y015906D01*
X017681Y01593D01*
X017638Y015939D01*
X017638Y015939D01*
X016913D01*
X016903Y015989D01*
X016969Y016016D01*
X017044Y016074D01*
X017102Y016149D01*
X017138Y016237D01*
X017151Y016331D01*
X017138Y016425D01*
X017102Y016512D01*
X017044Y016587D01*
X016969Y016645D01*
X016881Y016681D01*
X016787Y016694D01*
X016693Y016681D01*
X016606Y016645D01*
X016531Y016587D01*
X016473Y016512D01*
X016437Y016425D01*
X016424Y016331D01*
X016437Y016237D01*
X016473Y016149D01*
X016531Y016074D01*
X016606Y016016D01*
X016672Y015989D01*
X016662Y015939D01*
X015063D01*
X015051Y015957D01*
X014991Y015996D01*
X014921Y01601D01*
X014851Y015996D01*
X014791Y015957D01*
X014752Y015897D01*
X014738Y015827D01*
X014752Y015757D01*
X014791Y015697D01*
X014851Y015657D01*
X014921Y015643D01*
X014991Y015657D01*
X015051Y015697D01*
X015063Y015715D01*
X016643D01*
X016653Y015665D01*
X016606Y015645D01*
X016531Y015587D01*
X016473Y015512D01*
X016437Y015425D01*
X016424Y015331D01*
X016437Y015237D01*
X016473Y015149D01*
X016531Y015074D01*
X01657Y015044D01*
X016553Y014994D01*
X015457D01*
X015445Y015012D01*
X015385Y015051D01*
X015315Y015065D01*
X015245Y015051D01*
X015185Y015012D01*
X015145Y014952D01*
X015131Y014882D01*
X015145Y014812D01*
X015185Y014752D01*
X015245Y014712D01*
X015315Y014698D01*
X015385Y014712D01*
X015445Y014752D01*
X015457Y01477D01*
X017323D01*
X017323Y01477D01*
X017366Y014778D01*
X017402Y014803D01*
X017842Y015242D01*
X018306D01*
Y014826D01*
X018395D01*
X0184Y0148D01*
X018425Y014763D01*
X018545Y014643D01*
X018524Y014593D01*
X017037D01*
X016969Y014645D01*
X016881Y014681D01*
X016787Y014694D01*
X016693Y014681D01*
X016606Y014645D01*
X016538Y014593D01*
X013065D01*
Y015076D01*
X013099Y015082D01*
X013148Y015115D01*
X013181Y015164D01*
X013193Y015222D01*
Y015439D01*
X013181Y015497D01*
X013148Y015546D01*
X013099Y015579D01*
X013041Y01559D01*
X012864D01*
X012806Y015579D01*
X012757Y015546D01*
X012724Y015497D01*
X012713Y015439D01*
Y015222D01*
X012724Y015164D01*
X012757Y015115D01*
X012806Y015082D01*
X012841Y015076D01*
Y014593D01*
X011742D01*
X011731Y014601D01*
X011656Y014633D01*
X011575Y014643D01*
X011494Y014633D01*
X011418Y014601D01*
X011354Y014552D01*
X011304Y014487D01*
X011273Y014412D01*
X011262Y014331D01*
X011273Y01425D01*
X011304Y014174D01*
X011354Y01411D01*
X011418Y01406D01*
X011494Y014029D01*
X011575Y014018D01*
X011656Y014029D01*
X011731Y01406D01*
X011742Y014068D01*
X016538D01*
X016606Y014016D01*
X016693Y01398D01*
X016686Y013931D01*
X015457D01*
X015445Y013949D01*
X015385Y013988D01*
X015315Y014002D01*
X015245Y013988D01*
X015185Y013949D01*
X015145Y013889D01*
X015131Y013819D01*
X015145Y013749D01*
X015185Y013689D01*
X015245Y013649D01*
X015315Y013635D01*
X015385Y013649D01*
X015445Y013689D01*
X015457Y013707D01*
X016538D01*
X016555Y013657D01*
X016502Y013616D01*
X016438Y013532D01*
X016398Y013435D01*
X016397Y013431D01*
X016787D01*
X017178D01*
X017177Y013435D01*
X017137Y013532D01*
X017073Y013616D01*
X01702Y013657D01*
X017037Y013707D01*
X018323D01*
X018337Y013678D01*
X018341Y013657D01*
X017355Y012671D01*
X015063D01*
X015051Y012689D01*
X014991Y012729D01*
X014921Y012743D01*
X014851Y012729D01*
X014791Y012689D01*
X014752Y012629D01*
X014738Y012559D01*
X014752Y012489D01*
X014791Y012429D01*
X014851Y01239D01*
X014921Y012376D01*
X014991Y01239D01*
X015051Y012429D01*
X015063Y012447D01*
X017402D01*
X017402Y012447D01*
X017444Y012455D01*
X017481Y01248D01*
X018472Y013471D01*
X018598D01*
X018613Y013442D01*
X018616Y013421D01*
X017276Y012081D01*
X014669D01*
X014657Y012098D01*
X014598Y012138D01*
X014528Y012152D01*
X014457Y012138D01*
X014398Y012098D01*
X014358Y012039D01*
X014344Y011968D01*
X014358Y011898D01*
X014398Y011839D01*
X014457Y011799D01*
X014528Y011785D01*
X014598Y011799D01*
X014657Y011839D01*
X014669Y011856D01*
X017323D01*
X017323Y011856D01*
X017366Y011865D01*
X017402Y011889D01*
X018747Y013234D01*
X023772D01*
X023841Y013166D01*
X02382Y013116D01*
X023616D01*
Y012396D01*
X024336D01*
Y013116D01*
X024089D01*
Y013189D01*
X024089Y013189D01*
X02408Y013232D01*
X024056Y013268D01*
X024056Y013268D01*
X023903Y013421D01*
X023907Y013442D01*
X023921Y013471D01*
X024717D01*
X024848Y013339D01*
Y013116D01*
X024601D01*
Y012396D01*
X025321D01*
Y013116D01*
X025073D01*
Y013386D01*
X025073Y013386D01*
X025064Y013429D01*
X02504Y013465D01*
X024848Y013657D01*
X024852Y013678D01*
X024866Y013707D01*
X025538D01*
X025833Y013412D01*
Y013116D01*
X025585D01*
Y012396D01*
X026305D01*
Y013116D01*
X026057D01*
Y013458D01*
X026057Y013458D01*
X026049Y013501D01*
X026024Y013538D01*
X026024Y013538D01*
X025664Y013898D01*
X025627Y013923D01*
X025584Y013931D01*
X025584Y013931D01*
X016889D01*
X016881Y01398D01*
X016969Y014016D01*
X017037Y014068D01*
X029399D01*
X029411Y01406D01*
X029486Y014029D01*
X029567Y014018D01*
X029648Y014029D01*
X029723Y01406D01*
X029788Y01411D01*
X029838Y014174D01*
X029869Y01425D01*
X02988Y014331D01*
X029869Y014412D01*
X029838Y014487D01*
X029788Y014552D01*
X029723Y014601D01*
X029648Y014633D01*
X029567Y014643D01*
X029486Y014633D01*
X029411Y014601D01*
X029399Y014593D01*
X01998D01*
X019959Y014643D01*
X020322Y015006D01*
X026788D01*
X026799Y014988D01*
X026859Y014949D01*
X026929Y014935D01*
X026999Y014949D01*
X027059Y014988D01*
X027099Y015048D01*
X027113Y015118D01*
X027099Y015188D01*
X027059Y015248D01*
X026999Y015288D01*
X026929Y015302D01*
X026859Y015288D01*
X026799Y015248D01*
X026788Y01523D01*
X020276D01*
X020276Y01523D01*
X020233Y015222D01*
X020196Y015197D01*
X020196Y015197D01*
X019796Y014797D01*
X01937D01*
X019332Y014826D01*
X019332Y014847D01*
Y014907D01*
X019336Y014908D01*
X019372Y014933D01*
X019897Y015457D01*
X019944Y015446D01*
X01995Y01544D01*
X019988Y015382D01*
X020048Y015342D01*
X020118Y015328D01*
X020188Y015342D01*
X020248Y015382D01*
X02026Y0154D01*
X030134D01*
X030146Y015382D01*
X030205Y015342D01*
X030276Y015328D01*
X030346Y015342D01*
X030405Y015382D01*
X030445Y015442D01*
X030453Y015483D01*
X030455Y015492D01*
X030506Y01549D01*
X030507Y015483D01*
X030515Y015418D01*
X030552Y01533D01*
X030609Y015255D01*
X030685Y015197D01*
X030772Y015161D01*
X030866Y015149D01*
X03096Y015161D01*
X031048Y015197D01*
X031123Y015255D01*
X031181Y01533D01*
X031217Y015418D01*
X031229Y015512D01*
X031217Y015606D01*
X031181Y015693D01*
X031123Y015769D01*
X031048Y015826D01*
X03096Y015863D01*
X030866Y015875D01*
X030772Y015863D01*
X030685Y015826D01*
X030609Y015769D01*
X030552Y015693D01*
X030515Y015606D01*
X030507Y01554D01*
X030506Y015533D01*
X030455Y015532D01*
X030453Y015541D01*
X030445Y015582D01*
X030405Y015642D01*
X030346Y015681D01*
X030276Y015695D01*
X030205Y015681D01*
X030146Y015642D01*
X030134Y015624D01*
X028024D01*
X028009Y015674D01*
X028043Y015697D01*
X028083Y015757D01*
X028097Y015827D01*
X028083Y015897D01*
X028043Y015957D01*
X028009Y01598D01*
X028024Y01603D01*
X028756D01*
X028768Y016012D01*
X028827Y015972D01*
X028898Y015958D01*
X028968Y015972D01*
X029027Y016012D01*
X029067Y016071D01*
X029081Y016142D01*
X029067Y016212D01*
X029027Y016272D01*
X028968Y016311D01*
X028898Y016325D01*
X028827Y016311D01*
X028768Y016272D01*
X028756Y016254D01*
X026261D01*
Y016613D01*
Y016985D01*
X025865D01*
Y016613D01*
Y016298D01*
Y015983D01*
Y015624D01*
X025631D01*
Y015983D01*
Y016298D01*
Y016613D01*
Y016985D01*
X025235D01*
Y016613D01*
Y016254D01*
X024771D01*
X024676Y016349D01*
X024639Y016373D01*
X024596Y016382D01*
X024596Y016382D01*
X024085D01*
X02408Y016388D01*
X024063Y016432D01*
X024087Y016468D01*
X024098Y016526D01*
X024087Y016584D01*
X024054Y016633D01*
Y016674D01*
X024087Y016724D01*
X024098Y016782D01*
X024087Y016839D01*
X024063Y016876D01*
X024057Y016909D01*
X024063Y016943D01*
X024087Y016979D01*
X024098Y017037D01*
X024087Y017095D01*
X024054Y017145D01*
Y017186D01*
X024087Y017235D01*
X024098Y017293D01*
X024087Y017351D01*
X024063Y017388D01*
X024057Y017421D01*
X024063Y017455D01*
X024087Y017491D01*
X024098Y017549D01*
X024087Y017607D01*
X024054Y017656D01*
Y017698D01*
X024087Y017747D01*
X024098Y017805D01*
X024087Y017863D01*
X024063Y017899D01*
X02408Y017943D01*
X024085Y017949D01*
X025215D01*
X025224Y017905D01*
X025257Y017855D01*
X025306Y017823D01*
X025364Y017811D01*
X025541D01*
X025599Y017823D01*
X025648Y017855D01*
X025681Y017905D01*
X025693Y017963D01*
Y018179D01*
X025681Y018237D01*
X025648Y018286D01*
X025599Y018319D01*
X025541Y018331D01*
X025364D01*
X025306Y018319D01*
X025257Y018286D01*
X025224Y018237D01*
X025213Y018179D01*
Y018173D01*
X024085D01*
X02408Y018179D01*
X024063Y018223D01*
X024087Y018259D01*
X024098Y018317D01*
X024087Y018375D01*
X024057Y01842D01*
X024083Y018437D01*
X024124Y018499D01*
X024129Y018523D01*
X02376D01*
X023391D01*
X023395Y018499D01*
X023409Y018479D01*
X023382Y018429D01*
X023206D01*
X023201Y018437D01*
X023141Y018477D01*
X023071Y018491D01*
X023001Y018477D01*
X022941Y018437D01*
X022924Y018411D01*
X022864D01*
X022846Y018437D01*
X022787Y018477D01*
X022717Y018491D01*
X022646Y018477D01*
X022587Y018437D01*
X022575Y018419D01*
X02217D01*
X022149Y018469D01*
X022177Y018512D01*
X022191Y018583D01*
X022177Y018653D01*
X022138Y018712D01*
X022078Y018752D01*
X022008Y018766D01*
X021938Y018752D01*
X021878Y018712D01*
X021866Y018695D01*
X021773D01*
X021747Y018745D01*
X021764Y018771D01*
X021776Y018829D01*
X021764Y018887D01*
X02174Y018923D01*
X021734Y018957D01*
X02174Y01899D01*
X021764Y019027D01*
X021776Y019085D01*
X021764Y019143D01*
X021731Y019192D01*
Y019233D01*
X021764Y019283D01*
X021776Y019341D01*
X021764Y019399D01*
X021731Y019448D01*
X021682Y019481D01*
X021624Y019492D01*
X02125D01*
X021192Y019481D01*
X021167Y019464D01*
X021163Y01947D01*
X021104Y01951D01*
X021098Y019511D01*
X021103Y019561D01*
X022283D01*
X022346Y019574D01*
X022399Y019609D01*
X022469Y019679D01*
X027046D01*
X027056Y019673D01*
X027126Y019659D01*
X027196Y019673D01*
X027256Y019713D01*
X027296Y019772D01*
X02731Y019843D01*
X027296Y019913D01*
X027256Y019972D01*
X027196Y020012D01*
X027126Y020026D01*
X027056Y020012D01*
X027046Y020006D01*
X022402D01*
X022339Y019993D01*
X022286Y019958D01*
X022216Y019888D01*
X021789D01*
X021763Y019938D01*
X021784Y019969D01*
X021798Y020039D01*
X021787Y020091D01*
X021812Y020141D01*
X021812D01*
Y020511D01*
Y020826D01*
Y021141D01*
Y021502D01*
X022006D01*
Y021377D01*
X022244D01*
X022482D01*
Y021502D01*
X02289D01*
X022902Y021484D01*
X022961Y021445D01*
X023031Y021431D01*
X023088Y021442D01*
X023138Y021413D01*
Y021141D01*
Y020781D01*
X022858D01*
X022846Y020799D01*
X022787Y020839D01*
X022717Y020853D01*
X022646Y020839D01*
X022587Y020799D01*
X022547Y02074D01*
X022533Y020669D01*
X022547Y020599D01*
X022587Y02054D01*
X022646Y0205D01*
X022717Y020486D01*
X022787Y0205D01*
X022846Y02054D01*
X022858Y020557D01*
X023014D01*
X023016Y020556D01*
X023021Y020506D01*
X022973Y020496D01*
X022914Y020457D01*
X022874Y020397D01*
X02286Y020327D01*
X022874Y020257D01*
X022914Y020197D01*
X022973Y020157D01*
X023043Y020143D01*
X023088Y020152D01*
X023138Y020141D01*
Y020141D01*
X023534D01*
Y020511D01*
Y020826D01*
Y021141D01*
Y021513D01*
X023534Y021513D01*
X023552Y021555D01*
X02375D01*
X023768Y021513D01*
X023768Y021505D01*
Y021141D01*
Y020868D01*
X023728D01*
Y020719D01*
X023966D01*
X024204D01*
Y020823D01*
X02421Y020828D01*
X024254Y020846D01*
X0243Y020815D01*
X02437Y020801D01*
X02444Y020815D01*
X0245Y020854D01*
X02454Y020914D01*
X024554Y020984D01*
X02454Y021054D01*
X0245Y021114D01*
X02444Y021154D01*
X024402Y021162D01*
X024393Y021163D01*
X024397Y021213D01*
X024399Y021215D01*
X024655D01*
X024698Y021181D01*
X024712Y021111D01*
X024752Y021051D01*
X024812Y021012D01*
X024882Y020998D01*
X024903Y021002D01*
X025173Y020732D01*
X025173Y020732D01*
X025209Y020707D01*
X025252Y020699D01*
X025783D01*
X025801Y020671D01*
X025861Y020632D01*
X025931Y020618D01*
X026001Y020632D01*
X026061Y020671D01*
X026079Y020699D01*
X0309D01*
Y020451D01*
X03162D01*
Y020715D01*
X031906D01*
X031917Y020697D01*
X031977Y020657D01*
X032047Y020643D01*
X032117Y020657D01*
X032177Y020697D01*
X032178Y020699D01*
X033459D01*
Y020451D01*
X034179D01*
Y021171D01*
X033459D01*
Y020923D01*
X032199D01*
X032177Y020957D01*
X032117Y020996D01*
X032047Y02101D01*
X031977Y020996D01*
X031917Y020957D01*
X031906Y020939D01*
X03162D01*
Y021171D01*
X0309D01*
Y020923D01*
X026066D01*
X026061Y020931D01*
X026001Y020971D01*
X025931Y020985D01*
X025861Y020971D01*
X025801Y020931D01*
X025796Y020923D01*
X025298D01*
X025061Y02116D01*
X025065Y021181D01*
X025051Y021251D01*
X025012Y021311D01*
X024952Y021351D01*
X024882Y021365D01*
X024861Y02136D01*
X024816Y021406D01*
X024779Y02143D01*
X024736Y021439D01*
X024736Y021439D01*
X024164D01*
Y021505D01*
X024164Y021513D01*
X024182Y021555D01*
X025174D01*
X025182Y021537D01*
X025232Y021472D01*
X025296Y021422D01*
X025372Y021391D01*
X025453Y02138D01*
X025534Y021391D01*
X025609Y021422D01*
X025674Y021472D01*
X025724Y021537D01*
X025755Y021612D01*
X025765Y021693D01*
X025755Y021774D01*
X025724Y021849D01*
X02568Y021905D01*
X02568Y021924D01*
X025683Y02194D01*
X025691Y021964D01*
X025739Y021996D01*
X02575Y022012D01*
X026373D01*
X026653Y021732D01*
X026653Y021732D01*
X026689Y021707D01*
X026732Y021699D01*
X026732Y021699D01*
X030917D01*
X030945Y021629D01*
X031003Y021554D01*
X031078Y021497D01*
X031166Y02146D01*
X03126Y021448D01*
X031354Y02146D01*
X031441Y021497D01*
X031517Y021554D01*
X031574Y021629D01*
X031603Y021699D01*
X03226D01*
X032272Y021681D01*
X032331Y021641D01*
X032402Y021627D01*
X032472Y021641D01*
X032531Y021681D01*
X032543Y021699D01*
X033476D01*
X033504Y021629D01*
X033562Y021554D01*
X033637Y021497D01*
X033725Y02146D01*
X033819Y021448D01*
X033913Y02146D01*
X034Y021497D01*
X034076Y021554D01*
X034133Y021629D01*
X03417Y021717D01*
X034182Y021811D01*
X03417Y021905D01*
X034133Y021993D01*
X034076Y022068D01*
X034Y022125D01*
X033913Y022162D01*
X033819Y022174D01*
X033725Y022162D01*
X033637Y022125D01*
X033562Y022068D01*
X033504Y021993D01*
X033476Y021923D01*
X032543D01*
X032531Y021941D01*
X032472Y021981D01*
X032402Y021995D01*
X032331Y021981D01*
X032272Y021941D01*
X03226Y021923D01*
X031603D01*
X031574Y021993D01*
X031517Y022068D01*
X031441Y022125D01*
X031354Y022162D01*
X03126Y022174D01*
X031166Y022162D01*
X031078Y022125D01*
X031003Y022068D01*
X030945Y021993D01*
X030917Y021923D01*
X026779D01*
X026499Y022203D01*
X026462Y022228D01*
X026419Y022236D01*
X026419Y022236D01*
X02575D01*
X025739Y022252D01*
X02568Y022292D01*
X02561Y022306D01*
X025256D01*
X025186Y022292D01*
X025127Y022252D01*
X025117Y022236D01*
X024514D01*
X024502Y022254D01*
X024442Y022294D01*
X024372Y022308D01*
X024302Y022294D01*
X024242Y022254D01*
X024202Y022194D01*
X024189Y022124D01*
X024202Y022054D01*
X024242Y021994D01*
X024302Y021954D01*
X024372Y02194D01*
X024442Y021954D01*
X024502Y021994D01*
X024514Y022012D01*
X025117D01*
X025127Y021996D01*
X025186Y021956D01*
X025201Y021953D01*
X025208Y021945D01*
X02522Y021899D01*
X025182Y021849D01*
X025174Y021831D01*
X023465D01*
X023465Y021831D01*
X023412Y02182D01*
X023367Y02179D01*
X023254Y021677D01*
X023211Y021683D01*
X023204Y021686D01*
X023198Y02169D01*
X023161Y021744D01*
X023102Y021784D01*
X023031Y021798D01*
X022961Y021784D01*
X022902Y021744D01*
X02289Y021726D01*
X021838D01*
X021819Y021757D01*
X021834Y021784D01*
X021891D01*
Y021888D01*
X021891Y021889D01*
X021907Y02197D01*
Y023159D01*
X021914Y023165D01*
X021964Y023229D01*
X021995Y023305D01*
X022006Y023386D01*
X021995Y023467D01*
X021964Y023542D01*
X021914Y023607D01*
X021849Y023657D01*
X021774Y023688D01*
X021693Y023698D01*
D02*
G37*
G36*
X01685Y022408D02*
X016339D01*
X016269Y022394D01*
X01621Y022355D01*
X016171Y022296D01*
X016157Y022226D01*
X016171Y022157D01*
X01621Y022098D01*
X016269Y022059D01*
X016339Y022045D01*
X01685D01*
X01692Y022059D01*
X016979Y022098D01*
X017018Y022157D01*
X017032Y022226D01*
X017018Y022296D01*
X016979Y022355D01*
X01692Y022394D01*
X01685Y022408D01*
D02*
G37*
G36*
X023697Y022074D02*
X023357D01*
Y021902D01*
X023484D01*
X023569Y021919D01*
X023642Y021967D01*
X02369Y022039D01*
X023697Y022074D01*
D02*
G37*
G36*
X023257D02*
X022917D01*
X022924Y022039D01*
X022973Y021967D01*
X023045Y021919D01*
X02313Y021902D01*
X023257D01*
Y022074D01*
D02*
G37*
G36*
X014214Y022958D02*
X013937D01*
X01366D01*
Y022711D01*
X013848D01*
X013848Y022661D01*
X01379Y02265D01*
X013741Y022617D01*
X013708Y022568D01*
X013697Y02251D01*
Y022293D01*
X013708Y022235D01*
X013741Y022186D01*
X01379Y022153D01*
X013825Y022146D01*
Y021974D01*
X011984D01*
X011922Y021962D01*
X011869Y021926D01*
X011704Y021762D01*
X011215D01*
Y02168D01*
X010719D01*
X010708Y021688D01*
X010632Y021719D01*
X010551Y02173D01*
X01047Y021719D01*
X010395Y021688D01*
X01033Y021638D01*
X01028Y021574D01*
X010249Y021498D01*
X010239Y021417D01*
X010249Y021336D01*
X01028Y021261D01*
X01033Y021196D01*
X010395Y021147D01*
X01047Y021115D01*
X010551Y021105D01*
X010632Y021115D01*
X010708Y021147D01*
X010719Y021155D01*
X011215D01*
Y021042D01*
X011935D01*
Y021531D01*
X012052Y021648D01*
X013257D01*
X013258Y021598D01*
X0132Y021587D01*
X013151Y021554D01*
X013118Y021505D01*
X013107Y021451D01*
X012701D01*
X012689Y021468D01*
X012629Y021508D01*
X012559Y021522D01*
X012489Y021508D01*
X012429Y021468D01*
X01239Y021409D01*
X012376Y021339D01*
X01239Y021268D01*
X012429Y021209D01*
X012489Y021169D01*
X012559Y021155D01*
X012629Y021169D01*
X012689Y021209D01*
X012701Y021226D01*
X013107D01*
X013118Y021172D01*
X013151Y021123D01*
X0132Y02109D01*
X013234Y021084D01*
Y020926D01*
X013109D01*
Y020427D01*
X01295D01*
X012949Y020429D01*
X012896Y020464D01*
X012835Y020476D01*
X012773Y020464D01*
X01272Y020429D01*
X012685Y020377D01*
X012673Y020315D01*
X012685Y020253D01*
X01272Y020201D01*
X012773Y020166D01*
X012835Y020153D01*
X012896Y020166D01*
X012949Y020201D01*
X01295Y020203D01*
X015954D01*
X01598Y020172D01*
X015963Y020124D01*
X015827D01*
X015764Y020111D01*
X015711Y020076D01*
X015066Y019431D01*
X014456D01*
X014448Y019449D01*
X014391Y019524D01*
X014315Y019582D01*
X014228Y019618D01*
X014134Y019631D01*
X01404Y019618D01*
X013952Y019582D01*
X013877Y019524D01*
X013819Y019449D01*
X013783Y019362D01*
X013771Y019268D01*
X013783Y019174D01*
X013819Y019086D01*
X013877Y019011D01*
X013952Y018953D01*
X01404Y018917D01*
X014134Y018905D01*
X014228Y018917D01*
X014315Y018953D01*
X014391Y019011D01*
X014448Y019086D01*
X014456Y019105D01*
X015134D01*
X015196Y019117D01*
X015249Y019152D01*
X015894Y019797D01*
X016633D01*
Y019783D01*
X017147D01*
Y020139D01*
X016633D01*
Y020124D01*
X01623D01*
X016215Y020174D01*
X016232Y020185D01*
X016272Y020245D01*
X016286Y020315D01*
X016272Y020385D01*
X016232Y020445D01*
X016173Y020485D01*
X016102Y020498D01*
X016032Y020485D01*
X015973Y020445D01*
X015961Y020427D01*
X014214D01*
Y020619D01*
X013937D01*
Y020669D01*
D01*
Y020619D01*
X01366D01*
Y020427D01*
X013584D01*
Y020926D01*
X013459D01*
Y021084D01*
X013493Y02109D01*
X013542Y021123D01*
X013575Y021172D01*
X013587Y02123D01*
Y021447D01*
X013575Y021505D01*
X013542Y021554D01*
X013493Y021587D01*
X013435Y021598D01*
X013436Y021648D01*
X013825D01*
Y021594D01*
X01379Y021587D01*
X013741Y021554D01*
X013708Y021505D01*
X013697Y021447D01*
Y02123D01*
X013708Y021172D01*
X013741Y021123D01*
X01379Y02109D01*
X013848Y021079D01*
X014026D01*
X014084Y02109D01*
X014133Y021123D01*
X014166Y021172D01*
X014177Y02123D01*
Y021447D01*
X014166Y021505D01*
X014133Y021554D01*
X014084Y021587D01*
X014049Y021594D01*
Y021669D01*
X014067Y021681D01*
X014107Y021741D01*
X014121Y021811D01*
X014107Y021881D01*
X014067Y021941D01*
X014049Y021953D01*
Y022146D01*
X014084Y022153D01*
X014133Y022186D01*
X014166Y022235D01*
X014177Y022293D01*
Y02251D01*
X014166Y022568D01*
X014133Y022617D01*
X014084Y02265D01*
X014026Y022661D01*
X014026Y022711D01*
X014214D01*
Y022958D01*
D02*
G37*
G36*
X036378Y022174D02*
X036284Y022162D01*
X036196Y022125D01*
X036121Y022068D01*
X036063Y021993D01*
X036027Y021905D01*
X036015Y021811D01*
X036027Y021717D01*
X036063Y021629D01*
X036121Y021554D01*
X036196Y021497D01*
X036284Y02146D01*
X036378Y021448D01*
X036472Y02146D01*
X03656Y021497D01*
X036635Y021554D01*
X036692Y021629D01*
X036729Y021717D01*
X036741Y021811D01*
X036729Y021905D01*
X036692Y021993D01*
X036635Y022068D01*
X03656Y022125D01*
X036472Y022162D01*
X036378Y022174D01*
D02*
G37*
G36*
X022482Y021277D02*
X022244D01*
X022006D01*
Y021101D01*
Y021034D01*
X022244D01*
X022482D01*
Y021101D01*
Y021277D01*
D02*
G37*
G36*
X016791Y02152D02*
X016311D01*
Y02092D01*
X016791D01*
Y021006D01*
X017048D01*
X017048Y021005D01*
X017098Y020972D01*
X017156Y020961D01*
X017333D01*
X017391Y020972D01*
X01744Y021005D01*
X017473Y021054D01*
X017484Y021112D01*
Y021329D01*
X017473Y021387D01*
X01744Y021436D01*
X017391Y021469D01*
X017333Y02148D01*
X017156D01*
X017098Y021469D01*
X017048Y021436D01*
X017048Y021435D01*
X016791D01*
Y02152D01*
D02*
G37*
G36*
X015501D02*
X015021D01*
Y021431D01*
X014957Y021418D01*
X014888Y021372D01*
X014842Y021302D01*
X014825Y02122D01*
X014842Y021139D01*
X014888Y021069D01*
X014957Y021023D01*
X015021Y02101D01*
Y02092D01*
X015501D01*
Y02152D01*
D02*
G37*
G36*
X014214Y020966D02*
X013987D01*
Y020719D01*
X014214D01*
Y020966D01*
D02*
G37*
G36*
X013887D02*
X01366D01*
Y020719D01*
X013887D01*
Y020966D01*
D02*
G37*
G36*
X022482Y020934D02*
X022244D01*
X022006D01*
Y020786D01*
Y020719D01*
X022244D01*
X022482D01*
Y020786D01*
Y020934D01*
D02*
G37*
G36*
X036738Y021171D02*
X036018D01*
Y020451D01*
X036738D01*
Y021171D01*
D02*
G37*
G36*
X018132Y020553D02*
X017885D01*
Y020385D01*
X018132D01*
Y020553D01*
D02*
G37*
G36*
X017785D02*
X017538D01*
Y020385D01*
X017785D01*
Y020553D01*
D02*
G37*
G36*
X024204Y020619D02*
X023966D01*
X023728D01*
Y020471D01*
Y020377D01*
X023966D01*
X024204D01*
Y020471D01*
Y020619D01*
D02*
G37*
G36*
X022482D02*
X022244D01*
X022006D01*
Y020471D01*
Y020377D01*
X022244D01*
X022482D01*
Y020471D01*
Y020619D01*
D02*
G37*
G36*
X018132Y020285D02*
X017885D01*
Y020117D01*
X018132D01*
Y020285D01*
D02*
G37*
G36*
X017785D02*
X017538D01*
Y020117D01*
X017785D01*
Y020285D01*
D02*
G37*
G36*
X024204Y020277D02*
X024016D01*
Y020101D01*
X024204D01*
Y020277D01*
D02*
G37*
G36*
X023916D02*
X023728D01*
Y020101D01*
X023916D01*
Y020277D01*
D02*
G37*
G36*
X022482D02*
X022294D01*
Y020101D01*
X022482D01*
Y020277D01*
D02*
G37*
G36*
X022194D02*
X022006D01*
Y020101D01*
X022194D01*
Y020277D01*
D02*
G37*
G36*
X025551Y019551D02*
X025354D01*
X0253Y01954D01*
X025254Y019509D01*
X025233Y019478D01*
X024008D01*
X024005Y019481D01*
X023947Y019492D01*
X023573D01*
X023515Y019481D01*
X023466Y019448D01*
X023433Y019399D01*
X023421Y019341D01*
X023433Y019283D01*
X023466Y019233D01*
Y019192D01*
X023433Y019143D01*
X023421Y019085D01*
X023433Y019027D01*
X023457Y01899D01*
X023462Y018957D01*
X023457Y018923D01*
X023433Y018887D01*
X023421Y018829D01*
X023433Y018771D01*
X023463Y018726D01*
X023437Y018709D01*
X023395Y018646D01*
X023391Y018623D01*
X02376D01*
X024129D01*
X024124Y018646D01*
X024114Y018663D01*
X024137Y018707D01*
X02474D01*
X024752Y018689D01*
X024812Y018649D01*
X024882Y018635D01*
X024952Y018649D01*
X025012Y018689D01*
X025051Y018749D01*
X025065Y018819D01*
X025051Y018889D01*
X025012Y018949D01*
X024952Y018988D01*
X024882Y019002D01*
X024812Y018988D01*
X024752Y018949D01*
X02474Y018931D01*
X024534D01*
X024508Y018981D01*
X02453Y019014D01*
X024544Y019085D01*
X02453Y019153D01*
X024529Y019162D01*
X024556Y019203D01*
X025223D01*
X025224Y019198D01*
X025254Y019152D01*
X025259Y019149D01*
X025261Y019087D01*
X025251Y019079D01*
X025202Y019015D01*
X02517Y018939D01*
X02516Y018858D01*
X02517Y018777D01*
X025202Y018702D01*
X025251Y018637D01*
X025316Y018587D01*
X025392Y018556D01*
X025472Y018546D01*
X025553Y018556D01*
X025629Y018587D01*
X025694Y018637D01*
X025743Y018702D01*
X025774Y018777D01*
X025785Y018858D01*
X025774Y018939D01*
X025743Y019015D01*
X025694Y019079D01*
X025665Y019101D01*
X025651Y019152D01*
X025682Y019198D01*
X025693Y019252D01*
Y019409D01*
X025682Y019464D01*
X025651Y019509D01*
X025605Y01954D01*
X025551Y019551D01*
D02*
G37*
G36*
X026142Y019592D02*
X026093D01*
Y019381D01*
X026324D01*
Y019409D01*
X02631Y019479D01*
X026271Y019538D01*
X026211Y019578D01*
X026142Y019592D01*
D02*
G37*
G36*
X025993D02*
X025945D01*
X025875Y019578D01*
X025816Y019538D01*
X025777Y019479D01*
X025763Y019409D01*
Y019381D01*
X025993D01*
Y019592D01*
D02*
G37*
G36*
X035591Y019761D02*
X029567D01*
X029486Y019751D01*
X029411Y01972D01*
X029346Y01967D01*
X029296Y019605D01*
X029265Y01953D01*
X029254Y019449D01*
X029265Y019368D01*
X029296Y019292D01*
X029346Y019228D01*
X029411Y019178D01*
X029486Y019147D01*
X029567Y019136D01*
X035591D01*
X035671Y019147D01*
X035747Y019178D01*
X035812Y019228D01*
X035861Y019292D01*
X035893Y019368D01*
X035903Y019449D01*
X035893Y01953D01*
X035861Y019605D01*
X035812Y01967D01*
X035747Y01972D01*
X035671Y019751D01*
X035591Y019761D01*
D02*
G37*
G36*
X026324Y019281D02*
X026093D01*
Y01907D01*
X026142D01*
X026211Y019084D01*
X026271Y019123D01*
X02631Y019182D01*
X026324Y019252D01*
Y019281D01*
D02*
G37*
G36*
X025993D02*
X025763D01*
Y019252D01*
X025777Y019182D01*
X025816Y019123D01*
X025875Y019084D01*
X025945Y01907D01*
X025993D01*
Y019281D01*
D02*
G37*
G36*
X017333Y019118D02*
X017156D01*
X017098Y019106D01*
X017048Y019074D01*
X017016Y019024D01*
X017005Y01897D01*
X016244D01*
X016232Y018988D01*
X016173Y019028D01*
X016102Y019042D01*
X016032Y019028D01*
X015973Y018988D01*
X015933Y018928D01*
X015919Y018858D01*
X015933Y018788D01*
X015973Y018728D01*
X016032Y018689D01*
X016102Y018675D01*
X016173Y018689D01*
X016232Y018728D01*
X016244Y018746D01*
X017005D01*
X017016Y018692D01*
X017048Y018643D01*
X017098Y01861D01*
X017156Y018599D01*
X017333D01*
X017391Y01861D01*
X01744Y018643D01*
X017473Y018692D01*
X017484Y01875D01*
Y018967D01*
X017473Y019024D01*
X01744Y019074D01*
X017391Y019106D01*
X017333Y019118D01*
D02*
G37*
G36*
X011575Y019631D02*
X011481Y019618D01*
X011393Y019582D01*
X011318Y019524D01*
X01126Y019449D01*
X011224Y019362D01*
X011212Y019268D01*
X011224Y019174D01*
X01126Y019086D01*
X011318Y019011D01*
X011393Y018953D01*
X011481Y018917D01*
X011575Y018905D01*
X011669Y018917D01*
X011756Y018953D01*
X011832Y019011D01*
X011889Y019086D01*
X011926Y019174D01*
X011938Y019268D01*
X011926Y019362D01*
X011889Y019449D01*
X011832Y019524D01*
X011756Y019582D01*
X011669Y019618D01*
X011575Y019631D01*
D02*
G37*
G36*
X018091Y019765D02*
X017578D01*
Y019409D01*
X017722D01*
Y019113D01*
X017688Y019106D01*
X017639Y019074D01*
X017606Y019024D01*
X017595Y018967D01*
Y01875D01*
X017606Y018692D01*
X017639Y018643D01*
X017688Y01861D01*
X017746Y018599D01*
X017923D01*
X017981Y01861D01*
X01803Y018643D01*
X018063Y018692D01*
X018075Y01875D01*
Y018967D01*
X018063Y019024D01*
X01803Y019074D01*
X017981Y019106D01*
X017947Y019113D01*
Y019409D01*
X018091D01*
Y019765D01*
D02*
G37*
G36*
X036478Y018871D02*
Y01858D01*
X036768D01*
X036768Y018585D01*
X036727Y018682D01*
X036663Y018766D01*
X03658Y01883D01*
X036482Y01887D01*
X036478Y018871D01*
D02*
G37*
G36*
X036278D02*
X036274Y01887D01*
X036176Y01883D01*
X036093Y018766D01*
X036029Y018682D01*
X035988Y018585D01*
X035988Y01858D01*
X036278D01*
Y018871D01*
D02*
G37*
G36*
X011935Y018628D02*
X011215D01*
Y01853D01*
X010758D01*
X010747Y018539D01*
X010671Y01857D01*
X010591Y01858D01*
X01051Y01857D01*
X010434Y018539D01*
X010369Y018489D01*
X01032Y018424D01*
X010289Y018349D01*
X010278Y018268D01*
X010289Y018187D01*
X01032Y018111D01*
X010369Y018047D01*
X010434Y017997D01*
X01051Y017966D01*
X010591Y017955D01*
X010671Y017966D01*
X010747Y017997D01*
X010758Y018005D01*
X011215D01*
Y017908D01*
X011935D01*
Y018628D01*
D02*
G37*
G36*
X026132Y018371D02*
X026093D01*
Y018121D01*
X026324D01*
Y018179D01*
X02631Y018253D01*
X026268Y018315D01*
X026205Y018357D01*
X026132Y018371D01*
D02*
G37*
G36*
X025993D02*
X025955D01*
X025881Y018357D01*
X025819Y018315D01*
X025777Y018253D01*
X025762Y018179D01*
Y018121D01*
X025993D01*
Y018371D01*
D02*
G37*
G36*
X036768Y01838D02*
X036478D01*
Y01809D01*
X036482Y018091D01*
X03658Y018131D01*
X036663Y018195D01*
X036727Y018279D01*
X036768Y018376D01*
X036768Y01838D01*
D02*
G37*
G36*
X036278D02*
X035988D01*
X035988Y018376D01*
X036029Y018279D01*
X036093Y018195D01*
X036176Y018131D01*
X036274Y018091D01*
X036278Y01809D01*
Y01838D01*
D02*
G37*
G36*
X014494Y018628D02*
X013774D01*
Y017908D01*
X014494D01*
Y018105D01*
X017015D01*
X017016Y018101D01*
X017048Y018052D01*
X017098Y018019D01*
X017156Y018008D01*
X017333D01*
X017391Y018019D01*
X01744Y018052D01*
X017473Y018101D01*
X017484Y018159D01*
Y018376D01*
X017473Y018434D01*
X01744Y018483D01*
X017391Y018516D01*
X017333Y018527D01*
X017156D01*
X017098Y018516D01*
X017048Y018483D01*
X017016Y018434D01*
X017015Y018431D01*
X014494D01*
Y018628D01*
D02*
G37*
G36*
X033785Y017872D02*
X033065D01*
Y017809D01*
X031226D01*
Y017872D01*
X030506D01*
Y017675D01*
X027206D01*
X027196Y017681D01*
X027126Y017695D01*
X027056Y017681D01*
X026996Y017642D01*
X026956Y017582D01*
X026942Y017512D01*
X026956Y017442D01*
X026996Y017382D01*
X027056Y017342D01*
X027126Y017328D01*
X027196Y017342D01*
X027206Y017349D01*
X030506D01*
Y017152D01*
X031226D01*
Y017183D01*
X03225D01*
X032264Y017154D01*
X032269Y017133D01*
X032232Y017078D01*
X032218Y017008D01*
X032232Y016938D01*
X032272Y016878D01*
X032331Y016838D01*
X032402Y016824D01*
X032472Y016838D01*
X032531Y016878D01*
X032543Y016896D01*
X033186D01*
X033203Y016846D01*
X03314Y016797D01*
X033076Y016714D01*
X033035Y016616D01*
X033035Y016612D01*
X033425D01*
X033815D01*
X033815Y016616D01*
X033775Y016714D01*
X03371Y016797D01*
X033647Y016846D01*
X033664Y016896D01*
X035804D01*
X036056Y016644D01*
X036027Y016574D01*
X036015Y01648D01*
X036027Y016386D01*
X036063Y016299D01*
X036121Y016224D01*
X036196Y016166D01*
X036284Y01613D01*
X036378Y016117D01*
X036472Y01613D01*
X03656Y016166D01*
X036635Y016224D01*
X036692Y016299D01*
X036729Y016386D01*
X036741Y01648D01*
X036729Y016574D01*
X036692Y016662D01*
X036635Y016737D01*
X03656Y016795D01*
X036472Y016831D01*
X036378Y016843D01*
X036284Y016831D01*
X036215Y016802D01*
X03593Y017087D01*
X035893Y017111D01*
X035862Y017118D01*
X035867Y017168D01*
X036194D01*
X036196Y017166D01*
X036284Y01713D01*
X036378Y017117D01*
X036472Y01713D01*
X03656Y017166D01*
X036635Y017224D01*
X036692Y017299D01*
X036729Y017386D01*
X036741Y01748D01*
X036729Y017574D01*
X036692Y017662D01*
X036635Y017737D01*
X03656Y017795D01*
X036472Y017831D01*
X036378Y017843D01*
X036284Y017831D01*
X036196Y017795D01*
X036194Y017793D01*
X033785D01*
Y017872D01*
D02*
G37*
G36*
X026324Y018021D02*
X026093D01*
Y01777D01*
X026132D01*
X026205Y017785D01*
X026268Y017827D01*
X02631Y017889D01*
X026324Y017963D01*
Y018021D01*
D02*
G37*
G36*
X025993D02*
X025762D01*
Y017963D01*
X025777Y017889D01*
X025819Y017827D01*
X025881Y017785D01*
X025955Y01777D01*
X025993D01*
Y018021D01*
D02*
G37*
G36*
X030966Y016902D02*
Y016612D01*
X031256D01*
X031256Y016616D01*
X031216Y016714D01*
X031151Y016797D01*
X031068Y016861D01*
X030971Y016902D01*
X030966Y016902D01*
D02*
G37*
G36*
X030766D02*
X030762Y016902D01*
X030664Y016861D01*
X030581Y016797D01*
X030517Y016714D01*
X030476Y016616D01*
X030476Y016612D01*
X030766D01*
Y016902D01*
D02*
G37*
G36*
X033325Y016412D02*
X033035D01*
X033035Y016407D01*
X033076Y01631D01*
X03314Y016227D01*
X033223Y016162D01*
X033321Y016122D01*
X033325Y016122D01*
Y016412D01*
D02*
G37*
G36*
X031256Y016412D02*
X030966D01*
Y016122D01*
X030971Y016122D01*
X031068Y016162D01*
X031151Y016227D01*
X031216Y01631D01*
X031256Y016407D01*
X031256Y016412D01*
D02*
G37*
G36*
X030766D02*
X030476D01*
X030476Y016407D01*
X030517Y01631D01*
X030581Y016227D01*
X030664Y016162D01*
X030762Y016122D01*
X030766Y016122D01*
Y016412D01*
D02*
G37*
G36*
X033815Y016412D02*
X033525D01*
Y016122D01*
X03353Y016122D01*
X033627Y016162D01*
X03371Y016227D01*
X033775Y01631D01*
X033815Y016407D01*
X033815Y016412D01*
D02*
G37*
G36*
X011147Y016691D02*
X010427D01*
Y015971D01*
X011147D01*
Y016691D01*
D02*
G37*
G36*
X033425Y015875D02*
X033331Y015863D01*
X033244Y015826D01*
X033168Y015769D01*
X033111Y015693D01*
X033074Y015606D01*
X033062Y015512D01*
X033074Y015418D01*
X033111Y01533D01*
X033168Y015255D01*
X033244Y015197D01*
X033331Y015161D01*
X033425Y015149D01*
X033519Y015161D01*
X033607Y015197D01*
X033682Y015255D01*
X03374Y01533D01*
X033776Y015418D01*
X033788Y015512D01*
X033776Y015606D01*
X03374Y015693D01*
X033682Y015769D01*
X033607Y015826D01*
X033519Y015863D01*
X033425Y015875D01*
D02*
G37*
G36*
X010787Y015694D02*
X010693Y015681D01*
X010606Y015645D01*
X010531Y015587D01*
X010473Y015512D01*
X010437Y015425D01*
X010424Y015331D01*
X010437Y015237D01*
X010473Y015149D01*
X010531Y015074D01*
X010606Y015016D01*
X010693Y01498D01*
X010787Y014968D01*
X010881Y01498D01*
X010969Y015016D01*
X011044Y015074D01*
X011102Y015149D01*
X011131Y015219D01*
X012123D01*
X012134Y015164D01*
X012167Y015115D01*
X012216Y015082D01*
X012274Y015071D01*
X012451D01*
X012509Y015082D01*
X012558Y015115D01*
X012591Y015164D01*
X012602Y015222D01*
Y015439D01*
X012591Y015497D01*
X012558Y015546D01*
X012509Y015579D01*
X012451Y01559D01*
X012274D01*
X012216Y015579D01*
X012167Y015546D01*
X012134Y015497D01*
X012123Y015443D01*
X011131D01*
X011102Y015512D01*
X011044Y015587D01*
X010969Y015645D01*
X010881Y015681D01*
X010787Y015694D01*
D02*
G37*
G36*
X036738Y01584D02*
X036018D01*
Y015279D01*
X035694Y014955D01*
X032189D01*
X032177Y014972D01*
X032117Y015012D01*
X032047Y015026D01*
X031977Y015012D01*
X031917Y014972D01*
X031878Y014913D01*
X031864Y014843D01*
X031878Y014772D01*
X031917Y014713D01*
X031977Y014673D01*
X032047Y014659D01*
X032117Y014673D01*
X032177Y014713D01*
X032189Y01473D01*
X03574D01*
X03574Y01473D01*
X035783Y014739D01*
X035819Y014763D01*
X036177Y01512D01*
X036738D01*
Y01584D01*
D02*
G37*
G36*
X010787Y014694D02*
X010693Y014681D01*
X010606Y014645D01*
X010531Y014587D01*
X010473Y014512D01*
X010437Y014425D01*
X010424Y014331D01*
X010437Y014237D01*
X010473Y014149D01*
X010531Y014074D01*
X010606Y014016D01*
X010693Y01398D01*
X010787Y013968D01*
X010881Y01398D01*
X010969Y014016D01*
X011044Y014074D01*
X011102Y014149D01*
X011138Y014237D01*
X011151Y014331D01*
X011138Y014425D01*
X011102Y014512D01*
X011044Y014587D01*
X010969Y014645D01*
X010881Y014681D01*
X010787Y014694D01*
D02*
G37*
G36*
X033425Y014317D02*
X033355Y014303D01*
X033295Y014264D01*
X033256Y014204D01*
X033242Y014134D01*
X033256Y014064D01*
X033262Y014054D01*
Y013938D01*
X033229Y013916D01*
X033197Y013867D01*
X033185Y013809D01*
Y013593D01*
X033197Y013535D01*
X033229Y013485D01*
X033279Y013453D01*
X033337Y013441D01*
X033514D01*
X033572Y013453D01*
X033621Y013485D01*
X033654Y013535D01*
X033665Y013593D01*
Y013809D01*
X033654Y013867D01*
X033621Y013916D01*
X033588Y013938D01*
Y014054D01*
X033595Y014064D01*
X033609Y014134D01*
X033595Y014204D01*
X033555Y014264D01*
X033495Y014303D01*
X033425Y014317D01*
D02*
G37*
G36*
X030866Y014239D02*
X030796Y014225D01*
X030736Y014185D01*
X030697Y014125D01*
X030683Y014055D01*
X030697Y013985D01*
X030697Y013984D01*
X030689Y013929D01*
X03067Y013916D01*
X030638Y013867D01*
X030626Y013809D01*
Y013593D01*
X030638Y013535D01*
X03067Y013485D01*
X03072Y013453D01*
X030778Y013441D01*
X030955D01*
X031013Y013453D01*
X031062Y013485D01*
X031095Y013535D01*
X031106Y013593D01*
Y013809D01*
X031095Y013867D01*
X031062Y013916D01*
X031043Y013929D01*
X031035Y013984D01*
X031036Y013985D01*
X03105Y014055D01*
X031036Y014125D01*
X030996Y014185D01*
X030936Y014225D01*
X030866Y014239D01*
D02*
G37*
G36*
X033514Y013332D02*
X033475D01*
Y013081D01*
X033706D01*
Y01314D01*
X033691Y013213D01*
X03365Y013276D01*
X033587Y013317D01*
X033514Y013332D01*
D02*
G37*
G36*
X033375D02*
X033337D01*
X033263Y013317D01*
X033201Y013276D01*
X033159Y013213D01*
X033144Y01314D01*
Y013081D01*
X033375D01*
Y013332D01*
D02*
G37*
G36*
X030955D02*
X030916D01*
Y013081D01*
X031147D01*
Y01314D01*
X031132Y013213D01*
X031091Y013276D01*
X031028Y013317D01*
X030955Y013332D01*
D02*
G37*
G36*
X030816D02*
X030778D01*
X030704Y013317D01*
X030642Y013276D01*
X0306Y013213D01*
X030585Y01314D01*
Y013081D01*
X030816D01*
Y013332D01*
D02*
G37*
G36*
X010787Y013694D02*
X010693Y013681D01*
X010606Y013645D01*
X010531Y013587D01*
X010473Y013512D01*
X010437Y013425D01*
X010424Y013331D01*
X010437Y013237D01*
X010473Y013149D01*
X010531Y013074D01*
X010606Y013016D01*
X010693Y01298D01*
X010787Y012968D01*
X010881Y01298D01*
X010969Y013016D01*
X011044Y013074D01*
X011102Y013149D01*
X011138Y013237D01*
X011151Y013331D01*
X011138Y013425D01*
X011102Y013512D01*
X011044Y013587D01*
X010969Y013645D01*
X010881Y013681D01*
X010787Y013694D01*
D02*
G37*
G36*
X017178Y013231D02*
X016887D01*
Y01294D01*
X016892Y012941D01*
X016989Y012981D01*
X017073Y013045D01*
X017137Y013129D01*
X017177Y013226D01*
X017178Y013231D01*
D02*
G37*
G36*
X016687D02*
X016397D01*
X016398Y013226D01*
X016438Y013129D01*
X016502Y013045D01*
X016586Y012981D01*
X016683Y012941D01*
X016687Y01294D01*
Y013231D01*
D02*
G37*
G36*
X031654Y014514D02*
X031583Y0145D01*
X031524Y01446D01*
X031484Y014401D01*
X03147Y014331D01*
X031484Y01426D01*
X031524Y014201D01*
X031583Y014161D01*
X031654Y014147D01*
X031724Y014161D01*
X031783Y014201D01*
X031795Y014219D01*
X032591D01*
X032703Y014107D01*
Y013952D01*
X032688Y013949D01*
X032639Y013916D01*
X032606Y013867D01*
X032595Y013809D01*
Y013593D01*
X032606Y013535D01*
X032639Y013485D01*
X032688Y013453D01*
X032722Y013446D01*
Y013287D01*
X032688Y01328D01*
X032639Y013247D01*
X032606Y013198D01*
X032595Y01314D01*
Y012923D01*
X032606Y012865D01*
X032639Y012816D01*
X032688Y012783D01*
X032746Y012772D01*
X032923D01*
X032981Y012783D01*
X03303Y012816D01*
X033063Y012865D01*
X033075Y012923D01*
Y01314D01*
X033063Y013198D01*
X03303Y013247D01*
X032981Y01328D01*
X032947Y013287D01*
Y013446D01*
X032981Y013453D01*
X03303Y013485D01*
X033063Y013535D01*
X033075Y013593D01*
Y013809D01*
X033063Y013867D01*
X03303Y013916D01*
X032981Y013949D01*
X032927Y01396D01*
Y014154D01*
X032927Y014154D01*
X032919Y014196D01*
X032894Y014233D01*
X032894Y014233D01*
X032717Y01441D01*
X032681Y014434D01*
X032638Y014443D01*
X032638Y014443D01*
X031795D01*
X031783Y01446D01*
X031724Y0145D01*
X031654Y014514D01*
D02*
G37*
G36*
X030276Y014239D02*
X030205Y014225D01*
X030146Y014185D01*
X030106Y014125D01*
X030092Y014055D01*
X030106Y013985D01*
X030088Y013922D01*
X03008Y013916D01*
X030047Y013867D01*
X030036Y013809D01*
Y013593D01*
X030047Y013535D01*
X03008Y013485D01*
X030129Y013453D01*
X030163Y013446D01*
Y013287D01*
X030129Y01328D01*
X03008Y013247D01*
X030047Y013198D01*
X030036Y01314D01*
Y012923D01*
X030047Y012865D01*
X03008Y012816D01*
X030129Y012783D01*
X030187Y012772D01*
X030364D01*
X030422Y012783D01*
X030471Y012816D01*
X030504Y012865D01*
X030516Y012923D01*
Y01314D01*
X030504Y013198D01*
X030471Y013247D01*
X030422Y01328D01*
X030388Y013287D01*
Y013446D01*
X030422Y013453D01*
X030471Y013485D01*
X030504Y013535D01*
X030516Y013593D01*
Y013809D01*
X030504Y013867D01*
X030471Y013916D01*
X030463Y013922D01*
X030445Y013985D01*
X030459Y014055D01*
X030445Y014125D01*
X030405Y014185D01*
X030346Y014225D01*
X030276Y014239D01*
D02*
G37*
G36*
X033706Y012981D02*
X033475D01*
Y012731D01*
X033514D01*
X033587Y012746D01*
X03365Y012787D01*
X033691Y01285D01*
X033706Y012923D01*
Y012981D01*
D02*
G37*
G36*
X033375D02*
X033144D01*
Y012923D01*
X033159Y01285D01*
X033201Y012787D01*
X033263Y012746D01*
X033337Y012731D01*
X033375D01*
Y012981D01*
D02*
G37*
G36*
X031147D02*
X030916D01*
Y012731D01*
X030955D01*
X031028Y012746D01*
X031091Y012787D01*
X031132Y01285D01*
X031147Y012923D01*
Y012981D01*
D02*
G37*
G36*
X030816D02*
X030585D01*
Y012923D01*
X0306Y01285D01*
X030642Y012787D01*
X030704Y012746D01*
X030778Y012731D01*
X030816D01*
Y012981D01*
D02*
G37*
G36*
X029258Y013116D02*
X028538D01*
Y012396D01*
X029258D01*
Y013116D01*
D02*
G37*
G36*
X028273D02*
X027553D01*
Y012396D01*
X028273D01*
Y013116D01*
D02*
G37*
G36*
X023352D02*
X022632D01*
Y012396D01*
X023352D01*
Y013116D01*
D02*
G37*
G36*
X022368D02*
X021648D01*
Y012396D01*
X022368D01*
Y013116D01*
D02*
G37*
G36*
X021384D02*
X020664D01*
Y012396D01*
X021384D01*
Y013116D01*
D02*
G37*
G36*
X020399D02*
X019679D01*
Y012396D01*
X020399D01*
Y013116D01*
D02*
G37*
G36*
X027289Y013116D02*
X026569D01*
Y012396D01*
X027289D01*
Y013116D01*
D02*
G37*
G36*
X028898Y012119D02*
X028804Y012107D01*
X028716Y01207D01*
X028648Y012018D01*
X028163D01*
X028095Y01207D01*
X028007Y012107D01*
X027913Y012119D01*
X027819Y012107D01*
X027732Y01207D01*
X027664Y012018D01*
X027179D01*
X027111Y01207D01*
X027023Y012107D01*
X026929Y012119D01*
X026835Y012107D01*
X026748Y01207D01*
X02668Y012018D01*
X026194D01*
X026126Y01207D01*
X026039Y012107D01*
X025945Y012119D01*
X025851Y012107D01*
X025763Y01207D01*
X025695Y012018D01*
X02521D01*
X025142Y01207D01*
X025055Y012107D01*
X024961Y012119D01*
X024867Y012107D01*
X024779Y01207D01*
X024711Y012018D01*
X024226D01*
X024158Y01207D01*
X02407Y012107D01*
X023976Y012119D01*
X023882Y012107D01*
X023795Y01207D01*
X023727Y012018D01*
X023242D01*
X023174Y01207D01*
X023086Y012107D01*
X022992Y012119D01*
X022898Y012107D01*
X022811Y01207D01*
X022743Y012018D01*
X022257D01*
X022189Y01207D01*
X022102Y012107D01*
X022008Y012119D01*
X021914Y012107D01*
X021826Y01207D01*
X021758Y012018D01*
X021273D01*
X021205Y01207D01*
X021118Y012107D01*
X021024Y012119D01*
X02093Y012107D01*
X020842Y01207D01*
X020774Y012018D01*
X020289D01*
X020221Y01207D01*
X020133Y012107D01*
X020039Y012119D01*
X019945Y012107D01*
X019858Y01207D01*
X019783Y012013D01*
X019725Y011937D01*
X019689Y01185D01*
X019676Y011756D01*
X019689Y011662D01*
X019725Y011574D01*
X019783Y011499D01*
X019858Y011441D01*
X019945Y011405D01*
X020039Y011393D01*
X020133Y011405D01*
X020221Y011441D01*
X020289Y011494D01*
X020774D01*
X020842Y011441D01*
X02093Y011405D01*
X021024Y011393D01*
X021118Y011405D01*
X021205Y011441D01*
X021273Y011494D01*
X021758D01*
X021826Y011441D01*
X021914Y011405D01*
X022008Y011393D01*
X022102Y011405D01*
X022189Y011441D01*
X022257Y011494D01*
X022743D01*
X022811Y011441D01*
X022898Y011405D01*
X022992Y011393D01*
X023086Y011405D01*
X023174Y011441D01*
X023242Y011494D01*
X023727D01*
X023795Y011441D01*
X023882Y011405D01*
X023976Y011393D01*
X02407Y011405D01*
X024158Y011441D01*
X024226Y011494D01*
X024711D01*
X024779Y011441D01*
X024867Y011405D01*
X024961Y011393D01*
X025055Y011405D01*
X025142Y011441D01*
X02521Y011494D01*
X025695D01*
X025763Y011441D01*
X025851Y011405D01*
X025945Y011393D01*
X026039Y011405D01*
X026126Y011441D01*
X026194Y011494D01*
X02668D01*
X026748Y011441D01*
X026835Y011405D01*
X026929Y011393D01*
X027023Y011405D01*
X027111Y011441D01*
X027179Y011494D01*
X027664D01*
X027732Y011441D01*
X027819Y011405D01*
X027913Y011393D01*
X028007Y011405D01*
X028095Y011441D01*
X028163Y011494D01*
X028648D01*
X028716Y011441D01*
X028804Y011405D01*
X028898Y011393D01*
X028992Y011405D01*
X029079Y011441D01*
X029154Y011499D01*
X029212Y011574D01*
X029248Y011662D01*
X029261Y011756D01*
X029248Y01185D01*
X029212Y011937D01*
X029154Y012013D01*
X029079Y01207D01*
X028992Y012107D01*
X028898Y012119D01*
D02*
G37*
G36*
X036281Y012497D02*
Y011478D01*
X0373D01*
X037294Y011554D01*
X037253Y011726D01*
X037185Y01189D01*
X037093Y01204D01*
X036978Y012175D01*
X036844Y01229D01*
X036693Y012382D01*
X036529Y01245D01*
X036357Y012491D01*
X036281Y012497D01*
D02*
G37*
G36*
X036081D02*
X036005Y012491D01*
X035833Y01245D01*
X035669Y012382D01*
X035519Y01229D01*
X035384Y012175D01*
X035269Y01204D01*
X035177Y01189D01*
X035109Y011726D01*
X035068Y011554D01*
X035062Y011478D01*
X036081D01*
Y012497D01*
D02*
G37*
G36*
X011478D02*
Y011478D01*
X012497D01*
X012491Y011554D01*
X01245Y011726D01*
X012382Y01189D01*
X01229Y01204D01*
X012175Y012175D01*
X01204Y01229D01*
X01189Y012382D01*
X011726Y01245D01*
X011554Y012491D01*
X011478Y012497D01*
D02*
G37*
G36*
X011278D02*
X011202Y012491D01*
X01103Y01245D01*
X010866Y012382D01*
X010715Y01229D01*
X010581Y012175D01*
X010466Y01204D01*
X010374Y01189D01*
X010306Y011726D01*
X010265Y011554D01*
X010259Y011478D01*
X011278D01*
Y012497D01*
D02*
G37*
G36*
X020139Y011146D02*
Y010856D01*
X02043D01*
X020429Y01086D01*
X020389Y010958D01*
X020325Y011041D01*
X020241Y011105D01*
X020144Y011146D01*
X020139Y011146D01*
D02*
G37*
G36*
X019939D02*
X019935Y011146D01*
X019838Y011105D01*
X019754Y011041D01*
X01969Y010958D01*
X01965Y01086D01*
X019649Y010856D01*
X019939D01*
Y011146D01*
D02*
G37*
G36*
X028998D02*
Y010856D01*
X029288D01*
X029287Y01086D01*
X029247Y010958D01*
X029183Y011041D01*
X029099Y011105D01*
X029002Y011146D01*
X028998Y011146D01*
D02*
G37*
G36*
X028013D02*
Y010856D01*
X028304D01*
X028303Y01086D01*
X028263Y010958D01*
X028199Y011041D01*
X028115Y011105D01*
X028018Y011146D01*
X028013Y011146D01*
D02*
G37*
G36*
X026045D02*
Y010856D01*
X026335D01*
X026335Y01086D01*
X026294Y010958D01*
X02623Y011041D01*
X026147Y011105D01*
X026049Y011146D01*
X026045Y011146D01*
D02*
G37*
G36*
X025061D02*
Y010856D01*
X025351D01*
X02535Y01086D01*
X02531Y010958D01*
X025246Y011041D01*
X025162Y011105D01*
X025065Y011146D01*
X025061Y011146D01*
D02*
G37*
G36*
X024076D02*
Y010856D01*
X024367D01*
X024366Y01086D01*
X024326Y010958D01*
X024262Y011041D01*
X024178Y011105D01*
X024081Y011146D01*
X024076Y011146D01*
D02*
G37*
G36*
X023092D02*
Y010856D01*
X023382D01*
X023382Y01086D01*
X023342Y010958D01*
X023277Y011041D01*
X023194Y011105D01*
X023097Y011146D01*
X023092Y011146D01*
D02*
G37*
G36*
X022108D02*
Y010856D01*
X022398D01*
X022398Y01086D01*
X022357Y010958D01*
X022293Y011041D01*
X02221Y011105D01*
X022112Y011146D01*
X022108Y011146D01*
D02*
G37*
G36*
X021124D02*
Y010856D01*
X021414D01*
X021413Y01086D01*
X021373Y010958D01*
X021309Y011041D01*
X021225Y011105D01*
X021128Y011146D01*
X021124Y011146D01*
D02*
G37*
G36*
X028798D02*
X028793Y011146D01*
X028696Y011105D01*
X028612Y011041D01*
X028548Y010958D01*
X028508Y01086D01*
X028507Y010856D01*
X028798D01*
Y011146D01*
D02*
G37*
G36*
X027813D02*
X027809Y011146D01*
X027712Y011105D01*
X027628Y011041D01*
X027564Y010958D01*
X027524Y01086D01*
X027523Y010856D01*
X027813D01*
Y011146D01*
D02*
G37*
G36*
X025845D02*
X02584Y011146D01*
X025743Y011105D01*
X02566Y011041D01*
X025595Y010958D01*
X025555Y01086D01*
X025555Y010856D01*
X025845D01*
Y011146D01*
D02*
G37*
G36*
X024861D02*
X024856Y011146D01*
X024759Y011105D01*
X024675Y011041D01*
X024611Y010958D01*
X024571Y01086D01*
X02457Y010856D01*
X024861D01*
Y011146D01*
D02*
G37*
G36*
X023876D02*
X023872Y011146D01*
X023775Y011105D01*
X023691Y011041D01*
X023627Y010958D01*
X023587Y01086D01*
X023586Y010856D01*
X023876D01*
Y011146D01*
D02*
G37*
G36*
X022892D02*
X022888Y011146D01*
X02279Y011105D01*
X022707Y011041D01*
X022643Y010958D01*
X022602Y01086D01*
X022602Y010856D01*
X022892D01*
Y011146D01*
D02*
G37*
G36*
X021908D02*
X021903Y011146D01*
X021806Y011105D01*
X021723Y011041D01*
X021658Y010958D01*
X021618Y01086D01*
X021618Y010856D01*
X021908D01*
Y011146D01*
D02*
G37*
G36*
X020924D02*
X020919Y011146D01*
X020822Y011105D01*
X020738Y011041D01*
X020674Y010958D01*
X020634Y01086D01*
X020633Y010856D01*
X020924D01*
Y011146D01*
D02*
G37*
G36*
X027029Y011146D02*
Y010856D01*
X027319D01*
X027319Y01086D01*
X027279Y010958D01*
X027214Y011041D01*
X027131Y011105D01*
X027034Y011146D01*
X027029Y011146D01*
D02*
G37*
G36*
X026829D02*
X026825Y011146D01*
X026727Y011105D01*
X026644Y011041D01*
X02658Y010958D01*
X026539Y01086D01*
X026539Y010856D01*
X026829D01*
Y011146D01*
D02*
G37*
G36*
X02043Y010656D02*
X020139D01*
Y010366D01*
X020144Y010366D01*
X020241Y010407D01*
X020325Y010471D01*
X020389Y010554D01*
X020429Y010651D01*
X02043Y010656D01*
D02*
G37*
G36*
X029288Y010656D02*
X028998D01*
Y010366D01*
X029002Y010366D01*
X029099Y010407D01*
X029183Y010471D01*
X029247Y010554D01*
X029287Y010651D01*
X029288Y010656D01*
D02*
G37*
G36*
X028304D02*
X028013D01*
Y010366D01*
X028018Y010366D01*
X028115Y010407D01*
X028199Y010471D01*
X028263Y010554D01*
X028303Y010651D01*
X028304Y010656D01*
D02*
G37*
G36*
X026335D02*
X026045D01*
Y010366D01*
X026049Y010366D01*
X026147Y010407D01*
X02623Y010471D01*
X026294Y010554D01*
X026335Y010651D01*
X026335Y010656D01*
D02*
G37*
G36*
X025351D02*
X025061D01*
Y010366D01*
X025065Y010366D01*
X025162Y010407D01*
X025246Y010471D01*
X02531Y010554D01*
X02535Y010651D01*
X025351Y010656D01*
D02*
G37*
G36*
X024367D02*
X024076D01*
Y010366D01*
X024081Y010366D01*
X024178Y010407D01*
X024262Y010471D01*
X024326Y010554D01*
X024366Y010651D01*
X024367Y010656D01*
D02*
G37*
G36*
X023382D02*
X023092D01*
Y010366D01*
X023097Y010366D01*
X023194Y010407D01*
X023277Y010471D01*
X023342Y010554D01*
X023382Y010651D01*
X023382Y010656D01*
D02*
G37*
G36*
X022398D02*
X022108D01*
Y010366D01*
X022112Y010366D01*
X02221Y010407D01*
X022293Y010471D01*
X022357Y010554D01*
X022398Y010651D01*
X022398Y010656D01*
D02*
G37*
G36*
X021414D02*
X021124D01*
Y010366D01*
X021128Y010366D01*
X021225Y010407D01*
X021309Y010471D01*
X021373Y010554D01*
X021413Y010651D01*
X021414Y010656D01*
D02*
G37*
G36*
X028798D02*
X028507D01*
X028508Y010651D01*
X028548Y010554D01*
X028612Y010471D01*
X028696Y010407D01*
X028793Y010366D01*
X028798Y010366D01*
Y010656D01*
D02*
G37*
G36*
X027813D02*
X027523D01*
X027524Y010651D01*
X027564Y010554D01*
X027628Y010471D01*
X027712Y010407D01*
X027809Y010366D01*
X027813Y010366D01*
Y010656D01*
D02*
G37*
G36*
X025845D02*
X025555D01*
X025555Y010651D01*
X025595Y010554D01*
X02566Y010471D01*
X025743Y010407D01*
X02584Y010366D01*
X025845Y010366D01*
Y010656D01*
D02*
G37*
G36*
X024861D02*
X02457D01*
X024571Y010651D01*
X024611Y010554D01*
X024675Y010471D01*
X024759Y010407D01*
X024856Y010366D01*
X024861Y010366D01*
Y010656D01*
D02*
G37*
G36*
X023876D02*
X023586D01*
X023587Y010651D01*
X023627Y010554D01*
X023691Y010471D01*
X023775Y010407D01*
X023872Y010366D01*
X023876Y010366D01*
Y010656D01*
D02*
G37*
G36*
X022892D02*
X022602D01*
X022602Y010651D01*
X022643Y010554D01*
X022707Y010471D01*
X02279Y010407D01*
X022888Y010366D01*
X022892Y010366D01*
Y010656D01*
D02*
G37*
G36*
X021908D02*
X021618D01*
X021618Y010651D01*
X021658Y010554D01*
X021723Y010471D01*
X021806Y010407D01*
X021903Y010366D01*
X021908Y010366D01*
Y010656D01*
D02*
G37*
G36*
X020924D02*
X020633D01*
X020634Y010651D01*
X020674Y010554D01*
X020738Y010471D01*
X020822Y010407D01*
X020919Y010366D01*
X020924Y010366D01*
Y010656D01*
D02*
G37*
G36*
X019939Y010656D02*
X019649D01*
X01965Y010651D01*
X01969Y010554D01*
X019754Y010471D01*
X019838Y010407D01*
X019935Y010366D01*
X019939Y010366D01*
Y010656D01*
D02*
G37*
G36*
X027319Y010656D02*
X027029D01*
Y010366D01*
X027034Y010366D01*
X027131Y010407D01*
X027214Y010471D01*
X027279Y010554D01*
X027319Y010651D01*
X027319Y010656D01*
D02*
G37*
G36*
X026829D02*
X026539D01*
X026539Y010651D01*
X02658Y010554D01*
X026644Y010471D01*
X026727Y010407D01*
X026825Y010366D01*
X026829Y010366D01*
Y010656D01*
D02*
G37*
G36*
X0373Y011278D02*
X036281D01*
Y010259D01*
X036357Y010265D01*
X036529Y010306D01*
X036693Y010374D01*
X036844Y010466D01*
X036978Y010581D01*
X037093Y010715D01*
X037185Y010866D01*
X037253Y01103D01*
X037294Y011202D01*
X0373Y011278D01*
D02*
G37*
G36*
X036081D02*
X035062D01*
X035068Y011202D01*
X035109Y01103D01*
X035177Y010866D01*
X035269Y010715D01*
X035384Y010581D01*
X035519Y010466D01*
X035669Y010374D01*
X035833Y010306D01*
X036005Y010265D01*
X036081Y010259D01*
Y011278D01*
D02*
G37*
G36*
X012497D02*
X011478D01*
Y010259D01*
X011554Y010265D01*
X011726Y010306D01*
X01189Y010374D01*
X01204Y010466D01*
X012175Y010581D01*
X01229Y010715D01*
X012382Y010866D01*
X01245Y01103D01*
X012491Y011202D01*
X012497Y011278D01*
D02*
G37*
G36*
X011278D02*
X010259D01*
X010265Y011202D01*
X010306Y01103D01*
X010374Y010866D01*
X010466Y010715D01*
X010581Y010581D01*
X010715Y010466D01*
X010866Y010374D01*
X01103Y010306D01*
X011202Y010265D01*
X011278Y010259D01*
Y011278D01*
D02*
G37*
%LPD*%
G36*
X035079Y028346D02*
Y025748D01*
X022126Y025748D01*
Y02622D01*
X034606Y02622D01*
Y028346D01*
X033228D01*
Y029134D01*
X025984D01*
Y028425D01*
X025276D01*
Y029528D01*
X035079D01*
X035079Y028346D01*
D02*
G37*
G36*
X02344Y018199D02*
X023457Y018155D01*
X023433Y018119D01*
X023421Y018061D01*
X023433Y018003D01*
X023457Y017967D01*
X023462Y017933D01*
X023457Y017899D01*
X023433Y017863D01*
X023421Y017805D01*
X023433Y017747D01*
X023466Y017698D01*
Y017656D01*
X023433Y017607D01*
X023421Y017549D01*
X023433Y017491D01*
X023457Y017455D01*
X023462Y017421D01*
X023457Y017388D01*
X023433Y017351D01*
X023421Y017293D01*
X023433Y017235D01*
X023466Y017186D01*
Y017145D01*
X023433Y017095D01*
X023421Y017037D01*
X023433Y016979D01*
X023457Y016943D01*
X023462Y016909D01*
X023457Y016876D01*
X023433Y016839D01*
X023421Y016782D01*
X023433Y016724D01*
X023466Y016674D01*
Y016633D01*
X023433Y016584D01*
X023421Y016526D01*
X023433Y016468D01*
X023457Y016431D01*
X023462Y016398D01*
X023457Y016364D01*
X023433Y016328D01*
X023421Y01627D01*
X023433Y016212D01*
X023466Y016163D01*
Y016121D01*
X023433Y016072D01*
X023421Y016014D01*
X023433Y015956D01*
X023466Y015907D01*
X023515Y015874D01*
X023573Y015862D01*
X023947D01*
X024005Y015874D01*
X024046Y015902D01*
X024412D01*
X024594Y01572D01*
X024594Y01572D01*
X02463Y015696D01*
X024673Y015687D01*
X024673Y015687D01*
X025235D01*
Y015624D01*
X02026D01*
X020248Y015642D01*
X02019Y01568D01*
X020184Y015686D01*
X020173Y015733D01*
X020597Y016158D01*
X021059D01*
X021086Y016108D01*
X021072Y016087D01*
X021068Y016064D01*
X021437D01*
X021806D01*
X021802Y016087D01*
X02176Y01615D01*
X021734Y016167D01*
X021764Y016212D01*
X021776Y01627D01*
X021764Y016328D01*
X02174Y016364D01*
X021734Y016398D01*
X02174Y016431D01*
X021764Y016468D01*
X021776Y016526D01*
X021764Y016584D01*
X021731Y016633D01*
Y016674D01*
X021764Y016724D01*
X021776Y016782D01*
X021764Y016839D01*
X02174Y016876D01*
X021734Y016909D01*
X02174Y016943D01*
X021764Y016979D01*
X021776Y017037D01*
X021764Y017095D01*
X021731Y017145D01*
Y017186D01*
X021764Y017235D01*
X021776Y017293D01*
X021764Y017351D01*
X02174Y017388D01*
X021734Y017421D01*
X02174Y017455D01*
X021764Y017491D01*
X021776Y017549D01*
X021764Y017607D01*
X021731Y017656D01*
Y017698D01*
X021764Y017747D01*
X021776Y017805D01*
X021764Y017863D01*
X02174Y017899D01*
X021734Y017933D01*
X02174Y017967D01*
X021764Y018003D01*
X021776Y018061D01*
X021764Y018119D01*
X021747Y018145D01*
X021773Y018195D01*
X022575D01*
X022587Y018177D01*
X022646Y018138D01*
X022717Y018124D01*
X022787Y018138D01*
X022846Y018177D01*
X022864Y018203D01*
X022924D01*
X022941Y018177D01*
X023001Y018138D01*
X023071Y018124D01*
X023141Y018138D01*
X023201Y018177D01*
X023219Y018205D01*
X023435D01*
X02344Y018199D01*
D02*
G37*
%LPC*%
G36*
X021806Y015964D02*
X021487D01*
Y015821D01*
X021624D01*
X021698Y015836D01*
X02176Y015878D01*
X021802Y01594D01*
X021806Y015964D01*
D02*
G37*
G36*
X021387D02*
X021068D01*
X021072Y01594D01*
X021114Y015878D01*
X021176Y015836D01*
X02125Y015821D01*
X021387D01*
Y015964D01*
D02*
G37*
%LPD*%
D13*
X015482Y025226D02*
Y025638D01*
X015372Y025748D02*
X015482Y025638D01*
X013937Y025748D02*
X015372D01*
X013937Y021811D02*
Y022402D01*
X013937Y022402D01*
X013937Y021811D02*
X013937D01*
Y021339D02*
Y021811D01*
X013346Y023008D02*
Y023937D01*
X015622D01*
X012244Y027717D02*
X014622D01*
X012244Y02437D02*
X013346D01*
Y024961D01*
Y028717D02*
X013961Y029331D01*
X016008D01*
X016622Y028717D01*
X013346Y025354D02*
Y025748D01*
Y026339D01*
X011575Y028717D02*
X013346D01*
X013937Y025354D02*
Y025748D01*
Y024961D02*
Y025354D01*
X01215Y025567D02*
X012756Y024961D01*
X013346D01*
X011575Y022402D02*
X013346D01*
Y023008D01*
X011575Y025567D02*
X01215D01*
X012559Y021339D02*
X013346D01*
Y020669D02*
Y021339D01*
X012953Y014331D02*
X012953Y014331D01*
Y015331D01*
X010787D02*
X012362D01*
X032835Y013031D02*
Y013701D01*
X030276Y013031D02*
Y013701D01*
X019841Y017587D02*
X020315Y018061D01*
X019134Y017587D02*
X019841D01*
X020315Y018061D02*
X021437D01*
X019725Y017244D02*
X020286Y017805D01*
X019134Y017244D02*
X019725D01*
X020286Y017805D02*
X021437D01*
X019449Y019449D02*
X020325Y018573D01*
X019114Y019449D02*
X019449D01*
X020325Y018573D02*
X021437D01*
X021614Y020039D02*
Y020327D01*
X021437Y018573D02*
X021447Y018583D01*
X022008D01*
X023071Y018307D02*
X023081Y018317D01*
X02376D01*
X021447Y018307D02*
X022717D01*
X021437Y018317D02*
X021447Y018307D01*
X01999Y018317D02*
X021437D01*
X012835Y027126D02*
X025622D01*
X012835Y020315D02*
X016102D01*
X017835Y018858D02*
Y019587D01*
X016102Y018858D02*
X017244D01*
X012559Y02689D02*
X028622D01*
X017795Y015354D02*
X018504D01*
X017323Y014882D02*
X017795Y015354D01*
X015315Y014882D02*
X017323D01*
X017795Y015669D02*
X018504D01*
X017638Y015827D02*
X017795Y015669D01*
X014921Y015827D02*
X017638D01*
X014528Y017087D02*
X016811D01*
X017886Y016012D01*
X014528Y011968D02*
X017323D01*
X018701Y013346D01*
X014921Y012559D02*
X017402D01*
X018425Y013583D01*
X025584Y013819D02*
X025945Y013458D01*
X015315Y013819D02*
X025584D01*
X020276Y015118D02*
X026929D01*
X019843Y014685D02*
X020276Y015118D01*
X026091Y015827D02*
X027913D01*
X026063Y015799D02*
X026091Y015827D01*
X026063Y016142D02*
X028898D01*
X020118Y015512D02*
X030276D01*
X030276Y015512D01*
Y013701D02*
Y014055D01*
X018504Y014843D02*
X018661Y014685D01*
X018504Y014843D02*
Y015012D01*
X018661Y014685D02*
X019843D01*
X032402Y017008D02*
X03585D01*
X036378Y01648D01*
X03574Y014843D02*
X036378Y01548D01*
X032047Y014843D02*
X03574D01*
X032047Y020827D02*
X032063Y020811D01*
X033819D01*
X032815Y01374D02*
Y014154D01*
X032638Y014331D02*
X032815Y014154D01*
X031654Y014331D02*
X032638D01*
X025945Y012756D02*
Y013458D01*
X024961Y012756D02*
Y013386D01*
X018701Y013346D02*
X023819D01*
X023976Y012756D02*
Y013189D01*
X023819Y013346D02*
X023976Y013189D01*
X034803Y025354D02*
X036181D01*
X02376Y019085D02*
X02436D01*
X025252Y020811D02*
X03126D01*
X02377Y018819D02*
X024882D01*
X02376Y018829D02*
X02377Y018819D01*
X02376Y018061D02*
X025443D01*
X025453Y018071D01*
X021693Y024213D02*
X025945D01*
X02185Y02468D02*
X023381D01*
X021693Y024838D02*
Y02499D01*
Y024838D02*
X02185Y02468D01*
X023381D02*
X023583Y024685D01*
X020923Y025726D02*
X021187Y02599D01*
X020335Y025726D02*
X020923D01*
X021187Y02599D02*
X021693D01*
Y026181D01*
X024882Y021181D02*
X025252Y020811D01*
X024736Y021327D02*
X024882Y021181D01*
X023966Y021327D02*
X024736D01*
X03126Y020811D02*
X031276Y020827D01*
X025433Y022624D02*
X025931D01*
X031276Y020827D02*
X032047D01*
X031102Y025354D02*
X032047D01*
X020335Y025226D02*
X020896D01*
X021317Y025648D01*
X023966Y020984D02*
X02437D01*
X020906Y023976D02*
X024331D01*
X021317Y025648D02*
X021693D01*
X026732Y021811D02*
X03126D01*
X026419Y022124D02*
X026732Y021811D01*
X03126D02*
X032402D01*
X025433Y022124D02*
X026419D01*
X024372D02*
X025433D01*
X032402Y021811D02*
X033819D01*
X018425Y013583D02*
X024764D01*
X024961Y013386D01*
X017886Y016012D02*
X018504D01*
X017655Y016587D02*
X018504D01*
X016761Y01748D02*
X017655Y016587D01*
X015906Y01748D02*
X016761D01*
X021339Y024449D02*
X023307D01*
X018937Y026417D02*
X023307D01*
X018246Y025726D02*
X018937Y026417D01*
X018071Y026654D02*
X023583D01*
X026378Y022795D02*
X026732D01*
X026049Y023124D02*
X026378Y022795D01*
X025433Y023124D02*
X026049D01*
X017638Y016929D02*
X018504D01*
X017913Y017244D02*
X018504D01*
X018201Y017587D02*
X018504D01*
X024673Y015799D02*
X025433D01*
X024459Y016014D02*
X024673Y015799D01*
X02376Y016014D02*
X024459D01*
X024724Y016142D02*
X025433D01*
X024596Y01627D02*
X024724Y016142D01*
X02376Y01627D02*
X024596D01*
X019114Y018268D02*
X019488D01*
X019488Y021614D02*
X023031D01*
X019449Y018858D02*
X01999Y018317D01*
X019114Y018858D02*
X019449D01*
X023043Y020327D02*
X023336D01*
X022717Y020669D02*
X023336D01*
X023336Y020669D01*
X019293Y015012D02*
X020551Y01627D01*
X019134Y015012D02*
X019293D01*
X020502Y016526D02*
X021437D01*
X019331Y015354D02*
X020502Y016526D01*
X019134Y015354D02*
X019331D01*
X020443Y016782D02*
X021437D01*
X019331Y015669D02*
X020443Y016782D01*
X019134Y015669D02*
X019331D01*
X019134Y016012D02*
X019398D01*
X020423Y017037D02*
X021437D01*
X019398Y016012D02*
X020423Y017037D01*
X020551Y01627D02*
X021437D01*
X020275Y017293D02*
X021437D01*
X019569Y016587D02*
X020275Y017293D01*
X019134Y016587D02*
X019569D01*
X020305Y017549D02*
X021437D01*
X019685Y016929D02*
X020305Y017549D01*
X019134Y016929D02*
X019685D01*
X020118Y015512D02*
X020134Y015496D01*
X022978Y022624D02*
X023307D01*
X022667Y022313D02*
X022978Y022624D01*
X022323Y022313D02*
X022667D01*
X023085Y023124D02*
X023307D01*
X022589Y022628D02*
X023085Y023124D01*
X022323Y022628D02*
X022589D01*
X022561Y023624D02*
X023307D01*
X022323Y023386D02*
X022561Y023624D01*
X022323Y02297D02*
Y023386D01*
X016594Y025726D02*
X018246D01*
X021339Y025315D02*
X021675D01*
X021693Y02499D02*
X021693Y02499D01*
X018069Y024726D02*
X018071Y024724D01*
X016594Y024726D02*
X018069D01*
X021675Y025315D02*
X021693Y025333D01*
X034843Y025787D02*
X036378D01*
X036969Y026378D01*
Y027028D01*
X036181Y026693D02*
X036181Y026693D01*
Y027028D01*
X029646Y024567D02*
X036929D01*
X03063Y024961D02*
X037165D01*
X030622Y024969D02*
X03063Y024961D01*
X01922Y021327D02*
X021614D01*
X019114Y02122D02*
X01922Y021327D01*
X019114Y02063D02*
X020394D01*
X019193Y020118D02*
X020472D01*
X019114Y020039D02*
X019193Y020118D01*
X021024Y020669D02*
X021614D01*
X020472Y020118D02*
X021024Y020669D01*
X020482Y018829D02*
X021437D01*
X020394Y02063D02*
X020748Y020984D01*
X020827D02*
X021614D01*
X020758Y019085D02*
X021437D01*
X021033Y019341D02*
X021437D01*
D19*
X013346Y026339D02*
D03*
X013937D02*
D03*
X013346Y02437D02*
D03*
X013937D02*
D03*
X013346Y023008D02*
D03*
X013937D02*
D03*
X013346Y020669D02*
D03*
X013937D02*
D03*
D20*
X030276Y013701D02*
D03*
X030866D02*
D03*
X032835D02*
D03*
X033425D02*
D03*
X032835Y013031D02*
D03*
X033425D02*
D03*
X013346Y024961D02*
D03*
X013937D02*
D03*
X013346Y025748D02*
D03*
X013937D02*
D03*
X012953Y015331D02*
D03*
X012362D02*
D03*
X013346Y022402D02*
D03*
X013937D02*
D03*
X013346Y021339D02*
D03*
X013937D02*
D03*
X017244Y018858D02*
D03*
X017835D02*
D03*
X030276Y013031D02*
D03*
X030866D02*
D03*
X017835Y02122D02*
D03*
X017244D02*
D03*
X026732Y022795D02*
D03*
X027323D02*
D03*
X017835Y018268D02*
D03*
X017244D02*
D03*
X018524Y02122D02*
D03*
X019114D02*
D03*
X018524Y02063D02*
D03*
X019114D02*
D03*
X018524Y020039D02*
D03*
X019114D02*
D03*
X018524Y019449D02*
D03*
X019114D02*
D03*
X018524Y018858D02*
D03*
X019114D02*
D03*
X018524Y018268D02*
D03*
X019114D02*
D03*
X025453Y018071D02*
D03*
X026043D02*
D03*
D21*
X01689Y019961D02*
D03*
X017835Y020335D02*
D03*
Y019587D02*
D03*
D22*
X036181Y028406D02*
D03*
Y028996D02*
D03*
X036969Y028406D02*
D03*
Y028996D02*
D03*
D23*
X023966Y020327D02*
D03*
Y021327D02*
D03*
X023336Y020327D02*
D03*
Y021327D02*
D03*
X022244Y020327D02*
D03*
Y021327D02*
D03*
X021614Y020327D02*
D03*
Y021327D02*
D03*
X021693Y02599D02*
D03*
Y02499D02*
D03*
X022323Y02599D02*
D03*
Y02499D02*
D03*
X021693Y02297D02*
D03*
Y02197D02*
D03*
X022323Y02297D02*
D03*
Y02197D02*
D03*
X018504Y017587D02*
D03*
Y016587D02*
D03*
X019134Y017587D02*
D03*
Y016587D02*
D03*
Y015012D02*
D03*
Y016012D02*
D03*
X018504Y015012D02*
D03*
Y016012D02*
D03*
X026063Y015799D02*
D03*
Y016799D02*
D03*
X025433Y015799D02*
D03*
Y016799D02*
D03*
D24*
X023966Y020669D02*
D03*
Y020984D02*
D03*
X023336Y020669D02*
D03*
Y020984D02*
D03*
X022244Y020669D02*
D03*
Y020984D02*
D03*
X021614Y020669D02*
D03*
Y020984D02*
D03*
X021693Y025648D02*
D03*
Y025333D02*
D03*
X022323Y025648D02*
D03*
Y025333D02*
D03*
X021693Y022628D02*
D03*
Y022313D02*
D03*
X022323Y022628D02*
D03*
Y022313D02*
D03*
X018504Y017244D02*
D03*
Y016929D02*
D03*
X019134Y017244D02*
D03*
Y016929D02*
D03*
Y015354D02*
D03*
Y015669D02*
D03*
X018504Y015354D02*
D03*
Y015669D02*
D03*
X026063Y016142D02*
D03*
Y016457D02*
D03*
X025433Y016142D02*
D03*
Y016457D02*
D03*
D25*
X036969Y027028D02*
D03*
Y027618D02*
D03*
X036181Y027028D02*
D03*
Y027618D02*
D03*
D26*
X015482Y025226D02*
D03*
X014892D02*
D03*
X027323Y023583D02*
D03*
X026732D02*
D03*
X025453Y019331D02*
D03*
X026043D02*
D03*
D27*
X023307Y023624D02*
D03*
Y023124D02*
D03*
Y022624D02*
D03*
Y022124D02*
D03*
X025433Y023624D02*
D03*
Y023124D02*
D03*
Y022624D02*
D03*
Y022124D02*
D03*
D28*
X016594Y025726D02*
D03*
Y025226D02*
D03*
Y024726D02*
D03*
Y024226D02*
D03*
Y023726D02*
D03*
Y023226D02*
D03*
Y022726D02*
D03*
Y022226D02*
D03*
X020335Y025726D02*
D03*
Y025226D02*
D03*
Y024726D02*
D03*
Y024226D02*
D03*
Y023726D02*
D03*
Y023226D02*
D03*
Y022726D02*
D03*
Y022226D02*
D03*
D29*
X015261Y02122D02*
D03*
X016551D02*
D03*
D30*
X02376Y016014D02*
D03*
Y01627D02*
D03*
Y016526D02*
D03*
Y016782D02*
D03*
Y017037D02*
D03*
Y017293D02*
D03*
Y017549D02*
D03*
Y017805D02*
D03*
Y018061D02*
D03*
Y018317D02*
D03*
Y018573D02*
D03*
Y018829D02*
D03*
Y019085D02*
D03*
Y019341D02*
D03*
X021437Y016014D02*
D03*
Y01627D02*
D03*
Y016526D02*
D03*
Y016782D02*
D03*
Y017037D02*
D03*
Y017293D02*
D03*
Y017549D02*
D03*
Y017805D02*
D03*
Y018061D02*
D03*
Y018317D02*
D03*
Y018573D02*
D03*
Y018829D02*
D03*
Y019085D02*
D03*
Y019341D02*
D03*
D47*
X011984Y021811D02*
X013937D01*
X011575Y021402D02*
X011984Y021811D01*
X019803Y019724D02*
X022283D01*
X022402Y019843D01*
X027126D01*
X025472Y018858D02*
Y019272D01*
X025433Y019311D02*
X025472Y019272D01*
X025433Y019311D02*
X025453Y019331D01*
X027126Y017512D02*
X030866D01*
X015827Y019961D02*
X01687D01*
X015134Y019268D02*
X015827Y019961D01*
X030866Y013701D02*
Y014055D01*
X033425Y013701D02*
Y014134D01*
X014134Y019268D02*
X015134D01*
X014134Y018268D02*
X017244D01*
X014134Y018268D02*
X014134Y018268D01*
X025443Y019341D02*
X025453Y019331D01*
X018524Y02122D02*
X018524Y02122D01*
Y021909D01*
X021632D02*
X021693Y02197D01*
X018524Y021909D02*
X021632D01*
X022323Y025648D02*
Y02599D01*
Y025333D02*
Y025648D01*
Y02499D02*
Y025333D01*
X026732Y023583D02*
Y023898D01*
X026691Y023624D02*
X026732Y023583D01*
X025433Y023624D02*
X026691D01*
X032953Y025984D02*
Y026024D01*
X016604Y025236D02*
X018543D01*
X016594Y025226D02*
X016604Y025236D01*
X018524Y02063D02*
Y02122D01*
Y020039D02*
Y02063D01*
Y019449D02*
Y020039D01*
Y018858D02*
Y019449D01*
Y018268D02*
Y018858D01*
X018524Y02122D02*
X018524Y02122D01*
X017835Y02122D02*
X018524D01*
X015482Y025226D02*
X016594D01*
D48*
X010551Y021417D02*
X011575D01*
X012953Y014331D02*
X016787D01*
X011575D02*
X012953D01*
X016787D02*
X029567D01*
X010551Y024567D02*
X011575D01*
X010551Y027717D02*
X011575D01*
X010591Y018268D02*
X010591Y018268D01*
X011575D01*
X027913Y011756D02*
X028898D01*
X026929D02*
X027913D01*
X025945D02*
X026929D01*
X024961D02*
X025945D01*
X023976D02*
X024961D01*
X022992D02*
X023976D01*
X022008D02*
X022992D01*
X021024D02*
X022008D01*
X020039D02*
X021024D01*
D49*
X018189Y017913D02*
X019803D01*
X017835Y018268D02*
X018189Y017913D01*
X02376Y019341D02*
X025443D01*
X025453Y021693D02*
X025472D01*
X023465D02*
X025453D01*
X023336Y021564D02*
X023465Y021693D01*
X023336Y021327D02*
Y021564D01*
Y020984D02*
Y021327D01*
X021693Y023386D02*
X021693Y023386D01*
D50*
X030846Y017496D02*
X03339D01*
X03126Y022811D02*
X032976D01*
X034803Y01748D02*
X036378D01*
X033437D02*
X034803D01*
X03339Y017496D02*
X033406Y017512D01*
X036362Y022795D02*
X036378Y022811D01*
X035591Y022795D02*
X036362D01*
X033819Y022811D02*
X034787D01*
X032953Y022795D02*
X032992D01*
X032976Y022811D02*
X032992Y022795D01*
X029567Y019449D02*
X032953D01*
X035591D01*
D51*
X021693Y02197D02*
Y023386D01*
X01748Y023031D02*
X019252D01*
X019254Y024726D02*
X020335D01*
X019252Y024724D02*
X019254Y024726D01*
X016551Y02122D02*
X017244D01*
X015039D02*
X015261D01*
D52*
X036969Y027618D02*
X036969Y027618D01*
X036969Y027618D02*
Y028406D01*
X036181Y027618D02*
Y028406D01*
Y027618D02*
X036181Y027618D01*
D53*
X011575Y021402D02*
D03*
Y027717D02*
D03*
X03126Y020811D02*
D03*
X033819D02*
D03*
X030866Y017512D02*
D03*
X033425D02*
D03*
X014134Y018268D02*
D03*
X036378Y020811D02*
D03*
X028898Y012756D02*
D03*
X011575Y024567D02*
D03*
Y018268D02*
D03*
X036378Y01548D02*
D03*
X010787Y016331D02*
D03*
X027913Y012756D02*
D03*
X026929Y012756D02*
D03*
X025945Y012756D02*
D03*
X024961D02*
D03*
X023976D02*
D03*
X022992D02*
D03*
X022008D02*
D03*
X021024D02*
D03*
X020039D02*
D03*
D54*
X011575Y022402D02*
D03*
Y028717D02*
D03*
X03126Y021811D02*
D03*
Y022811D02*
D03*
Y023811D02*
D03*
X023622Y028717D02*
D03*
X022622D02*
D03*
X021622D02*
D03*
X020622D02*
D03*
X019622D02*
D03*
X018622D02*
D03*
X017622D02*
D03*
X016622D02*
D03*
X015622D02*
D03*
X014622D02*
D03*
X032622D02*
D03*
X031622D02*
D03*
X030622D02*
D03*
X029622D02*
D03*
X028622D02*
D03*
X027622D02*
D03*
X026622D02*
D03*
X025622D02*
D03*
X024622D02*
D03*
Y027717D02*
D03*
X025622D02*
D03*
X026622D02*
D03*
X027622D02*
D03*
X028622D02*
D03*
X029622D02*
D03*
X030622D02*
D03*
X031622D02*
D03*
X032622D02*
D03*
X033622D02*
D03*
X014622D02*
D03*
X015622D02*
D03*
X016622D02*
D03*
X017622D02*
D03*
X018622D02*
D03*
X019622D02*
D03*
X020622D02*
D03*
X021622D02*
D03*
X022622D02*
D03*
X023622D02*
D03*
X033819Y021811D02*
D03*
Y022811D02*
D03*
Y023811D02*
D03*
X030866Y016512D02*
D03*
Y015512D02*
D03*
X033425Y016512D02*
D03*
Y015512D02*
D03*
X014134Y019268D02*
D03*
X036378Y021811D02*
D03*
Y022811D02*
D03*
Y023811D02*
D03*
X028898Y011756D02*
D03*
Y010756D02*
D03*
X011575Y025567D02*
D03*
Y019268D02*
D03*
X036378Y01648D02*
D03*
Y01748D02*
D03*
Y01848D02*
D03*
X016787Y013331D02*
D03*
Y014331D02*
D03*
Y015331D02*
D03*
Y016331D02*
D03*
X010787Y015331D02*
D03*
Y014331D02*
D03*
Y013331D02*
D03*
X027913Y011756D02*
D03*
Y010756D02*
D03*
X026929Y011756D02*
D03*
Y010756D02*
D03*
X025945Y011756D02*
D03*
Y010756D02*
D03*
X024961Y011756D02*
D03*
Y010756D02*
D03*
X023976Y011756D02*
D03*
Y010756D02*
D03*
X022992Y011756D02*
D03*
Y010756D02*
D03*
X022008Y011756D02*
D03*
Y010756D02*
D03*
X021024Y011756D02*
D03*
Y010756D02*
D03*
X020039Y011756D02*
D03*
Y010756D02*
D03*
D55*
X036181Y011378D02*
D03*
X011378D02*
D03*
D56*
X033622Y028717D02*
D03*
D57*
X013937Y021811D02*
D03*
X013346Y023937D02*
D03*
X015622D02*
D03*
X012244Y027717D02*
D03*
Y02437D02*
D03*
X013346Y025354D02*
D03*
Y028717D02*
D03*
X013937Y025354D02*
D03*
X012559Y021339D02*
D03*
X012953Y010984D02*
D03*
X019803Y017913D02*
D03*
Y019724D02*
D03*
X027126Y019843D02*
D03*
Y017512D02*
D03*
X022008Y018583D02*
D03*
X021614Y020039D02*
D03*
X023071Y018307D02*
D03*
X022717D02*
D03*
X012835Y027126D02*
D03*
X016102Y020315D02*
D03*
X016102Y018858D02*
D03*
X012559Y02689D02*
D03*
X014528Y017087D02*
D03*
Y011968D02*
D03*
X014921Y015827D02*
D03*
Y012559D02*
D03*
X015315Y013819D02*
D03*
Y014882D02*
D03*
X026929Y015118D02*
D03*
X027913Y015827D02*
D03*
X028898Y016142D02*
D03*
X030276Y015512D02*
D03*
Y014055D02*
D03*
X030866Y014055D02*
D03*
X033425Y014134D02*
D03*
X032402Y017008D02*
D03*
X031654Y014331D02*
D03*
X02436Y019085D02*
D03*
X024882Y018819D02*
D03*
X012165Y019843D02*
D03*
X029094Y023386D02*
D03*
X017087Y010984D02*
D03*
X014134D02*
D03*
X015512Y019055D02*
D03*
X024764Y022992D02*
D03*
X023976Y022205D02*
D03*
X022598Y016102D02*
D03*
X035197Y016299D02*
D03*
X032835Y026732D02*
D03*
X031654D02*
D03*
X012953Y02811D02*
D03*
X016496Y026339D02*
D03*
X019252Y025748D02*
D03*
X01748Y022205D02*
D03*
X013937Y017087D02*
D03*
X015118Y020039D02*
D03*
X026535Y020236D02*
D03*
X022598Y017283D02*
D03*
X028307Y019449D02*
D03*
X029094Y02122D02*
D03*
X026142Y024961D02*
D03*
X028307Y025157D02*
D03*
X024567Y024961D02*
D03*
X01748Y02378D02*
D03*
X018524Y021909D02*
D03*
X026732Y025984D02*
D03*
X026732Y023898D02*
D03*
X025945Y024213D02*
D03*
X021693D02*
D03*
X023583Y024685D02*
D03*
X021693Y026181D02*
D03*
X024882Y021181D02*
D03*
X025931Y020801D02*
D03*
X032047Y020827D02*
D03*
Y014843D02*
D03*
X025931Y022624D02*
D03*
X031102Y025354D02*
D03*
X032047D02*
D03*
X020906Y023976D02*
D03*
X020896Y025226D02*
D03*
X02437Y020984D02*
D03*
X024331Y023976D02*
D03*
X024372Y022124D02*
D03*
X015906Y01748D02*
D03*
X023307Y026417D02*
D03*
Y024449D02*
D03*
X021339D02*
D03*
Y025315D02*
D03*
X023583Y026654D02*
D03*
X017638Y016929D02*
D03*
X017913Y017244D02*
D03*
X018201Y017587D02*
D03*
X023031Y021614D02*
D03*
X019488D02*
D03*
X019488Y018268D02*
D03*
X023043Y020327D02*
D03*
X022717Y020669D02*
D03*
X020118Y015512D02*
D03*
X028622Y02689D02*
D03*
X025622Y027126D02*
D03*
X018071Y026654D02*
D03*
Y024724D02*
D03*
X036181Y025354D02*
D03*
Y026693D02*
D03*
X036929Y024567D02*
D03*
X029646D02*
D03*
X037165Y024961D02*
D03*
X030622Y024969D02*
D03*
X018543Y025236D02*
D03*
X021033Y019341D02*
D03*
D58*
X019449Y022402D02*
D03*
X011772Y023583D02*
D03*
X015118Y017677D02*
D03*
X026339Y01374D02*
D03*
X028307D02*
D03*
X02752D02*
D03*
X033425Y018465D02*
D03*
X030866D02*
D03*
X028307Y018071D02*
D03*
X027126Y01689D02*
D03*
X028898D02*
D03*
X037165Y014134D02*
D03*
X034606D02*
D03*
X033622Y011968D02*
D03*
X032047D02*
D03*
X030472D02*
D03*
X019134Y011772D02*
D03*
X014016Y013622D02*
D03*
X012362D02*
D03*
X014016Y014921D02*
D03*
X012362D02*
D03*
X012835Y020315D02*
D03*
D59*
X025472Y018858D02*
D03*
X029567Y014331D02*
D03*
X011575D02*
D03*
X010551Y021417D02*
D03*
Y024567D02*
D03*
Y027717D02*
D03*
X010591Y018268D02*
D03*
X034803Y01748D02*
D03*
X035591Y022795D02*
D03*
X034787Y022811D02*
D03*
X034803Y025354D02*
D03*
X035591Y019449D02*
D03*
X022717Y026024D02*
D03*
X025453Y021693D02*
D03*
Y026004D02*
D03*
X021693Y023386D02*
D03*
X032953Y022795D02*
D03*
X029567Y019449D02*
D03*
X032953D02*
D03*
Y025984D02*
D03*
D60*
X019252Y023031D02*
D03*
X01748D02*
D03*
X032402Y021811D02*
D03*
X019252Y024724D02*
D03*
X020472Y020118D02*
D03*
X020482Y018829D02*
D03*
X020748Y020984D02*
D03*
X020758Y019085D02*
D03*
X021024Y021339D02*
D03*
X015039Y02122D02*
D03*
M02*
