M48
;Layer_Color=9474304
;FILE_FORMAT=2:4
INCH,LZ
;TYPE=PLATED
T1F00S00C0.0118
T2F00S00C0.0120
T3F00S00C0.0280
T4F00S00C0.0400
T5F00S00C0.1063
%
T01
X012362Y013622
Y014921
X014016
Y013622
X019134Y011772
X026339Y01374
X02752
X028307
X030472Y011968
X032047
X033622
X034606Y014134
X037165
X033425Y018465
X030866
X028307Y018071
X028898Y01689
X027126
X019449Y022402
X012835Y020315
X011772Y023583
X015118Y017677
T02
X012953Y010984
X014134
X014528Y011968
X014921Y012559
X015315Y013819
Y014882
X020118Y015512
X026929Y015118
X030276Y015512
Y014055
X030866Y014055
X017087Y010984
X031654Y014331
X032047Y014843
X033425Y014134
X032402Y017008
X035197Y016299
X032047Y020827
X032402Y021811
X032047Y025354
X031654Y026732
X032835
X036181Y026693
Y025354
X037165Y024961
X036929Y024567
X031102Y025354
X030622Y024969
X029646Y024567
X029094Y023386
Y02122
X028307Y019449
X027126Y019843
X026535Y020236
X025931Y020801
X024882Y021181
X02437Y020984
X024372Y022124
X023976Y022205
X023031Y021614
X022717Y020669
X023043Y020327
X021614Y020039
X020472Y020118
X019803Y019724
X020482Y018829
X020758Y019085
X021033Y019341
X022008Y018583
X022717Y018307
X023071
X022598Y017283
Y016102
X019803Y017913
X019488Y018268
X018201Y017587
X017913Y017244
X017638Y016929
X015906Y01748
X016102Y018858
X016102Y020315
X01748Y022205
Y023031
Y02378
X018071Y024724
X018543Y025236
X019252Y025748
Y024724
Y023031
X019488Y021614
X018524Y021909
X021024Y021339
X020748Y020984
X020906Y023976
X021339Y024449
X021693Y024213
X021339Y025315
X020896Y025226
X021693Y026181
X023307Y026417
X023583Y026654
Y024685
X023307Y024449
X024331Y023976
X024567Y024961
X026142
X025945Y024213
X026732Y023898
X025931Y022624
X024764Y022992
X024882Y018819
X02436Y019085
X027126Y017512
X027913Y015827
X028898Y016142
X028307Y025157
X028622Y02689
X026732Y025984
X025622Y027126
X018071Y026654
X016496Y026339
X015622Y023937
X013346
Y025354
X013937
X012244Y02437
X012559Y02689
X012835Y027126
X012953Y02811
X013346Y028717
X012244Y027717
X012559Y021339
X013937Y021811
X015039Y02122
X015118Y020039
X015512Y019055
X014528Y017087
X013937
X014921Y015827
X012165Y019843
T03
X011575Y014331
X029567
X034803Y01748
X035591Y019449
X032953
Y022795
X034787Y022811
X035591Y022795
X034803Y025354
X032953Y025984
X025453Y026004
X022717Y026024
X021693Y023386
X025453Y021693
X025472Y018858
X029567Y019449
X010591Y018268
X010551Y021417
Y024567
Y027717
T04
X010787Y013331
Y014331
Y015331
X016787
Y014331
Y013331
X020039Y012756
X021024
X022008
X022992
X023976
X024961
X025945
X026929Y012756
X027913Y012756
X028898
Y011756
X027913
X026929Y011756
X025945Y011756
X024961
X023976
X022992
X022008
X021024
X020039
Y010756
X021024
X022008
X022992
X023976
X024961
X025945
X026929Y010756
X027913Y010756
X028898
X030866Y015512
X033425
X036378Y01548
Y01648
Y01748
Y01848
Y020811
Y021811
Y022811
Y023811
X033819
Y022811
Y021811
Y020811
X03126
Y021811
Y022811
Y023811
X031622Y027717
Y028717
X032622
X033622
Y027717
X032622
X033425Y017512
Y016512
X030866
Y017512
X030622Y027717
Y028717
X029622
X028622
X027622
X026622
X025622
X024622
X023622
X022622
X021622
X020622
X019622
X018622
X017622
X016622
Y027717
X017622
X018622
X019622
X020622
X021622
X022622
X023622
X024622
X025622
X026622
X027622
X028622
X029622
X016787Y016331
X014134Y018268
Y019268
X011575Y019268
Y018268
X010787Y016331
X011575Y021402
Y022402
Y024567
Y025567
Y027717
Y028717
X014622
X015622
Y027717
X014622
T05
X011378Y011378
X036181
M30
